<svg xmlns="http://www.w3.org/2000/svg" width="1188.238" height="884.402" viewBox="0 0 1188.238 884.402" class="col-8 col-lg-12 d-block img-fluid ml-auto mr-auto">
                            <g id="Discuss_product_requirements" data-name="Discuss product requirements" transform="translate(-205.9 -143.798)">
                                <path id="Path_1826" data-name="Path 1826" d="M1322.9,1027,1391,741.8a105.383,105.383,0,0,0-.1-49L1289,277.5a55.12,55.12,0,0,0-45.9-41.4L581,144.5a54.946,54.946,0,0,0-44.7,14L231.6,438.4a55.215,55.215,0,0,0-17.8,41.3l7.6,547.4H1322.9Z" fill="#f4f4f4"/>
                                <path id="Path_1827" data-name="Path 1827" d="M1323.2,1026.9l68.1-285.2a105.384,105.384,0,0,0-.1-49L1289.4,277.3a55.12,55.12,0,0,0-45.9-41.4L581.4,144.3a54.946,54.946,0,0,0-44.7,14l-304.8,280a55.215,55.215,0,0,0-17.8,41.3l7.6,547.4H1323.2Z" fill="#f4f4f4"/>
                                <path id="Path_1828" data-name="Path 1828" d="M1216.7,794.1h-51.9a2.648,2.648,0,0,1,2.6,2.6H1210v2.6h6.7a2.648,2.648,0,0,0,2.6-2.6A2.582,2.582,0,0,0,1216.7,794.1Z" fill="#b2b6bb"/>
                                <path id="Path_1829" data-name="Path 1829" d="M1164.8,799.3h-5.6l8.2,5.4h-8.2V979.2H1210V799.3Z" fill="#b2b6bb"/>
                                <path id="Path_1830" data-name="Path 1830" d="M1167.4,796.8a2.648,2.648,0,0,1-2.6,2.6H1210v-2.6Z" fill="#b2b6bb"/>
                                <path id="Path_1831" data-name="Path 1831" d="M839.7,916.2v49.6h172.5V916.2Zm143.5,17.2a5.73,5.73,0,0,1-1.1,1.1,4.1,4.1,0,0,1-2.2.7,1.7,1.7,0,0,1-.7-.1,5182.815,5182.815,0,0,0-.6-.2,3.979,3.979,0,0,1,0-7.6.368.368,0,0,0,.3-.1c.1,0,.2-.1.3-.1.2,0,.5-.1.7-.1a2.2,2.2,0,0,1,.8.1,1.854,1.854,0,0,1,.7.2,4.814,4.814,0,0,1,1.6,1.2,3.458,3.458,0,0,1,.7,1.2,3.178,3.178,0,0,1,.2,1.4A4.756,4.756,0,0,1,983.2,933.4Z" fill="#dadddf"/>
                                <path id="Path_1832" data-name="Path 1832" d="M838.6,966.9V815.3h173.7V803.4l-181.2-1.6V979.2h181.2V966.9Z" fill="#dadddf"/>
                                <path id="Path_1833" data-name="Path 1833" d="M1012.3,816.5H839.7v48.4h172.5V816.5Zm-28.7,16.7a7.458,7.458,0,0,1-.7,1.2,4.813,4.813,0,0,1-1.6,1.2,1.445,1.445,0,0,1-.7.2,2.2,2.2,0,0,1-.8.1,1.482,1.482,0,0,1-.7-.1,1726.937,1726.937,0,0,1-.6-.2,3.979,3.979,0,0,1,0-7.6.367.367,0,0,0,.3-.1c.1,0,.2-.1.3-.1.2,0,.5-.1.7-.1a2.2,2.2,0,0,1,.8.1,4.352,4.352,0,0,1,1.9,1l.1.1a4.01,4.01,0,0,1,1.2,2.8A2.4,2.4,0,0,1,983.6,833.2Z" fill="#dadddf"/>
                                <path id="Path_1834" data-name="Path 1834" d="M1012.3,866H839.7v49h172.5V866Zm-28.7,16.4a7.455,7.455,0,0,1-.7,1.2,4.813,4.813,0,0,1-1.6,1.2,1.445,1.445,0,0,1-.7.2,2.2,2.2,0,0,1-.8.1,1.483,1.483,0,0,1-.7-.1,1726.937,1726.937,0,0,1-.6-.2,3.979,3.979,0,0,1,0-7.6.367.367,0,0,0,.3-.1c.1,0,.2-.1.3-.1.2,0,.5-.1.7-.1a2.2,2.2,0,0,1,.8.1,1.853,1.853,0,0,1,.7.2,4.813,4.813,0,0,1,1.6,1.2,3.457,3.457,0,0,1,.7,1.2,5,5,0,0,1,0,2.8Z" fill="#dadddf"/>
                                <path id="Path_1835" data-name="Path 1835" d="M1012.3,803.4v11.9h138.8V966.9H1012.3v12.3h146.9V804.7Z" fill="#dadddf"/>
                                <path id="Path_1836" data-name="Path 1836" d="M1149.9,916.2H1012.3v49.6h137.6Z" fill="#dadddf"/>
                                <path id="Path_1837" data-name="Path 1837" d="M1149.9,866H1012.3v49h137.6Z" fill="#dadddf"/>
                                <path id="Path_1838" data-name="Path 1838" d="M1149.9,816.5H1012.3v48.4h137.6Z" fill="#dadddf"/>
                                <path id="Path_1839" data-name="Path 1839" d="M838.6,864.9h1.1V816.5h172.6v-1.2H838.6Z" fill="#b2b6bb"/>
                                <path id="Path_1840" data-name="Path 1840" d="M839.7,965.7V916.2h-1.1v50.7h173.7v-1.2Z" fill="#b2b6bb"/>
                                <path id="Path_1841" data-name="Path 1841" d="M839.8,866h-1.2v49h1.2Z" fill="#b2b6bb"/>
                                <path id="Path_1842" data-name="Path 1842" d="M1149.9,816.5v48.4h1.2V815.3H1012.3v1.2Z" fill="#b2b6bb"/>
                                <path id="Path_1843" data-name="Path 1843" d="M1151.1,866h-1.2v49h1.2Z" fill="#b2b6bb"/>
                                <path id="Path_1844" data-name="Path 1844" d="M1149.9,965.7H1012.3v1.2h138.8V916.2h-1.2Z" fill="#b2b6bb"/>
                                <path id="Path_1845" data-name="Path 1845" d="M1012.3,796.8h152.5v-2.6H825.1a2.6,2.6,0,0,0,0,5.2H831v-2.6Z" fill="#dadddf"/>
                                <path id="Path_1846" data-name="Path 1846" d="M1164.8,796.8h2.6a2.647,2.647,0,0,0-2.6-2.6h-.1v2.6Z" fill="#dadddf"/>
                                <path id="Path_1847" data-name="Path 1847" d="M1164.8,796.8h-5.6v2.6h5.6Z" fill="#dadddf"/>
                                <path id="Path_1848" data-name="Path 1848" d="M1164.8,799.3a2.582,2.582,0,0,0,2.6-2.6h-2.6Z" fill="#dadddf"/>
                                <path id="Path_1849" data-name="Path 1849" d="M1012.3,796.8H831.1v2.6h181.2Z" fill="#dadddf"/>
                                <path id="Path_1850" data-name="Path 1850" d="M1159.2,796.8H1012.3v2.6h146.9Z" fill="#dadddf"/>
                                <path id="Path_1851" data-name="Path 1851" d="M1012.2,915H839.7v1.2h172.5Z" fill="#b2b6bb"/>
                                <path id="Path_1852" data-name="Path 1852" d="M1149.9,915H1012.3v1.2h137.6Z" fill="#b2b6bb"/>
                                <path id="Path_1853" data-name="Path 1853" d="M839.8,915h-1.2v1.2h1.2Z" fill="#b2b6bb"/>
                                <path id="Path_1854" data-name="Path 1854" d="M1151.1,915h-1.2v1.2h1.2Z" fill="#b2b6bb"/>
                                <path id="Path_1855" data-name="Path 1855" d="M1012.2,864.9H839.7v1.2h172.5Z" fill="#b2b6bb"/>
                                <path id="Path_1856" data-name="Path 1856" d="M1149.9,864.9H1012.3v1.2h137.6Z" fill="#b2b6bb"/>
                                <path id="Path_1857" data-name="Path 1857" d="M839.8,864.9h-1.2v1.2h1.2Z" fill="#b2b6bb"/>
                                <path id="Path_1858" data-name="Path 1858" d="M1151.1,864.9h-1.2v1.2h1.2Z" fill="#b2b6bb"/>
                                <path id="Path_1859" data-name="Path 1859" d="M983.9,831.9a3.631,3.631,0,0,0-1.2-2.8A3.832,3.832,0,0,1,983.9,831.9Z" fill="#b2b6bb"/>
                                <path id="Path_1860" data-name="Path 1860" d="M981.3,831.9a3.905,3.905,0,0,0-2.7-3.8,3.979,3.979,0,0,0,0,7.6A4.1,4.1,0,0,0,981.3,831.9Z" fill="#b2b6bb"/>
                                <path id="Path_1861" data-name="Path 1861" d="M978.6,828.1a.368.368,0,0,0,.3-.1C978.7,828,978.6,828,978.6,828.1Z" fill="#dadddf"/>
                                <path id="Path_1862" data-name="Path 1862" d="M978.6,828.1a.368.368,0,0,0,.3-.1C978.7,828,978.6,828,978.6,828.1Z" opacity="0.15"/>
                                <path id="Path_1863" data-name="Path 1863" d="M978.6,835.7a.368.368,0,0,1,.3.1C978.7,835.7,978.7,835.7,978.6,835.7Z" fill="#dadddf"/>
                                <path id="Path_1864" data-name="Path 1864" d="M978.6,835.7a.368.368,0,0,1,.3.1C978.7,835.7,978.7,835.7,978.6,835.7Z" opacity="0.15"/>
                                <path id="Path_1865" data-name="Path 1865" d="M982.6,828.9a3.52,3.52,0,0,0-1.9-1,2.2,2.2,0,0,0-.8-.1,1.482,1.482,0,0,0-.7.1.367.367,0,0,0-.3.1c-.1,0-.2,0-.2.1a4.024,4.024,0,0,1,0,7.6.349.349,0,0,1,.2.1c.1,0,.2.1.3.1.2,0,.5.1.7.1a2.2,2.2,0,0,0,.8-.1,1.854,1.854,0,0,0,.7-.2,4.814,4.814,0,0,0,1.6-1.2,3.458,3.458,0,0,0,.7-1.2,3.178,3.178,0,0,0,.2-1.4,3.631,3.631,0,0,0-1.2-2.8C982.6,829,982.6,829,982.6,828.9Z" fill="#b2b6bb"/>
                                <path id="Path_1866" data-name="Path 1866" d="M982.6,828.9a3.52,3.52,0,0,0-1.9-1,2.2,2.2,0,0,0-.8-.1,1.482,1.482,0,0,0-.7.1.367.367,0,0,0-.3.1c-.1,0-.2,0-.2.1a4.024,4.024,0,0,1,0,7.6.349.349,0,0,1,.2.1c.1,0,.2.1.3.1.2,0,.5.1.7.1a2.2,2.2,0,0,0,.8-.1,1.854,1.854,0,0,0,.7-.2,4.814,4.814,0,0,0,1.6-1.2,3.458,3.458,0,0,0,.7-1.2,3.178,3.178,0,0,0,.2-1.4,3.631,3.631,0,0,0-1.2-2.8C982.6,829,982.6,829,982.6,828.9Z" opacity="0.15"/>
                                <path id="Path_1867" data-name="Path 1867" d="M981.3,881.1a3.905,3.905,0,0,0-2.7-3.8,3.979,3.979,0,0,0,0,7.6A4.1,4.1,0,0,0,981.3,881.1Z" fill="#b2b6bb"/>
                                <path id="Path_1868" data-name="Path 1868" d="M978.6,877.2h0a.367.367,0,0,0,.3-.1A.774.774,0,0,1,978.6,877.2Z" fill="#dadddf"/>
                                <path id="Path_1869" data-name="Path 1869" d="M978.6,877.2h0a.367.367,0,0,0,.3-.1A.774.774,0,0,1,978.6,877.2Z" opacity="0.15"/>
                                <path id="Path_1870" data-name="Path 1870" d="M978.6,884.9a.368.368,0,0,1,.3.1c-.2-.1-.2-.1-.3-.1Z" fill="#dadddf"/>
                                <path id="Path_1871" data-name="Path 1871" d="M978.6,884.9a.368.368,0,0,1,.3.1c-.2-.1-.2-.1-.3-.1Z" opacity="0.15"/>
                                <path id="Path_1872" data-name="Path 1872" d="M982.9,878.5a4.813,4.813,0,0,0-1.6-1.2,1.446,1.446,0,0,0-.7-.2,2.2,2.2,0,0,0-.8-.1,1.483,1.483,0,0,0-.7.1.367.367,0,0,0-.3.1c-.1,0-.2,0-.2.1a4.024,4.024,0,0,1,0,7.6.349.349,0,0,1,.2.1c.1,0,.2.1.3.1.2,0,.5.1.7.1a2.2,2.2,0,0,0,.8-.1,1.854,1.854,0,0,0,.7-.2,4.814,4.814,0,0,0,1.6-1.2,3.457,3.457,0,0,0,.7-1.2,3.178,3.178,0,0,0,.2-1.4,5.9,5.9,0,0,0-.2-1.4A2.4,2.4,0,0,0,982.9,878.5Z" fill="#b2b6bb"/>
                                <path id="Path_1873" data-name="Path 1873" d="M982.9,878.5a4.813,4.813,0,0,0-1.6-1.2,1.446,1.446,0,0,0-.7-.2,2.2,2.2,0,0,0-.8-.1,1.483,1.483,0,0,0-.7.1.367.367,0,0,0-.3.1c-.1,0-.2,0-.2.1a4.024,4.024,0,0,1,0,7.6.349.349,0,0,1,.2.1c.1,0,.2.1.3.1.2,0,.5.1.7.1a2.2,2.2,0,0,0,.8-.1,1.854,1.854,0,0,0,.7-.2,4.814,4.814,0,0,0,1.6-1.2,3.457,3.457,0,0,0,.7-1.2,3.178,3.178,0,0,0,.2-1.4,5.9,5.9,0,0,0-.2-1.4A2.4,2.4,0,0,0,982.9,878.5Z" opacity="0.15"/>
                                <path id="Path_1874" data-name="Path 1874" d="M981.3,931.1a3.905,3.905,0,0,0-2.7-3.8,3.979,3.979,0,0,0,0,7.6A3.905,3.905,0,0,0,981.3,931.1Z" fill="#b2b6bb"/>
                                <path id="Path_1875" data-name="Path 1875" d="M982.1,934.4a5.731,5.731,0,0,0,1.1-1.1A2.892,2.892,0,0,1,982.1,934.4Z" fill="#b2b6bb"/>
                                <path id="Path_1876" data-name="Path 1876" d="M978.6,927.3a.368.368,0,0,0,.3-.1A.774.774,0,0,1,978.6,927.3Z" fill="#dadddf"/>
                                <path id="Path_1877" data-name="Path 1877" d="M978.6,927.3a.368.368,0,0,0,.3-.1A.774.774,0,0,1,978.6,927.3Z" opacity="0.15"/>
                                <path id="Path_1878" data-name="Path 1878" d="M978.6,934.9a.368.368,0,0,1,.3.1C978.7,935,978.7,934.9,978.6,934.9Z" fill="#dadddf"/>
                                <path id="Path_1879" data-name="Path 1879" d="M978.6,934.9a.368.368,0,0,1,.3.1C978.7,935,978.7,934.9,978.6,934.9Z" opacity="0.15"/>
                                <path id="Path_1880" data-name="Path 1880" d="M982.9,928.6a4.813,4.813,0,0,0-1.6-1.2,1.445,1.445,0,0,0-.7-.2,2.2,2.2,0,0,0-.8-.1,1.482,1.482,0,0,0-.7.1.367.367,0,0,0-.3.1c-.1,0-.2,0-.2.1a4.024,4.024,0,0,1,0,7.6.349.349,0,0,1,.2.1c.1,0,.2.1.3.1.2,0,.5.1.7.1a4.1,4.1,0,0,0,2.2-.7,5.728,5.728,0,0,0,1.1-1.1,4.1,4.1,0,0,0,.7-2.2,5.9,5.9,0,0,0-.2-1.4A2.327,2.327,0,0,0,982.9,928.6Z" fill="#b2b6bb"/>
                                <path id="Path_1881" data-name="Path 1881" d="M982.9,928.6a4.813,4.813,0,0,0-1.6-1.2,1.445,1.445,0,0,0-.7-.2,2.2,2.2,0,0,0-.8-.1,1.482,1.482,0,0,0-.7.1.367.367,0,0,0-.3.1c-.1,0-.2,0-.2.1a4.024,4.024,0,0,1,0,7.6.349.349,0,0,1,.2.1c.1,0,.2.1.3.1.2,0,.5.1.7.1a4.1,4.1,0,0,0,2.2-.7,5.728,5.728,0,0,0,1.1-1.1,4.1,4.1,0,0,0,.7-2.2,5.9,5.9,0,0,0-.2-1.4A2.327,2.327,0,0,0,982.9,928.6Z" opacity="0.15"/>
                                <path id="Path_1882" data-name="Path 1882" d="M1167.4,804.7l-8.2-5.4v5.4Z" fill="#b2b6bb"/>
                                <path id="Path_1883" data-name="Path 1883" d="M1012.3,799.3H831.1v2.5l181.2,1.6Z" fill="#b2b6bb"/>
                                <path id="Path_1884" data-name="Path 1884" d="M1012.3,803.4l146.9,1.3v-5.4H1012.3Z" fill="#b2b6bb"/>
                                <path id="Path_1885" data-name="Path 1885" d="M1193.3,1004l5.4,21.3a2.674,2.674,0,0,0,2.5,1.8,2.959,2.959,0,0,0,1-.2l-4-21.6Z" fill="#dadddf"/>
                                <path id="Path_1886" data-name="Path 1886" d="M1187,979.2l6.3,24.8Z" fill="#b2b6bb"/>
                                <path id="Path_1887" data-name="Path 1887" d="M1193.3,1004l4.9,1.2,4,21.6c.1,0,.1-.1.2-.1a.349.349,0,0,0,.2-.1c.1,0,.1-.1.2-.1l.2-.2.1-.1c.1-.1.2-.3.3-.4a.1.1,0,0,1,.1-.1c0-.1.1-.2.1-.3v-.2a.756.756,0,0,1,.1-.4v-.2a.75.75,0,0,0-.1-.5l-3.7-41-.3-3.7H1187Z" fill="#b2b6bb"/>
                                <path id="Path_1888" data-name="Path 1888" d="M1142.6,982.8l-1.2-3.6,11.7,46a2.674,2.674,0,0,0,2.5,1.8,2.959,2.959,0,0,0,1-.2l-6.8-42.7Z" fill="#dadddf"/>
                                <path id="Path_1889" data-name="Path 1889" d="M1158.2,1024.4v-.5l-3.7-41,3.7,41Z" fill="#b2b6bb"/>
                                <path id="Path_1890" data-name="Path 1890" d="M1141.4,979.2l1.2,3.6,7.2,1.4,6.8,42.7c.1,0,.1-.1.2-.1a.349.349,0,0,0,.2-.1c.1,0,.1-.1.2-.1l.2-.2.1-.1c.1-.1.2-.3.3-.4a.1.1,0,0,1,.1-.1c0-.1.1-.2.1-.3v-.2a.756.756,0,0,1,.1-.4v-.2a.75.75,0,0,0-.1-.5l-3.7-41-.3-3.7Z" fill="#b2b6bb"/>
                                <path id="Path_1891" data-name="Path 1891" d="M888,1003l-4.3-1.1-2,22a2.693,2.693,0,0,0,2.6,3.2h-.1Z" fill="#dadddf"/>
                                <path id="Path_1892" data-name="Path 1892" d="M885.8,1026.6a2.694,2.694,0,0,1-1.5.5A3.8,3.8,0,0,0,885.8,1026.6Z" fill="#b2b6bb"/>
                                <path id="Path_1893" data-name="Path 1893" d="M886.8,1025.3a.758.758,0,0,1-.2.4c.1-.2.1-.3.2-.4l11.7-46Z" fill="#b2b6bb"/>
                                <path id="Path_1894" data-name="Path 1894" d="M898.5,979.2H885.8l-2.1,22.7,4.3,1.1-3.8,24h.1a2.456,2.456,0,0,0,1.5-.5,3.4,3.4,0,0,0,.6-.6c.1-.1.2-.2.2-.3.1-.1.1-.2.2-.4Z" fill="#b2b6bb"/>
                                <path id="Path_1895" data-name="Path 1895" d="M843.9,983.1l-5.2-1-3.8,41.8a2.693,2.693,0,0,0,2.6,3.2h-.1Z" fill="#dadddf"/>
                                <path id="Path_1896" data-name="Path 1896" d="M838.6,1026.8a1.884,1.884,0,0,1-.8.2A1.884,1.884,0,0,0,838.6,1026.8Z" fill="#b2b6bb"/>
                                <path id="Path_1897" data-name="Path 1897" d="M838.3,982.1h.4l.2-2.9Z" fill="#b2b6bb"/>
                                <path id="Path_1898" data-name="Path 1898" d="M838.9,979.2l-.3,2.9,5.2,1-6.6,43.9h.5a2.354,2.354,0,0,0,.8-.2c.1-.1.2-.1.3-.2a3.391,3.391,0,0,0,.6-.6,2.507,2.507,0,0,0,.4-.7l11.7-46Z" fill="#b2b6bb"/>
                                <path id="Path_1899" data-name="Path 1899" d="M980.1,401.4c.4-14.9,1.1-46.5,1.5-61.4a8.24,8.24,0,0,0-8-8.4l-61.4-1.5a8.24,8.24,0,0,0-8.4,8l-1.5,61.4a8.24,8.24,0,0,0,8,8.4c14.9.4,46.5,1.1,61.4,1.5A8.3,8.3,0,0,0,980.1,401.4Z" fill="#ddd"/>
                                <path id="Path_1900" data-name="Path 1900" d="M980.1,401.4c.4-14.9,1.1-46.5,1.5-61.4a8.24,8.24,0,0,0-8-8.4l-61.4-1.5a8.24,8.24,0,0,0-8.4,8l-1.5,61.4a8.24,8.24,0,0,0,8,8.4c14.9.4,46.5,1.1,61.4,1.5A8.3,8.3,0,0,0,980.1,401.4Z" fill="none" stroke="#858990" stroke-miterlimit="10" stroke-width="1.356" stroke-dasharray="2.4 2.4"/>
                                <path id="Path_1901" data-name="Path 1901" d="M968.9,386.4c-1-14.9-3-46.4-4-61.3a8.17,8.17,0,0,0-8.7-7.6l-61.3,4a8.17,8.17,0,0,0-7.6,8.7l4,61.3a8.17,8.17,0,0,0,8.7,7.6c14.9-1,46.4-3,61.3-4A8.111,8.111,0,0,0,968.9,386.4Z" fill="#fff"/>
                                <path id="Path_1902" data-name="Path 1902" d="M926,340.4l-4.1,11.4a.961.961,0,0,1-.9.7l-11.9,2a1.114,1.114,0,0,0-.5,2l9.5,7.4a1.19,1.19,0,0,1,.4,1.1l-1.8,12a1.089,1.089,0,0,0,1.7,1.1l10-6.8a1.1,1.1,0,0,1,1.1-.1l10.8,5.4a1.133,1.133,0,0,0,1.6-1.3l-3.3-11.6a1.128,1.128,0,0,1,.3-1.1l8.5-8.6a1.115,1.115,0,0,0-.8-1.9l-12.1-.4a1.1,1.1,0,0,1-1-.6l-5.6-10.7A.99.99,0,0,0,926,340.4Z" fill="#858990"/>
                                <path id="Path_1903" data-name="Path 1903" d="M823.3,620.4H665a4.225,4.225,0,0,1-4.2-4.2v-88A4.225,4.225,0,0,1,665,524H823.2a4.225,4.225,0,0,1,4.2,4.2v88A4.078,4.078,0,0,1,823.3,620.4Z" fill="#858990"/>
                                <path id="Path_1904" data-name="Path 1904" d="M819.5,620.4H661.3a4.225,4.225,0,0,1-4.2-4.2v-88a4.225,4.225,0,0,1,4.2-4.2H819.5a4.225,4.225,0,0,1,4.2,4.2v88A4.225,4.225,0,0,1,819.5,620.4Z" fill="#ddd"/>
                                <path id="Path_1905" data-name="Path 1905" d="M709.7,552.1h-5.9l-14.7,20.7,14.7,20.7h5.9l5.7-5.7-15-15,15-15Z" fill="#858990"/>
                                <path id="Path_1906" data-name="Path 1906" d="M703.8,552.1l-20.7,20.7,20.7,20.7,5.7-5.7-15-15,15-15Z" fill="#3f4249"/>
                                <path id="Path_1907" data-name="Path 1907" d="M779.4,552.1h-5.9l.7,6.2,14.5,14.5-14.5,14.5-.7,6.2h5.9l20.7-20.7Z" fill="#858990"/>
                                <path id="Path_1908" data-name="Path 1908" d="M773.5,552.1l-5.7,5.7,15,15-15,15,5.7,5.7,20.7-20.7Z" fill="#3f4249"/>
                                <path id="Path_1909" data-name="Path 1909" d="M745.2,536.4l-20.5,70.2h5.9l28-67.1-7.5-3.1Z" fill="#858990"/>
                                <path id="Path_1910" data-name="Path 1910" d="M717.2,603.5l7.5,3.1,28-67.1-7.5-3.1Z" fill="#3f4249"/>
                                <path id="Path_1911" data-name="Path 1911" d="M1306.3,647a30.4,30.4,0,1,1,30.4-30.4A30.386,30.386,0,0,1,1306.3,647Z" fill="#ddd"/>
                                <path id="Path_1912" data-name="Path 1912" d="M1315.2,613a3.168,3.168,0,0,0-2.3.9l-9.8-5.7c0-.2.1-.4.1-.6a3.7,3.7,0,0,0-7.4,0,3.63,3.63,0,0,0,3.7,3.7,3.168,3.168,0,0,0,2.3-.9l9.8,5.7c0,.2-.1.4-.1.6a1.269,1.269,0,0,0,.1.6l-9.8,5.7a3.642,3.642,0,0,0-2.3-.9,3.691,3.691,0,0,0-3.7,3.7,3.63,3.63,0,0,0,3.7,3.7,3.691,3.691,0,0,0,3.7-3.7,1.269,1.269,0,0,0-.1-.6l9.8-5.7a3.641,3.641,0,0,0,2.3.9,3.7,3.7,0,1,0,0-7.4Z" fill="#858990"/>
                                <path id="Path_1913" data-name="Path 1913" d="M1103.8,369.1V530a4.012,4.012,0,0,0,4,4h247.1a4.012,4.012,0,0,0,4-4V369.1a4.012,4.012,0,0,0-4-4H1107.8A4.012,4.012,0,0,0,1103.8,369.1Z" fill="#ec4969"/>
                                <path id="Path_1914" data-name="Path 1914" d="M1103.8,369.1V530a4.012,4.012,0,0,0,4,4h247.1a4.012,4.012,0,0,0,4-4V369.1a4.012,4.012,0,0,0-4-4H1107.8A4.012,4.012,0,0,0,1103.8,369.1Z" fill="#fff" opacity="0.3"/>
                                <path id="Path_1915" data-name="Path 1915" d="M1099.3,369.1V530a4.012,4.012,0,0,0,4,4h247.1a4.012,4.012,0,0,0,4-4V369.1a4.012,4.012,0,0,0-4-4H1103.3A3.949,3.949,0,0,0,1099.3,369.1Z" fill="#ec4969"/>
                                <path id="Path_1916" data-name="Path 1916" d="M1099.3,369.1V530a4.012,4.012,0,0,0,4,4h247.1a4.012,4.012,0,0,0,4-4V369.1a4.012,4.012,0,0,0-4-4H1103.3A3.949,3.949,0,0,0,1099.3,369.1Z" fill="#fff" opacity="0.7"/>
                                <path id="Path_1917" data-name="Path 1917" d="M1249.8,449.6a29,29,0,1,1-29-29A29.021,29.021,0,0,1,1249.8,449.6Z" fill="#ec4969"/>
                                <path id="Path_1918" data-name="Path 1918" d="M1215.1,461.8V437.3l18.2,12.3Z" fill="#fff"/>
                                <path id="Path_1919" data-name="Path 1919" d="M1350.4,534H1103.2a3.9,3.9,0,0,1-3.9-3.9V519.5h255.1v10.6A4.06,4.06,0,0,1,1350.4,534Z" fill="#fff"/>
                                <path id="Path_1920" data-name="Path 1920" d="M1328.9,525.7H1117.1v2.6h211.8Z" fill="#b1b5ba"/>
                                <path id="Path_1921" data-name="Path 1921" d="M1110.2,530.9h-6.7a.86.86,0,0,1-.8-.8v-6.7a.86.86,0,0,1,.8-.8h6.7a.86.86,0,0,1,.8.8v6.7A.736.736,0,0,1,1110.2,530.9Z" fill="#b1b5ba"/>
                                <path id="Path_1922" data-name="Path 1922" d="M1106.3,524.7h-1.2v4.1h1.2Z" fill="#61656d"/>
                                <path id="Path_1923" data-name="Path 1923" d="M1108.5,524.7h-1.2v4.1h1.2Z" fill="#61656d"/>
                                <path id="Path_1924" data-name="Path 1924" d="M1350.5,531.2h-6.7a.86.86,0,0,1-.8-.8v-6.7a.86.86,0,0,1,.8-.8h6.7a.86.86,0,0,1,.8.8v6.7A.789.789,0,0,1,1350.5,531.2Z" fill="#c7c7c7"/>
                                <path id="Path_1925" data-name="Path 1925" d="M1345.8,526h-1.6v2h1.6Z" fill="#61656d"/>
                                <path id="Path_1926" data-name="Path 1926" d="M1347.6,529.4l-2.4-1.3V526l2.4-1.3Z" fill="#61656d"/>
                                <path id="Path_1927" data-name="Path 1927" d="M1348.8,525.5l.4-.4a2.751,2.751,0,0,1,.8,1.5,2.474,2.474,0,0,1-.8,2.3l-.4-.4a2.036,2.036,0,0,0,.6-1.5A1.5,1.5,0,0,0,1348.8,525.5Z" fill="#61656d"/>
                                <path id="Path_1928" data-name="Path 1928" d="M1348.5,528.2l-.4-.4a1.216,1.216,0,0,0,0-1.6l.4-.4A1.825,1.825,0,0,1,1348.5,528.2Z" fill="#61656d"/>
                                <path id="Path_1929" data-name="Path 1929" d="M1159.7,527.1a2.01,2.01,0,0,0,.4,1.3h-43.3v-2.6h43.3A1.844,1.844,0,0,0,1159.7,527.1Z" fill="#61656d"/>
                                <path id="Path_1930" data-name="Path 1930" d="M1163.8,527.1a3.288,3.288,0,0,1-.4,1.7,4.054,4.054,0,0,1-3.6,2.2,3.793,3.793,0,0,1-3.5-2.2,3.286,3.286,0,0,1-.4-1.7,4.709,4.709,0,0,1,.4-1.7,3.9,3.9,0,0,1,3.5-2.2,3.793,3.793,0,0,1,3.5,2.2A2.458,2.458,0,0,1,1163.8,527.1Z" fill="#61656d"/>
                                <path id="Path_1931" data-name="Path 1931" d="M1108.2,375.9a2.5,2.5,0,1,0-2.5-2.5A2.5,2.5,0,0,0,1108.2,375.9Z" fill="#ec4969"/>
                                <path id="Path_1932" data-name="Path 1932" d="M1117.4,375.9a2.5,2.5,0,1,0-2.5-2.5A2.5,2.5,0,0,0,1117.4,375.9Z" fill="#61656d"/>
                                <path id="Path_1933" data-name="Path 1933" d="M1126.5,375.9a2.5,2.5,0,1,0-2.5-2.5A2.5,2.5,0,0,0,1126.5,375.9Z" fill="#21252b"/>
                                <path id="Path_1934" data-name="Path 1934" d="M1132.6,665.6h102.9a7.17,7.17,0,0,1,7.2,7.2V808.2a7.17,7.17,0,0,1-7.2,7.2H1132.6a7.17,7.17,0,0,1-7.2-7.2V672.8A7.234,7.234,0,0,1,1132.6,665.6Z" fill="#b1b5ba"/>
                                <path id="Path_1935" data-name="Path 1935" d="M1129.2,665.6h102.9a7.17,7.17,0,0,1,7.2,7.2V808.2a7.17,7.17,0,0,1-7.2,7.2H1129.2a7.17,7.17,0,0,1-7.2-7.2V672.8A7.234,7.234,0,0,1,1129.2,665.6Z" fill="#fff"/>
                                <path id="Path_1936" data-name="Path 1936" d="M1205.1,741.3h-49a3.585,3.585,0,0,1-3.6-3.6v-49a3.585,3.585,0,0,1,3.6-3.6h49a3.585,3.585,0,0,1,3.6,3.6v49A3.585,3.585,0,0,1,1205.1,741.3Z" fill="#ec4969"/>
                                <path id="Path_1937" data-name="Path 1937" d="M1205.1,741.3h-49a3.585,3.585,0,0,1-3.6-3.6v-49a3.585,3.585,0,0,1,3.6-3.6h49a3.585,3.585,0,0,1,3.6,3.6v49A3.585,3.585,0,0,1,1205.1,741.3Z" fill="#fff" opacity="0.7"/>
                                <path id="Path_1938" data-name="Path 1938" d="M1180.5,703.9a5,5,0,1,0-5-5A5,5,0,0,0,1180.5,703.9Z" fill="#ec4969"/>
                                <path id="Path_1939" data-name="Path 1939" d="M1152.5,737.7V724.2l19-14.2a1.96,1.96,0,0,1,2.5.1l6.6,5.8,13.4-10.5a1.98,1.98,0,0,1,2.6.1l12,10.5v21.8a3.585,3.585,0,0,1-3.6,3.6h-49A3.723,3.723,0,0,1,1152.5,737.7Z" fill="#ec4969"/>
                                <path id="Path_1940" data-name="Path 1940" d="M1210.7,763.7h-60.3a1.793,1.793,0,0,1-1.8-1.8v-3.7a1.793,1.793,0,0,1,1.8-1.8h60.3a1.793,1.793,0,0,1,1.8,1.8v3.7A1.793,1.793,0,0,1,1210.7,763.7Z" fill="#ec4969"/>
                                <path id="Path_1941" data-name="Path 1941" d="M1210.7,763.7h-60.3a1.793,1.793,0,0,1-1.8-1.8v-3.7a1.793,1.793,0,0,1,1.8-1.8h60.3a1.793,1.793,0,0,1,1.8,1.8v3.7A1.793,1.793,0,0,1,1210.7,763.7Z" fill="#fff" opacity="0.3"/>
                                <path id="Path_1942" data-name="Path 1942" d="M1210.7,781.4h-60.2a1.8,1.8,0,1,1,0-3.6h60.2a1.8,1.8,0,1,1,0,3.6Z" fill="#61656d"/>
                                <path id="Path_1943" data-name="Path 1943" d="M1199.9,795.9h-38.6a1.8,1.8,0,1,1,0-3.6h38.6a1.8,1.8,0,0,1,0,3.6Z" fill="#61656d"/>
                                <path id="Path_1944" data-name="Path 1944" d="M581.9,256.1H848.2a8.6,8.6,0,0,1,8.6,8.6V410.6a8.6,8.6,0,0,1-8.6,8.6H581.9a8.6,8.6,0,0,1-8.6-8.6V264.7A8.6,8.6,0,0,1,581.9,256.1Z" fill="#ec4969"/>
                                <path id="Path_1945" data-name="Path 1945" d="M581.9,256.1H848.2a8.6,8.6,0,0,1,8.6,8.6V410.6a8.6,8.6,0,0,1-8.6,8.6H581.9a8.6,8.6,0,0,1-8.6-8.6V264.7A8.6,8.6,0,0,1,581.9,256.1Z" fill="#fff" opacity="0.2"/>
                                <path id="Path_1946" data-name="Path 1946" d="M577.8,256.1H844.1a8.6,8.6,0,0,1,8.6,8.6V410.6a8.6,8.6,0,0,1-8.6,8.6H577.8a8.6,8.6,0,0,1-8.6-8.6V264.7A8.536,8.536,0,0,1,577.8,256.1Z" fill="#ec4969"/>
                                <path id="Path_1947" data-name="Path 1947" d="M577.8,256.1H844.1a8.6,8.6,0,0,1,8.6,8.6V410.6a8.6,8.6,0,0,1-8.6,8.6H577.8a8.6,8.6,0,0,1-8.6-8.6V264.7A8.536,8.536,0,0,1,577.8,256.1Z" fill="#fff" opacity="0.6"/>
                                <path id="Path_1948" data-name="Path 1948" d="M819.8,376.6H752a5.015,5.015,0,0,1-5-5V303.8a5.015,5.015,0,0,1,5-5h67.8a5.015,5.015,0,0,1,5,5v67.8A5.08,5.08,0,0,1,819.8,376.6Z" fill="#ec4969"/>
                                <path id="Path_1949" data-name="Path 1949" d="M819.8,376.6H752a5.015,5.015,0,0,1-5-5V303.8a5.015,5.015,0,0,1,5-5h67.8a5.015,5.015,0,0,1,5,5v67.8A5.08,5.08,0,0,1,819.8,376.6Z" fill="#ec4969"/>
                                <path id="Path_1950" data-name="Path 1950" d="M819.8,376.6H752a5.015,5.015,0,0,1-5-5V303.8a5.015,5.015,0,0,1,5-5h67.8a5.015,5.015,0,0,1,5,5v67.8A5.08,5.08,0,0,1,819.8,376.6Z" fill="#fff" opacity="0.8"/>
                                <path id="Path_1951" data-name="Path 1951" d="M785.6,324.9a6.9,6.9,0,1,0-6.9-6.9A6.9,6.9,0,0,0,785.6,324.9Z" fill="#fff"/>
                                <path id="Path_1952" data-name="Path 1952" d="M747,371.7V353l26.3-19.6a2.851,2.851,0,0,1,3.5.1l9.1,8L804.4,327a2.863,2.863,0,0,1,3.6.1l16.7,14.6v30.1a5.015,5.015,0,0,1-5,5H752A5.237,5.237,0,0,1,747,371.7Z" fill="#ec4969"/>
                                <path id="Path_1953" data-name="Path 1953" d="M715.8,308.7H600a2.9,2.9,0,0,1-2.9-2.9v-4.2a2.9,2.9,0,0,1,2.9-2.9H715.8a2.9,2.9,0,0,1,2.9,2.9v4.2A2.84,2.84,0,0,1,715.8,308.7Z" fill="#fff"/>
                                <path id="Path_1954" data-name="Path 1954" d="M716.2,334.9H599.6a2.6,2.6,0,0,1,0-5.2H716.2a2.6,2.6,0,0,1,0,5.2Z" fill="#ec4969"/>
                                <path id="Path_1955" data-name="Path 1955" d="M662.9,376.9H599.6a2.6,2.6,0,0,1,0-5.2h63.3a2.6,2.6,0,0,1,0,5.2Z" fill="#ec4969"/>
                                <path id="Path_1956" data-name="Path 1956" d="M716.2,355.9H599.6a2.6,2.6,0,0,1,0-5.2H716.2a2.6,2.6,0,0,1,0,5.2Z" fill="#ec4969"/>
                                <path id="Path_1957" data-name="Path 1957" d="M716.2,334.9H599.6a2.6,2.6,0,0,1,0-5.2H716.2a2.6,2.6,0,0,1,0,5.2Z" fill="#fff" opacity="0.2"/>
                                <path id="Path_1958" data-name="Path 1958" d="M662.9,376.9H599.6a2.6,2.6,0,0,1,0-5.2h63.3a2.6,2.6,0,0,1,0,5.2Z" fill="#fff" opacity="0.2"/>
                                <path id="Path_1959" data-name="Path 1959" d="M716.2,355.9H599.6a2.6,2.6,0,0,1,0-5.2H716.2a2.6,2.6,0,0,1,0,5.2Z" fill="#fff" opacity="0.2"/>
                                <path id="Path_1960" data-name="Path 1960" d="M1138.6,318.3a30.4,30.4,0,1,0-30.4-30.4A30.4,30.4,0,0,0,1138.6,318.3Z" fill="#ddd"/>
                                <path id="Path_1961" data-name="Path 1961" d="M1131,283.8h2.6l5.1-7.6.4-4.3a.985.985,0,0,1,1.4-.8c1.1.5,2.2,2,2.3,6.2v5l7.9.1a1.793,1.793,0,0,1,1.8,1.8c.1,3,.2,9,.2,12.4a5.11,5.11,0,0,1-3.5,5,2.768,2.768,0,0,1-.9.1c-2.1,0-12.9-1.7-12.9-1.7H1131V283.8Z" fill="#858990"/>
                                <path id="Path_1962" data-name="Path 1962" d="M1123.6,283.8l1.6,16.4h4.4V283.8Z" fill="#858990"/>
                                <path id="Path_1963" data-name="Path 1963" d="M887.2,708.4a32.2,32.2,0,1,1,32.2-32.2A32.179,32.179,0,0,1,887.2,708.4Z" fill="#ddd"/>
                                <path id="Path_1964" data-name="Path 1964" d="M897.5,662.4a1.14,1.14,0,1,0-2.2.6v.2l-22.4,12.1a1.114,1.114,0,0,0-1.4-.6,1.138,1.138,0,0,0-.8,1.4l2.9,9.8a1.138,1.138,0,0,0,1.4.8,1.115,1.115,0,0,0,.8-1.3l3.9-.3v1.4a2.582,2.582,0,0,0,2.6,2.6h6.5a2.582,2.582,0,0,0,2.6-2.6v-2.3l9.9-.7v.2a1.14,1.14,0,1,0,2.2-.6Zm-7.9,24.3a.86.86,0,0,1-.8.8h-6.5a.86.86,0,0,1-.8-.8v-1.6l8-.6v2.2Z" fill="#858990"/>
                                <path id="Path_1965" data-name="Path 1965" d="M1339.1,1028.2H206.5a.6.6,0,1,1,0-1.2H1339.2a.53.53,0,0,1,.6.6A.661.661,0,0,1,1339.1,1028.2Z" fill="#b2b6bb"/>
                                <path id="Path_1966" data-name="Path 1966" d="M291,853.5l-5.7,140.8" fill="none" stroke="#21252b" stroke-linecap="round" stroke-miterlimit="10" stroke-width="0.735"/>
                                <path id="Path_1967" data-name="Path 1967" d="M249.6,914.7l25.3,29.7" fill="none" stroke="#21252b" stroke-linecap="round" stroke-miterlimit="10" stroke-width="0.735"/>
                                <path id="Path_1968" data-name="Path 1968" d="M308.5,950l-22.8,34.6" fill="none" stroke="#21252b" stroke-linecap="round" stroke-miterlimit="10" stroke-width="0.735"/>
                                <path id="Path_1969" data-name="Path 1969" d="M319.6,891.9l-31.4,35.9" fill="none" stroke="#21252b" stroke-linecap="round" stroke-miterlimit="10" stroke-width="0.735"/>
                                <path id="Path_1970" data-name="Path 1970" d="M317.481,911.176c7.444-8.749,9.694-19.062,5.025-23.034s-14.488-.1-21.932,8.648-9.694,19.062-5.025,23.034S310.037,919.925,317.481,911.176Z" fill="#ec4969"/>
                                <path id="Path_1971" data-name="Path 1971" d="M322.8,888.5l-27.4,31.2c.1,0,.1.1.2.1,4.7,4,14.5.1,21.9-8.6C324.8,902.7,327.1,892.7,322.8,888.5Z" opacity="0.3"/>
                                <path id="Path_1972" data-name="Path 1972" d="M264.734,932.216c3.618-2.992,1.985-10.937-3.647-17.747s-13.129-9.9-16.747-6.912-1.984,10.937,3.647,17.746S261.116,935.208,264.734,932.216Z" fill="#ec4969"/>
                                <path id="Path_1973" data-name="Path 1973" d="M244.1,907.8l20.7,24.3-.1.1c-3.6,3-11.1-.1-16.8-6.9C242.5,918.7,240.8,910.9,244.1,907.8Z" opacity="0.3"/>
                                <path id="Path_1974" data-name="Path 1974" d="M253.4,955l26.7,20.8" fill="none" stroke="#21252b" stroke-linecap="round" stroke-miterlimit="10" stroke-width="0.735"/>
                                <path id="Path_1975" data-name="Path 1975" d="M271.75,969.064c2.932-3.665-.285-11.112-7.185-16.631s-14.872-7.022-17.8-3.356.285,11.112,7.186,16.631S268.818,972.73,271.75,969.064Z" fill="#ec4969"/>
                                <path id="Path_1976" data-name="Path 1976" d="M246.6,949.4,271.8,969l-.1.1c-2.9,3.7-10.9,2.2-17.8-3.3C247.2,960.4,244,953.1,246.6,949.4Z" opacity="0.3"/>
                                <path id="Path_1977" data-name="Path 1977" d="M301.433,864.087c.521-11.476-3.931-21-9.945-21.274s-11.312,8.809-11.833,20.285,3.931,21,9.945,21.274S300.911,875.563,301.433,864.087Z" fill="#ec4969"/>
                                <path id="Path_1978" data-name="Path 1978" d="M279.7,863.2c.5-11.4,5.8-20.5,11.8-20.2l-1.9,41.5C283.6,884.1,279.2,874.6,279.7,863.2Z" opacity="0.3"/>
                                <path id="Path_1979" data-name="Path 1979" d="M310.928,963.064c5-7.816,5.544-16.4,1.217-19.163s-11.887,1.325-16.886,9.141-5.544,16.4-1.217,19.164S305.929,970.88,310.928,963.064Z" fill="#ec4969"/>
                                <path id="Path_1980" data-name="Path 1980" d="M295.3,953c-4.9,7.6-5.5,16-1.5,18.9l18.3-28-1.1-.5C306.7,941.8,299.9,945.8,295.3,953Z" opacity="0.3"/>
                                <path id="Path_1981" data-name="Path 1981" d="M282.8,992.6l-15.6-97.2" fill="none" stroke="#21252b" stroke-linecap="round" stroke-miterlimit="10" stroke-width="0.735"/>
                                <path id="Path_1982" data-name="Path 1982" d="M268.678,909.007c5.344-.855,8.353-9.815,6.722-20.013s-7.287-17.771-12.631-16.916-8.354,9.815-6.722,20.013S263.334,909.862,268.678,909.007Z" fill="#ec4969"/>
                                <path id="Path_1983" data-name="Path 1983" d="M256,892.1c-1.6-10.2,1.4-19.2,6.7-20.1l5.9,37C263.3,910,257.6,902.4,256,892.1Z" opacity="0.3"/>
                                <path id="Path_1984" data-name="Path 1984" d="M275.9,1027h18.7a6.274,6.274,0,0,0,6.3-6.3V995.9H269.5v24.8A6.424,6.424,0,0,0,275.9,1027Z" fill="#868a91"/>
                                <path id="Path_1985" data-name="Path 1985" d="M301.7,992.6H268.9a1.7,1.7,0,0,0,0,3.4h32.8a1.685,1.685,0,0,0,1.7-1.7A1.828,1.828,0,0,0,301.7,992.6Z" fill="#868a91"/>
                                <path id="Path_1986" data-name="Path 1986" d="M301,995.9H272.4a1.7,1.7,0,0,1,0-3.4h-3.5a1.7,1.7,0,0,0,0,3.4h.7v24.7a6.274,6.274,0,0,0,6.3,6.3h10.2a9.22,9.22,0,0,1-9.1-7.5l-4.5-23.1H301Z" fill="#61656d"/>
                                <path id="Path_1987" data-name="Path 1987" d="M837.5,437a1.771,1.771,0,0,0-.5,2.4l7.7,13.2-.7-.6a2.732,2.732,0,0,0-4.1,3.6l1.6,2-.6-.7a2.575,2.575,0,0,0-3.7-.2,2.632,2.632,0,0,0-.1,3.6l1.5,1.6-1.2-1.2a2.236,2.236,0,0,0-3.2-.1,2.285,2.285,0,0,0-.4,2.9l7.2,13a27.055,27.055,0,0,0,7.8,8.7l6.1,12.1,16.4-9.9-7.5-10.9-6.1-14.7a19.056,19.056,0,0,0-2.8-5.5L840,437.4A1.618,1.618,0,0,0,837.5,437Z" fill="#966363"/>
                                <g id="Group_88" data-name="Group 88" opacity="0.15">
                                    <path id="Path_1988" data-name="Path 1988" d="M839.8,468.8a2.452,2.452,0,0,1-1.6-.6l-3.4-3.1-.9-1.7,5.2,3.8a1.059,1.059,0,0,0,1.3.1,1.012,1.012,0,0,0,.4-.7,1.077,1.077,0,0,0-.2-.8l-4-5.2.5-.4,6,5a1.093,1.093,0,0,0,1.5.1,1.231,1.231,0,0,0,.3-1.7l-4.2-6.4.6-.4,4.7,6a.1.1,0,0,0,.1.1l.5.6a1.313,1.313,0,0,0,1.9.3l1-.7-.8,1.3-.7,1a3.049,3.049,0,0,1-1.6-.3,2.551,2.551,0,0,1-4.2,1l-.2-.2a1.1,1.1,0,0,1,0,.8,2.6,2.6,0,0,1-.9,1.6A1.535,1.535,0,0,1,839.8,468.8Z" opacity="0.15"/>
                                </g>
                                <path id="Path_1989" data-name="Path 1989" d="M850.7,464.3l-4.2.3a5.777,5.777,0,0,1-5.9-4.7v-.1a1.016,1.016,0,0,1,.9-1.1l12.7-2.2" fill="#966363"/>
                                <path id="Path_1990" data-name="Path 1990" d="M854.3,457l-12.7,2.2c-.2,0-.4.3-.4.5a5.308,5.308,0,0,0,5.5,4.2l3.8-.3a8.3,8.3,0,0,0-3,7.7" fill="none" stroke="#000" stroke-miterlimit="10" stroke-width="1.315" opacity="0.15"/>
                                <g id="Group_89" data-name="Group 89" opacity="0.15">
                                    <path id="Path_1991" data-name="Path 1991" d="M846.7,457.7l-2.3-4.9.5-.3,3.2,4.9Z" opacity="0.15"/>
                                </g>
                                <path id="Path_1992" data-name="Path 1992" d="M869.5,483.1l-15.8,11.4-3.1-5.7,15.3-10.3Z" fill="#fff"/>
                                <path id="Path_1993" data-name="Path 1993" d="M1172,542.1l2.6-9.3a34.313,34.313,0,0,1,5.2-10.7l4.5-6.1a.521.521,0,0,1,.8-.1,4.482,4.482,0,0,1,1.3,5.4l-3.5,7.6,18.9-15.8a1.839,1.839,0,0,1,2.5.1,1.721,1.721,0,0,1,0,2.4l-9.2,10.9,13.5-12.6a1.751,1.751,0,0,1,2.5,0,1.9,1.9,0,0,1,.1,2.7l-12.1,13.7,11-9.9a1.754,1.754,0,0,1,2.5.1,1.871,1.871,0,0,1,0,2.6l-9.9,10.7,9.1-6.9a1.542,1.542,0,0,1,2.1.1,1.57,1.57,0,0,1,0,2.2l-11.3,12a61.307,61.307,0,0,1-13.8,11l-1.1.6-20.1,17.7-13.5-15.4Z" fill="#966363"/>
                                <path id="Path_1994" data-name="Path 1994" d="M986.8,1014.9l-51.4,1.3,20.5-14.6a12.94,12.94,0,0,0,5.5-10.3l.9-16.3,27.9.1Z" fill="#966363"/>
                                <path id="Path_1995" data-name="Path 1995" d="M981.1,996.1v-.3a3.258,3.258,0,0,0-2.8-3.6l-16.7-2.4.2-3.2h27.7l-2.5,27.2-22.4-2.5,7.4-2.9A14.894,14.894,0,0,0,981.1,996.1Z" opacity="0.15"/>
                                <path id="Path_1996" data-name="Path 1996" d="M1079.3,1013.9h-23.1l-4.3-39.1,27.3.1Z" fill="#966363"/>
                                <path id="Path_1997" data-name="Path 1997" d="M1073.5,1007.3l-.6-12a3.4,3.4,0,0,0-2.8-3.1l-16.6-2.5-.4-3.3,26,.1.1,27.7Z" opacity="0.15"/>
                                <path id="Path_1998" data-name="Path 1998" d="M1075.7,680.5l5.1,306h-30l-26.1-260.6a3.35,3.35,0,0,0-3.3-3,3.185,3.185,0,0,0-3.2,3L990.4,986.5h-30l6.9-306Z" fill="#ec4969"/>
                                <path id="Path_1999" data-name="Path 1999" d="M1075.7,680.5l5.1,306h-30l-26.1-260.6a3.35,3.35,0,0,0-3.3-3,3.185,3.185,0,0,0-3.2,3L990.4,986.5h-30l6.9-306Z" fill="#fff" opacity="0.2"/>
                                <path id="Path_2000" data-name="Path 2000" d="M1081.6,986.5h-32l-.6-6.5h32.5Z" fill="#ec4969"/>
                                <path id="Path_2001" data-name="Path 2001" d="M1081.6,986.5h-13.4l-.3-6.5h13.6Z" opacity="0.15"/>
                                <path id="Path_2002" data-name="Path 2002" d="M972.4,982.9,1002,736.8a15.766,15.766,0,0,1,15.6-13.9h3.7a3.185,3.185,0,0,0-3.2,3L990.5,985.1Z" opacity="0.15"/>
                                <path id="Path_2003" data-name="Path 2003" d="M991.1,986.5H959.2l.5-6.5h32.1Z" fill="#ec4969"/>
                                <path id="Path_2004" data-name="Path 2004" d="M991.1,986.5h-19l.7-6.5h19Z" opacity="0.15"/>
                                <path id="Path_2005" data-name="Path 2005" d="M1075.7,680.5l5.2,299.3-12.9.1-6.2-313Z" opacity="0.15"/>
                                <path id="Path_2006" data-name="Path 2006" d="M1001.7,467.2a9.908,9.908,0,0,1,.8-19.8c.3,0,1.1-.2,1,.1C1001.3,456.1,1003.9,467.2,1001.7,467.2Z" fill="#21252b"/>
                                <path id="Path_2007" data-name="Path 2007" d="M1045.9,506.5c0,.5-12.4,27.7-21.5,28.1-7.9.4-12.9-25.2-12.8-25.7l.6-13.3v-6.9c-.4-1.6-2.3-3.1-2.3-5.2-.6-9.7-1.7-18.5-1.7-18.5s31.7-21.2,33.7,3.5l.8,3.6Z" fill="#966363"/>
                                <path id="Path_2008" data-name="Path 2008" d="M1003.4,436s-11.3,58.3,15.6,61.1c23.3,2.4,24.8-33.9,24.8-33.9l-1.8-23.4-18.1-6.6Z" fill="#966363"/>
                                <path id="Path_2009" data-name="Path 2009" d="M1011.1,449.9c2.7-3.8,7.2-6.6,12-6.5,5.4.1,9.8,4.4,9.3,10.7l-.1,1.4a2.443,2.443,0,0,0,2.2,2.6,4.481,4.481,0,0,1,4.4,4.6l-.1,4.1a.9.9,0,0,0,.9.9s1.2.2,1.4-.8l.6-4.4-4.2-24.8-20.6-5.4-8.6,7.3Z" fill="#21252b"/>
                                <path id="Path_2010" data-name="Path 2010" d="M1042.7,472.2a4.113,4.113,0,0,1-2.9-2.2l3.2,5.5Z" opacity="0.15"/>
                                <path id="Path_2011" data-name="Path 2011" d="M1034.3,491.5a17.607,17.607,0,0,1-11.2,6.4,18.738,18.738,0,0,1-11.1,3.4l.3-6.6.9.5a16.438,16.438,0,0,0,20.3-4.4c.1-.2.5-.2.7-.1A.8.8,0,0,1,1034.3,491.5Z" opacity="0.15"/>
                                <path id="Path_2012" data-name="Path 2012" d="M1013.6,481.5l10.7-2.5a5.323,5.323,0,0,1-4,5.4C1015.2,485.7,1013.6,481.5,1013.6,481.5Z" fill="#fff"/>
                                <path id="Path_2013" data-name="Path 2013" d="M1023.1,467.7a2.2,2.2,0,1,0-2.2-2.2A2.2,2.2,0,0,0,1023.1,467.7Z" fill="#21252b"/>
                                <path id="Path_2014" data-name="Path 2014" d="M1022.1,465.3a.4.4,0,1,0-.4-.4A.4.4,0,0,0,1022.1,465.3Z" fill="#fff"/>
                                <path id="Path_2015" data-name="Path 2015" d="M1006,468.3a2.2,2.2,0,1,0-2.2-2.2A2.2,2.2,0,0,0,1006,468.3Z" fill="#21252b"/>
                                <path id="Path_2016" data-name="Path 2016" d="M1005.1,465.8a.4.4,0,1,0-.4-.4A.4.4,0,0,0,1005.1,465.8Z" fill="#fff"/>
                                <g id="Group_90" data-name="Group 90" opacity="0.3">
                                    <path id="Path_2017" data-name="Path 2017" d="M1013.8,478.2l2.8.1a.652.652,0,0,0,.1-1.3l-2.8-.1c-.7-.1-1.3-.7-1.2-1.3.1-.7.7-1.3,1.3-1.2a.858.858,0,0,0,.7-.6c.1-.3-.3-.6-.6-.7a2.635,2.635,0,0,0-2.7,2.4A2.505,2.505,0,0,0,1013.8,478.2Z" opacity="0.3"/>
                                </g>
                                <path id="Path_2018" data-name="Path 2018" d="M996.7,463.9l.1,2.4a8.454,8.454,0,1,0,16.9-.5l-.1-2.4a2.64,2.64,0,0,0-.7-1.9l3.3-.1a2.564,2.564,0,0,0-.6,1.9l.1,2.4a8.454,8.454,0,1,0,16.9-.5l-.1-2.4a3.115,3.115,0,0,0-3.2-3l-10.6.3h-.1l-8.2.2h-1.3l-9.4.3A3.278,3.278,0,0,0,996.7,463.9Zm21.8-2.5,10.7-.3a1.88,1.88,0,0,1,1.9,1.8l.1,2.4a7.2,7.2,0,1,1-14.4.4l-.1-2.4A2.127,2.127,0,0,1,1018.5,461.4Zm-20.6,2.5a1.88,1.88,0,0,1,1.8-1.9l9.4-.3h1.3a1.88,1.88,0,0,1,1.9,1.8l.1,2.4a7.2,7.2,0,0,1-14.4.4Z" fill="#21252b"/>
                                <path id="Path_2019" data-name="Path 2019" d="M916.9,1023.4v-1.1a6.594,6.594,0,0,1,6.6-6.6h9.2a7.336,7.336,0,0,0,5.2-2.1l23.5-22.3,7.3,9.6a6.264,6.264,0,0,0,9.8.2,6.49,6.49,0,0,1,4.8-2.3h4.9V1023Z" fill="#3f4249"/>
                                <path id="Path_2020" data-name="Path 2020" d="M916.9,1023.4v3.6h71.5v-4Z"/>
                                <path id="Path_2021" data-name="Path 2021" d="M966.1,997.3l-15.9,12.9a4.433,4.433,0,0,1-5.9-.3l-1.2-1.2,18.3-17.4a2.375,2.375,0,0,1,2.6.9l1.9,2.7a2.157,2.157,0,0,1,.3,2.2Z"/>
                                <path id="Path_2022" data-name="Path 2022" d="M1059.2,996.2h-1.9a3.477,3.477,0,0,0-3.5,3.1l-.4,7.2a16.04,16.04,0,0,1-1.7,6.4l-.7,1.3a17.544,17.544,0,0,0-1.9,8.1v1.3h36.6a17.89,17.89,0,0,0-3.1-10,16.168,16.168,0,0,1-2.7-7.4l-.8-7.2a3.55,3.55,0,0,0-3.5-2.8h-1.3" fill="#3f4249"/>
                                <path id="Path_2023" data-name="Path 2023" d="M1085.5,1023.5H1049v3.5h36.5Z"/>
                                <path id="Path_2024" data-name="Path 2024" d="M1064,992.9h5.4a4.522,4.522,0,0,1,4.5,5.1l-1.2,9.8a6.126,6.126,0,0,1-6,5.3,5.983,5.983,0,0,1-6-5.4l-1.1-9.8A4.368,4.368,0,0,1,1064,992.9Z"/>
                                <path id="Path_2025" data-name="Path 2025" d="M1057,999.4h19.4" fill="none" stroke="#fff" stroke-linecap="round" stroke-linejoin="round" stroke-miterlimit="10" stroke-width="1.315"/>
                                <path id="Path_2026" data-name="Path 2026" d="M1057.6,1004h18.2" fill="none" stroke="#fff" stroke-linecap="round" stroke-linejoin="round" stroke-miterlimit="10" stroke-width="1.315"/>
                                <path id="Path_2027" data-name="Path 2027" d="M1058.1,1008.5h17.2" fill="none" stroke="#fff" stroke-linecap="round" stroke-linejoin="round" stroke-miterlimit="10" stroke-width="1.315"/>
                                <path id="Path_2028" data-name="Path 2028" d="M947.9,1001.9l7.1,6.7" fill="none" stroke="#fff" stroke-linecap="round" stroke-linejoin="round" stroke-miterlimit="10" stroke-width="1.315"/>
                                <path id="Path_2029" data-name="Path 2029" d="M951.7,998.4l7.3,6.9" fill="none" stroke="#fff" stroke-linecap="round" stroke-linejoin="round" stroke-miterlimit="10" stroke-width="1.315"/>
                                <path id="Path_2030" data-name="Path 2030" d="M955.6,995.1l7.2,6.8" fill="none" stroke="#fff" stroke-linecap="round" stroke-linejoin="round" stroke-miterlimit="10" stroke-width="1.315"/>
                                <path id="Path_2031" data-name="Path 2031" d="M969.1,686.1h93.5" fill="none" stroke="#000" stroke-linecap="round" stroke-linejoin="round" stroke-miterlimit="10" stroke-width="1.491" opacity="0.3"/>
                                <path id="Path_2032" data-name="Path 2032" d="M1180.6,560.9l-59.3,56.5a12.638,12.638,0,0,1-19.6-2.7l-20.9-39.4L1077.4,678a2.562,2.562,0,0,1-2.6,2.5H967.2a1.278,1.278,0,0,1-1.2-1.1l-6-126.1-47.6,22.9a12.42,12.42,0,0,1-16.3-5.2l-42.8-76.9,16.5-11.4,41.9,51.9,45.4-23.2a31.031,31.031,0,0,1,11.5-3.3l43.3-4.1,12.5,23.8,20.9-23.7,37.3,9.9a27.329,27.329,0,0,1,17.6,14.4l23.5,47.5,42.4-30.3Z" fill="#21252b"/>
                                <path id="Path_2033" data-name="Path 2033" d="M1182.9,528.7s5.2,4.3,1.5,12.8" fill="none" stroke="#000" stroke-miterlimit="10" stroke-width="1.403" opacity="0.15"/>
                                <path id="Path_2034" data-name="Path 2034" d="M1049,447c-.8-6.3-4.1-11-9.6-12.2a14.85,14.85,0,0,0-7,.3,1.578,1.578,0,0,1-2-1.1,9.636,9.636,0,0,0-9.3-7.3,9.335,9.335,0,0,0-7.7,3.9,1.542,1.542,0,0,1-2.3.3s-6.4-5.1-14.8.1a13.651,13.651,0,0,0-4.7,17.7c3.4,6.7,12.2,8.7,17.6,3.6a12.514,12.514,0,0,0,3.7-8.5,16.018,16.018,0,0,0-.6-6.6h2.8c3.3-.2,8.5-.8,13.4-.1-.1.1-.2.1-.3.2l8.7,2.9s2.7,23,4.1,22.8C1047.1,461.7,1049.8,452.7,1049,447Z" fill="#21252b"/>
                                <path id="Path_2035" data-name="Path 2035" d="M1004.5,456.2l2.7-.6c.2-.1.5-.4.4-.7a.569.569,0,0,0-.7-.4l-2.7.6c-.3.1-.7.1-1,.2a10.324,10.324,0,0,1-3.5-.5.57.57,0,1,0-.3,1.1,16.356,16.356,0,0,0,3.8.5A5.066,5.066,0,0,1,1004.5,456.2Z" fill="#966363"/>
                                <path id="Path_2036" data-name="Path 2036" d="M1023,528.6l-8.3-7.5,10.5-1.7,10,2.5-9.1,6.8A2.3,2.3,0,0,1,1023,528.6Z" fill="#fff"/>
                                <path id="Path_2037" data-name="Path 2037" d="M1025.2,519.4l16,4,7.5-18.4-.4-5.1a1.4,1.4,0,0,0-1.4-1.2h-1.7l.5,5.2Z" fill="#fff"/>
                                <path id="Path_2038" data-name="Path 2038" d="M1011.9,504l.2-4.3h-1.3a1.561,1.561,0,0,0-1.6,1.5L1009,522l16.2-2.7Z" fill="#fff"/>
                                <path id="Path_2039" data-name="Path 2039" d="M1038.7,523.1l-13.6-3.4-14.4,2.4" fill="none" stroke="#000" stroke-miterlimit="10" stroke-width="0.74" opacity="0.15"/>
                                <path id="Path_2040" data-name="Path 2040" d="M1171.2,542.7l13.1,13.4-4.3,4.2-13.4-14.2Z" fill="#fff"/>
                                <path id="Path_2041" data-name="Path 2041" d="M1041.7,460.5a4.091,4.091,0,0,1,5.5-3c5.2,1.5,4.3,12-2.6,14.4-4.3.9-3.7-1.7-3.4-5.2Z" fill="#966363"/>
                                <path id="Path_2042" data-name="Path 2042" d="M1047.8,460.4a2.868,2.868,0,0,0-2.5-.3,3.134,3.134,0,0,0-1.7,1.7,5.359,5.359,0,0,0-.4,3.1v.9a.51.51,0,1,0,1-.2v-.9a6.779,6.779,0,0,1,.3-2.6,2.606,2.606,0,0,1,1.1-1.2,2.369,2.369,0,0,1,1.6.2.618.618,0,0,0,.7-.2C1048.1,460.9,1048,460.6,1047.8,460.4Z" opacity="0.3"/>
                                <path id="Path_2043" data-name="Path 2043" d="M1123.7,575.9l-4.4-8.9-3.2,10.8a1.512,1.512,0,0,0,2.3,1.7Z" opacity="0.4"/>
                                <path id="Path_2044" data-name="Path 2044" d="M911.7,534.6l2.5,2.9a2,2,0,0,0,3,0l9.8-10.7Z" opacity="0.4"/>
                                <path id="Path_2045" data-name="Path 2045" d="M960.1,553.3l3.4-1.6a.589.589,0,0,1,.8.8l-3.9,8.6Z"/>
                                <path id="Path_2046" data-name="Path 2046" d="M964,636.9h114.9l-1.3,41a2.775,2.775,0,0,1-2.8,2.7H967.2a1.278,1.278,0,0,1-1.2-1.1Z" fill="#858990"/>
                                <path id="Path_2047" data-name="Path 2047" d="M961.6,586.3h118.9l-1.6,50.6H964Z" fill="#3f4249"/>
                                <path id="Path_2048" data-name="Path 2048" d="M1080.9,575.3l-2.3-5.3a2.773,2.773,0,0,0-5.3.9l-10.7,109.7h12.1a2.883,2.883,0,0,0,2.9-2.8Z" opacity="0.4"/>
                                <path id="Path_2049" data-name="Path 2049" d="M385.7,873.8l-42-175.1a8.318,8.318,0,0,1,8.2-10.3H340.5a8.452,8.452,0,0,0-8.2,10.3l42,175.1,136.4.3Z" fill="#858990"/>
                                <path id="Path_2050" data-name="Path 2050" d="M412.4,859.3,380.3,716.5a1.172,1.172,0,0,0-1.1-.9h-1.9a1.075,1.075,0,0,1,.9.8l32.1,142.8a1.14,1.14,0,0,1-1.1,1.4h-1.4l3.4-.1A.966.966,0,0,0,412.4,859.3Z" fill="#858990"/>
                                <path id="Path_2051" data-name="Path 2051" d="M475.5,694.7a8.438,8.438,0,0,0-8.1-6.4H351.9a8.452,8.452,0,0,0-8.2,10.3l42,175.1,134,.3Zm-64.2,166-3.4.1a1.172,1.172,0,0,1-1.1-.9L374.7,717a1.062,1.062,0,0,1,1.1-1.3h3.5a1.172,1.172,0,0,1,1.1.9l32.1,142.8A1.234,1.234,0,0,1,411.3,860.7Z" fill="#b1b5ba"/>
                                <path id="Path_2052" data-name="Path 2052" d="M475.8,691.9a6.6,6.6,0,0,0,4.7.6c7.4-1.2,13-2.2,13.6-9.7.8-11.8-1.7-37.9-11.1-52.8-6.4,3.3-7.4,4.8-7.4,4.8s-9.5-2.9-9.7-3C465.9,631.7,462.8,683.4,475.8,691.9Z" fill="#21252b"/>
                                <path id="Path_2053" data-name="Path 2053" d="M452.5,684.3l-5.3-62.9c-3.2-.5-8.3,3.7-9.8,5.4-12,13.7-14.9,42-13.2,60.9.6,7.3,5.3,8.3,12.5,9.7s15.6,2.1,18.7-1.5C456.9,694,452.5,684.3,452.5,684.3Z" fill="#21252b"/>
                                <path id="Path_2054" data-name="Path 2054" d="M633.3,815a16.319,16.319,0,0,0-16-14h-8.7l-3.4.8v.5l-74,9.4a22.853,22.853,0,0,0-19.3,17L460.3,1027h12.4l50.8-195.3a10.911,10.911,0,0,1,9.2-8.1l83.7-10.7a4.468,4.468,0,0,1,5,3.7l32,210.2h12.2Z" fill="#b1b5ba"/>
                                <path id="Path_2055" data-name="Path 2055" d="M464.9,1027H452.5L504,828.7a22.869,22.869,0,0,1,19.3-17L607,801a16.524,16.524,0,0,1,18.4,13.9L657.7,1027H645.5l-32-210.2a4.412,4.412,0,0,0-5-3.7l-83.7,10.7a11.015,11.015,0,0,0-9.2,8.1Z" fill="#858990"/>
                                <path id="Path_2056" data-name="Path 2056" d="M666,885.9H484.7a6,6,0,0,1,0-12H666a6.018,6.018,0,0,1,6,6A5.892,5.892,0,0,1,666,885.9Z" fill="#b1b5ba"/>
                                <path id="Path_2057" data-name="Path 2057" d="M522.5,885.9H367.7a6,6,0,0,1,0-12H522.4a6.018,6.018,0,0,1,6,6A5.87,5.87,0,0,1,522.5,885.9Z" fill="#858990"/>
                                <path id="Path_2058" data-name="Path 2058" d="M545.8,877.8a6.064,6.064,0,0,1-5.7,8.1H367.7a5.382,5.382,0,0,1-2.2-.4l3-11.7H540A6.081,6.081,0,0,1,545.8,877.8Z" fill="#858990"/>
                                <path id="Path_2059" data-name="Path 2059" d="M724.1,1027h36.6c.6-1.1,2.3-4.4.2-5.1L736,1011.2c-4.4-1.5-7.4-2.5-10-5.8a10.459,10.459,0,0,1-1.3-2.3l-19.4-44-23.9,11.5,20.3,35.2c1.8,2.6,2.2,6,2.3,9.1l.1,5a7.189,7.189,0,0,0,6.9,6.9h.1Z" fill="#f69797"/>
                                <path id="Path_2060" data-name="Path 2060" d="M761.4,1025.4c-.3.7-.6,1.3-.8,1.7H724l-13.1-.2h-.1a7.117,7.117,0,0,1-6.9-6.9l-.1-5c-.1-3.1-.6-6.6-2.3-9.1l-7.3-12.6.4-3.5,9.4,8.7,8.7,16.3s6.7,9.1,26.7,9.9l20,.7Z" opacity="0.15"/>
                                <path id="Path_2061" data-name="Path 2061" d="M719.8,991.9l-21.3,8.8-13.5-22c-32.7-48.5-40.6-64.1-53.6-104.6H514.7a29.838,29.838,0,0,1-29.8-29.3l-.3-18.6H636.2a23.857,23.857,0,0,1,22,14.7Z" fill="#3f4249"/>
                                <path id="Path_2062" data-name="Path 2062" d="M682.9,959.4c-25.8-44.4-32.5-80.8-44.7-117.5-.8-2.5-4.7-15.8-19.6-15.8H556c-15.4-.4-24,23.3-36.8,14.8l-31.4-14.8h-3.1l.3,18.6A29.771,29.771,0,0,0,514.8,874H631.5c14,41.8,21,56.4,53.6,104.6l13.5,21.9,5.5-2.3C704,998.4,687.6,967.4,682.9,959.4Z" opacity="0.2"/>
                                <path id="Path_2063" data-name="Path 2063" d="M733.1,1010.2l-6.5,1a43,43,0,0,1-24-3.2l1.4,14.8a4.776,4.776,0,0,0,4.8,4.2h53.5a2.25,2.25,0,0,0,.7-4.4Z" fill="#ec4969"/>
                                <path id="Path_2064" data-name="Path 2064" d="M764.2,1026l-44.9-2.7c-3.5-.2-6.4-4.9-7.5-8.3l-1.3-4.3a43,43,0,0,1-7.9-2.6l1.4,14.8a4.776,4.776,0,0,0,4.8,4.2h53.5A2.312,2.312,0,0,0,764.2,1026Z" opacity="0.2"/>
                                <path id="Path_2065" data-name="Path 2065" d="M677.2,1027h36.6c.6-1.1,2.3-4.4.2-5.1l-24.9-10.7c-4.4-1.5-7.4-2.5-10-5.8a10.459,10.459,0,0,1-1.3-2.3l-19.4-44-23.9,11.5,20.3,35.2c1.8,2.6,2.2,6,2.3,9.1l.1,5a7.188,7.188,0,0,0,6.9,6.9h.1Z" fill="#f69797"/>
                                <path id="Path_2066" data-name="Path 2066" d="M714.5,1025.4c-.3.7-.6,1.3-.8,1.7H677.1l-13.1-.2h-.1a7.117,7.117,0,0,1-6.9-6.9l-.1-5c-.1-3.1-.6-6.6-2.3-9.1l-7.3-12.6.4-3.5,11.1,8,7,17s6.7,9.1,26.7,9.9l20,.7Z" opacity="0.15"/>
                                <path id="Path_2067" data-name="Path 2067" d="M641.5,635.1l10.7-3.8a8.029,8.029,0,0,0,2.9-1.5l10.4-7.5a.605.605,0,0,0,.1-.8,5.092,5.092,0,0,0-6-1.3l-4.1,1.8a3.453,3.453,0,0,1-4.8-3l-.6-12.4a3.167,3.167,0,0,1,.4-1.6l6.5-10.7a2,2,0,0,0-.8-2.8,1.973,1.973,0,0,0-2.3.4c-2.8,2.9-10.5,11-10.5,11l-1,9.9,7.7-16.9-8,6.1a19.85,19.85,0,0,0-6.5,8.9L630.3,626l-27.8,24.6L591.6,689Z" fill="#f69797"/>
                                <path id="Path_2068" data-name="Path 2068" d="M643.5,603.4v-.1l4.2-5.7,2.1-1.6-5.5,7.8-2,5.7-.8-.3Z" opacity="0.15"/>
                                <path id="Path_2069" data-name="Path 2069" d="M642.6,608.8l1.7-5,5.5-7.8-8,6.1a19.849,19.849,0,0,0-6.5,8.9A12.219,12.219,0,0,1,642.6,608.8Z" opacity="0.15"/>
                                <path id="Path_2070" data-name="Path 2070" d="M642.2,601.9l-2.9,4.2-1.1,4.3h-.8l1.1-5.1a17,17,0,0,1,2.1-2.2Z" opacity="0.15"/>
                                <path id="Path_2071" data-name="Path 2071" d="M499,690l71.7-10.6,51-45.9,2.7,44.5-43.8,23.9a13.687,13.687,0,0,1-3.8,1.5L504.2,722" fill="#ec4969"/>
                                <path id="Path_2072" data-name="Path 2072" d="M510.8,688.4l-41.1,45.2-48.9-29.4,23.2-7c.2-.1.4-.1.6-.2a6.238,6.238,0,0,0,3.5-6.6l-2.6-23.6,24.3-11.5,5.6,24,.9,3.9,1.3,5.4c.7,2.9,3.5,4.1,6.2,3.8Z" fill="#f69797"/>
                                <path id="Path_2073" data-name="Path 2073" d="M672.9,991.9l-21.3,8.8-13.5-21.9c-32.7-48.5-40.6-64.1-53.6-104.6H467.8A29.838,29.838,0,0,1,438,844.9l-.3-18.6H589.3a23.857,23.857,0,0,1,22,14.7Z" fill="#3f4249"/>
                                <path id="Path_2074" data-name="Path 2074" d="M638.1,959.1c-25.8-44.4-26.8-56.2-38.4-93.1-3.2-10.2-10.5-12.4-15.7-12.4l-66,.3c-15.4-.4-42.1,1.2-54.8-7.4L441,826.2h-3.1l.3,18.6A29.771,29.771,0,0,0,468,874.1H584.7c14,41.8,21,56.4,53.6,104.6l13.5,21.9,7.2-3C658.9,997.7,642.7,967.1,638.1,959.1Z" opacity="0.2"/>
                                <path id="Path_2075" data-name="Path 2075" d="M408.6,708.2l27.3-8.8,5.9,4.4a31.723,31.723,0,0,0,47.4-10.9l.8-1.6,42.9-6.4v27.7L504.3,722l-2.6-4.7,8.2,14a26.135,26.135,0,0,1,1.2,24.3l-2.5,5.4a7.988,7.988,0,0,0-.8,4l.8,17a47.347,47.347,0,0,0,8.3,24.6l13.3,19.5h-5a102.045,102.045,0,0,0-52.9,14.8l-24.8,15a10.592,10.592,0,0,1-15.8-11.5l1-4.3a122.6,122.6,0,0,0,1.4-49L424.3,745l-28.6,1-1.8-6.6C389.9,726.5,395.6,712.4,408.6,708.2Z" fill="#ec4969"/>
                                <path id="Path_2076" data-name="Path 2076" d="M474.9,821.8l.4-.4a2.657,2.657,0,0,1,0-3.7l-.4-.4a2.657,2.657,0,0,1-3.7,0l-.4.4a2.657,2.657,0,0,1,0,3.7l.4.4A2.487,2.487,0,0,1,474.9,821.8Z" fill="#ec4969"/>
                                <path id="Path_2077" data-name="Path 2077" d="M426.1,739a1.507,1.507,0,0,1,1.8,1.2l7,27.2c.9,3.9,3.5,9,7,11.1,8.1,4.9,17.4.9,17.4.9a1.684,1.684,0,0,1,2.3,1.9l-2.7,11.4c-8.1,22.4-5.8,47.4,4.3,53.8l-15.5,9.4a10.592,10.592,0,0,1-15.8-11.5l1-4.3a122.6,122.6,0,0,0,1.4-49l-9.4-50.2A1.473,1.473,0,0,1,426.1,739Z" opacity="0.3"/>
                                <path id="Path_2078" data-name="Path 2078" d="M516.7,821.8l.4-.4a2.657,2.657,0,0,1,0-3.7l-.4-.4a2.657,2.657,0,0,1-3.7,0l-.4.4a2.657,2.657,0,0,1,0,3.7l.4.4A2.486,2.486,0,0,1,516.7,821.8Z" fill="#ec4969"/>
                                <path id="Path_2079" data-name="Path 2079" d="M508.5,761a14.1,14.1,0,0,1-12.4,7l11.9,2.5-.3-5.5A9.07,9.07,0,0,1,508.5,761Z" opacity="0.3"/>
                                <path id="Path_2080" data-name="Path 2080" d="M623.7,665.8l-46.8,30.3-75.1,17.6a2.013,2.013,0,0,0-1,3.1l3.5,5.3,73.3-18.8a11.662,11.662,0,0,0,2.6-1l44.4-24.2Z" opacity="0.3"/>
                                <path id="Path_2081" data-name="Path 2081" d="M548,818.3l-10.7-9.5a6.049,6.049,0,0,0-4-1.7L516,808.6l-28.6-2-10,13.4,24.9,1.6,2.4.9a15.31,15.31,0,0,0,12.4-.4h.1l3.3-1.6a3.357,3.357,0,0,1,2.6-.1l8.5,3.5a1.258,1.258,0,0,0,1.3-.2,1.415,1.415,0,0,0,0-2.2l-6.3-4.7,9.4,6.8a1.6,1.6,0,0,0,1.5.2,1.521,1.521,0,0,0,.5-2.5l-6.7-6.6,8.8,8.6a1.538,1.538,0,0,0,1.7.3,1.657,1.657,0,0,0,.7-2.6l-6.6-7.8,10.1,7.4a1.61,1.61,0,0,0,2.3-.3A1.474,1.474,0,0,0,548,818.3Z" fill="#f69797"/>
                                <path id="Path_2082" data-name="Path 2082" d="M532.8,822c-.1,0-.1,0-.2-.1l-5.8-4.3c-.1-.1-.2-.3-.1-.4s.3-.2.4-.1l5.8,4.3c.1.1.2.3.1.4Z" opacity="0.15"/>
                                <path id="Path_2083" data-name="Path 2083" d="M537.7,821.8c-.1,0-.2,0-.2-.1l-6.3-6.2a.283.283,0,0,1,.4-.4l6.3,6.2a.3.3,0,0,1,0,.4C537.9,821.8,537.8,821.8,537.7,821.8Z" opacity="0.15"/>
                                <path id="Path_2084" data-name="Path 2084" d="M524.8,819.5c1.9,1,5.2,2.6,6.3,3.3,1.6.9,2.1-.3,2.1-.3a1.47,1.47,0,0,1-.5,1.4,1.531,1.531,0,0,1-1.3.2l-8.5-3.5a3.357,3.357,0,0,0-2.6.1l1.7-1A2.819,2.819,0,0,1,524.8,819.5Z" opacity="0.15"/>
                                <path id="Path_2085" data-name="Path 2085" d="M394.8,742.7l18.8,68.4a13.5,13.5,0,0,0,9.5,9.3l50,13.4,22.3-27.2-57.3-8.4L424.3,740Z" fill="#ec4969"/>
                                <path id="Path_2086" data-name="Path 2086" d="M453.7,800.5l.2-.9,58.6,8.5-.1.4Z" opacity="0.3"/>
                                <path id="Path_2087" data-name="Path 2087" d="M486.5,817.4l16.7,1.9a8.227,8.227,0,0,1,3.7,1.3,15.454,15.454,0,0,0,8.5,2.3s-5.7,2.5-13.1-1.2l-19.1-1.1Z" opacity="0.15"/>
                                <path id="Path_2088" data-name="Path 2088" d="M686.2,1010.2l-6.5,1a42.994,42.994,0,0,1-24-3.2l1.4,14.8a4.776,4.776,0,0,0,4.8,4.2h53.5a2.25,2.25,0,0,0,.7-4.4Z" fill="#ec4969"/>
                                <path id="Path_2089" data-name="Path 2089" d="M717.4,1026l-44.9-2.7c-3.5-.2-6.4-4.9-7.5-8.3l-1.3-4.3a43,43,0,0,1-7.9-2.6l1.4,14.8a4.776,4.776,0,0,0,4.8,4.2h53.5A2.472,2.472,0,0,0,717.4,1026Z" opacity="0.2"/>
                                <path id="Path_2090" data-name="Path 2090" d="M616,647.6a1.4,1.4,0,1,0-1.4-1.4A1.4,1.4,0,0,0,616,647.6Z" fill="#f4f4f4"/>
                                <path id="Path_2091" data-name="Path 2091" d="M602.1,681.8a1.4,1.4,0,1,0-1.4-1.4A1.4,1.4,0,0,0,602.1,681.8Z" fill="#f4f4f4"/>
                                <path id="Path_2092" data-name="Path 2092" d="M564,691.2a1.4,1.4,0,1,0-1.4-1.4A1.4,1.4,0,0,0,564,691.2Z" fill="#f4f4f4"/>
                                <path id="Path_2093" data-name="Path 2093" d="M531.4,712.3a1.4,1.4,0,1,0-1.4-1.4A1.4,1.4,0,0,0,531.4,712.3Z" fill="#f4f4f4"/>
                                <path id="Path_2094" data-name="Path 2094" d="M490.8,723.2a1.4,1.4,0,1,0-1.4-1.4A1.4,1.4,0,0,0,490.8,723.2Z" fill="#f4f4f4"/>
                                <path id="Path_2095" data-name="Path 2095" d="M503.7,758a1.4,1.4,0,1,0-1.4-1.4A1.4,1.4,0,0,0,503.7,758Z" fill="#f4f4f4"/>
                                <path id="Path_2096" data-name="Path 2096" d="M464.5,748.1a1.4,1.4,0,1,0-1.4-1.4A1.4,1.4,0,0,0,464.5,748.1Z" fill="#f4f4f4"/>
                                <path id="Path_2097" data-name="Path 2097" d="M470.6,808a1.4,1.4,0,1,0-1.4-1.4A1.4,1.4,0,0,0,470.6,808Z" fill="#f4f4f4"/>
                                <path id="Path_2098" data-name="Path 2098" d="M493.7,827.5a1.4,1.4,0,1,0-1.4-1.4A1.4,1.4,0,0,0,493.7,827.5Z" fill="#f4f4f4"/>
                                <path id="Path_2099" data-name="Path 2099" d="M497.5,788.3a1.4,1.4,0,1,0-1.4-1.4A1.4,1.4,0,0,0,497.5,788.3Z" fill="#f4f4f4"/>
                                <path id="Path_2100" data-name="Path 2100" d="M461.6,781.9a1.4,1.4,0,1,0-1.4-1.4A1.4,1.4,0,0,0,461.6,781.9Z" fill="#f4f4f4"/>
                                <path id="Path_2101" data-name="Path 2101" d="M402.6,716.5a1.4,1.4,0,1,0-1.4-1.4A1.4,1.4,0,0,0,402.6,716.5Z" fill="#f4f4f4"/>
                                <path id="Path_2102" data-name="Path 2102" d="M447.4,715.1a1.4,1.4,0,1,0-1.4-1.4A1.4,1.4,0,0,0,447.4,715.1Z" fill="#f4f4f4"/>
                                <path id="Path_2103" data-name="Path 2103" d="M409.1,772.6a1.4,1.4,0,1,0-1.4-1.4A1.4,1.4,0,0,0,409.1,772.6Z" fill="#f4f4f4"/>
                                <path id="Path_2104" data-name="Path 2104" d="M424.5,742.3a1.4,1.4,0,1,0-1.4-1.4A1.4,1.4,0,0,0,424.5,742.3Z" fill="#f4f4f4"/>
                                <path id="Path_2105" data-name="Path 2105" d="M435.3,796.8a1.4,1.4,0,1,0-1.4-1.4A1.4,1.4,0,0,0,435.3,796.8Z" fill="#f4f4f4"/>
                                <path id="Path_2106" data-name="Path 2106" d="M439.7,848.6a1.4,1.4,0,1,0-1.4-1.4A1.4,1.4,0,0,0,439.7,848.6Z" fill="#f4f4f4"/>
                                <path id="Path_2107" data-name="Path 2107" d="M455.1,821.9a1.4,1.4,0,1,0-1.4-1.4A1.4,1.4,0,0,0,455.1,821.9Z" fill="#f4f4f4"/>
                                <path id="Path_2108" data-name="Path 2108" d="M510.8,692.6a1.4,1.4,0,1,0-1.4-1.4A1.4,1.4,0,0,0,510.8,692.6Z" fill="#f4f4f4"/>
                                <path id="Path_2109" data-name="Path 2109" d="M399.2,730.2l18.3,67.7c2.2,7.7,8.6,12.3,17,13.7l52.1,5.8-13.5,16.4-49.8-13.3a13.813,13.813,0,0,1-9.7-9.6L394,739.3c-3.6-13.9,1.7-27,14.7-31.2C399.9,711.8,396.9,721.1,399.2,730.2Z" opacity="0.3"/>
                                <path id="Path_2110" data-name="Path 2110" d="M388.5,877.1,398.7,838h1.4l-10,39.1Z" fill="#858990"/>
                                <path id="Path_2111" data-name="Path 2111" d="M508,873.8l1.8,12.1h-6l-1.7-12.1Z" opacity="0.3"/>
                                <path id="Path_2112" data-name="Path 2112" d="M363.5,875.6a6.043,6.043,0,0,1,4.3-1.8h.8l-3,11.7" opacity="0.3"/>
                                <path id="Path_2113" data-name="Path 2113" d="M503,822.7h61.4a.9.9,0,0,1,.9.9v1.6a.9.9,0,0,1-.9.9H503a.9.9,0,0,1-.9-.9v-1.6A.839.839,0,0,1,503,822.7Z" fill="#21252b"/>
                                <path id="Path_2114" data-name="Path 2114" d="M503,822.7h61.4a.9.9,0,0,1,.9.9v1.6a.9.9,0,0,1-.9.9H503a.9.9,0,0,1-.9-.9v-1.6A.839.839,0,0,1,503,822.7Z" opacity="0.6"/>
                                <path id="Path_2115" data-name="Path 2115" d="M544.4,822.7H651.5a.9.9,0,0,1,.9.9v1.6a.9.9,0,0,1-.9.9H544.4a.9.9,0,0,1-.9-.9v-1.6A.9.9,0,0,1,544.4,822.7Z" fill="#21252b"/>
                                <g id="Group_91" data-name="Group 91" opacity="0.6">
                                    <path id="Path_2116" data-name="Path 2116" d="M650.1,823.3h-109a.3.3,0,0,1,0-.6h109a.265.265,0,0,1,.3.3A.319.319,0,0,1,650.1,823.3Z" opacity="0.6"/>
                                </g>
                                <path id="Path_2117" data-name="Path 2117" d="M544.2,822.7h16.1a2.765,2.765,0,0,0,2.6-2.1l13.5-71.1a2.611,2.611,0,0,0-2.6-3.1H557.7a2.765,2.765,0,0,0-2.6,2.1l-13.5,71.1A2.619,2.619,0,0,0,544.2,822.7Z" fill="#21252b"/>
                                <path id="Path_2118" data-name="Path 2118" d="M544.2,822.7h16.1a2.765,2.765,0,0,0,2.6-2.1l13.5-71.1a2.611,2.611,0,0,0-2.6-3.1H557.7a2.765,2.765,0,0,0-2.6,2.1l-13.5,71.1A2.619,2.619,0,0,0,544.2,822.7Z" opacity="0.6"/>
                                <path id="Path_2119" data-name="Path 2119" d="M546.5,822.7H650.1a2.765,2.765,0,0,0,2.6-2.1l13.5-71.1a2.611,2.611,0,0,0-2.6-3.1H560a2.765,2.765,0,0,0-2.6,2.1L544,819.6A2.507,2.507,0,0,0,546.5,822.7Z" fill="#21252b"/>
                                <path id="Path_2120" data-name="Path 2120" d="M605.6,782.6c-.6,1.4.1,2.7,1.5,2.7h.2a8.756,8.756,0,0,1-6.5,3.1c-3.1-.1-4.5-2.6-3.1-5.6a9.351,9.351,0,0,1,8-5.4,3.631,3.631,0,0,1,3.6,2.6A4.688,4.688,0,0,0,605.6,782.6Z" opacity="0.6"/>
                                <path id="Path_2121" data-name="Path 2121" d="M510.1,815a16.319,16.319,0,0,0-16-14h-8.7l-3.4.8v.5l-74,9.4a22.853,22.853,0,0,0-19.3,17L337.1,1027h12.4l50.8-195.3a10.911,10.911,0,0,1,9.2-8.1l83.7-10.7a4.468,4.468,0,0,1,5,3.7l32,210.2h12.2Z" fill="#b1b5ba"/>
                                <path id="Path_2122" data-name="Path 2122" d="M341.6,1027H329.2l51.6-198.3a22.869,22.869,0,0,1,19.3-17L483.8,801a16.524,16.524,0,0,1,18.4,13.9L534.5,1027H522.3l-32-210.2a4.412,4.412,0,0,0-5-3.7l-83.7,10.7a11.015,11.015,0,0,0-9.2,8.1Z" fill="#858990"/>
                                <path id="Path_2123" data-name="Path 2123" d="M470.6,682.7l-1.4.3c-10.4,2.2-21.1-5.1-23.3-15.5l-5.7-26.3a6.422,6.422,0,0,1,4.9-7.6l24.6-5.3a8.328,8.328,0,0,1,9.9,6.4l5.3,24.5C487.1,669.5,481.5,680.7,470.6,682.7Z" fill="#f69797"/>
                                <path id="Path_2124" data-name="Path 2124" d="M467.9,668.9l.9.9a4.713,4.713,0,0,0,7.6-1.8l.5-1.4c.1-.3-.1-.6-.4-.5l-8.4,2.2A.349.349,0,0,0,467.9,668.9Z" fill="#fff"/>
                                <path id="Path_2125" data-name="Path 2125" d="M463,658a2.1,2.1,0,1,0-2.1-2.1A2.1,2.1,0,0,0,463,658Z" fill="#21252b"/>
                                <path id="Path_2126" data-name="Path 2126" d="M464,657a.4.4,0,1,0-.4-.4A.4.4,0,0,0,464,657Z" fill="#fff"/>
                                <path id="Path_2127" data-name="Path 2127" d="M478.9,655.5a2.1,2.1,0,1,0-2.1-2.1A2.1,2.1,0,0,0,478.9,655.5Z" fill="#21252b"/>
                                <path id="Path_2128" data-name="Path 2128" d="M480,654.4a.4.4,0,1,0-.4-.4A.4.4,0,0,0,480,654.4Z" fill="#fff"/>
                                <g id="Group_92" data-name="Group 92" opacity="0.3">
                                    <path id="Path_2129" data-name="Path 2129" d="M473.7,663.7l-2.7.7c-.3.1-.7-.1-.7-.4-.1-.3.1-.7.4-.7l2.7-.7a1.237,1.237,0,1,0-.6-2.4c-.3.1-.7-.1-.7-.4-.1-.3.1-.7.4-.7a2.516,2.516,0,0,1,3,1.8A2.358,2.358,0,0,1,473.7,663.7Z" opacity="0.3"/>
                                </g>
                                <path id="Path_2130" data-name="Path 2130" d="M486.8,640.4h1.1c-8.4-27.9-38.5-27.7-50.6-13.5-7.3,8.6-10.4,22.6-10.4,22.6,2.4,5.2,9,9.3,11.1,12.9.9,1.6,2.8-5.9,4.1-6.9.2-.1,1.8,1.5,2.9,2.6a1.144,1.144,0,0,0,2-.6,30.82,30.82,0,0,0-.4-10.5l-.7-3.1c6.7-2.2,26.9-10.1,31.4-11.6,1.1-.4,2.1,1.3,2.4,2.4L483,650l2.8-7.3Z" fill="#21252b"/>
                                <path id="Path_2131" data-name="Path 2131" d="M447.4,668.3s-8.7,3-12.8-5.3c-4.2-8.3,6.3-12.7,10.2-4.3l3.7,9.3Z" fill="#f69797"/>
                                <path id="Path_2132" data-name="Path 2132" d="M436.1,657.6a3.412,3.412,0,0,1,2.5-1.4,3.327,3.327,0,0,1,2.6,1.2,7.8,7.8,0,0,1,1.9,3.2l.3.9c.2.7-.9,1.2-1.2.4l-.3-1a7.246,7.246,0,0,0-1.5-2.6,2.4,2.4,0,0,0-1.7-.8,2.81,2.81,0,0,0-1.7,1,.619.619,0,0,1-.8.1A.769.769,0,0,1,436.1,657.6Z" opacity="0.3"/>
                                <path id="Path_2133" data-name="Path 2133" d="M479.1,644.7a8.235,8.235,0,0,0-5.5,4.6,7.591,7.591,0,0,0-5.1.9,8.551,8.551,0,0,0-8.3-2.7,8.343,8.343,0,1,0,10.1,6.1,7.066,7.066,0,0,0-1.1-2.5,7.011,7.011,0,0,1,4.1-.8,8.569,8.569,0,0,0-.1,4.5,8.343,8.343,0,1,0,16.2-4A8.616,8.616,0,0,0,479.1,644.7Zm-15.2,18a7.264,7.264,0,1,1,5.3-8.8A7.292,7.292,0,0,1,463.9,662.7Zm19-2.9a7.264,7.264,0,1,1,5.3-8.8A7.2,7.2,0,0,1,482.9,659.8Z" fill="#fff"/>
                                <path id="Path_2134" data-name="Path 2134" d="M444.3,667.6a1.8,1.8,0,1,0-1.8-1.8A1.8,1.8,0,0,0,444.3,667.6Z" fill="#ec4969"/>
                                <path id="Path_2135" data-name="Path 2135" d="M445.2,667.1a1.972,1.972,0,0,1-2.4-1.4,2.046,2.046,0,0,1,0-1.1,1.8,1.8,0,0,0-.4,1.6,1.712,1.712,0,0,0,2.2,1.3,1.456,1.456,0,0,0,.9-.6C445.5,667.1,445.4,667.1,445.2,667.1Z" opacity="0.15"/>
                                <path id="Path_2136" data-name="Path 2136" d="M445.6,668.7l3.1-.7-2.4,7.7Z" opacity="0.15"/>
                                <path id="Path_2137" data-name="Path 2137" d="M479.6,634.6c-16.9-4-14.1,21.3-31.6,17.9-16.4-3.2-1.6-23-1.6-23l14.5-2.6,19.5,2.4Z" fill="#21252b"/>
                                <path id="Path_2138" data-name="Path 2138" d="M450.1,653.6a11.128,11.128,0,0,1-5-1.4" fill="none" stroke="#f69797" stroke-linecap="round" stroke-miterlimit="10" stroke-width="1.299"/>
                                <path id="Path_2139" data-name="Path 2139" d="M476.2,682.6l-.4-1.7h-.1a22.2,22.2,0,0,1-10.4,1.2.608.608,0,0,0-.2,1.2c1,.1,1.9.2,2.8.2a15.487,15.487,0,0,0,2.2-.1,7.573,7.573,0,0,0,6.6,1.3Z" opacity="0.15"/>
                                <path id="Path_2140" data-name="Path 2140" d="M445.6,668.7s3,16.7,11.8,28c0,0-11.8,2.8-20.9.7C428.1,695.5,445.6,668.7,445.6,668.7Z" fill="#21252b"/>
                                <path id="Path_2141" data-name="Path 2141" d="M468.5,353.4V603.6l-238.1-4.3-.2-159.7,93.9-86.2Z" fill="#eaeaea"/>
                                <path id="Path_2142" data-name="Path 2142" d="M397.7,358.8,304,598.1H274.5l95.4-239.3Z" fill="#fff" opacity="0.2"/>
                                <path id="Path_2143" data-name="Path 2143" d="M356.5,358.8,262.7,598.1h-9.8l95.4-239.3Z" fill="#fff" opacity="0.2"/>
                                <path id="Path_2144" data-name="Path 2144" d="M215.6,609H474V348H330l-11.7,10.9V598.2H215.4Zm247.5-10.9H329.2V358.8H463.1Z" fill="#fff"/>
                                <path id="Path_2145" data-name="Path 2145" d="M310.6,365.8H463.1v-4H315Z" fill="#fff"/>
                                <path id="Path_2146" data-name="Path 2146" d="M303,372.7H463.1v-4H307.4Z" fill="#fff"/>
                                <path id="Path_2147" data-name="Path 2147" d="M295.4,379.7H463.1v-4H299.8Z" fill="#fff"/>
                                <path id="Path_2148" data-name="Path 2148" d="M287.8,386.7H463.1v-4H292.2Z" fill="#fff"/>
                                <path id="Path_2149" data-name="Path 2149" d="M280.3,393.7H463.1v-4H284.6Z" fill="#fff"/>
                                <path id="Path_2150" data-name="Path 2150" d="M272.6,400.6H463.1v-4H277Z" fill="#fff"/>
                                <path id="Path_2151" data-name="Path 2151" d="M457.9,470h.2V358.8h1V470h.2a1.367,1.367,0,0,1,1.4,1.4v15.5a1.367,1.367,0,0,1-1.4,1.4H458a1.367,1.367,0,0,1-1.4-1.4V471.4A1.236,1.236,0,0,1,457.9,470Z" fill="#fff"/>
                                <path id="Path_2152" data-name="Path 2152" d="M460.933,365.729h2.1v-4h-2.1Z" fill="#ddd"/>
                                <path id="Path_2153" data-name="Path 2153" d="M460.933,372.77h2.1v-4h-2.1Z" fill="#ddd"/>
                                <path id="Path_2154" data-name="Path 2154" d="M460.933,379.71h2.1v-4h-2.1Z" fill="#ddd"/>
                                <path id="Path_2155" data-name="Path 2155" d="M460.933,386.65h2.1v-4h-2.1Z" fill="#ddd"/>
                                <path id="Path_2156" data-name="Path 2156" d="M460.933,393.69h2.1v-4h-2.1Z" fill="#ddd"/>
                                <path id="Path_2157" data-name="Path 2157" d="M460.933,400.63h2.1v-4h-2.1Z" fill="#ddd"/>
                                <path id="Path_2158" data-name="Path 2158" d="M318.255,367.419h10.9v-1.7h-10.9Z" fill="#ddd"/>
                                <path id="Path_2159" data-name="Path 2159" d="M318.255,374.46h10.9v-1.7h-10.9Z" fill="#ddd"/>
                                <path id="Path_2160" data-name="Path 2160" d="M318.255,381.4h10.9v-1.7h-10.9Z" fill="#ddd"/>
                                <path id="Path_2161" data-name="Path 2161" d="M318.255,388.34h10.9v-1.7h-10.9Z" fill="#ddd"/>
                                <path id="Path_2162" data-name="Path 2162" d="M318.255,395.38h10.9v-1.7h-10.9Z" fill="#ddd"/>
                                <path id="Path_2163" data-name="Path 2163" d="M318.255,402.321h10.9v-1.7h-10.9Z" fill="#ddd"/>
                            </g>
                        </svg>    