<svg xmlns="http://www.w3.org/2000/svg" width="1255.003" height="870.707" viewBox="0 0 1255.003 870.707" class="col-8 col-lg-12 d-block img-fluid ml-auto mr-auto">
                            <g id="Code_collaboration" data-name="Code collaboration" transform="translate(-149.014 -157.043)">
                                <path id="Path_4042" data-name="Path 4042" d="M1318.26,1026.69l84.79-449.94a56.043,56.043,0,0,0-6.25-37.88L1226.95,237.71a56.007,56.007,0,0,0-44.6-28.34L484.28,157.2a55.976,55.976,0,0,0-47.36,20.19L161.83,510.64a56.015,56.015,0,0,0-11.73,46.63l93.86,469.42Z" fill="#f2f2f2"/>
                                <path id="Path_4043" data-name="Path 4043" d="M1368.56,1027.75H198.69a.59.59,0,0,1,0-1.18H1368.67a.562.562,0,0,1,.59.59A.658.658,0,0,1,1368.56,1027.75Z" fill="#b0b4b9"/>
                                <path id="Path_4044" data-name="Path 4044" d="M932.92,985.23a44.577,44.577,0,0,1-1.03,6.69c-2.48,6.95-10.36,9.16-17.35,11.44l-38.33,13.56c-3.45,1.1-3.03,6.15.59,6.15h4.8a3.284,3.284,0,0,0,2.7,1.35,4.841,4.841,0,0,0,2.95-1.18c.08-.08.17-.08.25-.17h.67c.08.08.25.08.34.25a3.455,3.455,0,0,0,2.53,1.18,4.875,4.875,0,0,0,2.78-1.01.817.817,0,0,1,1.18.08,2.572,2.572,0,0,0,2.02.93,4.291,4.291,0,0,0,2.36-.84.9.9,0,0,1,1.1.08,2.868,2.868,0,0,0,1.85.76,2.612,2.612,0,0,0,2.27-1.35h.34l50.94-.76h.14a11.1,11.1,0,0,0,10.51-8.96l4.2-23.95Z" fill="#fc9d9d"/>
                                <path id="Path_4045" data-name="Path 4045" d="M956.65,987.061l-24.12,1.12,25.53,6.96-3.01,12.109a11.347,11.347,0,0,1-10.62,8.66h-.14l-50.55.76h-.34a2.6,2.6,0,0,1-4.12.59.892.892,0,0,0-1.1-.08,4.189,4.189,0,0,1-2.36.84,2.557,2.557,0,0,1-2.02-.93.891.891,0,0,0-1.18-.08,4.368,4.368,0,0,1-2.78,1.01,3.161,3.161,0,0,1-2.53-1.18,1.1,1.1,0,0,0-.34-.25h-.08l-.76.25a4.354,4.354,0,0,0-.59.25c-.08.08-.25.17-.34.25-2.36,1.68-1.68,5.73,1.52,5.73h4.8a3.284,3.284,0,0,0,2.7,1.35,4.841,4.841,0,0,0,2.95-1.18c.08-.08.17-.08.25-.17h.67c.08.08.25.08.34.25a3.456,3.456,0,0,0,2.53,1.18,4.875,4.875,0,0,0,2.78-1.01.817.817,0,0,1,1.18.08,2.572,2.572,0,0,0,2.02.93,4.291,4.291,0,0,0,2.36-.84.9.9,0,0,1,1.1.08,2.868,2.868,0,0,0,1.85.76,2.612,2.612,0,0,0,2.27-1.35h.34l47.43-.76c9.08,1.3,11.71-3.46,13.65-7l4.79-25.909Z" opacity="0.15"/>
                                <path id="Path_4046" data-name="Path 4046" d="M912.18,1004.2s7.41,13.06,21.31,17.77H919.42Z" opacity="0.15"/>
                                <path id="Path_4047" data-name="Path 4047" d="M874.19,1026.69h86.94a2.36,2.36,0,1,0,0-4.72H871.92v2.36A2.34,2.34,0,0,0,874.19,1026.69Z" fill="#dc3545"/>
                                <path id="Path_4048" data-name="Path 4048" d="M871.92,1021.97a12.057,12.057,0,0,1,8.09-10.95L908.82,1001a2.174,2.174,0,0,1,2.86,1.52c1.26,4.21,4.38,13.23,10.53,19.46h38.92a2.358,2.358,0,0,1,2.36,2.36,2.3,2.3,0,0,1-2.36,2.36H874.19a2.262,2.262,0,0,1-2.27-2.27v-2.46Z" fill="#dc3545"/>
                                <path id="Path_4049" data-name="Path 4049" d="M871.92,1021.97a12.057,12.057,0,0,1,8.09-10.95L908.82,1001a2.174,2.174,0,0,1,2.86,1.52c1.26,4.21,4.38,13.23,10.53,19.46h38.92a2.358,2.358,0,0,1,2.36,2.36,2.3,2.3,0,0,1-2.36,2.36H874.19a2.262,2.262,0,0,1-2.27-2.27v-2.46Z" fill="#21252b"/>
                                <path id="Path_4050" data-name="Path 4050" d="M871.92,1021.97a12.038,12.038,0,0,1,5.39-9.6c-4.13,2.95-3.37,5.9,2.53,5.64,30.41-1.43,34.37-1.43,37.91-1.77a.314.314,0,0,1-.08-.25,35.4,35.4,0,0,0,4.63,5.98h38.84a2.358,2.358,0,0,1,2.36,2.36,2.3,2.3,0,0,1-2.36,2.36H874.2a2.262,2.262,0,0,1-2.27-2.27Z" opacity="0.4"/>
                                <path id="Path_4051" data-name="Path 4051" d="M871.92,1021.21h49.61l.68.76H871.92Z" opacity="0.4"/>
                                <path id="Path_4052" data-name="Path 4052" d="M1181.9,859.931H1075.27a11.047,11.047,0,0,1-10.44-14.22L1076.41,609a10.918,10.918,0,0,1,10.44-7.94h106.63a11.047,11.047,0,0,1,10.44,14.22l-11.57,236.71A10.939,10.939,0,0,1,1181.9,859.931Z" fill="#84888f"/>
                                <path id="Path_4053" data-name="Path 4053" d="M1167.23,859.931h-92.87a11.047,11.047,0,0,1-10.44-14.22L1075.5,609a10.918,10.918,0,0,1,10.44-7.94h92.87a11.047,11.047,0,0,1,10.44,14.22l-11.57,236.71A10.939,10.939,0,0,1,1167.23,859.931Z" fill="#b0b4b9"/>
                                <path id="Path_4054" data-name="Path 4054" d="M1149.35,859.929H1036.49a9.53,9.53,0,1,1,0-19.06h112.86a9.53,9.53,0,1,1,0,19.06Z" fill="#b0b4b9"/>
                                <path id="Path_4055" data-name="Path 4055" d="M1130.56,1008.36h-97.01v9.6h97.01Z" fill="#b0b4b9"/>
                                <path id="Path_4056" data-name="Path 4056" d="M1042.57,1016.04a9.148,9.148,0,1,1-10.52-7.53A9.145,9.145,0,0,1,1042.57,1016.04Z" fill="#b0b4b9"/>
                                <path id="Path_4057" data-name="Path 4057" d="M1032.05,1008.51a9.464,9.464,0,0,1,1.5-.11v-.04h97.01v9.6h-87.88a9.147,9.147,0,1,1-10.63-9.45Z" fill="#b0b4b9"/>
                                <path id="Path_4058" data-name="Path 4058" d="M1167.31,1008.36H1070.3v9.6h97.01Z" fill="#84888f"/>
                                <path id="Path_4059" data-name="Path 4059" d="M1079.32,1016.04a9.148,9.148,0,1,1-10.52-7.53A9.145,9.145,0,0,1,1079.32,1016.04Z" fill="#84888f"/>
                                <path id="Path_4060" data-name="Path 4060" d="M1122.4,854.211h-9.6V1012.29h9.6Z" fill="#84888f"/>
                                <path id="Path_4061" data-name="Path 4061" d="M1176.33,1016.04a9.148,9.148,0,1,1-10.52-7.53A9.145,9.145,0,0,1,1176.33,1016.04Z" fill="#84888f"/>
                                <path id="Path_4062" data-name="Path 4062" d="M1178.9,859.929H1066.05a9.53,9.53,0,1,1,0-19.06H1178.9a9.53,9.53,0,1,1,0,19.06Z" fill="#84888f"/>
                                <path id="Path_4063" data-name="Path 4063" d="M1287.95,778.01h-7.3v248.64h7.3Z" fill="#61656d"/>
                                <path id="Path_4064" data-name="Path 4064" d="M1280.65,778.01h-77.22v248.63h77.22Z" fill="#61656d"/>
                                <path id="Path_4065" data-name="Path 4065" d="M1280.65,778.01h-77.22v248.63h77.22Z" opacity="0.5"/>
                                <path id="Path_4066" data-name="Path 4066" d="M1297.33,763.779H783.68V778h513.65a7.11,7.11,0,0,0,0-14.22Z" fill="#61656d"/>
                                <path id="Path_4067" data-name="Path 4067" d="M932.52,988.18l38.2,1.3,15.5-148.21h148.69V778.26H960.95q-.69,0-1.38.03c-13.46.68-23.9,12.11-24.11,25.59Z" fill="#3f4249"/>
                                <path id="Path_4068" data-name="Path 4068" d="M1001.44,985.23a44.571,44.571,0,0,1-1.03,6.69c-2.48,6.95-10.36,9.16-17.35,11.44l-38.33,13.56c-3.45,1.1-3.03,6.15.59,6.15h4.8a3.284,3.284,0,0,0,2.7,1.35,4.841,4.841,0,0,0,2.95-1.18c.08-.08.17-.08.25-.17h.67c.08.08.25.08.34.25a3.455,3.455,0,0,0,2.53,1.18,4.875,4.875,0,0,0,2.78-1.01.817.817,0,0,1,1.18.08,2.572,2.572,0,0,0,2.02.93,4.291,4.291,0,0,0,2.36-.84.9.9,0,0,1,1.1.08,2.868,2.868,0,0,0,1.85.76,2.612,2.612,0,0,0,2.27-1.35h.34l50.94-.76h.14a11.1,11.1,0,0,0,10.51-8.96l4.86-23.95Z" fill="#fc9d9d"/>
                                <path id="Path_4069" data-name="Path 4069" d="M1025.17,987.061l-24.22,2.32,25.62,5.76-3.01,12.109a11.347,11.347,0,0,1-10.62,8.66h-.14l-50.55.76h-.34a2.6,2.6,0,0,1-4.12.59.892.892,0,0,0-1.1-.08,4.189,4.189,0,0,1-2.36.84,2.557,2.557,0,0,1-2.02-.93.891.891,0,0,0-1.18-.08,4.368,4.368,0,0,1-2.78,1.01,3.161,3.161,0,0,1-2.53-1.18,1.1,1.1,0,0,0-.34-.25h-.08l-.76.25a4.35,4.35,0,0,0-.59.25c-.08.08-.25.17-.34.25-2.36,1.68-1.68,5.73,1.52,5.73h4.8a3.284,3.284,0,0,0,2.7,1.35,4.841,4.841,0,0,0,2.95-1.18c.08-.08.17-.08.25-.17h.67c.08.08.25.08.34.25a3.456,3.456,0,0,0,2.53,1.18,4.875,4.875,0,0,0,2.78-1.01.817.817,0,0,1,1.18.08,2.572,2.572,0,0,0,2.02.93,4.291,4.291,0,0,0,2.36-.84.9.9,0,0,1,1.1.08,2.868,2.868,0,0,0,1.85.76,2.612,2.612,0,0,0,2.27-1.35h.34l47.43-.76c9.08,1.3,11.71-3.46,13.65-7l5.45-25.909Z" opacity="0.15"/>
                                <path id="Path_4070" data-name="Path 4070" d="M980.7,1004.2s7.41,13.06,21.31,17.77H987.94Z" opacity="0.15"/>
                                <path id="Path_4071" data-name="Path 4071" d="M951.03,988.81l19.7.67,15.5-148.21h148.69V778.26H986.14c-5.56,0-10.91,2.91-15.39,7.1a34.55,34.55,0,0,0-10.65,23.56Z" opacity="0.2"/>
                                <path id="Path_4072" data-name="Path 4072" d="M942.71,1026.69h86.94a2.36,2.36,0,1,0,0-4.72H940.44v2.36A2.34,2.34,0,0,0,942.71,1026.69Z" fill="#dc3545"/>
                                <path id="Path_4073" data-name="Path 4073" d="M940.44,1021.97a12.057,12.057,0,0,1,8.09-10.95L977.34,1001a2.175,2.175,0,0,1,2.86,1.52c1.26,4.21,4.38,13.23,10.53,19.46h38.92a2.358,2.358,0,0,1,2.36,2.36,2.3,2.3,0,0,1-2.36,2.36H942.71a2.262,2.262,0,0,1-2.27-2.27Z" fill="#dc3545"/>
                                <path id="Path_4074" data-name="Path 4074" d="M940.44,1021.97a12.057,12.057,0,0,1,8.09-10.95L977.34,1001a2.175,2.175,0,0,1,2.86,1.52c1.26,4.21,4.38,13.23,10.53,19.46h38.92a2.358,2.358,0,0,1,2.36,2.36,2.3,2.3,0,0,1-2.36,2.36H942.71a2.262,2.262,0,0,1-2.27-2.27Z" fill="#21252b"/>
                                <path id="Path_4075" data-name="Path 4075" d="M940.44,1021.97a12.038,12.038,0,0,1,5.39-9.6c-4.13,2.95-3.37,5.9,2.53,5.64,30.41-1.43,34.37-1.43,37.91-1.77a.314.314,0,0,1-.08-.25,35.389,35.389,0,0,0,4.63,5.98h38.84a2.358,2.358,0,0,1,2.36,2.36,2.3,2.3,0,0,1-2.36,2.36H942.72a2.262,2.262,0,0,1-2.27-2.27Z" opacity="0.4"/>
                                <path id="Path_4076" data-name="Path 4076" d="M940.44,1021.21h49.62l.67.76H940.44Z" opacity="0.4"/>
                                <path id="Path_4077" data-name="Path 4077" d="M1000.95,989.38l38.95.1,32.76-148.21h69.66a24.032,24.032,0,0,0,24.03-24.03V778.25H1049.33a27.435,27.435,0,0,0-25.36,17.02Z" fill="#3f4249"/>
                                <path id="Path_4078" data-name="Path 4078" d="M1048.48,827.88c6.32-12.3,13.31-15.92,27.13-15.92h71.91l-3.62-33.7h21.99v39.77a23.24,23.24,0,0,1-23.24,23.24h-69.89l-32.84,148.21-17.96-.05Z" opacity="0.2"/>
                                <path id="Path_4079" data-name="Path 4079" d="M999.36,763.7l16.85-116.08a29.513,29.513,0,0,1,22.32-24.43l45.07-10.7,45.41.42,41.95,10.02a29.5,29.5,0,0,1,22.32,33.11l-4.89,32.18-8.26,17.86a21.914,21.914,0,0,0-.93,3.03l-12.87,54.67Z" fill="#dc3545"/>
                                <path id="Path_4080" data-name="Path 4080" d="M1040.5,675.789l103.76,4.17-2.21,21.43-103.66-4.72Z" fill="#fff"/>
                                <path id="Path_4081" data-name="Path 4081" d="M1139.62,724.44l6.66-65.46a.688.688,0,0,0-1.35-.25l-20.72,67.98Z" opacity="0.2"/>
                                <path id="Path_4082" data-name="Path 4082" d="M1015.87,754.69a2.507,2.507,0,0,0,3.45.42l14.91-10.95-18.95,8.68A2.493,2.493,0,0,0,1015.87,754.69Z" fill="#868a91"/>
                                <path id="Path_4083" data-name="Path 4083" d="M1042.24,658.651l-8,78.93-6.99,6.91-6.4-4.21,13.98-75.82C1036.26,658.231,1042.24,657.721,1042.24,658.651Z" opacity="0.2"/>
                                <path id="Path_4084" data-name="Path 4084" d="M1129.09,612.91s.84,3.45-1.85,5.14c-3.03,1.77-14.74,9.6-31.25,4.63a35.213,35.213,0,0,1-10.19-5.05,5.157,5.157,0,0,1-2.11-3.45v-1.6l-4.63,1.1a9.246,9.246,0,0,0,2.78,6.49c1.35,1.35,21.31,16.76,46.75,2.53a8.436,8.436,0,0,0,4.97-8.68Z" fill="#fff"/>
                                <path id="Path_4085" data-name="Path 4085" d="M1065.24,735.311l-11.96,1.6-25.53-2.27a8.563,8.563,0,0,0-5.9,2.53l-15.75,14.07a2.514,2.514,0,0,0,3.2,3.87l14.91-10.95-9.69,11.46a2.448,2.448,0,0,0,1.01,3.88,2.49,2.49,0,0,0,2.53-.51l12.97-12.72-9.86,9.69a2.282,2.282,0,0,0,2.95,3.46l13.82-10.11-9.35,6.91a1.964,1.964,0,0,0,0,3.2,2.016,2.016,0,0,0,1.94.25l12.55-5.22a4.562,4.562,0,0,1,3.79.08l4.8,2.36a28.319,28.319,0,0,0,12.55,2.95h7.83C1083.27,759.831,1065.24,735.311,1065.24,735.311Z" fill="#fc9d9d"/>
                                <path id="Path_4086" data-name="Path 4086" d="M1028.59,756.619a.314.314,0,0,0,.25-.08l8.59-6.32a.421.421,0,0,0-.51-.67l-8.59,6.32a.413.413,0,0,0-.08.59A.7.7,0,0,0,1028.59,756.619Z" opacity="0.15"/>
                                <path id="Path_4087" data-name="Path 4087" d="M1021.27,756.37c.08,0,.25,0,.25-.08l9.27-9.1a.417.417,0,0,0-.59-.59l-9.27,9.1a.405.405,0,0,0,0,.59A.522.522,0,0,0,1021.27,756.37Z" opacity="0.15"/>
                                <path id="Path_4088" data-name="Path 4088" d="M1040.3,752.919c-2.86,1.43-7.67,3.88-9.35,4.8-2.36,1.35-3.03-.42-3.03-.42a2.061,2.061,0,0,0,.76,2.11,2.016,2.016,0,0,0,1.94.25l12.55-5.22a4.562,4.562,0,0,1,3.79.08l-2.44-1.43A4.66,4.66,0,0,0,1040.3,752.919Z" opacity="0.15"/>
                                <path id="Path_4089" data-name="Path 4089" d="M1067.18,736.321l72.36-10.61,4.72-45.83,45.15,2.27-9.18,58.55a22.614,22.614,0,0,1-22.32,19.12h-82.3Z" fill="#dc3545"/>
                                <path id="Path_4090" data-name="Path 4090" d="M1057.32,736.321l82.22-10.53,4.72-45.83,45.15,2.27-9.18,58.55a22.614,22.614,0,0,1-22.32,19.12H1065.5Z" fill="#dc3545"/>
                                <path id="Path_4091" data-name="Path 4091" d="M1065.49,735.311l-8.17,1.01,8.09,23.51h10.11Z" fill="#fff"/>
                                <g id="Group_235" data-name="Group 235" opacity="0.2">
                                    <path id="Path_4092" data-name="Path 4092" d="M1064.65,734.72a.616.616,0,0,0,.59.51h.08l74.3-10.78.17-1.35-74.64,10.87A.649.649,0,0,0,1064.65,734.72Z" opacity="0.2"/>
                                </g>
                                <path id="Path_4093" data-name="Path 4093" d="M1064.06,755.61l1.35,4.13h92.41a22.554,22.554,0,0,0,22.32-19.12l13.23-84.66a29.514,29.514,0,0,0-22.32-33.11l-7.83-1.85a29.465,29.465,0,0,1,17.19,31.34l-12.22,78.01a22.614,22.614,0,0,1-22.32,19.12Z" opacity="0.15"/>
                                <path id="Path_4094" data-name="Path 4094" d="M1055.89,755.7a3.4,3.4,0,0,0,3.29-3.71l-1.85-15.67,8.17,23.5h-1.18a28,28,0,0,1-12.55-2.95l-5.73-2.7C1047.38,754.35,1050.92,755.7,1055.89,755.7Z" opacity="0.15"/>
                                <path id="Path_4095" data-name="Path 4095" d="M1076.7,759.15H993.64a1.3,1.3,0,0,0-1.26,1.26v2.11a1.3,1.3,0,0,0,1.26,1.26h83.06a1.3,1.3,0,0,0,1.26-1.26v-2.11A1.242,1.242,0,0,0,1076.7,759.15Z" fill="#21252b"/>
                                <path id="Path_4096" data-name="Path 4096" d="M1076.7,759.15H993.64a1.3,1.3,0,0,0-1.26,1.26v2.11a1.3,1.3,0,0,0,1.26,1.26h83.06a1.3,1.3,0,0,0,1.26-1.26v-2.11A1.242,1.242,0,0,0,1076.7,759.15Z" opacity="0.6"/>
                                <path id="Path_4097" data-name="Path 4097" d="M1020.68,759.15H875.86a1.3,1.3,0,0,0-1.26,1.26v2.11a1.3,1.3,0,0,0,1.26,1.26h144.81a1.3,1.3,0,0,0,1.26-1.26v-2.11A1.345,1.345,0,0,0,1020.68,759.15Z" fill="#21252b"/>
                                <g id="Group_236" data-name="Group 236" opacity="0.6">
                                    <path id="Path_4098" data-name="Path 4098" d="M877.72,759.99h147.42a.42.42,0,1,0,0-.84H877.72a.4.4,0,0,0-.42.42A.45.45,0,0,0,877.72,759.99Z" opacity="0.6"/>
                                </g>
                                <path id="Path_4099" data-name="Path 4099" d="M1021.01,759.149H999.19a3.51,3.51,0,0,1-3.45-2.86l-18.28-96.12a3.472,3.472,0,0,1,3.45-4.13h21.82a3.51,3.51,0,0,1,3.45,2.86l18.28,96.12A3.512,3.512,0,0,1,1021.01,759.149Z" fill="#21252b"/>
                                <path id="Path_4100" data-name="Path 4100" d="M1021.01,759.149H999.19a3.51,3.51,0,0,1-3.45-2.86l-18.28-96.12a3.472,3.472,0,0,1,3.45-4.13h21.82a3.51,3.51,0,0,1,3.45,2.86l18.28,96.12A3.512,3.512,0,0,1,1021.01,759.149Z" opacity="0.6"/>
                                <path id="Path_4101" data-name="Path 4101" d="M1017.9,759.149H877.8a3.51,3.51,0,0,1-3.45-2.86l-18.28-96.12a3.472,3.472,0,0,1,3.45-4.13H999.53a3.51,3.51,0,0,1,3.45,2.86l18.28,96.12A3.407,3.407,0,0,1,1017.9,759.149Z" fill="#21252b"/>
                                <path id="Path_4102" data-name="Path 4102" d="M937.87,704.9c.84,1.94-.08,3.62-2.02,3.62h-.34c2.27,2.53,5.73,4.3,8.76,4.21,4.13-.08,6.07-3.45,4.21-7.58-1.77-4.13-6.66-7.33-10.78-7.24-2.61.08-4.38,1.43-4.8,3.54A6.091,6.091,0,0,1,937.87,704.9Z" opacity="0.6"/>
                                <path id="Path_4103" data-name="Path 4103" d="M1079.9,562.781s38.58-28.31,42.37,2.53l1.1,8.09,5.73,39.51v.08l.08.84a4.046,4.046,0,0,1-.84,3.12v.08l-.08.08a3.638,3.638,0,0,1-1.01.93,38.623,38.623,0,0,1-7.67,3.88,36.056,36.056,0,0,1-34.79-5.05,4.818,4.818,0,0,1-1.1-3.37l.67-20.55a34.107,34.107,0,0,1-1.35-7.08C1081.75,573.741,1079.9,562.781,1079.9,562.781Z" fill="#fc9d9d"/>
                                <path id="Path_4104" data-name="Path 4104" d="M1075.52,564.97a13.73,13.73,0,1,0-13.73-13.73A13.734,13.734,0,0,0,1075.52,564.97Z" fill="#21252b"/>
                                <path id="Path_4105" data-name="Path 4105" d="M1073.75,541.3s-9.94,61.24,21.31,63.01c27.04,1.6,26.87-40.27,26.87-40.27l-3.29-26.96Z" fill="#fc9d9d"/>
                                <path id="Path_4106" data-name="Path 4106" d="M1075.77,544.931h27.46a6.218,6.218,0,0,1,6.23,6.23,6.218,6.218,0,0,0,6.23,6.23,1.684,1.684,0,0,1,1.68,1.68v6.07a1.417,1.417,0,0,0,1.43,1.43,1.375,1.375,0,0,0,1.35-1.18l.84-5.81,1.1-2.02,6.74,3.54s9.27-16.85,3.2-31.09c-3.45-8.17-11.96-10.45-15.84-10.7a4.42,4.42,0,0,1-3.2-1.77c-1.77-2.61-5.98-6.99-14.57-5.98a14.361,14.361,0,0,0-11.63,7.67,4.343,4.343,0,0,1-5.14,1.94,11.907,11.907,0,0,0-11.46,1.68C1061.45,528.921,1066.17,544.171,1075.77,544.931Z" fill="#21252b"/>
                                <path id="Path_4107" data-name="Path 4107" d="M1123.7,575.42s-2.53.42-3.96-.59l4.8,6.4Z" opacity="0.15"/>
                                <path id="Path_4108" data-name="Path 4108" d="M1121.01,559.5a5.522,5.522,0,0,1,7.67-3.62c6.91,2.44,6.74,17.86-4.63,19.54-5.98.93-4.97-2.61-4.3-7.33Z" fill="#fc9d9d"/>
                                <path id="Path_4109" data-name="Path 4109" d="M1129.26,559.751a4.2,4.2,0,0,0-3.37-.59,4.3,4.3,0,0,0-2.44,2.27,8.714,8.714,0,0,0-.84,4.21V567a.716.716,0,0,0,1.43-.09v-1.35a8.381,8.381,0,0,1,.67-3.54,2.948,2.948,0,0,1,1.6-1.6,3.1,3.1,0,0,1,2.27.51.685.685,0,0,0,.93-.25A.715.715,0,0,0,1129.26,559.751Z" opacity="0.3"/>
                                <path id="Path_4110" data-name="Path 4110" d="M1075.69,546.19l3.2.08a.631.631,0,1,0,.08-1.26l-3.2-.08a4.728,4.728,0,0,1-1.18-.17,15.532,15.532,0,0,1-3.79-1.52.62.62,0,1,0-.59,1.09,14.732,14.732,0,0,0,4.13,1.6A3.154,3.154,0,0,0,1075.69,546.19Z" fill="#fc9d9d"/>
                                <path id="Path_4111" data-name="Path 4111" d="M1083.69,610.04l.34-9.77c2.78,2.53,10.53,5.81,18.7,3.2h0a20.568,20.568,0,0,0,10.28-7.5.606.606,0,0,1,1.01.67,22.429,22.429,0,0,1-13.65,8.68A22.05,22.05,0,0,1,1083.69,610.04Z" opacity="0.15"/>
                                <g id="Group_237" data-name="Group 237" opacity="0.45">
                                    <path id="Path_4112" data-name="Path 4112" d="M1091.78,592.27h3.79a.84.84,0,1,0,0-1.68h-3.71a.844.844,0,0,0-.84.84A1.108,1.108,0,0,0,1091.78,592.27Z" opacity="0.3"/>
                                </g>
                                <g id="Group_238" data-name="Group 238" opacity="0.45">
                                    <path id="Path_4113" data-name="Path 4113" d="M1090.26,588.811c6.82.51,9.6-3.37,10.53-5.31a.754.754,0,0,0-1.35-.67c-.93,1.85-3.96,5.98-12.3,3.88a.779.779,0,1,0-.34,1.52A17.614,17.614,0,0,0,1090.26,588.811Z" opacity="0.3"/>
                                </g>
                                <path id="Path_4114" data-name="Path 4114" d="M1098.09,571.96a2.44,2.44,0,1,0-2.44-2.44A2.437,2.437,0,0,0,1098.09,571.96Z" fill="#21252b"/>
                                <path id="Path_4115" data-name="Path 4115" d="M1096.91,570.62a.51.51,0,1,0-.51-.51A.512.512,0,0,0,1096.91,570.62Z" fill="#fff"/>
                                <path id="Path_4116" data-name="Path 4116" d="M1078.55,573.48a2.44,2.44,0,1,0-2.44-2.44A2.437,2.437,0,0,0,1078.55,573.48Z" fill="#21252b"/>
                                <path id="Path_4117" data-name="Path 4117" d="M1077.37,572.059a.51.51,0,1,0-.51-.51A.512.512,0,0,0,1077.37,572.059Z" fill="#fff"/>
                                <g id="Group_239" data-name="Group 239" opacity="0.45">
                                    <path id="Path_4118" data-name="Path 4118" d="M1087.98,582.92h3.37a.76.76,0,1,0,0-1.52h-3.37a1.52,1.52,0,0,1,0-3.04.76.76,0,1,0,0-1.52,3.041,3.041,0,0,0,0,6.08Z" opacity="0.3"/>
                                </g>
                                <path id="Path_4119" data-name="Path 4119" d="M1067.6,568.849l.17,2.78a9.708,9.708,0,0,0,19.37-1.35l-.17-2.78a3.677,3.677,0,0,0-.93-2.11l3.79-.25a3.23,3.23,0,0,0-.59,2.19l.17,2.78a9.708,9.708,0,1,0,19.37-1.35l-.17-2.78a3.519,3.519,0,0,0-3.79-3.29l-12.13.84h-.08l-9.44.67-1.43.08-10.78.76A3.782,3.782,0,0,0,1067.6,568.849Zm25.19-3.88h.08l12.13-.84a2.154,2.154,0,0,1,2.27,2.02l.17,2.78a8.281,8.281,0,1,1-16.52,1.18l-.17-2.78A2.267,2.267,0,0,1,1092.79,564.969Zm-23.68,3.71a2.154,2.154,0,0,1,2.02-2.27l10.78-.76,1.43-.08a2.154,2.154,0,0,1,2.27,2.02l.17,2.78a8.281,8.281,0,0,1-16.52,1.18Z" fill="#21252b"/>
                                <path id="Path_4120" data-name="Path 4120" d="M794.46,177.471H779.67V1027.75h14.79Z" fill="#fff"/>
                                <path id="Path_4121" data-name="Path 4121" d="M990.96,532.87H589.78a1.34,1.34,0,0,1-1.34-1.34V280.99a1.34,1.34,0,0,1,1.34-1.34H990.96a1.34,1.34,0,0,1,1.34,1.34V531.52A1.342,1.342,0,0,1,990.96,532.87Z" fill="#dc3545"/>
                                <path id="Path_4122" data-name="Path 4122" d="M990.96,532.87H589.78a1.34,1.34,0,0,1-1.34-1.34V280.99a1.34,1.34,0,0,1,1.34-1.34H990.96a1.34,1.34,0,0,1,1.34,1.34V531.52A1.342,1.342,0,0,1,990.96,532.87Z" fill="#fff" opacity="0.2"/>
                                <path id="Path_4123" data-name="Path 4123" d="M984.34,532.87H583.16a1.34,1.34,0,0,1-1.34-1.34V280.99a1.34,1.34,0,0,1,1.34-1.34H984.34a1.34,1.34,0,0,1,1.34,1.34V531.52A1.33,1.33,0,0,1,984.34,532.87Z" fill="#3f4249"/>
                                <path id="Path_4124" data-name="Path 4124" d="M977.67,287.74H589.83V524.78H977.67V287.74Z" fill="#dc3545"/>
                                <path id="Path_4125" data-name="Path 4125" d="M977.67,287.74H692.42V524.78H977.67Z" fill="#fff" opacity="0.7"/>
                                <path id="Path_4126" data-name="Path 4126" d="M692.42,287.74H589.83V524.78H692.42V287.74Z" fill="#fff" opacity="0.5"/>
                                <path id="Path_4127" data-name="Path 4127" d="M562.07,680.1a4.27,4.27,0,1,0-4.27-4.27A4.268,4.268,0,0,0,562.07,680.1Z"/>
                                <path id="Path_4128" data-name="Path 4128" d="M562.07,677.32a1.49,1.49,0,1,0-1.49-1.49A1.494,1.494,0,0,0,562.07,677.32Z" fill="#fff"/>
                                <path id="Path_4129" data-name="Path 4129" d="M562.07,673.08V503.76h19.75" fill="none" stroke="#000" stroke-miterlimit="10" stroke-width="3"/>
                                <path id="Path_4130" data-name="Path 4130" d="M928.33,647.19a4.27,4.27,0,1,0-4.27-4.27A4.268,4.268,0,0,0,928.33,647.19Z"/>
                                <path id="Path_4131" data-name="Path 4131" d="M928.33,644.41a1.49,1.49,0,1,0-1.49-1.49A1.494,1.494,0,0,0,928.33,644.41Z" fill="#fff"/>
                                <path id="Path_4132" data-name="Path 4132" d="M928.33,640.159V532.869" fill="none" stroke="#000" stroke-miterlimit="10" stroke-width="3"/>
                                <path id="Path_4133" data-name="Path 4133" d="M837.54,312.92H713.86v4.5H837.54Z" fill="#fff"/>
                                <path id="Path_4134" data-name="Path 4134" d="M772.5,328.551H713.86v4.5H772.5Z" fill="#fff"/>
                                <path id="Path_4135" data-name="Path 4135" d="M790.08,344.189H731.44v4.5h58.64Z" fill="#fff"/>
                                <path id="Path_4136" data-name="Path 4136" d="M836.79,430.84H713.86v4.5H836.79Z" fill="#b074ff"/>
                                <path id="Path_4137" data-name="Path 4137" d="M776.94,446.52H713.86v4.5h63.08Z" fill="#fff"/>
                                <path id="Path_4138" data-name="Path 4138" d="M776.94,462.2H713.86v4.5h63.08Z" fill="#fff"/>
                                <path id="Path_4139" data-name="Path 4139" d="M818.69,481.85H755.61v4.5h63.08Z" fill="#fff"/>
                                <path id="Path_4140" data-name="Path 4140" d="M860.07,481.85H832.6v4.5h27.47Z" fill="#fff"/>
                                <path id="Path_4141" data-name="Path 4141" d="M823.23,501.51H795.76v4.5h27.47Z" fill="#fff"/>
                                <path id="Path_4142" data-name="Path 4142" d="M901.53,501.51H841.81v4.5h59.72Z" fill="#fff"/>
                                <path id="Path_4143" data-name="Path 4143" d="M950.65,501.51H909.34v4.5h41.31v-4.5Z" fill="#fff"/>
                                <path id="Path_4144" data-name="Path 4144" d="M943.71,481.85H874.98v4.5h68.73Z" fill="#fff"/>
                                <path id="Path_4145" data-name="Path 4145" d="M853.45,446.52H790.37v4.5h63.08Z" fill="#00beff"/>
                                <path id="Path_4146" data-name="Path 4146" d="M940.38,430.84H853.86v4.5h86.52Z" fill="#fd8a88"/>
                                <path id="Path_4147" data-name="Path 4147" d="M849.22,328.551H790.58v4.5h58.64Z" fill="#fd8a88"/>
                                <path id="Path_4148" data-name="Path 4148" d="M811.03,361.289H752.39v4.5h58.64Z" fill="#fff"/>
                                <path id="Path_4149" data-name="Path 4149" d="M865.63,361.289H831.2v4.5h34.43Z" fill="#00beff"/>
                                <path id="Path_4150" data-name="Path 4150" d="M959.48,361.289H881.69v4.5h77.79Z" fill="#fff"/>
                                <path id="Path_4151" data-name="Path 4151" d="M787.79,379.25h-35.4v4.5h35.4Z" fill="#fff"/>
                                <path id="Path_4152" data-name="Path 4152" d="M865.63,379.25H807.96v4.5h57.67Z" fill="#fff"/>
                                <path id="Path_4153" data-name="Path 4153" d="M959.48,379.25H873.66v4.5h85.82Z" fill="#fff"/>
                                <path id="Path_4154" data-name="Path 4154" d="M821.92,397.211H752.39v4.5h69.53Z" fill="#fff"/>
                                <path id="Path_4155" data-name="Path 4155" d="M876.52,397.211H831.2v4.5h45.32v-4.5Z" fill="#fd8a88"/>
                                <path id="Path_4156" data-name="Path 4156" d="M964.16,397.211H886.37v4.5h77.79Z" fill="#fff"/>
                                <path id="Path_4157" data-name="Path 4157" d="M811.03,415.17H752.39v4.5h58.64Z" fill="#fff"/>
                                <path id="Path_4158" data-name="Path 4158" d="M865.63,415.17H831.2v4.5h34.43Z" fill="#fff"/>
                                <path id="Path_4159" data-name="Path 4159" d="M959.48,415.17H881.69v4.5h77.79Z" fill="#fff"/>
                                <path id="Path_4160" data-name="Path 4160" d="M951.83,328.551H864.1v4.5h87.73Z" fill="#00f3be"/>
                                <g id="Group_240" data-name="Group 240" opacity="0.5">
                                    <path id="Path_4161" data-name="Path 4161" d="M612.75,308.41H599.23v13.52h13.52Z" fill="#fff" opacity="0.5"/>
                                    <path id="Path_4162" data-name="Path 4162" d="M681.88,312.92H624.25v4.5h57.63Z" fill="#fff" opacity="0.5"/>
                                    <path id="Path_4163" data-name="Path 4163" d="M612.75,328.551H599.23v13.52h13.52Z" fill="#fff" opacity="0.5"/>
                                    <path id="Path_4164" data-name="Path 4164" d="M681.88,333.061H624.25v4.5h57.63Z" fill="#fff" opacity="0.5"/>
                                    <path id="Path_4165" data-name="Path 4165" d="M612.75,348.689H599.23v13.52h13.52Z" fill="#fff" opacity="0.5"/>
                                    <path id="Path_4166" data-name="Path 4166" d="M681.88,353.2H624.25v4.5h57.63Z" fill="#fff" opacity="0.5"/>
                                    <path id="Path_4167" data-name="Path 4167" d="M631.47,370.24H617.95v13.52h13.52Z" fill="#fff" opacity="0.5"/>
                                    <path id="Path_4168" data-name="Path 4168" d="M681.89,374.74H642.98v4.5h38.91Z" fill="#fff" opacity="0.5"/>
                                    <path id="Path_4169" data-name="Path 4169" d="M631.47,391.041H617.95v13.52h13.52Z" fill="#fff" opacity="0.5"/>
                                    <path id="Path_4170" data-name="Path 4170" d="M681.89,395.551H642.98v4.5h38.91Z" fill="#fff" opacity="0.5"/>
                                    <path id="Path_4171" data-name="Path 4171" d="M631.47,411.85H617.95v13.52h13.52Z" fill="#fff" opacity="0.5"/>
                                    <path id="Path_4172" data-name="Path 4172" d="M681.89,416.35H642.98v4.5h38.91Z" fill="#fff" opacity="0.5"/>
                                    <path id="Path_4173" data-name="Path 4173" d="M612.75,434.99H599.23v13.52h13.52Z" fill="#fff" opacity="0.5"/>
                                    <path id="Path_4174" data-name="Path 4174" d="M681.88,439.5H624.25V444h57.63Z" fill="#fff" opacity="0.5"/>
                                    <path id="Path_4175" data-name="Path 4175" d="M631.47,456.541H617.95v13.52h13.52Z" fill="#fff" opacity="0.5"/>
                                    <path id="Path_4176" data-name="Path 4176" d="M681.89,461.051H642.98v4.5h38.91Z" fill="#fff" opacity="0.5"/>
                                    <path id="Path_4177" data-name="Path 4177" d="M631.47,477.35H617.95v13.52h13.52Z" fill="#fff" opacity="0.5"/>
                                    <path id="Path_4178" data-name="Path 4178" d="M681.89,481.85H642.98v4.5h38.91Z" fill="#fff" opacity="0.5"/>
                                    <path id="Path_4179" data-name="Path 4179" d="M631.47,498.15H617.95v13.52h13.52Z" fill="#fff" opacity="0.5"/>
                                    <path id="Path_4180" data-name="Path 4180" d="M681.89,502.66H642.98v4.5h38.91Z" fill="#fff" opacity="0.5"/>
                                </g>
                                <g id="Group_241" data-name="Group 241" opacity="0.7">
                                    <path id="Path_4181" data-name="Path 4181" d="M702.71,312.92h-4.5v4.5h4.5Z" fill="#fff" opacity="0.7"/>
                                    <path id="Path_4182" data-name="Path 4182" d="M702.71,328.551h-4.5v4.5h4.5Z" fill="#fff" opacity="0.7"/>
                                    <path id="Path_4183" data-name="Path 4183" d="M702.71,344.189h-4.5v4.5h4.5Z" fill="#fff" opacity="0.7"/>
                                    <path id="Path_4184" data-name="Path 4184" d="M702.71,359.82h-4.5v4.5h4.5Z" fill="#fff" opacity="0.7"/>
                                    <path id="Path_4185" data-name="Path 4185" d="M702.71,375.459h-4.5v4.5h4.5Z" fill="#fff" opacity="0.7"/>
                                    <path id="Path_4186" data-name="Path 4186" d="M702.71,391.09h-4.5v4.5h4.5Z" fill="#fff" opacity="0.7"/>
                                    <path id="Path_4187" data-name="Path 4187" d="M702.71,406.721h-4.5v4.5h4.5Z" fill="#fff" opacity="0.7"/>
                                    <path id="Path_4188" data-name="Path 4188" d="M702.71,422.359h-4.5v4.5h4.5Z" fill="#fff" opacity="0.7"/>
                                    <path id="Path_4189" data-name="Path 4189" d="M702.71,437.99h-4.5v4.5h4.5Z" fill="#fff" opacity="0.7"/>
                                    <path id="Path_4190" data-name="Path 4190" d="M702.71,453.619h-4.5v4.5h4.5Z" fill="#fff" opacity="0.7"/>
                                    <path id="Path_4191" data-name="Path 4191" d="M702.71,469.26h-4.5v4.5h4.5Z" fill="#fff" opacity="0.7"/>
                                    <path id="Path_4192" data-name="Path 4192" d="M702.71,484.891h-4.5v4.5h4.5Z" fill="#fff" opacity="0.7"/>
                                    <path id="Path_4193" data-name="Path 4193" d="M702.71,500.529h-4.5v4.5h4.5Z" fill="#fff" opacity="0.7"/>
                                </g>
                                <path id="Path_4227" data-name="Path 4227" d="M366.04,665.81c-133.09,45.56-114.5,229.98-97.86,316.07a55.048,55.048,0,0,0,54.02,44.67H690.1a54.886,54.886,0,0,0,53.92-44.16c4.21-21.41,6.69-50.58,2.66-87.46-9.55-87.51-78.84-101.03-78.84-101.03s-87.81-14.32-122.81-59.67S454.35,635.58,366.04,665.81Z" fill="#b1b5ba"/>
                                <path id="Path_4228" data-name="Path 4228" d="M542.08,757.04l-11.35-12.68a7.163,7.163,0,0,0-4.49-2.55l-20.64-.58-33.51-6.25-13.63,14.471,29.2,5.279,2.71,1.39a18.193,18.193,0,0,0,14.7,1.211l.12.01,4.12-1.44a3.965,3.965,0,0,1,3.08.24l9.56,5.289a1.492,1.492,0,0,0,1.56-.06,1.685,1.685,0,0,0,.3-2.6l-6.8-6.411,10.18,9.31a1.884,1.884,0,0,0,1.74.44,1.809,1.809,0,0,0,.93-2.89l-7.02-8.71,9.23,11.36a1.843,1.843,0,0,0,1.97.591,1.975,1.975,0,0,0,1.18-2.981l-6.74-10.11,10.92,10.11a1.92,1.92,0,0,0,2.76-.04A1.758,1.758,0,0,0,542.08,757.04Z" fill="#f69797"/>
                                <path id="Path_4229" data-name="Path 4229" d="M469.55,747.609l19.47,4.52a9.662,9.662,0,0,1,4.19,2.04,18.345,18.345,0,0,0,9.73,3.87s-7.07,2.18-15.31-3.2l-22.41-3.9Z" opacity="0.15"/>
                                <path id="Path_4230" data-name="Path 4230" d="M607.36,1024.61l46.02,1.41c.8-1.36,3.06-5.44.45-6.41l-31.02-13.48c-5.48-2.06-11.78-4.5-13.04-8.3-.6-.9.46-2.73.11-3.75l-3.05-46.33-23.06,5.14-2.89,40.89c.5,4.06.06,10.93.07,14.83l-.07,6.29a9.042,9.042,0,0,0,8.41,8.94h.13Z" fill="#f69797"/>
                                <path id="Path_4231" data-name="Path 4231" d="M623.43,1020.42l-16.34-.75h-.13a9.041,9.041,0,0,1-8.41-8.94l.07-6.29c-.01-3.9-1.16-10.77-1.66-14.83l2.85-40.28-16.03,3.57-2.89,40.89c.5,4.06.06,10.93.07,14.83l-.07,6.29a9.042,9.042,0,0,0,8.41,8.94h.13l17.93.75,46.02,1.41c.53-.91,1.71-3.03,1.66-4.63Z" opacity="0.15"/>
                                <path id="Path_4232" data-name="Path 4232" d="M583.78,844.951H484.1a37.205,37.205,0,0,1-37.16-36.54l-.37-23.19H609.43a25.774,25.774,0,0,1,25.58,28.96l-25.56,182.07-28.51-3.6-1.06-32.17C575.15,898.211,576.81,883.421,583.78,844.951Z" fill="#3f4249"/>
                                <path id="Path_4233" data-name="Path 4233" d="M607.78,820.121a33.22,33.22,0,0,0-33.16-34.79c-49.92-.04-107.06-.11-107.06-.11h-21l.37,23.19a37.205,37.205,0,0,0,37.16,36.54h99.68c-6.97,38.47-8.63,53.26-3.9,115.54l1.06,32.17,16.38,2.07Z" opacity="0.2"/>
                                <path id="Path_4234" data-name="Path 4234" d="M659.53,1026.69h45.64c.75-1.37,2.87-5.49.25-6.36l-31.05-13.34c-5.49-1.87-9.23-3.12-12.47-7.23a12.909,12.909,0,0,1-1.62-2.87l-24.19-54.87-29.8,14.339,25.31,43.891c2.24,3.24,2.74,7.48,2.87,11.35l.12,6.23a8.955,8.955,0,0,0,8.6,8.6h.12Z" fill="#f69797"/>
                                <path id="Path_4235" data-name="Path 4235" d="M706.04,1024.69c-.37.87-.75,1.62-1,2.12H659.4l-16.34-.25h-.12a8.862,8.862,0,0,1-8.6-8.6l-.12-6.23c-.12-3.87-.75-8.23-2.87-11.35l-9.1-15.709.5-4.36,13.84,9.98,8.73,21.2s8.35,11.35,33.29,12.34l24.94.87h2.49Z" opacity="0.15"/>
                                <path id="Path_4236" data-name="Path 4236" d="M654.17,982.921l-26.56,10.97-16.83-27.31c-40.78-60.48-48.85-71-65.06-121.5H425.62a37.205,37.205,0,0,1-37.16-36.54l8.71-23.32,154.53.12a29.738,29.738,0,0,1,27.43,18.33Z" fill="#3f4249"/>
                                <path id="Path_4237" data-name="Path 4237" d="M610.78,942.021c-32.17-55.36-31.65-61.151-46.11-107.161-3.99-12.72-13.09-15.459-19.58-15.459l-56.87.37c-19.2-.5-52.5,1.5-68.33-9.231l-27.68-25.31h4.97l-8.46,23.19a37.12,37.12,0,0,0,37.16,36.541H545.97c17.46,52.12,24.41,61.4,65.06,121.5l16.83,27.31,8.98-3.74C636.71,990.151,616.51,951.991,610.78,942.021Z" opacity="0.2"/>
                                <path id="Path_4238" data-name="Path 4238" d="M460.05,635.291a7.87,7.87,0,0,0,4.97,2.65c8.73,1.78,15.38,3.03,19.21-5.05,5.86-12.78,14.08-42.86,9.91-63.38-8.51.97-10.25,2.22-10.25,2.22s-9.34-7.23-9.52-7.42C474.42,564.191,449.18,620.361,460.05,635.291Z" fill="#21252b"/>
                                <path id="Path_4239" data-name="Path 4239" d="M437.35,617.02l20.62-72.17c-3.35-1.9-10.79.62-13.17,1.87-31.03,17.57-48.61,75.28-54.69,97.01,7.43,22.4,40.61-9.9,45.58-12.59C438.15,629.66,437.35,617.02,437.35,617.02Z" fill="#21252b"/>
                                <path id="Path_4240" data-name="Path 4240" d="M485.24,628.709l-37.37,45.57-27.85-42.16,2.44-4.33c.25-.09.49-.06.74-.15a7.417,7.417,0,0,0,5.03-7.32l8.02-23.54,26.54,20.69c.43,3.52,1.37,9.91,7.34,10.06Z" fill="#f69797"/>
                                <path id="Path_4241" data-name="Path 4241" d="M412.6,629.28c1.17-.03,8.3-.25,13.31,4.43,20.91,19.54,41.48,16.07,47.31-5.94l4.68.269s2.89,11.921,11.03,30.481c1.3,2.96,6.6,15.41,6.6,15.41,7.27,19.14-3.08,32-3.08,32a9.419,9.419,0,0,0-1.49,4.619s-.86,35.811,5.02,53.581c2.2,6.66,10.26,26.37,10.26,26.37s-49.67,1.6-69.89,10.89l-31.33,14.35c-10.12,4.7-20.83-5.15-17.1-15.73l1.77-4.94c6.68-18.5,19.75-38.1,18.64-57.61l-2.05-44.56-21.59-14.8-1.79-13.2C385.51,635.98,408.56,629.38,412.6,629.28Z" fill="#dc3545"/>
                                <path id="Path_4242" data-name="Path 4242" d="M442.02,779.17l.53-.42a3.159,3.159,0,0,1,.5-4.37l-.42-.53a3.159,3.159,0,0,1-4.37-.5l-.53.42a3.159,3.159,0,0,1-.5,4.37l.42.53A2.947,2.947,0,0,1,442.02,779.17Z" fill="#dc3545"/>
                                <path id="Path_4243" data-name="Path 4243" d="M409.08,696.859a1.787,1.787,0,0,1,1.96,1.66s2.33,18.68,16.78,21.37c-.81,1.07-9.73,2.36-10.26,3.86,0,0-3.78,74.07,7.28,83.01l-19.59,9c-10.12,4.7-20.83-5.15-17.1-15.73l1.77-4.94c6.68-18.5,19.31-36.16,18.21-55.67l-.73-40.46A1.762,1.762,0,0,1,409.08,696.859Z" opacity="0.3"/>
                                <path id="Path_4244" data-name="Path 4244" d="M491.4,784.849l.53-.42a3.159,3.159,0,0,1,.5-4.37l-.42-.53a3.159,3.159,0,0,1-4.37-.5l-.53.42a3.159,3.159,0,0,1-.5,4.37l.42.53A2.957,2.957,0,0,1,491.4,784.849Z" fill="#dc3545"/>
                                <path id="Path_4245" data-name="Path 4245" d="M492.33,705.92a16.9,16.9,0,0,1-8.25,5.91l6,4.94.77-6.23A10.73,10.73,0,0,1,492.33,705.92Z" opacity="0.3"/>
                                <path id="Path_4246" data-name="Path 4246" d="M528.85,784.969,517.5,772.3a7.163,7.163,0,0,0-4.49-2.55l-23.02.18-30.93-8.39-13.84,15.84,29.2,5.28,2.71,1.39a18.193,18.193,0,0,0,14.7,1.21l.12.01,4.12-1.44a3.965,3.965,0,0,1,3.08.24l9.56,5.29a1.492,1.492,0,0,0,1.56-.06,1.686,1.686,0,0,0,.3-2.6l-6.8-6.41,10.18,9.31a1.884,1.884,0,0,0,1.74.44,1.809,1.809,0,0,0,.93-2.89l-7.02-8.71,9.23,11.36a1.842,1.842,0,0,0,1.97.59,1.974,1.974,0,0,0,1.18-2.98l-6.74-10.11,10.92,10.11a1.92,1.92,0,0,0,2.76-.04C529.44,787.079,529.59,785.779,528.85,784.969Z" fill="#f69797"/>
                                <path id="Path_4247" data-name="Path 4247" d="M510.39,787.28c-.12-.01-.12-.01-.22-.15l-6.27-5.87c-.1-.13-.2-.38-.06-.49s.38-.2.49-.06l6.27,5.87c.1.13.2.38.06.49S510.39,787.28,510.39,787.28Z" opacity="0.15"/>
                                <path id="Path_4248" data-name="Path 4248" d="M516.2,787.711c-.12-.01-.24-.03-.22-.15l-6.6-8.18a.334.334,0,0,1,.52-.42l6.6,8.18a.365.365,0,0,1-.05.47C516.44,787.741,516.32,787.721,516.2,787.711Z" opacity="0.15"/>
                                <path id="Path_4249" data-name="Path 4249" d="M382.9,664.869l-11.84,93.32a16.067,16.067,0,0,0,9.96,12.28l57.24,22.63L468.3,764l-66.54-17.71,19.79-72.35Z" fill="#dc3545"/>
                                <path id="Path_4250" data-name="Path 4250" d="M419.88,751.13l.36-1.04,68.07,18.79-.17.46Z" opacity="0.3"/>
                                <path id="Path_4251" data-name="Path 4251" d="M456.32,775.551l19.47,4.52a9.662,9.662,0,0,1,4.19,2.04,18.345,18.345,0,0,0,9.73,3.87s-7.07,2.18-15.31-3.2l-22.41-3.9Z" opacity="0.15"/>
                                <path id="Path_4252" data-name="Path 4252" d="M424.05,649.391a1.661,1.661,0,1,0-1.46-1.84A1.615,1.615,0,0,0,424.05,649.391Z" fill="#f4f4f4"/>
                                <path id="Path_4253" data-name="Path 4253" d="M471.01,786.449h73.01a1.071,1.071,0,0,1,1.07,1.07v1.9a1.071,1.071,0,0,1-1.07,1.07H471.01a1.071,1.071,0,0,1-1.07-1.07v-1.9A1,1,0,0,1,471.01,786.449Z" fill="#21252b"/>
                                <path id="Path_4254" data-name="Path 4254" d="M471.01,786.449h73.01a1.071,1.071,0,0,1,1.07,1.07v1.9a1.071,1.071,0,0,1-1.07,1.07H471.01a1.071,1.071,0,0,1-1.07-1.07v-1.9A1,1,0,0,1,471.01,786.449Z" opacity="0.6"/>
                                <path id="Path_4255" data-name="Path 4255" d="M520.24,786.449H652.07a1.071,1.071,0,0,1,1.07,1.07v1.9a1.071,1.071,0,0,1-1.07,1.07H520.24a1.071,1.071,0,0,1-1.07-1.07v-1.9A1.059,1.059,0,0,1,520.24,786.449Z" fill="#21252b"/>
                                <g id="Group_242" data-name="Group 242" opacity="0.6">
                                    <path id="Path_4256" data-name="Path 4256" d="M645.92,787.159H516.31a.36.36,0,0,1,0-.72H645.92a.318.318,0,0,1,.36.36A.383.383,0,0,1,645.92,787.159Z" opacity="0.6"/>
                                </g>
                                <path id="Path_4257" data-name="Path 4257" d="M523.74,790.319l19.14-.22a3.284,3.284,0,0,0,3.06-2.53l15.08-84.72a3.1,3.1,0,0,0-3.13-3.65l-19.14.22a3.284,3.284,0,0,0-3.06,2.53l-15.08,84.72A3.112,3.112,0,0,0,523.74,790.319Z" fill="#21252b"/>
                                <path id="Path_4258" data-name="Path 4258" d="M523.74,790.319l19.14-.22a3.284,3.284,0,0,0,3.06-2.53l15.08-84.72a3.1,3.1,0,0,0-3.13-3.65l-19.14.22a3.284,3.284,0,0,0-3.06,2.53l-15.08,84.72A3.112,3.112,0,0,0,523.74,790.319Z" opacity="0.6"/>
                                <path id="Path_4259" data-name="Path 4259" d="M526.48,790.281l123.18-1.41a3.284,3.284,0,0,0,3.06-2.53l15.08-84.72a3.1,3.1,0,0,0-3.13-3.65l-123.18,1.41a3.284,3.284,0,0,0-3.06,2.53l-14.96,84.72A2.97,2.97,0,0,0,526.48,790.281Z" fill="#21252b"/>
                                <path id="Path_4260" data-name="Path 4260" d="M596.2,741.8c-.69,1.67.16,3.21,1.82,3.19h.24a10.414,10.414,0,0,1-7.69,3.77c-3.69-.08-5.39-3.03-3.76-6.62a11.114,11.114,0,0,1,9.44-6.53,4.319,4.319,0,0,1,4.32,3.04A5.614,5.614,0,0,0,596.2,741.8Z" opacity="0.6"/>
                                <path id="Path_4261" data-name="Path 4261" d="M458.15,622.87l-1.68-.26c-12.49-1.94-21.31-14.56-19.37-27.05l4.75-31.64a7.629,7.629,0,0,1,8.65-6.38l29.59,4.48a9.906,9.906,0,0,1,8.31,11.29l-4.43,29.47C482.06,615.15,471.11,625.24,458.15,622.87Z" fill="#f69797"/>
                                <path id="Path_4262" data-name="Path 4262" d="M460.96,606.39l.62,1.38a5.605,5.605,0,0,0,9.21,1.2l1.15-1.35c.24-.29.14-.71-.23-.72l-10.27-1.09C461.11,605.68,460.83,606.09,460.96,606.39Z" fill="#fff"/>
                                <path id="Path_4263" data-name="Path 4263" d="M460.11,592.21a2.5,2.5,0,1,0-1.45-3.22A2.441,2.441,0,0,0,460.11,592.21Z" fill="#21252b"/>
                                <path id="Path_4264" data-name="Path 4264" d="M461.64,591.519a.475.475,0,1,0-.28-.61A.521.521,0,0,0,461.64,591.519Z" fill="#fff"/>
                                <path id="Path_4265" data-name="Path 4265" d="M478.84,596.13a2.5,2.5,0,1,0-1.45-3.22A2.441,2.441,0,0,0,478.84,596.13Z" fill="#21252b"/>
                                <path id="Path_4266" data-name="Path 4266" d="M480.53,595.371a.475.475,0,1,0-.28-.61A.516.516,0,0,0,480.53,595.371Z" fill="#fff"/>
                                <g id="Group_243" data-name="Group 243" opacity="0.3">
                                    <path id="Path_4267" data-name="Path 4267" d="M469.6,603.059l-3.3-.36c-.38-.02-.74-.41-.61-.74.02-.38.41-.74.74-.61l3.3.36a1.47,1.47,0,0,0,.34-2.92c-.38-.02-.74-.41-.61-.74.02-.38.41-.74.74-.61a3,3,0,0,1,2.58,3.27A2.8,2.8,0,0,1,469.6,603.059Z" opacity="0.3"/>
                                </g>
                                <path id="Path_4268" data-name="Path 4268" d="M493.99,582.67l1.22.46c2.42-34.56-31.13-47.03-50.57-36.34-11.74,6.48-21.09,20.74-21.09,20.74.48,6.79,6.09,14.13,6.9,19.02.33,2.16,5.6-5.38,7.47-5.94.26-.03,1.37,2.43,2.13,4.11a1.364,1.364,0,0,0,2.48.18,36.579,36.579,0,0,0,3.98-11.84l.53-3.74c8.38.38,34.17.11,39.8.34,1.39.02,1.79,2.33,1.66,3.68l-2.78,18.4,6.19-6.94Z" fill="#21252b"/>
                                <path id="Path_4269" data-name="Path 4269" d="M438.42,597.081s-10.94-.33-12-11.29c-1.17-11,12.36-11.47,13.15-.48l.19,11.9Z" fill="#f69797"/>
                                <path id="Path_4270" data-name="Path 4270" d="M430.37,580.43a4.067,4.067,0,0,1,3.37-.5,3.984,3.984,0,0,1,2.39,2.43,9.22,9.22,0,0,1,.76,4.36l-.05,1.13c-.07.86-1.51.95-1.5-.06l.09-1.24a8.568,8.568,0,0,0-.57-3.52,2.867,2.867,0,0,0-1.55-1.61,3.314,3.314,0,0,0-2.31.4.729.729,0,0,1-.93-.23A.9.9,0,0,1,430.37,580.43Z" opacity="0.3"/>
                                <path id="Path_4271" data-name="Path 4271" d="M483.62,584.209a9.762,9.762,0,0,0-8.05,2.8,9,9,0,0,0-6.05-1.15,10.166,10.166,0,0,0-8.09-6.5,9.922,9.922,0,1,0,8.66,11.04,8.351,8.351,0,0,0-.17-3.24,8.375,8.375,0,0,1,4.9.84,10.252,10.252,0,0,0-2.01,4.96,9.922,9.922,0,1,0,19.7,2.38A10.264,10.264,0,0,0,483.62,584.209Zm-24.49,13.6a8.636,8.636,0,1,1,9.6-7.55A8.659,8.659,0,0,1,459.13,597.809Zm22.35,4.79a8.636,8.636,0,1,1,9.6-7.55A8.562,8.562,0,0,1,481.48,602.6Z" fill="#fff"/>
                                <path id="Path_4272" data-name="Path 4272" d="M435.27,595a2.14,2.14,0,1,0-1.24-2.76A2.133,2.133,0,0,0,435.27,595Z" fill="#dc3545"/>
                                <path id="Path_4273" data-name="Path 4273" d="M436.48,594.819a2.345,2.345,0,0,1-2.08-2.57,2.5,2.5,0,0,1,.46-1.22,2.147,2.147,0,0,0-1.12,1.61,2.033,2.033,0,0,0,1.9,2.37,1.705,1.705,0,0,0,1.25-.29C436.82,594.949,436.71,594.909,436.48,594.819Z" opacity="0.15"/>
                                <path id="Path_4274" data-name="Path 4274" d="M436.25,596.77l3.74.529-5.91,7.55Z" opacity="0.15"/>
                                <path id="Path_4275" data-name="Path 4275" d="M488.43,573.19c-17.1-11.57-24.65,17.74-42.68,6.58-16.89-10.47,7.92-26.25,7.92-26.25l17.22,3.22,20.67,10.89Z" fill="#21252b"/>
                                <path id="Path_4276" data-name="Path 4276" d="M447.62,581.881a13.188,13.188,0,0,1-4.97-3.66Z"/>
                                <path id="Path_4277" data-name="Path 4277" d="M447.62,581.881a13.188,13.188,0,0,1-4.97-3.66" fill="none" stroke="#f69797" stroke-linecap="round" stroke-miterlimit="10" stroke-width="1.299"/>
                                <path id="Path_4278" data-name="Path 4278" d="M464.86,624.59a5.542,5.542,0,0,1-.8-1.5,24.5,24.5,0,0,1-11.64-1.53.726.726,0,0,0-.56,1.34,31.73,31.73,0,0,0,3.19.98C461.45,625.35,464.86,624.59,464.86,624.59Z" opacity="0.15"/>
                                <path id="Path_4279" data-name="Path 4279" d="M436.25,596.771s-1.28,41.93,3.74,58.2a83.853,83.853,0,0,1-8.57.61c-.63.01-1.7-13.85-2.36-13.85-.71,0-1.02,13.86-1.76,13.84-5.96-.17-12.69-1.1-16.99-3.97-5.01-3.31.14-35.26,9.09-49.82C425.72,591.511,436.25,596.771,436.25,596.771Z" fill="#21252b"/>
                                <path id="Path_4280" data-name="Path 4280" d="M477.9,628.039l5.88.42a9.217,9.217,0,0,1,8.56,9.19v31C492.33,668.649,480.28,639.049,477.9,628.039Z" fill="#dc3545"/>
                                <path id="Path_4281" data-name="Path 4281" d="M492.33,666.44c-4.36-10.22-13.02-26.34-13.02-26.34l13.02,19.61Z" opacity="0.3"/>
                                <path id="Path_4282" data-name="Path 4282" d="M500.03,740.19l-3.86,24.48s-5.38-14.33-4.42-26.16Z" fill="#dc3545"/>
                                <path id="Path_4283" data-name="Path 4283" d="M496.17,764.67c-5.72-14.58-4.37-26.16-4.37-26.16l2.5.51s-.6,5.11-.66,11.07C493.6,754.28,496.17,764.67,496.17,764.67Z" opacity="0.3"/>
                                <path id="Path_4284" data-name="Path 4284" d="M389.44,659.83l-10.6,74.83a23.94,23.94,0,0,0,16.55,26.88c.1.03.19.06.29.08l60.75,13.94L438.25,793.1l-57.02-22.48a16.391,16.391,0,0,1-10.15-12.66l11.81-93.09c1.33-15.47,9.99-31.4,28.58-35.47C400.58,632.58,390.61,644.69,389.44,659.83Z" opacity="0.3"/>
                                <path id="Path_4285" data-name="Path 4285" d="M437.21,691.41a3.084,3.084,0,0,1,.93,1.32,2.876,2.876,0,0,1,.15,1.61,3.138,3.138,0,0,1-1.08-2.93Z" fill="#fff"/>
                                <path id="Path_4286" data-name="Path 4286" d="M437.75,694.7a2.629,2.629,0,1,1-1.47.03A2.436,2.436,0,0,1,437.75,694.7Z" fill="#fff"/>
                                <path id="Path_4287" data-name="Path 4287" d="M438.21,698.4a3,3,0,0,1-.57-1.51,2.916,2.916,0,0,1,.25-1.59,2.909,2.909,0,0,1,.57,1.51A3.026,3.026,0,0,1,438.21,698.4Z" fill="#fff"/>
                                <path id="Path_4288" data-name="Path 4288" d="M438.29,694.979a2.551,2.551,0,0,1,1.39-.49.767.767,0,1,1-1.39.49Z" fill="#fff"/>
                                <path id="Path_4289" data-name="Path 4289" d="M474.26,659.711a3.084,3.084,0,0,1,.93,1.32,2.875,2.875,0,0,1,.15,1.61,3.138,3.138,0,0,1-1.08-2.93Z" fill="#fff"/>
                                <path id="Path_4290" data-name="Path 4290" d="M474.8,663a2.629,2.629,0,1,1-1.47.03A2.517,2.517,0,0,1,474.8,663Z" fill="#fff"/>
                                <path id="Path_4291" data-name="Path 4291" d="M475.25,666.7a3,3,0,0,1-.57-1.51,2.917,2.917,0,0,1,.25-1.59,3.153,3.153,0,0,1,.32,3.1Z" fill="#fff"/>
                                <path id="Path_4292" data-name="Path 4292" d="M475.34,663.28a2.551,2.551,0,0,1,1.39-.49.767.767,0,1,1-1.39.49Z" fill="#fff"/>
                                <path id="Path_4293" data-name="Path 4293" d="M483.27,638.35a3.16,3.16,0,1,1,1.25,1.02A2.963,2.963,0,0,1,483.27,638.35Z" fill="#fff"/>
                                <path id="Path_4294" data-name="Path 4294" d="M485.99,640.279a2.61,2.61,0,1,1-1.01,1.06A2.509,2.509,0,0,1,485.99,640.279Z" fill="#fff"/>
                                <path id="Path_4295" data-name="Path 4295" d="M488.94,642.56a2.929,2.929,0,0,1-1.47-.66,3,3,0,0,1-.96-1.3,2.847,2.847,0,0,1,1.47.66A3,3,0,0,1,488.94,642.56Z" fill="#fff"/>
                                <path id="Path_4296" data-name="Path 4296" d="M486.57,640.1a2.547,2.547,0,0,1,.63-1.33.767.767,0,1,1,.62.55A2.578,2.578,0,0,1,486.57,640.1Z" fill="#fff"/>
                                <path id="Path_4297" data-name="Path 4297" d="M424.57,725.061a3.084,3.084,0,0,1,.93,1.32,2.875,2.875,0,0,1,.15,1.61,3.138,3.138,0,0,1-1.08-2.93Z" fill="#fff"/>
                                <path id="Path_4298" data-name="Path 4298" d="M425.11,728.35a2.629,2.629,0,1,1-1.47.03A2.523,2.523,0,0,1,425.11,728.35Z" fill="#fff"/>
                                <path id="Path_4299" data-name="Path 4299" d="M425.57,732.049a3,3,0,0,1-.57-1.51,2.916,2.916,0,0,1,.25-1.59,3.153,3.153,0,0,1,.32,3.1Z" fill="#fff"/>
                                <path id="Path_4300" data-name="Path 4300" d="M425.65,728.63a2.551,2.551,0,0,1,1.39-.49.767.767,0,1,1-1.39.49Z" fill="#fff"/>
                                <path id="Path_4301" data-name="Path 4301" d="M486.42,696.57a3.083,3.083,0,0,1,.93,1.32,2.875,2.875,0,0,1,.15,1.61,3.138,3.138,0,0,1-1.08-2.93Z" fill="#fff"/>
                                <path id="Path_4302" data-name="Path 4302" d="M486.96,699.86a2.436,2.436,0,0,1-1.22.81,2.517,2.517,0,0,1-1.47.03,2.629,2.629,0,0,1,2.69-.84Z" fill="#fff"/>
                                <path id="Path_4303" data-name="Path 4303" d="M487.41,703.561a3,3,0,0,1-.57-1.51,2.916,2.916,0,0,1,.25-1.59,3.153,3.153,0,0,1,.32,3.1Z" fill="#fff"/>
                                <path id="Path_4304" data-name="Path 4304" d="M487.5,700.14a2.55,2.55,0,0,1,1.39-.49.767.767,0,1,1-1.39.49Z" fill="#fff"/>
                                <path id="Path_4305" data-name="Path 4305" d="M438.14,757.141a3.084,3.084,0,0,1,.93,1.32,2.875,2.875,0,0,1,.15,1.61,3.083,3.083,0,0,1-.93-1.32A2.893,2.893,0,0,1,438.14,757.141Z" fill="#fff"/>
                                <path id="Path_4306" data-name="Path 4306" d="M438.68,760.431a2.629,2.629,0,1,1-1.47.03A2.437,2.437,0,0,1,438.68,760.431Z" fill="#fff"/>
                                <path id="Path_4307" data-name="Path 4307" d="M439.13,764.12a3,3,0,0,1-.57-1.511,2.913,2.913,0,0,1,.25-1.589,3.153,3.153,0,0,1,.32,3.1Z" fill="#fff"/>
                                <path id="Path_4308" data-name="Path 4308" d="M439.22,760.71a2.551,2.551,0,0,1,1.39-.49.767.767,0,1,1,.04.83A2.622,2.622,0,0,1,439.22,760.71Z" fill="#fff"/>
                                <path id="Path_4309" data-name="Path 4309" d="M473,737.439a3.083,3.083,0,0,1,.93,1.32,2.875,2.875,0,0,1,.15,1.61,3.138,3.138,0,0,1-1.08-2.93Z" fill="#fff"/>
                                <path id="Path_4310" data-name="Path 4310" d="M473.54,740.729a2.629,2.629,0,1,1-1.47.03A2.436,2.436,0,0,1,473.54,740.729Z" fill="#fff"/>
                                <path id="Path_4311" data-name="Path 4311" d="M474,744.43a3,3,0,0,1-.57-1.51,2.917,2.917,0,0,1,.25-1.59,2.909,2.909,0,0,1,.57,1.51A3.129,3.129,0,0,1,474,744.43Z" fill="#fff"/>
                                <path id="Path_4312" data-name="Path 4312" d="M474.08,741.011a2.551,2.551,0,0,1,1.39-.49.767.767,0,1,1-1.39.49Z" fill="#fff"/>
                                <path id="Path_4313" data-name="Path 4313" d="M413.18,770.17a3.083,3.083,0,0,1,.93,1.32,2.875,2.875,0,0,1,.15,1.61,3.137,3.137,0,0,1-1.08-2.93Z" fill="#fff"/>
                                <path id="Path_4314" data-name="Path 4314" d="M413.72,773.46a2.629,2.629,0,1,1-1.47.03A2.437,2.437,0,0,1,413.72,773.46Z" fill="#fff"/>
                                <path id="Path_4315" data-name="Path 4315" d="M414.18,777.151a3,3,0,0,1-.57-1.51,2.916,2.916,0,0,1,.25-1.59,2.909,2.909,0,0,1,.57,1.51A3.113,3.113,0,0,1,414.18,777.151Z" fill="#fff"/>
                                <path id="Path_4316" data-name="Path 4316" d="M414.26,773.739a2.55,2.55,0,0,1,1.39-.49.767.767,0,1,1,.04.83A2.642,2.642,0,0,1,414.26,773.739Z" fill="#fff"/>
                                <path id="Path_4317" data-name="Path 4317" d="M398.35,800.25a3.084,3.084,0,0,1,.93,1.32,2.875,2.875,0,0,1,.15,1.61,3.138,3.138,0,0,1-1.08-2.93Z" fill="#fff"/>
                                <path id="Path_4318" data-name="Path 4318" d="M398.89,803.54a2.629,2.629,0,1,1-1.47.03A2.436,2.436,0,0,1,398.89,803.54Z" fill="#fff"/>
                                <path id="Path_4319" data-name="Path 4319" d="M399.34,807.241a3,3,0,0,1-.57-1.51,2.917,2.917,0,0,1,.25-1.59,3.153,3.153,0,0,1,.32,3.1Z" fill="#fff"/>
                                <path id="Path_4320" data-name="Path 4320" d="M399.43,803.819a2.551,2.551,0,0,1,1.39-.49.767.767,0,1,1-1.39.49Z" fill="#fff"/>
                                <path id="Path_4321" data-name="Path 4321" d="M391.7,735.84a3.149,3.149,0,1,1,1.13,1.15A3,3,0,0,1,391.7,735.84Z" fill="#fff"/>
                                <path id="Path_4322" data-name="Path 4322" d="M394.19,738.061a2.453,2.453,0,0,1-.44,1.4,2.5,2.5,0,0,1-1.12.94,2.614,2.614,0,0,1,1.56-2.34Z" fill="#fff"/>
                                <path id="Path_4323" data-name="Path 4323" d="M396.87,740.649a3.054,3.054,0,0,1-1.39-.81.834.834,0,1,1,1.39.81Z" fill="#fff"/>
                                <path id="Path_4324" data-name="Path 4324" d="M394.79,737.941a2.591,2.591,0,1,1,1.32-.63A2.632,2.632,0,0,1,394.79,737.941Z" fill="#fff"/>
                                <path id="Path_4325" data-name="Path 4325" d="M414.48,685.279a3.04,3.04,0,0,1-1.56.41.835.835,0,1,1,0-.83A3.155,3.155,0,0,1,414.48,685.279Z" fill="#fff"/>
                                <path id="Path_4326" data-name="Path 4326" d="M411.21,684.64a2.607,2.607,0,1,1,.49-1.39A2.524,2.524,0,0,1,411.21,684.64Z" fill="#fff"/>
                                <path id="Path_4327" data-name="Path 4327" d="M407.58,683.781a3.035,3.035,0,0,1,1.61-.01,2.993,2.993,0,0,1,1.41.79,3.034,3.034,0,0,1-1.61.01A2.993,2.993,0,0,1,407.58,683.781Z" fill="#fff"/>
                                <path id="Path_4328" data-name="Path 4328" d="M410.76,685.051a2.608,2.608,0,1,1-.82,1.22A2.526,2.526,0,0,1,410.76,685.051Z" fill="#fff"/>
                                <path id="Path_4329" data-name="Path 4329" d="M394.02,661.65a3.083,3.083,0,0,1,.93,1.32,2.876,2.876,0,0,1,.15,1.61,3.083,3.083,0,0,1-.93-1.32A2.875,2.875,0,0,1,394.02,661.65Z" fill="#fff"/>
                                <path id="Path_4330" data-name="Path 4330" d="M394.56,664.95a2.436,2.436,0,0,1-1.22.81,2.517,2.517,0,0,1-1.47.03,2.629,2.629,0,0,1,2.69-.84Z" fill="#fff"/>
                                <path id="Path_4331" data-name="Path 4331" d="M395.01,668.639a3,3,0,0,1-.57-1.51,2.916,2.916,0,0,1,.25-1.59,3.153,3.153,0,0,1,.32,3.1Z" fill="#fff"/>
                                <path id="Path_4332" data-name="Path 4332" d="M395.1,665.229a2.551,2.551,0,0,1,1.39-.49.767.767,0,1,1,.04.83A2.6,2.6,0,0,1,395.1,665.229Z" fill="#fff"/>
                                <path id="Path_4333" data-name="Path 4333" d="M366.04,665.811s-58.71,135.9,39.45,162.95c41.98,11.57,89.16-6.14,116.02-2.03,48.22,7.37,68.18,109.87,48.38,199.819H323.35a62.467,62.467,0,0,1-61.9-53.729c-7.66-54.71-13.28-141.35,11.77-212.45C299.88,684.721,366.04,665.811,366.04,665.811Z" fill="#858990"/>
                                <path id="Path_4334" data-name="Path 4334" d="M291.11,975.881l-.68-.14c.14-.55,7.39-58.59,23.96-89.94l.55.27C298.5,917.561,291.11,975.331,291.11,975.881Z" fill="#3f4249"/>
                                <path id="Path_4335" data-name="Path 4335" d="M288.51,955.071h-.68c1.78-31.9-9.45-78.58-9.58-79.12l.68-.14C278.93,876.221,290.29,923.041,288.51,955.071Z" fill="#3f4249"/>
                                <path id="Path_4336" data-name="Path 4336" d="M313.15,888.809s.14-31.35,27.52-33.27C340.8,855.549,343,883.2,313.15,888.809Z" fill="#dc3545"/>
                                <path id="Path_4337" data-name="Path 4337" d="M247.44,882.1s-7.39-29.84-39.84-21.36C207.61,860.61,213.77,882.51,247.44,882.1Z" fill="#dc3545"/>
                                <path id="Path_4338" data-name="Path 4338" d="M282.62,894.291s9.72-25.46-12.87-38.74C269.89,855.551,260.04,880.6,282.62,894.291Z" fill="#dc3545"/>
                                <path id="Path_4339" data-name="Path 4339" d="M277.7,975.88h-.68c0-58.86-29.43-93.22-29.84-93.64l.55-.41C247.99,882.24,277.7,916.74,277.7,975.88Z" fill="#3f4249"/>
                                <path id="Path_4340" data-name="Path 4340" d="M287.14,975.88h-.68c3.42-60.37,6.16-70.91,11.5-91.72.55-2.19,1.1-4.38,1.78-6.84l.68.14c-.55,2.46-1.23,4.65-1.78,6.84C293.3,905.1,290.56,915.51,287.14,975.88Z" fill="#3f4249"/>
                                <path id="Path_4341" data-name="Path 4341" d="M270.72,974.779h-.68c3.7-45.31-6.84-77.35-16.29-96.24-11.09-22.04-24.78-34.36-31.21-37.37l.27-.55c6.57,3.01,20.4,15.47,31.49,37.65C263.87,897.159,274.55,929.329,270.72,974.779Z" fill="#3f4249"/>
                                <path id="Path_4342" data-name="Path 4342" d="M265.65,974.779h-.68c.14-.55,8.21-58.45-27.38-77.62l.27-.55c10.4,5.61,23.55,18.21,27.52,46.54A121.871,121.871,0,0,1,265.65,974.779Z" fill="#3f4249"/>
                                <path id="Path_4343" data-name="Path 4343" d="M292.21,967.12l-.68-.27c0-.14,3.29-9.45,13.28-17.25l.41.55C295.49,957.81,292.21,966.98,292.21,967.12Z" fill="#3f4249"/>
                                <path id="Path_4344" data-name="Path 4344" d="M295.49,949.181l-.41-.55c.82-.68,20.67-18.07,30.8-21.08l.14.68C316.03,931.111,295.63,948.911,295.49,949.181Z" fill="#3f4249"/>
                                <path id="Path_4345" data-name="Path 4345" d="M254.01,911.671s-8.08-30.66-39.97-23.55C214.04,888.131,219.52,914.271,254.01,911.671Z" fill="#dc3545"/>
                                <path id="Path_4346" data-name="Path 4346" d="M254.01,911.671s-8.08-30.66-39.97-23.55C214.04,888.131,219.52,914.271,254.01,911.671Z" fill="#fff" opacity="0.4"/>
                                <path id="Path_4347" data-name="Path 4347" d="M270.44,943.161s-5.48-21.77-34.77-14.65C235.67,928.511,245.25,950.281,270.44,943.161Z" fill="#dc3545"/>
                                <path id="Path_4348" data-name="Path 4348" d="M290.29,928.919s2.74-34.22,38.47-38.47C328.62,890.589,330.4,923.989,290.29,928.919Z" fill="#dc3545"/>
                                <path id="Path_4349" data-name="Path 4349" d="M280.85,975.879h-.68c.27-24.37,1.64-150.04,1.64-151.27h.68C282.35,825.839,280.98,951.509,280.85,975.879Z" fill="#3f4249"/>
                                <path id="Path_4350" data-name="Path 4350" d="M287.42,919.891s-30.53,1.64-30.53-32.17C256.89,887.721,286.46,888.131,287.42,919.891Z" fill="#dc3545"/>
                                <path id="Path_4351" data-name="Path 4351" d="M287.42,919.891s-30.53,1.64-30.53-32.17C256.89,887.721,286.46,888.131,287.42,919.891Z" fill="#fff" opacity="0.4"/>
                                <path id="Path_4352" data-name="Path 4352" d="M316.16,932.889s8.35-23.27,34.5-17.39C350.66,915.639,346.28,935.079,316.16,932.889Z" fill="#dc3545"/>
                                <path id="Path_4353" data-name="Path 4353" d="M316.16,932.889s8.35-23.27,34.5-17.39C350.66,915.639,346.28,935.079,316.16,932.889Z" fill="#fff" opacity="0.4"/>
                                <path id="Path_4354" data-name="Path 4354" d="M303.98,975.189H250.04v6.84h53.94Z" fill="#3f4249"/>
                                <path id="Path_4355" data-name="Path 4355" d="M297.14,1026.25H256.89l-3.01-44.211h46.27Z" fill="#84888f"/>
                                <path id="Path_4356" data-name="Path 4356" d="M297.14,1026.25H256.89l-3.01-44.211h46.27Z" fill="#3f4249"/>
                                <path id="Path_4357" data-name="Path 4357" d="M303.98,975.189h-8.62v6.85H253.88l.13,1.91h33.27l.14,42.3h9.72l3.01-44.211h3.83Z" opacity="0.2"/>
                                <path id="Path_4358" data-name="Path 4358" d="M281.67,850.76s-14.92-22.59,4.52-44.08A40.271,40.271,0,0,1,281.67,850.76Z" fill="#dc3545"/>
                                <path id="Path_4359" data-name="Path 4359" d="M281.67,850.76s-14.92-22.59,4.52-44.08A40.271,40.271,0,0,1,281.67,850.76Z" fill="#fff" opacity="0.4"/>
                                <path id="Path_4360" data-name="Path 4360" d="M295.22,896.069s-16.43-34.91,12.87-56.54C308.09,839.669,328.35,871.289,295.22,896.069Z" fill="#dc3545"/>
                                <path id="Path_4361" data-name="Path 4361" d="M295.22,896.069s-16.43-34.91,12.87-56.54C308.09,839.669,328.21,871.289,295.22,896.069Z" fill="#fff" opacity="0.4"/>
                                <path id="Path_4362" data-name="Path 4362" d="M299.19,955.89s3.97-15.2,24.78-12.05C323.97,943.84,320.54,959.31,299.19,955.89Z" fill="#dc3545"/>
                                <path id="Path_4363" data-name="Path 4363" d="M270.72,962.871s-4.52-29.57,22.45-32.99C293.17,929.881,299.6,955.481,270.72,962.871Z" fill="#dc3545"/>
                                <path id="Path_4364" data-name="Path 4364" d="M270.72,962.871s-4.52-29.57,22.45-32.99C293.17,929.881,299.6,955.481,270.72,962.871Z" fill="#fff" opacity="0.4"/>
                                <path id="Path_4365" data-name="Path 4365" d="M215.41,836.38s16.29-1.64,19.44,13.96C234.71,850.34,220.06,852.12,215.41,836.38Z" fill="#dc3545"/>
                                <path id="Path_4366" data-name="Path 4366" d="M215.41,836.38s16.29-1.64,19.44,13.96C234.71,850.34,220.06,852.12,215.41,836.38Z" fill="#fff" opacity="0.3"/>
                                <path id="Path_4367" data-name="Path 4367" d="M254.97,834.74s-20.26,21.08-.41,43.94C254.56,878.68,274.41,856.23,254.97,834.74Z" fill="#dc3545"/>
                                <path id="Path_4368" data-name="Path 4368" d="M254.97,834.74s-20.26,21.08-.41,43.94C254.56,878.68,274.41,856.23,254.97,834.74Z" fill="#fff" opacity="0.4"/>
                            </g>
                        </svg>        