<svg xmlns="http://www.w3.org/2000/svg" width="1154.563" height="886.865" viewBox="0 0 1154.563 886.865" class="col-8 col-lg-12 d-block img-fluid ml-auto mr-auto">
                            <g id="Discuss_talent_requirements" data-name="Discuss talent requirements" transform="translate(-222.682 -156.535)">
                                <path id="Path_2164" data-name="Path 2164" d="M1342.1,1043.4l34.9-351a56.184,56.184,0,0,0-2.4-22.3l-124-385a55.1,55.1,0,0,0-45.2-37.7L520.2,157A54.964,54.964,0,0,0,470,177.3L234.6,473.5A54.709,54.709,0,0,0,222.8,511l32,531.6Z" fill="#f4f4f4"/>
                                <path id="Path_2165" data-name="Path 2165" d="M360,870.8H276.1a2.6,2.6,0,1,1,0-5.2H360a2.582,2.582,0,0,1,2.6,2.6A2.647,2.647,0,0,1,360,870.8Z" fill="#61656d"/>
                                <path id="Path_2166" data-name="Path 2166" d="M356.5,870.8,370.4,1042h-2.8L346.7,870.8Z" fill="#61656d"/>
                                <path id="Path_2167" data-name="Path 2167" d="M279.1,870.8l-14,171.2h2.8l20.9-171.2Z" fill="#61656d"/>
                                <path id="Path_2168" data-name="Path 2168" d="M279.1,870.8l-.4,3.3h4.8L266.7,1042h1.2l20.9-171.2Z" fill="#3f4249"/>
                                <path id="Path_2169" data-name="Path 2169" d="M360.3,936.4h-2.5l-11.1-65.6h9.8L370.4,1042H369Z" fill="#3f4249"/>
                                <path id="Path_2170" data-name="Path 2170" d="M311.8,870.8,314,1042h2.8l4.8-171.2Z" fill="#3f4249"/>
                                <path id="Path_2171" data-name="Path 2171" d="M331.3,823.3s6.1-48.7,20.1-75.3" fill="none" stroke="#868a91" stroke-miterlimit="10" stroke-width="0.554"/>
                                <path id="Path_2172" data-name="Path 2172" d="M321,739.6s9.5,39.2,8,66.3" fill="none" stroke="#868a91" stroke-miterlimit="10" stroke-width="0.554"/>
                                <path id="Path_2173" data-name="Path 2173" d="M350.1,750.4s.1-26.3,23.1-27.8C373.2,722.5,375.1,745.6,350.1,750.4Z" fill="#dc3545"/>
                                <path id="Path_2174" data-name="Path 2174" d="M295,744.7s-6.2-25-33.4-17.9C261.6,726.8,266.8,745.1,295,744.7Z" fill="#dc3545"/>
                                <path id="Path_2175" data-name="Path 2175" d="M324.5,755s8.1-21.3-10.7-32.4C313.8,722.5,305.5,743.5,324.5,755Z" fill="#dc3545"/>
                                <path id="Path_2176" data-name="Path 2176" d="M295,744.7s25,28.6,25,78.6" fill="none" stroke="#868a91" stroke-miterlimit="10" stroke-width="0.554"/>
                                <path id="Path_2177" data-name="Path 2177" d="M339,740.8c-5.5,22-7.9,26.8-11.1,82.5" fill="none" stroke="#868a91" stroke-miterlimit="10" stroke-width="0.554"/>
                                <path id="Path_2178" data-name="Path 2178" d="M274.3,710.3c11,5,45.7,41.4,39.9,112.1" fill="none" stroke="#868a91" stroke-miterlimit="10" stroke-width="0.554"/>
                                <path id="Path_2179" data-name="Path 2179" d="M310,822.4s7.2-49-23.1-65.3" fill="none" stroke="#868a91" stroke-miterlimit="10" stroke-width="0.554"/>
                                <path id="Path_2180" data-name="Path 2180" d="M332.3,815.9a33.643,33.643,0,0,1,11-14.3" fill="none" stroke="#868a91" stroke-miterlimit="10" stroke-width="0.554"/>
                                <path id="Path_2181" data-name="Path 2181" d="M335,800.7s17.1-15.1,25.7-17.6" fill="none" stroke="#868a91" stroke-miterlimit="10" stroke-width="0.554"/>
                                <path id="Path_2182" data-name="Path 2182" d="M300.5,769.5s-6.7-25.7-33.5-19.7C267,749.8,271.6,771.7,300.5,769.5Z" fill="#dc3545"/>
                                <path id="Path_2183" data-name="Path 2183" d="M300.5,769.5s-6.7-25.7-33.5-19.7C267,749.8,271.6,771.7,300.5,769.5Z" fill="#fff" opacity="0.4"/>
                                <path id="Path_2184" data-name="Path 2184" d="M314.2,795.9s-4.6-18.3-29.1-12.2C285.2,783.6,293.2,801.9,314.2,795.9Z" fill="#dc3545"/>
                                <path id="Path_2185" data-name="Path 2185" d="M330.9,784s2.3-28.7,32.2-32.2C363,751.8,364.5,779.9,330.9,784Z" fill="#dc3545"/>
                                <path id="Path_2186" data-name="Path 2186" d="M324,696.6s-1.2,106.1-1.4,126.7" fill="none" stroke="#868a91" stroke-miterlimit="10" stroke-width="0.554"/>
                                <path id="Path_2187" data-name="Path 2187" d="M328.4,776.4s-25.5,1.3-25.5-26.9C302.9,749.5,327.6,749.8,328.4,776.4Z" fill="#dc3545"/>
                                <path id="Path_2188" data-name="Path 2188" d="M328.4,776.4s-25.5,1.3-25.5-26.9C302.9,749.5,327.6,749.8,328.4,776.4Z" fill="#fff" opacity="0.4"/>
                                <path id="Path_2189" data-name="Path 2189" d="M352.6,787.3s6.9-19.4,28.9-14.5C381.4,772.8,377.8,789.2,352.6,787.3Z" fill="#dc3545"/>
                                <path id="Path_2190" data-name="Path 2190" d="M352.6,787.3s6.9-19.4,28.9-14.5C381.4,772.8,377.8,789.2,352.6,787.3Z" fill="#fff" opacity="0.4"/>
                                <path id="Path_2191" data-name="Path 2191" d="M342.4,822.8H297.2v5.7h45.2Z" fill="#868a91"/>
                                <path id="Path_2192" data-name="Path 2192" d="M336.7,865.5H302.9l-2.5-37.1h38.8Z" fill="#868a91"/>
                                <path id="Path_2193" data-name="Path 2193" d="M336.7,865.5H302.9l-2.5-37.1h38.8Z" fill="#868a91"/>
                                <path id="Path_2194" data-name="Path 2194" d="M342.4,822.8h-7.3v5.6H300.4l.1,1.6h27.8l.1,35.5h8.3l2.5-37.1h3.2Z" fill="#61656d"/>
                                <path id="Path_2195" data-name="Path 2195" d="M323.7,718.5s-12.5-18.9,3.8-37C327.4,681.5,338.2,699.9,323.7,718.5Z" fill="#dc3545"/>
                                <path id="Path_2196" data-name="Path 2196" d="M323.7,718.5s-12.5-18.9,3.8-37C327.4,681.5,338.2,699.9,323.7,718.5Z" fill="#fff" opacity="0.4"/>
                                <path id="Path_2197" data-name="Path 2197" d="M335,756.5s-13.7-29.3,10.8-47.3C345.8,709.2,362.7,735.7,335,756.5Z" fill="#dc3545"/>
                                <path id="Path_2198" data-name="Path 2198" d="M335,756.5s-13.7-29.3,10.8-47.3C345.8,709.2,362.7,735.7,335,756.5Z" fill="#fff" opacity="0.4"/>
                                <path id="Path_2199" data-name="Path 2199" d="M338.3,806.6s3.3-12.8,20.8-10.1C359.1,796.5,356.2,809.5,338.3,806.6Z" fill="#dc3545"/>
                                <path id="Path_2200" data-name="Path 2200" d="M314.5,812.4s-3.8-24.7,18.8-27.6C333.3,784.8,338.7,806.3,314.5,812.4Z" fill="#dc3545"/>
                                <path id="Path_2201" data-name="Path 2201" d="M314.5,812.4s-3.8-24.7,18.8-27.6C333.3,784.8,338.7,806.3,314.5,812.4Z" fill="#fff" opacity="0.4"/>
                                <path id="Path_2202" data-name="Path 2202" d="M268.1,706.5s13.6-1.4,16.2,11.7A15.673,15.673,0,0,1,268.1,706.5Z" fill="#dc3545"/>
                                <path id="Path_2203" data-name="Path 2203" d="M268.1,706.5s13.6-1.4,16.2,11.7A15.673,15.673,0,0,1,268.1,706.5Z" fill="#fff" opacity="0.3"/>
                                <path id="Path_2204" data-name="Path 2204" d="M301.3,705.1s-16.9,17.6-.4,36.8C300.9,741.9,317.6,723.1,301.3,705.1Z" fill="#dc3545"/>
                                <path id="Path_2205" data-name="Path 2205" d="M301.3,705.1s-16.9,17.6-.4,36.8C300.9,741.9,317.6,723.1,301.3,705.1Z" fill="#fff" opacity="0.4"/>
                                <path id="Path_2206" data-name="Path 2206" d="M1269,768.4h68.9a3.4,3.4,0,1,0,0-6.8H1269Z" fill="#b2b6bb"/>
                                <path id="Path_2207" data-name="Path 2207" d="M1329,765h-69.5V979.1H1329Z" fill="#b2b6bb"/>
                                <path id="Path_2208" data-name="Path 2208" d="M1261.6,765H961.7V979.1h299.9Z" fill="#dadddf"/>
                                <path id="Path_2209" data-name="Path 2209" d="M1250.8,962.8H971.6v-168l279.2.2Zm-277.6-1.5h276.1V796.6H973.2Z" fill="#b2b6bb"/>
                                <path id="Path_2210" data-name="Path 2210" d="M953.8,768.4h315.3a3.4,3.4,0,1,0,0-6.8H953.8a3.4,3.4,0,0,0,0,6.8Z" fill="#dadddf"/>
                                <path id="Path_2211" data-name="Path 2211" d="M971.656,879.292h279.2v-1.6h-279.2Z" fill="#b2b6bb"/>
                                <path id="Path_2212" data-name="Path 2212" d="M1108.8,825.4a5.3,5.3,0,1,0-5.3-5.3A5.3,5.3,0,0,0,1108.8,825.4Z" fill="#b2b6bb"/>
                                <path id="Path_2213" data-name="Path 2213" d="M1110.8,820.1a5.289,5.289,0,0,0-3.6-5,4.673,4.673,0,0,1,1.7-.3,5.3,5.3,0,0,1,0,10.6,4.671,4.671,0,0,1-1.7-.3A5.425,5.425,0,0,0,1110.8,820.1Z" opacity="0.15"/>
                                <path id="Path_2214" data-name="Path 2214" d="M1108.8,908a5.3,5.3,0,1,0-5.3-5.3A5.3,5.3,0,0,0,1108.8,908Z" fill="#b2b6bb"/>
                                <path id="Path_2215" data-name="Path 2215" d="M1110.8,902.7a5.289,5.289,0,0,0-3.6-5,4.671,4.671,0,0,1,1.7-.3,5.3,5.3,0,0,1,0,10.6,4.671,4.671,0,0,1-1.7-.3A5.227,5.227,0,0,0,1110.8,902.7Z" opacity="0.15"/>
                                <path id="Path_2216" data-name="Path 2216" d="M1272.5,775.6l-10.9-7.2H961.7v3.3Z" fill="#b2b6bb"/>
                                <path id="Path_2217" data-name="Path 2217" d="M1315.3,979.2l5.4,59.2a3.5,3.5,0,0,1-3.4,4.2,3.458,3.458,0,0,1-3.3-2.3l-15.5-61.1Z" fill="#dadddf"/>
                                <path id="Path_2218" data-name="Path 2218" d="M1313.3,1013.6l-6.5-1.6-8.4-32.9h16.9l5.4,59.2a3.553,3.553,0,0,1-2,3.9Z" fill="#b2b6bb"/>
                                <path id="Path_2219" data-name="Path 2219" d="M1254.8,979.2l5.4,59.2a3.5,3.5,0,0,1-3.4,4.2,3.458,3.458,0,0,1-3.3-2.3L1238,979.2Z" fill="#dadddf"/>
                                <path id="Path_2220" data-name="Path 2220" d="M1249.2,985.7l-9.6-1.8-1.6-4.7h16.9l5.4,59.2a3.553,3.553,0,0,1-2,3.9Z" fill="#b2b6bb"/>
                                <path id="Path_2221" data-name="Path 2221" d="M1034.3,979.2l-5.4,59.2a3.5,3.5,0,0,0,3.4,4.2,3.458,3.458,0,0,0,3.3-2.3l15.5-61.1Z" fill="#dadddf"/>
                                <path id="Path_2222" data-name="Path 2222" d="M1037.2,1010.7l-5.7-1.4,2.7-30.1h16.9l-15.5,61.1a3.458,3.458,0,0,1-3.3,2.3h-.2Z" fill="#b2b6bb"/>
                                <path id="Path_2223" data-name="Path 2223" d="M972.1,979.2l-5.4,59.2a3.5,3.5,0,0,0,3.4,4.2,3.458,3.458,0,0,0,3.3-2.3l15.5-61.1Z" fill="#dadddf"/>
                                <path id="Path_2224" data-name="Path 2224" d="M978.7,984.3l-7.4-1.4.8-3.8H989l-15.5,61.1a3.456,3.456,0,0,1-3.3,2.3H970Z" fill="#b2b6bb"/>
                                <path id="Path_2225" data-name="Path 2225" d="M623.855,226.272v117.1h149.1v-117.1Z" fill="#fff"/>
                                <path id="Path_2226" data-name="Path 2226" d="M638.855,241.872v85.9h119.1v-85.9Z" fill="#ddd"/>
                                <path id="Path_2227" data-name="Path 2227" d="M776.3,226.3h-3.4v117h3.4Z" fill="#dadddf"/>
                                <path id="Path_2228" data-name="Path 2228" d="M700.6,289.2A18.6,18.6,0,1,0,682,270.6,18.6,18.6,0,0,0,700.6,289.2Z" fill="#dc3545"/>
                                <path id="Path_2229" data-name="Path 2229" d="M651.7,320.2,682,300.8l-30-19.3Z" opacity="0.2"/>
                                <path id="Path_2230" data-name="Path 2230" d="M704.688,274.893v40.2h40.2v-40.2Z" opacity="0.2"/>
                                <path id="Path_2231" data-name="Path 2231" d="M996.7,1041.1H571.8a14.724,14.724,0,0,1-14.7-14.7V424.7A14.724,14.724,0,0,1,571.8,410H996.7a14.724,14.724,0,0,1,14.7,14.7v601.6A14.745,14.745,0,0,1,996.7,1041.1Z" fill="#dc3545"/>
                                <path id="Path_2232" data-name="Path 2232" d="M996.7,1041.1H571.8a14.724,14.724,0,0,1-14.7-14.7V424.7A14.724,14.724,0,0,1,571.8,410H996.7a14.724,14.724,0,0,1,14.7,14.7v601.6A14.745,14.745,0,0,1,996.7,1041.1Z" fill="#fff" opacity="0.5"/>
                                <path id="Path_2233" data-name="Path 2233" d="M983.9,1041.1H559a14.724,14.724,0,0,1-14.7-14.7V424.7A14.724,14.724,0,0,1,559,410H983.9a14.724,14.724,0,0,1,14.7,14.7v601.6A14.745,14.745,0,0,1,983.9,1041.1Z" fill="#dc3545"/>
                                <path id="Path_2234" data-name="Path 2234" d="M983.9,1041.1H559a14.724,14.724,0,0,1-14.7-14.7V424.7A14.724,14.724,0,0,1,559,410H983.9a14.724,14.724,0,0,1,14.7,14.7v601.6A14.745,14.745,0,0,1,983.9,1041.1Z" fill="#fff" opacity="0.7"/>
                                <path id="Path_2235" data-name="Path 2235" d="M918.5,518H782.1a7.8,7.8,0,0,1,0-15.6H918.5a7.8,7.8,0,0,1,0,15.6Z" fill="#fff"/>
                                <path id="Path_2236" data-name="Path 2236" d="M922.1,555H778.4a4.1,4.1,0,1,1,0-8.2H922.1a4.1,4.1,0,1,1,0,8.2Z" fill="#fff"/>
                                <path id="Path_2237" data-name="Path 2237" d="M863.3,588.8H778.4a4.1,4.1,0,1,1,0-8.2h84.9a4.055,4.055,0,0,1,4.1,4.1A4.118,4.118,0,0,1,863.3,588.8Z" fill="#fff"/>
                                <path id="Path_2238" data-name="Path 2238" d="M918.5,723H782.1a7.8,7.8,0,0,1,0-15.6H918.5a7.8,7.8,0,0,1,0,15.6Z" fill="#fff"/>
                                <path id="Path_2239" data-name="Path 2239" d="M922.1,760.1H778.4a4.1,4.1,0,1,1,0-8.2H922.1a4.055,4.055,0,0,1,4.1,4.1A4.118,4.118,0,0,1,922.1,760.1Z" fill="#fff"/>
                                <path id="Path_2240" data-name="Path 2240" d="M863.3,793.9H778.4a4.1,4.1,0,1,1,0-8.2h84.9a4.055,4.055,0,0,1,4.1,4.1A4.185,4.185,0,0,1,863.3,793.9Z" fill="#fff"/>
                                <path id="Path_2241" data-name="Path 2241" d="M681.4,695.9H670.6V697a54.769,54.769,0,0,0,0,107.4v1.1h10.8a54.8,54.8,0,0,0,0-109.6Z" fill="#dc3545"/>
                                <path id="Path_2242" data-name="Path 2242" d="M670.7,805.4A54.7,54.7,0,1,0,616,750.7,54.7,54.7,0,0,0,670.7,805.4Z" fill="#dc3545"/>
                                <path id="Path_2243" data-name="Path 2243" d="M670.7,805.4A54.7,54.7,0,1,0,616,750.7,54.7,54.7,0,0,0,670.7,805.4Z" fill="#fff" opacity="0.4"/>
                                <path id="Path_2244" data-name="Path 2244" d="M660.5,773.6,642,755.1a2.535,2.535,0,0,1,0-3.6l4.8-4.8a2.535,2.535,0,0,1,3.6,0l11.9,11.9L690.9,730a2.535,2.535,0,0,1,3.6,0l4.8,4.8a2.535,2.535,0,0,1,0,3.6l-35.2,35.2A2.737,2.737,0,0,1,660.5,773.6Z" fill="#fff"/>
                                <path id="Path_2245" data-name="Path 2245" d="M871.2,969.8H687.7a6.957,6.957,0,0,1-7-7V914.9a6.957,6.957,0,0,1,7-7H871.3a6.957,6.957,0,0,1,7,7v47.9A7.107,7.107,0,0,1,871.2,969.8Z" fill="#dc3545"/>
                                <path id="Path_2246" data-name="Path 2246" d="M871.2,969.8H687.7a6.957,6.957,0,0,1-7-7V914.9a6.957,6.957,0,0,1,7-7H871.3a6.957,6.957,0,0,1,7,7v47.9A7.107,7.107,0,0,1,871.2,969.8Z" fill="#fff" opacity="0.5"/>
                                <path id="Path_2247" data-name="Path 2247" d="M864.3,969.8H680.7a6.957,6.957,0,0,1-7-7V914.9a6.957,6.957,0,0,1,7-7H864.3a6.957,6.957,0,0,1,7,7v47.9A7.02,7.02,0,0,1,864.3,969.8Z" fill="#fff"/>
                                <path id="Path_2248" data-name="Path 2248" d="M943.3,458.7l-17.5-17.5-17.5,17.5a2.047,2.047,0,0,1-3.5-1.5V410.4h42.1v46.8A2.116,2.116,0,0,1,943.3,458.7Z" fill="#3f4249"/>
                                <path id="Path_2249" data-name="Path 2249" d="M1246.5,907.2l33.7,38.2-24,18.6L1228,938.2Z" fill="#fc9d9d"/>
                                <path id="Path_2250" data-name="Path 2250" d="M1275.7,939.1l21.5,16.5a6.066,6.066,0,0,1,1.7,7.7l-41.3,76.3a3.729,3.729,0,0,1-4.7,1.7,7.724,7.724,0,0,1-4.7-9.4l.5-1.8a95.857,95.857,0,0,0,3.7-25.5l.6-40.3a5.44,5.44,0,0,1,4.2-5.2,19.044,19.044,0,0,0,14.7-16.4l.2-2A2.237,2.237,0,0,1,1275.7,939.1Z" fill="#3f4249"/>
                                <path id="Path_2251" data-name="Path 2251" d="M1265.3,928,1159.2,801.8l1.3-112.2,1.2-64.3-61.5-.1,6.7,188.9a29.522,29.522,0,0,0,9.3,21.3L1242.3,951Z" fill="#dc3545"/>
                                <path id="Path_2252" data-name="Path 2252" d="M1265.3,928,1159.2,801.8l2.2-176.4-61.2-.1,6.7,188.9a29.522,29.522,0,0,0,9.3,21.3l126.1,115.6Z" fill="#fff" opacity="0.2"/>
                                <path id="Path_2253" data-name="Path 2253" d="M1226,984.7l-31,.6,1.6,23.9,28.6,2.6Z" fill="#fc9d9d"/>
                                <path id="Path_2254" data-name="Path 2254" d="M1210.9,997.3a15.333,15.333,0,0,0-15.3,14.8l-.1,3.8a23.381,23.381,0,0,1-.7,4.5l-4.3,15.7a4.3,4.3,0,0,0,4.1,5.4h35.2a4.172,4.172,0,0,0,3.9-5.8l-6.1-15.1a21.032,21.032,0,0,1-1.4-6.6l-.1-1.8A15.131,15.131,0,0,0,1210.9,997.3Z" fill="#3f4249"/>
                                <path id="Path_2255" data-name="Path 2255" d="M1224.7,625.4l1.8,370.3h-31.2l-28.1-307.6a3.3,3.3,0,0,0-6.6.1l-.8,28.4-7.5-91.2Z" fill="#dc3545"/>
                                <path id="Path_2256" data-name="Path 2256" d="M1224.7,625.4l1.8,370.3h-31.2l-28.1-307.6a3.3,3.3,0,0,0-6.6.1l-.8,28.4-7.5-91.2Z" fill="#fff" opacity="0.2"/>
                                <path id="Path_2257" data-name="Path 2257" d="M1102.2,636.7h122.6l-.1-11.3H1100.2Z" opacity="0.4"/>
                                <path id="Path_2258" data-name="Path 2258" d="M1189.73,637.609h4v-12.2h-4Z" fill="#3f4249"/>
                                <path id="Path_2259" data-name="Path 2259" d="M1135.03,637.609h4v-12.2h-4Z" fill="#3f4249"/>
                                <path id="Path_2260" data-name="Path 2260" d="M1217.4,1012.9a.864.864,0,0,0,.6-.3.776.776,0,0,0-.2-1c-.1,0-6.9-4.5-13.7,0a.721.721,0,0,0,.8,1.2c6-4,12.1,0,12.1,0A.756.756,0,0,0,1217.4,1012.9Z" fill="#3f4249"/>
                                <path id="Path_2261" data-name="Path 2261" d="M1217.4,1016.9a.864.864,0,0,0,.6-.3.776.776,0,0,0-.2-1c-.1,0-6.9-4.5-13.7,0a.721.721,0,0,0,.8,1.2c6-4,12.1,0,12.1,0A.756.756,0,0,0,1217.4,1016.9Z" fill="#3f4249"/>
                                <path id="Path_2262" data-name="Path 2262" d="M1217.4,1021a.864.864,0,0,0,.6-.3.776.776,0,0,0-.2-1c-.1,0-6.9-4.5-13.7,0a.721.721,0,0,0,.8,1.2c6-4,12.1,0,12.1,0C1217.2,1020.9,1217.3,1021,1217.4,1021Z" fill="#3f4249"/>
                                <path id="Path_2263" data-name="Path 2263" d="M1260.2,974.4a.858.858,0,0,0,.7-.6c.1-.4-.2-.7-.6-.8l-7.3-1c-.4-.1-.7.2-.8.6s.2.7.6.8l7.3,1Z" fill="#3f4249"/>
                                <path id="Path_2264" data-name="Path 2264" d="M1260,979.4a.858.858,0,0,0,.7-.6c.1-.4-.2-.7-.6-.8l-7.3-1c-.4-.1-.7.2-.8.6s.2.7.6.8l7.3,1Z" fill="#3f4249"/>
                                <path id="Path_2265" data-name="Path 2265" d="M1260,984.8a.858.858,0,0,0,.7-.6c.1-.4-.2-.7-.6-.8l-7.3-1c-.4-.1-.7.2-.8.6s.2.7.6.8l7.3,1Z" fill="#3f4249"/>
                                <path id="Path_2266" data-name="Path 2266" d="M1298.9,963.3l-41.3,76.3a3.729,3.729,0,0,1-4.7,1.7,3.13,3.13,0,0,1-1-.5l45.3-85.2A6.04,6.04,0,0,1,1298.9,963.3Z" opacity="0.5"/>
                                <path id="Path_2267" data-name="Path 2267" d="M1229.9,1041.5h-35.2a4.343,4.343,0,0,1-4.2-5.2H1234A4.267,4.267,0,0,1,1229.9,1041.5Z" opacity="0.5"/>
                                <g id="Group_93" data-name="Group 93" opacity="0.2">
                                    <path id="Path_2268" data-name="Path 2268" d="M1185.1,898.8l1.5,1.7-6.8-74.2-1.5-1.7Z" opacity="0.2"/>
                                </g>
                                <path id="Path_2269" data-name="Path 2269" d="M1125.1,625.6c9.1-119.6,19.1-192.9,19.1-192.9l.9-.3s17.3,23.1,39.7,5.1l3-3.7,2.6.7h-.1s1.1,100.4,11.2,191Z" fill="#fff"/>
                                <path id="Path_2270" data-name="Path 2270" d="M1271.3,523.5l-40.9,9.6-3.7-12.5-1.6,160.6h-23.9a8.608,8.608,0,0,1-8.6-7.9c-10.6-126.2-2.3-238.7-2.3-238.7l17.4,4.5,32,8.2a26.168,26.168,0,0,1,19.2,19.9Z" fill="#21252b"/>
                                <path id="Path_2271" data-name="Path 2271" d="M1144,389.7l.3,46.6a4.9,4.9,0,0,0,.9,2.8l.4.6c11.5,11.5,29.6,10.6,43-.5a5.081,5.081,0,0,0,1.8-4.6l-7.2-48.1Z" fill="#fc9d9d"/>
                                <path id="Path_2272" data-name="Path 2272" d="M1187.3,369.9s8,52.5-21,54.6c-28.3,2.1-29.1-51-29.1-51l-.8-15.2,36.4-6.4,9.2,4.7Z" fill="#fc9d9d"/>
                                <path id="Path_2273" data-name="Path 2273" d="M1188,420.1l-2.1-14.4c-2.6,9.3-8.1,17-17.6,18.6h.1l-2.1.3c-7.6.6-13.8-2.9-18.6-10.4a.652.652,0,0,0-1.1.7c5,7.9,11.7,11.6,19.8,11a20.99,20.99,0,0,0,5-.9A22.842,22.842,0,0,0,1188,420.1Z" opacity="0.15"/>
                                <path id="Path_2274" data-name="Path 2274" d="M1180.5,358.1s9.2-6.1,13.6,4.3c3.6,8.8-2.5,18.4-2.5,18.4l-5.3-.5c-2.2-.1-3.8-1.1-4-3.3Z" fill="#21252b"/>
                                <path id="Path_2275" data-name="Path 2275" d="M1187.1,351.8c.8,10-7.8,12.6-11.3,12.9l-28.6,2.4a4.233,4.233,0,0,0-3.9,4.5l.5,9.1a2.391,2.391,0,0,1-2,2.5l-1.8.2-2,2.5c-11.2-2.7-15.9-34.5,4.7-41a8.723,8.723,0,0,0,5.1-4.3c3-6.2,15.3-7.8,21.5-.9a5.752,5.752,0,0,0,4.9,2.1C1181.8,341.6,1186.6,346.3,1187.1,351.8Z" fill="#21252b"/>
                                <path id="Path_2276" data-name="Path 2276" d="M1140,386.6a4.687,4.687,0,0,0-7.6-3.2l-.1.1c-4.9,4.2-1.8,17.7,9.1,16.4Z" fill="#fc9d9d"/>
                                <path id="Path_2277" data-name="Path 2277" d="M1194,379.5a.1.1,0,0,1-.1-.1,4.662,4.662,0,0,0-7,4.3l.6,12.8C1198.3,396.1,1199.4,383,1194,379.5Z" fill="#fc9d9d"/>
                                <path id="Path_2278" data-name="Path 2278" d="M1141.4,388.3c.1.6-.5,1.2-1.2,1.3a1.353,1.353,0,0,1-1.5-1l-1.2-8.6,3.5.1Z" fill="#21252b"/>
                                <path id="Path_2279" data-name="Path 2279" d="M1189.1,384.7c.1.6-.5,1.2-1.2,1.3a1.353,1.353,0,0,1-1.5-1l-1.2-8.6,3.5.1Z" fill="#21252b"/>
                                <path id="Path_2280" data-name="Path 2280" d="M1175.9,366a6.6,6.6,0,0,1-1.5,0,.6.6,0,0,1,0-1.2c.1,0,5.8.3,8.2-3.5a.583.583,0,1,1,1,.6C1181.8,365.1,1178,365.8,1175.9,366Z" fill="#fc9d9d"/>
                                <path id="Path_2281" data-name="Path 2281" d="M1154.5,394a2.5,2.5,0,1,0-2.5-2.5A2.5,2.5,0,0,0,1154.5,394Z" fill="#21252b"/>
                                <path id="Path_2282" data-name="Path 2282" d="M1153.3,391.8a.5.5,0,1,0-.5-.5A.5.5,0,0,0,1153.3,391.8Z" fill="#fff"/>
                                <path id="Path_2283" data-name="Path 2283" d="M1173.8,392.6a2.5,2.5,0,1,0-2.5-2.5A2.5,2.5,0,0,0,1173.8,392.6Z" fill="#21252b"/>
                                <path id="Path_2284" data-name="Path 2284" d="M1172.6,390.3a.5.5,0,1,0-.5-.5A.5.5,0,0,0,1172.6,390.3Z" fill="#fff"/>
                                <g id="Group_94" data-name="Group 94" opacity="0.3">
                                    <path id="Path_2285" data-name="Path 2285" d="M1165.4,403.4l2-.2a.752.752,0,0,0-.1-1.5l-2,.2a1.477,1.477,0,0,1-1.6-1.4,1.424,1.424,0,0,1,1.4-1.6.752.752,0,1,0-.1-1.5,3.02,3.02,0,0,0-2.8,3.2A2.945,2.945,0,0,0,1165.4,403.4Z" opacity="0.3"/>
                                </g>
                                <path id="Path_2286" data-name="Path 2286" d="M1180.8,383.4l-10.9.6-1.5.1-9.6.5h-.1l-12.3.7a3.591,3.591,0,0,0-3.4,3.8l.2,2.8a9.865,9.865,0,0,0,19.7-1.1l-.2-2.8a3.118,3.118,0,0,0-.9-2.1l3.8-.2a3.339,3.339,0,0,0-.6,2.2l.2,2.8a9.865,9.865,0,0,0,19.7-1.1l-.2-2.8A3.615,3.615,0,0,0,1180.8,383.4Zm-19.5,4.7.2,2.8a8.362,8.362,0,1,1-16.7.9l-.2-2.8a2.219,2.219,0,0,1,2.1-2.3l12.3-.7h.1A2.27,2.27,0,0,1,1161.3,388.1Zm22.1,1.5a8.362,8.362,0,0,1-16.7.9l-.2-2.8a2.219,2.219,0,0,1,2.1-2.3l1.5-.1,10.9-.6a2.219,2.219,0,0,1,2.3,2.1Z" fill="#21252b"/>
                                <path id="Path_2287" data-name="Path 2287" d="M1159.2,407.4l12.3-.9a.5.5,0,0,1,.5.6,7,7,0,0,1-13.1,1.1v-.1A.442.442,0,0,1,1159.2,407.4Z" fill="#fff"/>
                                <g id="Group_95" data-name="Group 95" opacity="0.3">
                                    <path id="Path_2288" data-name="Path 2288" d="M1137.3,393.5a.76.76,0,0,1-.8-.6l-.2-1.5c-.2-1.6-.6-2.8-1.4-3.4a1.6,1.6,0,0,0-1.2-.4.707.707,0,0,1-.2-1.4,3.246,3.246,0,0,1,2.3.6c1.1.8,1.7,2.3,2,4.4l.2,1.5A.773.773,0,0,1,1137.3,393.5Z" opacity="0.3"/>
                                </g>
                                <g id="Group_96" data-name="Group 96" opacity="0.3">
                                    <path id="Path_2289" data-name="Path 2289" d="M1190.6,389.6a.684.684,0,0,0,.7-.7v-1.6c-.1-1.6.2-2.9.9-3.5.5-.5,1.1-.6,1.1-.5a.7.7,0,0,0,0-1.4,3.223,3.223,0,0,0-2.2,1c-1,1-1.4,2.5-1.3,4.6V389c0,.3.3.6.8.6Z" opacity="0.3"/>
                                </g>
                                <g id="Group_97" data-name="Group 97" opacity="0.3">
                                    <path id="Path_2290" data-name="Path 2290" d="M1247.9,468l12.6,58.1,10.9-2.6-11.3-51.7c-2.2-14-8.9-20.6-18.7-24.2l-12.4-3.2C1240.4,449.5,1245.5,457.6,1247.9,468Z" opacity="0.3"/>
                                </g>
                                <path id="Path_2291" data-name="Path 2291" d="M1226.7,520.6l-1.6,160.6h-12.6l1.7-190.7a1.439,1.439,0,0,1,2.8-.4Z" opacity="0.3"/>
                                <path id="Path_2292" data-name="Path 2292" d="M1189.6,430l7.1,6.1,9.5,34.7-16.6-7.9.7-27.9Z" fill="#21252b"/>
                                <path id="Path_2293" data-name="Path 2293" d="M1198,436.4l-1.4-.4,9.6,34.8-16.6-7.9-.2,7.3,18.2,1.9Z" opacity="0.3"/>
                                <path id="Path_2294" data-name="Path 2294" d="M1152,625.6h-13.6l5.8-188.9S1157.2,531.3,1152,625.6Z" opacity="0.15"/>
                                <path id="Path_2295" data-name="Path 2295" d="M1151.7,625.4h-43.9l1.1,55.7h29.7a10.333,10.333,0,0,0,10.3-9.4C1150.1,657.3,1151,641.7,1151.7,625.4Z" opacity="0.15"/>
                                <path id="Path_2296" data-name="Path 2296" d="M953.1,588.7l99.9-10.8a27.063,27.063,0,0,0,21.2-14.8l20.4-41L1071,469.9l-33.9,74.4-86.9,24.1Z" fill="#fc9d9d"/>
                                <path id="Path_2297" data-name="Path 2297" d="M1083.1,524l-20.4,41a27.255,27.255,0,0,1-15.4,13.5l5.7-.6a27.063,27.063,0,0,0,21.2-14.8l20.4-41Z" opacity="0.15"/>
                                <path id="Path_2298" data-name="Path 2298" d="M1131.2,681.1h-29.7L1098,507.7l-13.9,18.9-15.3-54.5c2.5-9,4.4-13.5,9.4-18.1a31.006,31.006,0,0,1,11.4-6.4l54.6-14.8s5.1,146.7-2.7,238.9A10.263,10.263,0,0,1,1131.2,681.1Z" fill="#21252b"/>
                                <path id="Path_2299" data-name="Path 2299" d="M1048.9,517.1l36.9,22.9,17.2-32.9-26.7-45.7-4.7,2.4Z" fill="#21252b"/>
                                <path id="Path_2300" data-name="Path 2300" d="M996.3,373.6l-38.9,61.2,64,7.9Z" fill="#b2b6bb"/>
                                <path id="Path_2301" data-name="Path 2301" d="M917.9,933.9l-21.3-2.7,60.8-496.4,21.3,2.6Z" fill="#dc3545"/>
                                <path id="Path_2302" data-name="Path 2302" d="M960.5,939.1l-21.3-2.6,60.7-496.4,21.5,2.6Z" fill="#dc3545"/>
                                <path id="Path_2303" data-name="Path 2303" d="M939.2,936.5l-21.3-2.6,60.8-496.5,21.2,2.7Z" fill="#dc3545"/>
                                <path id="Path_2304" data-name="Path 2304" d="M939.2,936.5l-21.3-2.6,60.8-496.5,21.2,2.7Z" opacity="0.3"/>
                                <path id="Path_2305" data-name="Path 2305" d="M986,389.8l10.3-16.2,6.6,18.3Z" fill="#21252b"/>
                                <path id="Path_2306" data-name="Path 2306" d="M936.1,557.3a4.8,4.8,0,0,1,4.8,4.8v6.5l15.8,1.6a2.476,2.476,0,0,1,2.2,2.4,2.4,2.4,0,0,1-2.2,2.4l-15.2,1a.458.458,0,0,0-.4.5.664.664,0,0,0,.4.5l15,1a2.605,2.605,0,0,1-.1,5.2l-15.1.5,14.7-.5a2.856,2.856,0,0,1,.3,5.7l-15,1.4,11.2-1a2.419,2.419,0,0,1,2.6,2.4,2.452,2.452,0,0,1-2,2.4l-9.5,1.9a7.085,7.085,0,0,1-6.7-2.3,24.242,24.242,0,0,1-3.1-27.4l1.7-8.4A.576.576,0,0,1,936.1,557.3Z" fill="#fc9d9d"/>
                                <g id="Group_98" data-name="Group 98" opacity="0.15">
                                    <path id="Path_2307" data-name="Path 2307" d="M954.926,582.343l-13.891.462.046,1.4,13.892-.462Z" opacity="0.15"/>
                                </g>
                                <g id="Group_99" data-name="Group 99" opacity="0.15">
                                    <path id="Path_2308" data-name="Path 2308" d="M953.27,588.47l-11.162.929.117,1.4,11.161-.93Z" opacity="0.15"/>
                                </g>
                                <path id="Path_2309" data-name="Path 2309" d="M940.9,568.5V562l-3.8,4a1.287,1.287,0,0,0,.9,2.2Z" opacity="0.2"/>
                                <path id="Path_2310" data-name="Path 2310" d="M1144.2,428.9l-6.3,5.6-9.5,34.8,16.6-7.9Z" fill="#21252b"/>
                                <path id="Path_2311" data-name="Path 2311" d="M1136.6,434.9l1.4-.4-9.6,34.8,16.6-7.9.2,7.3-18.2,1.9Z" opacity="0.3"/>
                                <path id="Path_2312" data-name="Path 2312" d="M1279.6,561.3l-8.2-37.9-40.9,9.6,8.2,24-68.4,15.2-3.8.8c-1.3.3-2.4.4-3.3-.5l-1.5-1.5a14.483,14.483,0,0,0-4.6-2.4,16.3,16.3,0,0,1-9.5-7.6l-3.3-5.8a.54.54,0,0,0-.8-.2l-.5.2a4.9,4.9,0,0,0-2.9,6l2.5,8a1.675,1.675,0,0,1-1,2.1l-16.1,6.6c-3.4,1.3-2.2,5.9.9,5.2,1.7-.4,2-.5,2-.5l-3.2,1.6c-3.6,1.7-1.9,6.6,1.2,5.9,3-.6,7.1-1.8,7.1-1.8l-4,1.6a2.975,2.975,0,0,0,2.2,5.5c2.3-.6,6-1.7,6-1.7l-2.4,1.2c-3.1,1-2,5.8.9,5.2,2.5-.5,26.2-6.3,38.4-8.5l90.6-9.8A17,17,0,0,0,1279.6,561.3Z" fill="#fc9d9d"/>
                                <path id="Path_2313" data-name="Path 2313" d="M1265,581.8l-90.6,9.8c-12.2,2.2-35.9,8-38.4,8.5a2.5,2.5,0,0,1-2.8-2.5,1.993,1.993,0,0,0,2.5.6c1-.3,15.5-5.6,24.7-9.1a82.375,82.375,0,0,1,15.3-4.1c19.8-3.3,71.2-12,85-15.1,4-.9,8.4-3.9,7.4-9.2l-7.7-34.7,10.9-2.6,8.2,37.8A16.927,16.927,0,0,1,1265,581.8Z" opacity="0.15"/>
                                <path id="Path_2314" data-name="Path 2314" d="M1170.2,572.3l3.5,19.4,6.1-.6-3.5-20.2Z" fill="#001b34"/>
                                <path id="Path_2315" data-name="Path 2315" d="M1175.3,588.5a6.1,6.1,0,1,0-6.1-6.1A6.1,6.1,0,0,0,1175.3,588.5Z" fill="#dc3545"/>
                                <path id="Path_2316" data-name="Path 2316" d="M1175.3,587.5a5.1,5.1,0,1,0-5.1-5.1A5.1,5.1,0,0,0,1175.3,587.5Z" fill="#fff"/>
                                <path id="Path_2317" data-name="Path 2317" d="M1178.7,582.9l-3.5-.2-2.5-1.8c-.1-.1-.2-.3-.1-.4s.3-.2.4-.1l2.4,1.7,3.3.2a.265.265,0,0,1,.3.3A.319.319,0,0,1,1178.7,582.9Z" fill="#001b34"/>
                                <path id="Path_2318" data-name="Path 2318" d="M1098.2,516.2l-.6-17.3a1.047,1.047,0,0,0-2-.4l-18,36.5,8.1,5Z" opacity="0.3"/>
                                <path id="Path_2319" data-name="Path 2319" d="M1212.6,681.1l2.5,314.6h11.5l-1.5-314.6Z" opacity="0.2"/>
                                <path id="Path_2320" data-name="Path 2320" d="M1226.5,986.9l.1,8.8h-31.3l-.8-8.8Z" fill="#dc3545"/>
                                <path id="Path_2321" data-name="Path 2321" d="M1215.1,986.9v8.8h11.5l-.1-8.8Z" opacity="0.2"/>
                                <g id="Group_100" data-name="Group 100" opacity="0.15">
                                    <path id="Path_2322" data-name="Path 2322" d="M1179.8,826.4l-20.6-24.5,1.4-113.7a3.241,3.241,0,0,1,3.2-3.1,14.641,14.641,0,0,0-14.5,14.5l-1.1,108.1,33.4,38.3Z" opacity="0.15"/>
                                    <path id="Path_2323" data-name="Path 2323" d="M1226,881.3l.1,15.6,32.8,37.6,6.4-6.5Z" opacity="0.15"/>
                                </g>
                                <path id="Path_2324" data-name="Path 2324" d="M938.4,1041.2l-45.2-5.6a9.451,9.451,0,0,1-8.2-10.5l11.6-93.9,63.9,7.9L948.9,1033A9.42,9.42,0,0,1,938.4,1041.2Z" fill="#3f4249"/>
                                <path id="Path_2325" data-name="Path 2325" d="M940.9,936.7l-11.6,93.9a9.451,9.451,0,0,1-10.5,8.2l19.6,2.4a9.492,9.492,0,0,0,10.5-8.2l11.6-93.9Z" opacity="0.4"/>
                                <path id="Path_2326" data-name="Path 2326" d="M960.51,939.182l-63.917-7.9-2.084,16.873,63.917,7.9Z" fill="#b2b6bb"/>
                                <path id="Path_2327" data-name="Path 2327" d="M254.8,1043.4H1369.7a.4.4,0,1,0,0-.8H254.8a.4.4,0,0,0,0,.8Z" fill="#b1b5ba"/>
                                <path id="Path_2328" data-name="Path 2328" d="M389.2,391s-16.4,6.4-13.1,28.3c1.3,8.2-6.7,9.2-11.1,12.7-11.4,9-6,29.1,0,29.5L438.7,501s28.8-39.5,19.1-58.7c-4.3-8.5-3.2-9.6-.3-17.8,4.5-12.5-4-18.5-4-18.5l-4.5-1-16.5-37L401,389.5l-4.8.2Z" fill="#21252b"/>
                                <path id="Path_2329" data-name="Path 2329" d="M383.8,990a24.471,24.471,0,0,1,1.1,9.2l.1,25.9a26.381,26.381,0,0,1-3.7,12.8l-.5.9a7.391,7.391,0,0,1-6.4,3.7H367a7.389,7.389,0,0,1-7.2-5.6,27.154,27.154,0,0,1-.4-11.7l6.3-27.8a28,28,0,0,1,2.3-7.5h15.8Z" fill="#dc3545"/>
                                <path id="Path_2330" data-name="Path 2330" d="M484.4,929.1l4.6,49.5c.3,5.8,1.8,9.4,3.5,11.8l18,36.6-5,6.9-19.6-9.8-17.4-31.5c0-5.4-.5-8.6-1.5-15.8l-8.6-53.4Z" fill="#fc9d9d"/>
                                <path id="Path_2331" data-name="Path 2331" d="M489.5,995.2c-2-2.9-4.5-9.9-5.1-13.1l-6-18.4a2.97,2.97,0,0,0-2.5-2.5L464,959.6l-.2-2.6H487l2,21.6c.4,3.7,1.3,8.6,3.5,11.8l18,36.6-3.1,5.1Z" opacity="0.15"/>
                                <path id="Path_2332" data-name="Path 2332" d="M520.8,1033.3l-10.3-6.2a21.345,21.345,0,0,1-19.8-7.4l-22.3-27a49.423,49.423,0,0,0-4.1,27.6l3.2,22.4h2.6l.7-23a1.806,1.806,0,0,1,3.2-1.1l13.6,16.6a20.621,20.621,0,0,0,15.8,7.5h21.2a2.256,2.256,0,0,0,2.1-3.2A11.217,11.217,0,0,0,520.8,1033.3Z" fill="#dc3545"/>
                                <path id="Path_2333" data-name="Path 2333" d="M384.9,978.3a202.694,202.694,0,0,0-1.4,28.1l.2,11.2a9.14,9.14,0,0,1-9.1,8.8H373a9.054,9.054,0,0,1-9-10.4l2.6-13.3a82.639,82.639,0,0,0,1.4-20.5L365.5,937l23.3.4Z" fill="#fc9d9d"/>
                                <path id="Path_2334" data-name="Path 2334" d="M471.3,613.5l3.3,39.9,3,33.4c1.6,17.8,2.6,35.6,3.1,53.5l7.8,216.8H463l-43.7-286a3.891,3.891,0,0,0-3.9-3.3,3.851,3.851,0,0,0-3.9,3.6L388.5,957l-23.1-.2L353.9,750.7a505.665,505.665,0,0,1,9.9-131.1l1.3-6.1Z" fill="#3f4249"/>
                                <path id="Path_2335" data-name="Path 2335" d="M386.8,957s-2.8,29-3,32.9v.1c-.3,5.5-.5,10.9-.4,16.4l.2,11.2a9.139,9.139,0,0,1-8.7,8.8c4.3-3.3,3.9-8.7,4-12.7l.7-49.1a3.326,3.326,0,0,0-2.7-3.3l-10.4-1.9-.1-2.3Z" opacity="0.15"/>
                                <path id="Path_2336" data-name="Path 2336" d="M415.2,667.7a4.267,4.267,0,0,0-2.7,1,3.553,3.553,0,0,0-1.2,2.6L388.5,957l-8.3-.1,14-269.3A20.984,20.984,0,0,1,415.2,667.7Z" opacity="0.2"/>
                                <path id="Path_2337" data-name="Path 2337" d="M472.1,623.3l2.5,30.1,1.8,20.8q3.45,39.3,4.5,78.8l7.5,204.1H477L462.3,672.9l-2.6-49.3h11.5l.5-.1Z" opacity="0.2"/>
                                <path id="Path_2338" data-name="Path 2338" d="M473.1,467.7l31,62.2,68.7-2.1L571.2,545l-68.6,13.5a20.213,20.213,0,0,1-20.1-8.2L459,517.5" fill="#dc3545"/>
                                <path id="Path_2339" data-name="Path 2339" d="M598.1,520.6l11.1-1.5,13.3,3.8a1.607,1.607,0,0,1,1,2.4,2.008,2.008,0,0,1-2.1.7l-12.8-2.4-7.9,2.6,7.9-2.6,11.1,3.2a1.344,1.344,0,0,1,.9,1.9,1.7,1.7,0,0,1-1.9.7l-11.2-2.2L596,530.8l11.5-3.6,7.9,3.2a.861.861,0,0,1,.3,1.4,1.31,1.31,0,0,1-1.3.4l-9.2-2.3-10.9,2.7Z" fill="#966363"/>
                                <path id="Path_2340" data-name="Path 2340" d="M598.1,520.6l11.1-1.5,13.3,3.8a1.607,1.607,0,0,1,1,2.4,2.008,2.008,0,0,1-2.1.7l-12.8-2.4-7.9,2.6,7.9-2.6,11.1,3.2a1.344,1.344,0,0,1,.9,1.9,1.7,1.7,0,0,1-1.9.7l-11.2-2.2L596,530.8l11.5-3.6,7.9,3.2a.861.861,0,0,1,.3,1.4,1.31,1.31,0,0,1-1.3.4l-9.2-2.3-10.9,2.7Z" opacity="0.15"/>
                                <path id="Path_2341" data-name="Path 2341" d="M598.8,517.1l-16.4,9.5a5.861,5.861,0,0,1-3.1.9l-6.4.3L571.3,545l5.3-1.1a6.15,6.15,0,0,1,2.7,0l1.4.3a21.614,21.614,0,0,0,16.2-2h.1a5.678,5.678,0,0,1,2.2-.7c2.8-.3,9.8-1,9.8-1a.684.684,0,0,0,.7-.7,3.861,3.861,0,0,0-3.6-3.6l-4.9-.7c-2.6-.4-4.1-2.8-2.9-4.8l4.9-8.6a2.492,2.492,0,0,1,1.5-1.1l17.4-4.5a1.318,1.318,0,0,0,1.1-1.5,1.749,1.749,0,0,0-2-1.3c-4.4.6-17.9,2.5-21.1,3A2.01,2.01,0,0,0,598.8,517.1Z" fill="#966363"/>
                                <path id="Path_2342" data-name="Path 2342" d="M504.1,529.8l-5.5.2a3.041,3.041,0,0,1-2.9-2l-9.1-33.4Z" opacity="0.15"/>
                                <path id="Path_2343" data-name="Path 2343" d="M362.8,456.5l30.4-6.2,49.5.5,18.2,4.9c11.3,3.6,17,13.5,16.9,25.4l-1.7,8.6,4.8,16.3c2.7,10.5-.8,16.6-8.2,25.1-2.3,2.7-3.5,3.8-4.4,8.9,0,0-4.4,16.7-5.2,23.6a313.334,313.334,0,0,0-2,47.4l-93.5-.2c-4.3,0-6.2-4.6-4.1-8.4,0,0,6.4-12.7,7.5-23.4,3.9-34.9-6.1-76.4-6.1-76.4l-19.6-21.7C344.7,469.6,352.1,459,362.8,456.5Z" fill="#dc3545"/>
                                <path id="Path_2344" data-name="Path 2344" d="M426.7,576.6l11.2-2.2,2.5,2.5-2.9,3.5Z" fill="#966363"/>
                                <path id="Path_2345" data-name="Path 2345" d="M575.5,540.6a7.4,7.4,0,0,1,3.9.2c3.3,1.1,10.7,3,17.7,1.2-.1,0-.2.1-.3.1h-.1a20.672,20.672,0,0,1-16.2,2l-1.4-.3a6.149,6.149,0,0,0-2.7,0L550.2,549l24.9-4.9Z" opacity="0.15"/>
                                <path id="Path_2346" data-name="Path 2346" d="M428.7,595.8l-15.6-3.3-45.4-3.8-.5.2c-2.2,6.3-3.1,8.5-4.8,12.6l6.7.2a229.082,229.082,0,0,0,31-1.5,114.869,114.869,0,0,1,28.7.3v-4.7Z" opacity="0.15"/>
                                <path id="Path_2347" data-name="Path 2347" d="M461.2,621.6l-1-10.2-94.3-.2-2.6,10.4Z" fill="#21252b"/>
                                <path id="Path_2348" data-name="Path 2348" d="M417.9,576.4l-3.9-1.1-6.7,16.6,4.5.4Z" opacity="0.6"/>
                                <path id="Path_2349" data-name="Path 2349" d="M396.4,459.4l-12-7.3,7-1.4,49.5.5,4.8,1.3-11.9,7.1A36.153,36.153,0,0,1,396.4,459.4Z" opacity="0.6"/>
                                <path id="Path_2350" data-name="Path 2350" d="M400.1,412.3l-2.5,32.1a6.091,6.091,0,0,1-4.5,5.7l-3.8,1,8.7,5.4a32.231,32.231,0,0,0,33.6.3l9.4-5.6-4.8-1.3a5.975,5.975,0,0,1-4.4-5.2l-1.6-36.4Z" fill="#966363"/>
                                <path id="Path_2351" data-name="Path 2351" d="M420.6,437.2,419,437a20.566,20.566,0,0,1-18.9-22l2.2-28.7a6.818,6.818,0,0,1,7.3-6.3l26.8,2.1a8.913,8.913,0,0,1,8.2,9.5l-2.1,26.7A20.415,20.415,0,0,1,420.6,437.2Z" fill="#966363"/>
                                <path id="Path_2352" data-name="Path 2352" d="M422.2,408.4a2.2,2.2,0,1,0-2.2-2.2A2.2,2.2,0,0,0,422.2,408.4Z" fill="#21252b"/>
                                <path id="Path_2353" data-name="Path 2353" d="M423.4,407.3a.5.5,0,1,0-.5-.5A.5.5,0,0,0,423.4,407.3Z" fill="#fff"/>
                                <path id="Path_2354" data-name="Path 2354" d="M439.3,410a2.2,2.2,0,1,0-2.2-2.2A2.2,2.2,0,0,0,439.3,410Z" fill="#21252b"/>
                                <path id="Path_2355" data-name="Path 2355" d="M440.3,408.9a.5.5,0,1,0-.5-.5A.5.5,0,0,0,440.3,408.9Z" fill="#fff"/>
                                <g id="Group_101" data-name="Group 101" opacity="0.3">
                                    <path id="Path_2356" data-name="Path 2356" d="M429.8,419.7l-3-.1c-.4,0-.6-.3-.6-.7s.3-.6.7-.6l3,.1a1.344,1.344,0,0,0,1.4-1.3,1.288,1.288,0,0,0-1.3-1.4c-.4,0-.6-.3-.6-.7s.3-.6.7-.6a2.608,2.608,0,0,1,2.5,2.8A2.746,2.746,0,0,1,429.8,419.7Z" opacity="0.3"/>
                                </g>
                                <path id="Path_2357" data-name="Path 2357" d="M453.6,406c-3-2.6-1.3-6.8-1.3-6.8v.1c5.5-22.9-9.1-37.5-22.3-40.2-7.5-1.5-27.6-.6-33.9,22.3-.9,3.3-1.2,6.9-7,9.6,0,0,3.5,12,4.4,16.4.4,1.9,4.6-5.2,6.3-5.9.2-.1,1.4,2.1,2.2,3.5a1.233,1.233,0,0,0,2.2,0l.2-.3a32.016,32.016,0,0,0,2.6-10.1c9.7-2.3,9.7-12.1,9.7-12.1,8.6,20,27.7,15,27.7,15l-1,10.7a25.449,25.449,0,0,0,4.3-4.5l3.1,2.8Z" fill="#21252b"/>
                                <path id="Path_2358" data-name="Path 2358" d="M401.5,416.3s-9.8.4-11.5-9.3c-1.7-9.8,10.3-11.1,11.7-1.3l.9,10.7Z" fill="#966363"/>
                                <path id="Path_2359" data-name="Path 2359" d="M393.2,402a3.929,3.929,0,0,1,3-.7,3.674,3.674,0,0,1,2.3,2,7.956,7.956,0,0,1,1,3.8v1.1c0,.8-1.3,1-1.3.1v-1.1a7.23,7.23,0,0,0-.8-3.2,2.527,2.527,0,0,0-1.5-1.4,2.718,2.718,0,0,0-2,.5.651.651,0,0,1-.9-.2C392.8,402.5,392.9,402.1,393.2,402Z" opacity="0.3"/>
                                <path id="Path_2360" data-name="Path 2360" d="M440.7,401.4a9.144,9.144,0,0,0-7.1,3,8.1,8.1,0,0,0-5.5-.6,8.828,8.828,0,1,0,.8,4,10.322,10.322,0,0,0-.4-3,6.6,6.6,0,0,1,4.4.5,8.918,8.918,0,1,0,16.3,5.4A8.857,8.857,0,0,0,440.7,401.4Zm-21,13.9a7.758,7.758,0,1,1,8.1-7.4A7.732,7.732,0,0,1,419.7,415.3Zm20.3,2.8a7.758,7.758,0,1,1,8.1-7.4A7.732,7.732,0,0,1,440,418.1Z" fill="#fff"/>
                                <path id="Path_2361" data-name="Path 2361" d="M399,414.7a1.9,1.9,0,1,0-1.9-1.9A1.9,1.9,0,0,0,399,414.7Z" fill="#dc3545"/>
                                <path id="Path_2362" data-name="Path 2362" d="M399.6,414.5a2.05,2.05,0,0,1-2-2.2,2.1,2.1,0,0,1,.4-1.1,1.893,1.893,0,0,0-.9,1.6,1.923,1.923,0,0,0,1.9,2,2.016,2.016,0,0,0,1.1-.3C399.9,414.4,399.8,414.5,399.6,414.5Z" opacity="0.15"/>
                                <path id="Path_2363" data-name="Path 2363" d="M399.6,416.2l3.2.3-4.2,6.3Z" opacity="0.15"/>
                                <path id="Path_2364" data-name="Path 2364" d="M431.4,435l-.4.2a22.5,22.5,0,0,1-10.7,1.4l-2.4-.3c-.3-.1-.6-.1-.9-.2h-.2a7.368,7.368,0,0,1-1.4-.4c-.2-.1-.4-.1-.6-.2a21.921,21.921,0,0,1-6.9-3.5.57.57,0,1,0-.7.9,23.7,23.7,0,0,0,9,4.1,18.256,18.256,0,0,0,14.9,4.9l.7-.1Z" opacity="0.15"/>
                                <path id="Path_2365" data-name="Path 2365" d="M431.1,423.3c.3,0,.4.4.3.6a6.536,6.536,0,0,1-6.1,2.9,6.406,6.406,0,0,1-5.2-4.3c-.1-.3.1-.6.4-.5Z" fill="#fff"/>
                                <path id="Path_2366" data-name="Path 2366" d="M577,527.6l-4.2.2L571.2,545l3.9-.8Z" opacity="0.6"/>
                                <path id="Path_2367" data-name="Path 2367" d="M471,531.6c7.3-8.5,8.5-16.9,5.7-27.4l-3-10.9-2.5-11.8v-.2a.664.664,0,0,1,.4-.5.569.569,0,0,1,.7.4l3.1,13.9,1.5,4.7s11.9,17,8.2,29.9c-1.4,4.7-2.2,7.8.7,11.8l5.2,7.7c4.7,4.3,11.7,3.2,11.7,3.2l68.7-11.1-.4,3.8-64.1,12.7h.1l-4.6.8a20.14,20.14,0,0,1-18.1-5.8,15.915,15.915,0,0,1-2-2.4L470,532.8C470.3,532.4,470.7,532,471,531.6Z" opacity="0.15"/>
                                <path id="Path_2368" data-name="Path 2368" d="M442.1,401c-16.9-.2-23.5-15.4-23.6-15.6-.1-.4,0-.8.4-.9a.608.608,0,0,1,.9.4c.1.1,6.4,14.5,22.3,14.7a.7.7,0,0,1,0,1.4Z" fill="#21252b"/>
                                <g id="Group_102" data-name="Group 102" opacity="0.3">
                                    <path id="Path_2369" data-name="Path 2369" d="M418,474.8a404.825,404.825,0,0,1-71.6-6.2l1.2-2.1,1.5-2.1c8.3,1.5,63.6,11,123.2,1.6l2.2,4.4-.7.2A357.758,357.758,0,0,1,418,474.8Z" fill="#fff" opacity="0.3"/>
                                </g>
                                <g id="Group_103" data-name="Group 103" opacity="0.3">
                                    <path id="Path_2370" data-name="Path 2370" d="M437.6,544.1a450.035,450.035,0,0,1-68.6-5.5l-.5-4.7c.5.1,53.1,8.8,98.6,4.2l-1.1,4.6A246.614,246.614,0,0,1,437.6,544.1Z" fill="#fff" opacity="0.3"/>
                                </g>
                                <g id="Group_104" data-name="Group 104" opacity="0.3">
                                    <path id="Path_2371" data-name="Path 2371" d="M437.5,573.9a441.745,441.745,0,0,1-67.5-5.3l.1-4.7c.5.1,45.5,8.9,91,4.3l.5,4.6C452,573.9,447.2,573.9,437.5,573.9Z" fill="#fff" opacity="0.3"/>
                                </g>
                                <g id="Group_105" data-name="Group 105" opacity="0.3">
                                    <path id="Path_2372" data-name="Path 2372" d="M435.1,601.6c-36.4,0-70-5.6-70.5-5.6l1.8-4.8c.5.1,51.9,9.1,97.5,4.5l.5,4.6C454.7,601.2,444.8,601.6,435.1,601.6Z" fill="#fff" opacity="0.3"/>
                                </g>
                                <path id="Path_2373" data-name="Path 2373" d="M372,566.8l39,7.6" fill="none" stroke="#000" stroke-linecap="round" stroke-miterlimit="10" stroke-width="1.176" opacity="0.15"/>
                                <path id="Path_2374" data-name="Path 2374" d="M426.7,576.6l11.2-2.2,2.5,2.5-2.9,3.5Z" opacity="0.15"/>
                                <path id="Path_2375" data-name="Path 2375" d="M344.7,472.7l9.5.7c7.6,12.6,12.1,22.6,11.7,37.3l.7,5.8L348.2,563l67,12.8-7.9,16-80-5.7c-8.6-.5-14.7-9.8-11.5-18.4Z" fill="#dc3545"/>
                                <path id="Path_2376" data-name="Path 2376" d="M413.9,615.7l34.4-59.4a3.326,3.326,0,0,1,3.9-1.4l48.5,16.4a2.973,2.973,0,0,1,1.7,4.4L470,632a3.312,3.312,0,0,1-3.7,1.5l-50.5-13.3A3.147,3.147,0,0,1,413.9,615.7Z" fill="#3f4249"/>
                                <path id="Path_2377" data-name="Path 2377" d="M413.9,615.7l34.4-59.4a3.326,3.326,0,0,1,3.9-1.4l48.5,16.4a2.973,2.973,0,0,1,1.7,4.4L470,632a3.312,3.312,0,0,1-3.7,1.5l-50.5-13.3A3.147,3.147,0,0,1,413.9,615.7Z" opacity="0.8"/>
                                <path id="Path_2378" data-name="Path 2378" d="M415.6,616.2,450,556.8a3.326,3.326,0,0,1,3.9-1.4l48.5,16.4a2.973,2.973,0,0,1,1.7,4.4l-32.4,56.3A3.312,3.312,0,0,1,468,634l-50.5-13.3A3.123,3.123,0,0,1,415.6,616.2Z" fill="#21252b"/>
                                <path id="Path_2379" data-name="Path 2379" d="M465.7,585.3a2.218,2.218,0,0,0,.7-2.2,7.421,7.421,0,0,1,4.4-.2c2.2.8,2.7,2.7,1.1,4.4A7.268,7.268,0,0,1,465,589a2.691,2.691,0,0,1-2-2.4A4.588,4.588,0,0,0,465.7,585.3Z" fill="#3f4249"/>
                                <path id="Path_2380" data-name="Path 2380" d="M498.294,578.684c1.257-.7,1.886-1.963,1.4-2.833s-1.889-1.013-3.146-.318-1.886,1.962-1.4,2.833S497.037,579.378,498.294,578.684Z" opacity="0.4"/>
                                <path id="Path_2381" data-name="Path 2381" d="M498.688,578.877c1.256-.7,1.886-1.963,1.4-2.833s-1.889-1.013-3.146-.318-1.886,1.962-1.406,2.832S497.431,579.571,498.688,578.877Z" fill="#3f4249"/>
                                <path id="Path_2382" data-name="Path 2382" d="M498.386,578.362c.822-.454,1.228-1.293.908-1.873a1.518,1.518,0,0,0-2.069-.228c-.822.454-1.228,1.292-.907,1.872A1.517,1.517,0,0,0,498.386,578.362Z" opacity="0.5"/>
                                <path id="Path_2383" data-name="Path 2383" d="M498.8,577.3a.9.9,0,0,0-.7-1.3h.3c.8,0,1.3.6,1,1.3a2.368,2.368,0,0,1-2,1.3h-.3A2.1,2.1,0,0,0,498.8,577.3Z" opacity="0.4"/>
                                <path id="Path_2384" data-name="Path 2384" d="M417.9,576.4l1.4.3a3.084,3.084,0,0,0,1,.1l16.6-.3a15.237,15.237,0,0,1,5.1.9l19.1,7a1.764,1.764,0,0,1,1.1,2,1.741,1.741,0,0,1-2.1,1.2l-18.3-4.8,17.4,9.5a1.7,1.7,0,0,1,.7,2.4,1.911,1.911,0,0,1-2.3.9l-17.7-7,16,6.3a1.7,1.7,0,0,1,1,2.2,1.852,1.852,0,0,1-2.2,1.2l-16.3-4.4,14,3.8a1.371,1.371,0,0,1,1,1.7,1.391,1.391,0,0,1-1.7,1.1l-37.4-7.9-2.6-.2Z" fill="#966363"/>
                                <path id="Path_2385" data-name="Path 2385" d="M455.9,594.9,441,589" fill="none" stroke="#000" stroke-linecap="round" stroke-miterlimit="10" stroke-width="1.176" opacity="0.15"/>
                                <path id="Path_2386" data-name="Path 2386" d="M438.4,593.8l14.1,3.8" fill="none" stroke="#000" stroke-linecap="round" stroke-miterlimit="10" stroke-width="1.176" opacity="0.15"/>
                                <path id="Path_2387" data-name="Path 2387" d="M453.5,599.3a1.391,1.391,0,0,1-1.7,1.1l-37.4-7.9-2.6-.2,1.3-3.3Z" opacity="0.15"/>
                                <path id="Path_2388" data-name="Path 2388" d="M344.2,562.3l4,.8,16.5-41.9,1.4-3.5c-1.3-6-3-13.8-4-18.6a1.146,1.146,0,0,0-2.2-.1l-18.5,58.7A3.669,3.669,0,0,0,344.2,562.3Z" opacity="0.15"/>
                                <path id="Path_2389" data-name="Path 2389" d="M411,574.4l-14.6-2.8" fill="none" stroke="#000" stroke-linecap="round" stroke-miterlimit="10" stroke-width="1.176" opacity="0.15"/>
                                <path id="Path_2390" data-name="Path 2390" d="M391.7,570.7,372,566.8" fill="none" stroke="#000" stroke-linecap="round" stroke-miterlimit="10" stroke-width="1.176" opacity="0.15"/>
                                <path id="Path_2391" data-name="Path 2391" d="M426.7,576.6l11.2-2.2,2.5,2.5-2.9,3.5Z" opacity="0.15"/>
                                <path id="Path_2392" data-name="Path 2392" d="M413.9,615.7l34.4-59.4a3.326,3.326,0,0,1,3.9-1.4l48.5,16.4a2.973,2.973,0,0,1,1.7,4.4L470,632a3.312,3.312,0,0,1-3.7,1.5l-50.5-13.3A3.147,3.147,0,0,1,413.9,615.7Z" fill="#3f4249"/>
                                <path id="Path_2393" data-name="Path 2393" d="M413.9,615.7l34.4-59.4a3.326,3.326,0,0,1,3.9-1.4l48.5,16.4a2.973,2.973,0,0,1,1.7,4.4L470,632a3.312,3.312,0,0,1-3.7,1.5l-50.5-13.3A3.147,3.147,0,0,1,413.9,615.7Z" opacity="0.8"/>
                                <path id="Path_2394" data-name="Path 2394" d="M415.6,616.2,450,556.8a3.326,3.326,0,0,1,3.9-1.4l48.5,16.4a2.973,2.973,0,0,1,1.7,4.4l-32.4,56.3A3.312,3.312,0,0,1,468,634l-50.5-13.3A3.123,3.123,0,0,1,415.6,616.2Z" fill="#21252b"/>
                                <path id="Path_2395" data-name="Path 2395" d="M465.7,585.3a2.218,2.218,0,0,0,.7-2.2,7.421,7.421,0,0,1,4.4-.2c2.2.8,2.7,2.7,1.1,4.4A7.268,7.268,0,0,1,465,589a2.691,2.691,0,0,1-2-2.4A4.588,4.588,0,0,0,465.7,585.3Z" fill="#3f4249"/>
                                <path id="Path_2396" data-name="Path 2396" d="M498.294,578.684c1.257-.7,1.886-1.963,1.4-2.833s-1.889-1.013-3.146-.318-1.886,1.962-1.4,2.833S497.037,579.378,498.294,578.684Z" opacity="0.4"/>
                                <path id="Path_2397" data-name="Path 2397" d="M498.688,578.877c1.256-.7,1.886-1.963,1.4-2.833s-1.889-1.013-3.146-.318-1.886,1.962-1.406,2.832S497.431,579.571,498.688,578.877Z" fill="#3f4249"/>
                                <path id="Path_2398" data-name="Path 2398" d="M498.386,578.362c.822-.454,1.228-1.293.908-1.873a1.518,1.518,0,0,0-2.069-.228c-.822.454-1.228,1.292-.907,1.872A1.517,1.517,0,0,0,498.386,578.362Z" opacity="0.5"/>
                                <path id="Path_2399" data-name="Path 2399" d="M498.8,577.3a.9.9,0,0,0-.7-1.3h.3c.8,0,1.3.6,1,1.3a2.368,2.368,0,0,1-2,1.3h-.3A2.1,2.1,0,0,0,498.8,577.3Z" opacity="0.4"/>
                                <path id="Path_2400" data-name="Path 2400" d="M417.9,576.4l1.4.3a3.084,3.084,0,0,0,1,.1l16.6-.3a15.237,15.237,0,0,1,5.1.9l19.1,7a1.764,1.764,0,0,1,1.1,2,1.741,1.741,0,0,1-2.1,1.2l-18.3-4.8,17.4,9.5a1.7,1.7,0,0,1,.7,2.4,1.911,1.911,0,0,1-2.3.9l-17.7-7,16,6.3a1.7,1.7,0,0,1,1,2.2,1.852,1.852,0,0,1-2.2,1.2l-16.3-4.4,14,3.8a1.371,1.371,0,0,1,1,1.7,1.391,1.391,0,0,1-1.7,1.1l-37.4-7.9-2.6-.2Z" fill="#966363"/>
                                <path id="Path_2401" data-name="Path 2401" d="M455.9,594.9,441,589" fill="none" stroke="#000" stroke-linecap="round" stroke-miterlimit="10" stroke-width="1.176" opacity="0.15"/>
                                <path id="Path_2402" data-name="Path 2402" d="M438.4,593.8l14.1,3.8" fill="none" stroke="#000" stroke-linecap="round" stroke-miterlimit="10" stroke-width="1.176" opacity="0.15"/>
                                <path id="Path_2403" data-name="Path 2403" d="M453.5,599.3a1.391,1.391,0,0,1-1.7,1.1l-37.4-7.9-2.6-.2,1.3-3.3Z" opacity="0.15"/>
                                <path id="Path_2404" data-name="Path 2404" d="M366.1,517.6l-1.4,3.5L356.1,543l-5.4,13.7-1.3,3.2-.7,1.8-.5,1.3-2.9-.6-1.1-.2a3.532,3.532,0,0,1-2.9-3.6c0-.3.1-.6.1-1L347,540l1.4-4.4,8.8-28,1.3-4.3,1.4-4.4a1.147,1.147,0,0,1,2.2.1c.6,2.7,1.4,6.3,2.2,10l.2.7C365,512.5,365.6,515.2,366.1,517.6Z" opacity="0.15"/>
                                <g id="Group_106" data-name="Group 106" opacity="0.3">
                                    <path id="Path_2405" data-name="Path 2405" d="M364.4,509.8l-1.8-.4c-9.4-2.6-23.6-9.2-25.9-10.3l.7-2.2.7-2.2c2,1,16.3,7.8,25.3,10.3Z" fill="#fff" opacity="0.3"/>
                                </g>
                                <g id="Group_107" data-name="Group 107" opacity="0.3">
                                    <path id="Path_2406" data-name="Path 2406" d="M357.7,538.7l-1.6,4.3c-8.3-2.3-24-8.5-29.6-10.7l1.4-4.4C333.1,529.9,349.5,536.4,357.7,538.7Z" fill="#fff" opacity="0.3"/>
                                </g>
                                <g id="Group_108" data-name="Group 108" opacity="0.3">
                                    <path id="Path_2407" data-name="Path 2407" d="M350.7,556.8l-1.3,3.2-.7,1.8c-1.1.2-2.2.4-3.4.7-10.5,2.3-25,6.5-30.2,8a16.364,16.364,0,0,1,.7-2.8l.7-2.5c5.8-1.7,16.1-4.6,24.8-6.6C344.8,557.8,348.1,557.2,350.7,556.8Z" fill="#fff" opacity="0.3"/>
                                </g>
                                <g id="Group_109" data-name="Group 109" opacity="0.3">
                                    <path id="Path_2408" data-name="Path 2408" d="M365.1,566.3c-3.2,5.6-8.3,15.2-11.7,21.8l-5-.4c3.1-6.1,8.3-16,11.9-22.3Z" fill="#fff" opacity="0.3"/>
                                </g>
                                <g id="Group_110" data-name="Group 110" opacity="0.3">
                                    <path id="Path_2409" data-name="Path 2409" d="M396.1,572.2c-2.9,5.7-6.5,13.1-8.9,18.3l-5-.4c2.3-4.9,6-12.5,9.2-18.8C391.5,571.3,391.4,571.3,396.1,572.2Z" fill="#fff" opacity="0.3"/>
                                </g>
                                <g id="Group_111" data-name="Group 111" opacity="0.3">
                                    <path id="Path_2410" data-name="Path 2410" d="M477.4,507.2l-1.1-4.7,10.9-6.3,2.3,4Z" fill="#fff" opacity="0.3"/>
                                </g>
                                <g id="Group_112" data-name="Group 112" opacity="0.3">
                                    <path id="Path_2411" data-name="Path 2411" d="M503.1,527.8l-21.7,21-2.7-3.8,22.2-21.5Z" fill="#fff" opacity="0.3"/>
                                </g>
                                <g id="Group_113" data-name="Group 113" opacity="0.3">
                                    <path id="Path_2412" data-name="Path 2412" d="M525.7,529.2V554l-4.6.9V529.3Z" fill="#fff" opacity="0.3"/>
                                </g>
                                <g id="Group_114" data-name="Group 114" opacity="0.3">
                                    <path id="Path_2413" data-name="Path 2413" d="M555.9,528.3l-3.3,20.3-4.6,1,3.3-21.2Z" fill="#fff" opacity="0.3"/>
                                </g>
                                <g id="Group_115" data-name="Group 115" opacity="0.3">
                                    <path id="Path_2414" data-name="Path 2414" d="M426,509.5a493.2,493.2,0,0,1-62.7-4.2l-.9-4.6c.7.1,70,9.6,113.4-.4l1,4.5C461.6,508.3,443.4,509.5,426,509.5Z" fill="#fff" opacity="0.3"/>
                                </g>
                                <path id="Path_2415" data-name="Path 2415" d="M685.7,495.4l-10.1-3.7-.4,1a54.752,54.752,0,0,0-36.9,100.8l-.4,1,10.1,3.7a54.747,54.747,0,0,0,37.7-102.8Z" fill="#dc3545"/>
                                <path id="Path_2416" data-name="Path 2416" d="M656.8,597.8a54.7,54.7,0,1,0-54.7-54.7A54.7,54.7,0,0,0,656.8,597.8Z" fill="#dc3545"/>
                                <path id="Path_2417" data-name="Path 2417" d="M656.8,597.8a54.7,54.7,0,1,0-54.7-54.7A54.7,54.7,0,0,0,656.8,597.8Z" fill="#fff" opacity="0.4"/>
                                <path id="Path_2418" data-name="Path 2418" d="M639.4,561.1l-11-23.7a2.607,2.607,0,0,1,1.2-3.4l6.2-2.9a2.607,2.607,0,0,1,3.4,1.2l7.1,15.2,36.7-17a2.607,2.607,0,0,1,3.4,1.2l2.9,6.2a2.606,2.606,0,0,1-1.2,3.4l-45.2,21A2.524,2.524,0,0,1,639.4,561.1Z" fill="#fff"/>
                                <path id="Path_2419" data-name="Path 2419" d="M609.6,539.7a.684.684,0,0,1-.7.7s-6.9.7-9.8,1a3.079,3.079,0,0,0-1.3.3v-9.5a3.621,3.621,0,0,0,3.3,3.3l4.9.7a4.22,4.22,0,0,1,2.5,1.2A3.356,3.356,0,0,1,609.6,539.7Z" fill="#966363"/>
                            </g>
                        </svg>     