<svg xmlns="http://www.w3.org/2000/svg" width="1171.07" height="884.585" viewBox="0 0 1171.07 884.585" class="col-8 col-lg-12 d-block img-fluid ml-auto mr-auto">
                            <g id="Visual_collaboration" data-name="Visual collaboration" transform="translate(-214.469 -157.695)">
                                <path id="Path_5061" data-name="Path 5061" d="M277.68,1041.42,215,586.47a56,56,0,0,1,12-43l240.66-296.3a56,56,0,0,1,34.81-20l439.72-68.8a55.993,55.993,0,0,1,43.07,11.14l378.69,294.92a55.981,55.981,0,0,1,18.88,61.39l-166.48,515.57Z" fill="#f4f4f4"/>
                                <path id="Path_5062" data-name="Path 5062" d="M917.86,240.551l-131.55,26.89a11.5,11.5,0,0,0-8.6,7.62l-42.49,127.37a11.5,11.5,0,0,0,2.3,11.26l89.06,100.48a11.5,11.5,0,0,0,10.9,3.64L969,490.921a11.5,11.5,0,0,0,8.6-7.62l42.49-127.37a11.484,11.484,0,0,0-2.3-11.26l-89.03-100.48a11.507,11.507,0,0,0-10.9-3.64Z" fill="#dcdcdc"/>
                                <path id="Path_5063" data-name="Path 5063" d="M850.76,383.439,844,386l-19.16,9.8c-.11.17-8,2.31-5.77,12.67.35,1.59.71,3.22,1.09,4.86,5.49,23.83,2.78,29.35,6.11,44.45,4.73,21.53,25.7,18.84,35.48,40.73,16.63,37.24,13.2,64.22,13.2,64.22l121.67-41.24s0-.91-1.73-4.32a148.339,148.339,0,0,0-9-14.69c-11.63-17.24-23.39-72-23.39-72l-5.32-35.86c-3.33-22.46-47.42-31.08-47.42-31.08Z" fill="#dc3545"/>
                                <path id="Path_5064" data-name="Path 5064" d="M851.62,438.789a1.479,1.479,0,1,0-1.19-1.72,1.451,1.451,0,0,0,1.19,1.72Z" fill="#f3f3f3"/>
                                <path id="Path_5065" data-name="Path 5065" d="M925.45,419.049a1.451,1.451,0,1,0-1.189-1.14,1.451,1.451,0,0,0,1.189,1.14Z" fill="#f3f3f3"/>
                                <path id="Path_5066" data-name="Path 5066" d="M928.07,391.92a1.48,1.48,0,1,0-1.19-1.72,1.449,1.449,0,0,0,1.19,1.72Z" fill="#f3f3f3"/>
                                <path id="Path_5067" data-name="Path 5067" d="M823.94,406.151a1.489,1.489,0,0,0,.854-.1,1.479,1.479,0,0,0,.629-2.2,1.479,1.479,0,0,0-2.673.578,1.449,1.449,0,0,0,1.19,1.72Z" fill="#f3f3f3"/>
                                <path id="Path_5068" data-name="Path 5068" d="M856.58,466.58a1.479,1.479,0,1,0-1.19-1.72,1.454,1.454,0,0,0,.229,1.114,1.452,1.452,0,0,0,.961.606Z" fill="#f3f3f3"/>
                                <path id="Path_5069" data-name="Path 5069" d="M836.69,452.641a1.48,1.48,0,1,0-.047-2.9,1.48,1.48,0,0,0-1.143,1.183,1.449,1.449,0,0,0,1.19,1.72Z" fill="#f3f3f3"/>
                                <path id="Path_5070" data-name="Path 5070" d="M874.59,435.83a1.48,1.48,0,1,0-1.19-1.72,1.449,1.449,0,0,0,1.19,1.72Z" fill="#f3f3f3"/>
                                <path id="Path_5071" data-name="Path 5071" d="M933.88,438.789a1.48,1.48,0,1,0-1.19-1.72,1.451,1.451,0,0,0,1.19,1.72Z" fill="#f3f3f3"/>
                                <path id="Path_5072" data-name="Path 5072" d="M923.28,457.41a1.48,1.48,0,1,0-1.19-1.72,1.447,1.447,0,0,0,.647,1.515,1.434,1.434,0,0,0,.543.205Z" fill="#f3f3f3"/>
                                <path id="Path_5073" data-name="Path 5073" d="M875.85,477.17a1.48,1.48,0,1,0-1.19-1.72,1.459,1.459,0,0,0,.228,1.114,1.469,1.469,0,0,0,.419.4,1.451,1.451,0,0,0,.543.205Z" fill="#f3f3f3"/>
                                <path id="Path_5074" data-name="Path 5074" d="M906.26,403.821a1.481,1.481,0,1,0-1.19-1.72,1.45,1.45,0,0,0,.229,1.113,1.443,1.443,0,0,0,.961.607Z" fill="#f3f3f3"/>
                                <path id="Path_5075" data-name="Path 5075" d="M929.55,374.719a1.481,1.481,0,1,0-1.19-1.72,1.454,1.454,0,0,0,.229,1.114,1.446,1.446,0,0,0,.961.606Z" fill="#f3f3f3"/>
                                <path id="Path_5076" data-name="Path 5076" d="M856.09,402.33a1.48,1.48,0,1,0-1.19-1.72,1.449,1.449,0,0,0,1.19,1.72Z" fill="#f3f3f3"/>
                                <path id="Path_5077" data-name="Path 5077" d="M902,456.8a1.48,1.48,0,1,0-1.19-1.72A1.451,1.451,0,0,0,902,456.8Z" fill="#f3f3f3"/>
                                <path id="Path_5078" data-name="Path 5078" d="M879.32,458.891a1.481,1.481,0,1,0-1.19-1.72,1.43,1.43,0,0,0,1.19,1.72Z" fill="#f3f3f3"/>
                                <path id="Path_5079" data-name="Path 5079" d="M893,424.3a1.48,1.48,0,1,0-1.19-1.72A1.451,1.451,0,0,0,893,424.3Z" fill="#f3f3f3"/>
                                <path id="Path_5080" data-name="Path 5080" d="M911.76,434.84a1.481,1.481,0,1,0-1.19-1.72,1.454,1.454,0,0,0,.229,1.114,1.446,1.446,0,0,0,.961.606Z" fill="#f3f3f3"/>
                                <path id="Path_5081" data-name="Path 5081" d="M873.11,415.51a1.481,1.481,0,1,0-1.19-1.72,1.449,1.449,0,0,0,1.19,1.72Z" fill="#f3f3f3"/>
                                <path id="Path_5082" data-name="Path 5082" d="M884.39,401.619a1.48,1.48,0,1,0-1.19-1.72,1.457,1.457,0,0,0,.228,1.114,1.455,1.455,0,0,0,.419.4,1.434,1.434,0,0,0,.543.2Z" fill="#f3f3f3"/>
                                <path id="Path_5083" data-name="Path 5083" d="M911.32,383a1.48,1.48,0,1,0-1.19-1.72,1.449,1.449,0,0,0,1.19,1.72Z" fill="#f3f3f3"/>
                                <path id="Path_5084" data-name="Path 5084" d="M635.15,486.051h412.67a5.335,5.335,0,0,1,5.19,4.141,5.266,5.266,0,0,1,0,2.369l-57.32,252.78a5.33,5.33,0,0,1-5.19,4.14H577.83a5.33,5.33,0,0,1-5.19-6.51L630,490.191a5.318,5.318,0,0,1,5.15-4.14Z" fill="#dc3545"/>
                                <path id="Path_5085" data-name="Path 5085" d="M635.15,486.051h412.67a5.335,5.335,0,0,1,5.19,4.141,5.266,5.266,0,0,1,0,2.369l-57.32,252.78a5.33,5.33,0,0,1-5.19,4.14H577.83a5.33,5.33,0,0,1-5.19-6.51L630,490.191a5.318,5.318,0,0,1,5.15-4.14Z" fill="#fff" opacity="0.2"/>
                                <path id="Path_5086" data-name="Path 5086" d="M625.83,486.051H1038.5a5.335,5.335,0,0,1,5.19,4.141,5.262,5.262,0,0,1,0,2.369l-57.32,252.78a5.33,5.33,0,0,1-5.19,4.14H568.52a5.33,5.33,0,0,1-5.19-6.51l57.32-252.78a5.319,5.319,0,0,1,5.18-4.14Z" fill="#dc3545"/>
                                <path id="Path_5087" data-name="Path 5087" d="M625.83,486.051H1038.5a5.335,5.335,0,0,1,5.19,4.141,5.262,5.262,0,0,1,0,2.369l-57.32,252.78a5.33,5.33,0,0,1-5.19,4.14H568.52a5.33,5.33,0,0,1-5.19-6.51l57.32-252.78a5.319,5.319,0,0,1,5.18-4.14Z" fill="#fff" opacity="0.7"/>
                                <path id="Path_5088" data-name="Path 5088" d="M720,535.071H639.1a5.261,5.261,0,0,1-5.25-5.25l5.22-20.19a5.26,5.26,0,0,1,5.25-5.25h80.9a5.258,5.258,0,0,1,5.25,5.25l-5.22,20.19a5.26,5.26,0,0,1-5.25,5.25Zm-75.69-29.35a3.93,3.93,0,0,0-3.92,3.92l-5.22,20.19a3.93,3.93,0,0,0,3.92,3.92H720a3.93,3.93,0,0,0,3.92-3.92l5.22-20.19a3.93,3.93,0,0,0-3.92-3.92Z" fill="#dc3545"/>
                                <path id="Path_5089" data-name="Path 5089" d="M833.5,535.071H752.6a5.26,5.26,0,0,1-5.25-5.25l5.22-20.19a5.258,5.258,0,0,1,5.25-5.25h80.9a5.26,5.26,0,0,1,5.25,5.25l-5.22,20.19a5.261,5.261,0,0,1-5.25,5.25Zm-75.69-29.35a3.93,3.93,0,0,0-3.92,3.92l-5.22,20.19a3.93,3.93,0,0,0,3.92,3.92h80.9a3.93,3.93,0,0,0,3.92-3.92l5.22-20.19a3.93,3.93,0,0,0-3.92-3.92Z" fill="#dc3545"/>
                                <path id="Path_5090" data-name="Path 5090" d="M822.7,576H706a4.08,4.08,0,0,1-4.08-4.08h0a4.08,4.08,0,0,1,4.08-4.08H822.7a4.08,4.08,0,0,1,4.08,4.08h0A4.07,4.07,0,0,1,822.7,576Z" fill="#dc3545"/>
                                <path id="Path_5091" data-name="Path 5091" d="M754.76,607.2H702.18a4.08,4.08,0,0,1,0-8.16h52.58a4.08,4.08,0,1,1,0,8.16Z" fill="#dc3545"/>
                                <path id="Path_5092" data-name="Path 5092" d="M822.7,576H706a4.08,4.08,0,0,1-4.08-4.08h0a4.08,4.08,0,0,1,4.08-4.08H822.7a4.08,4.08,0,0,1,4.08,4.08h0A4.07,4.07,0,0,1,822.7,576Z" fill="#fff" opacity="0.9"/>
                                <path id="Path_5093" data-name="Path 5093" d="M754.76,607.2H702.18a4.08,4.08,0,0,1,0-8.16h52.58a4.08,4.08,0,1,1,0,8.16Z" fill="#fff" opacity="0.9"/>
                                <path id="Path_5094" data-name="Path 5094" d="M856.91,576h-14a4.08,4.08,0,1,1,0-8.16h14a4.08,4.08,0,0,1,4.08,4.08h0a4.08,4.08,0,0,1-4.08,4.08Z" fill="#dc3545"/>
                                <path id="Path_5095" data-name="Path 5095" d="M680.27,580.29H669.7a3.058,3.058,0,0,1-3-3.649l2.12-10.7a3.05,3.05,0,0,1,3-2.461H682.4a3.06,3.06,0,0,1,3,3.651l-2.12,10.7a3.068,3.068,0,0,1-3.01,2.459Z" fill="#dc3545"/>
                                <path id="Path_5096" data-name="Path 5096" d="M680.27,580.29H669.7a3.058,3.058,0,0,1-3-3.649l2.12-10.7a3.05,3.05,0,0,1,3-2.461H682.4a3.06,3.06,0,0,1,3,3.651l-2.12,10.7a3.068,3.068,0,0,1-3.01,2.459Z" fill="#fff" opacity="0.9"/>
                                <path id="Path_5097" data-name="Path 5097" d="M674.7,610.54H664.12a3.058,3.058,0,0,1-3-3.649l2.12-10.7a3.05,3.05,0,0,1,3-2.461h10.58a3.062,3.062,0,0,1,3,3.651l-2.12,10.7a3.058,3.058,0,0,1-3,2.459Z" fill="#dc3545"/>
                                <path id="Path_5098" data-name="Path 5098" d="M244.92,1042.28h1012.3a.414.414,0,0,0,.16-.03.523.523,0,0,0,.24-.24.441.441,0,0,0,0-.32.524.524,0,0,0-.24-.24.417.417,0,0,0-.16-.03H244.92a.437.437,0,0,0-.3.13.42.42,0,0,0,0,.6.438.438,0,0,0,.3.13Z" fill="#b1b5ba"/>
                                <path id="Path_5099" data-name="Path 5099" d="M288.64,770.19a125.187,125.187,0,1,1,13.145,47.048A125.252,125.252,0,0,1,288.64,770.19Z" fill="#dcdcdc"/>
                                <path id="Path_5100" data-name="Path 5100" d="M539.69,704.3l18.09-2.13a3.09,3.09,0,0,1,3.18,4.32l-1.96,4.39a6.872,6.872,0,0,1-3.86,3.64l-23.65,8.8,9.54-20.51" fill="#fc9d9d"/>
                                <g id="Group_282" data-name="Group 282" opacity="0.15">
                                    <path id="Path_5101" data-name="Path 5101" d="M539.69,704.3l18.09-2.13a3.09,3.09,0,0,1,3.18,4.32l-1.96,4.39a6.872,6.872,0,0,1-3.86,3.64l-23.65,8.8" opacity="0.15"/>
                                </g>
                                <path id="Path_5102" data-name="Path 5102" d="M615.08,814.6l-86-47.6a4.129,4.129,0,0,1-1.55-5.74l66.57-111.74a4.109,4.109,0,0,1,5.42-1.55l87.54,45.12a4.121,4.121,0,0,1,1.65,5.76L620.64,813.1a4.14,4.14,0,0,1-5.56,1.5Z" fill="#dc3545"/>
                                <path id="Path_5103" data-name="Path 5103" d="M615.08,814.6l-86-47.6a4.129,4.129,0,0,1-1.55-5.74l66.57-111.74a4.109,4.109,0,0,1,5.42-1.55l87.54,45.12a4.121,4.121,0,0,1,1.65,5.76L620.64,813.1a4.14,4.14,0,0,1-5.56,1.5Z" fill="#f4f4f4" opacity="0.5"/>
                                <path id="Path_5104" data-name="Path 5104" d="M610.73,812.32l-86-47.6a4.13,4.13,0,0,1-1.55-5.74l66.57-111.74a4.109,4.109,0,0,1,5.42-1.55l87.54,45.12a4.121,4.121,0,0,1,1.65,5.76L616.29,810.83a4.152,4.152,0,0,1-5.56,1.49Z" fill="#fff"/>
                                <path id="Path_5105" data-name="Path 5105" d="M517.08,726.409l11.73-19.92a12.613,12.613,0,0,1,7.14-5.66l20.65-6.46a2.62,2.62,0,0,1,1.95,4.85l-16.88,8.43-7.69,15a1.74,1.74,0,0,0,2.58,2.2l7.73-5.7a6,6,0,0,1,8.07.95,1.512,1.512,0,0,1,0,1.92l-27.86,33.17-28.6-8.78Z" fill="#fc9d9d"/>
                                <g id="Group_283" data-name="Group 283" opacity="0.3">
                                    <path id="Path_5106" data-name="Path 5106" d="M551.55,753.641a.526.526,0,0,1-.24-.06l-12.63-6.92a.5.5,0,0,1-.152-.13.473.473,0,0,1-.088-.18.454.454,0,0,1-.015-.207.467.467,0,0,1,.075-.193l7.59-12.06a.5.5,0,0,1,.66-.17l12.64,6.92a.475.475,0,0,1,.152.13.537.537,0,0,1,.1.387.467.467,0,0,1-.075.193L552,753.411a.479.479,0,0,1-.45.23ZM539.63,746l11.75,6.44,7.06-11.22-11.76-6.44Z" fill="#61656d" opacity="0.3"/>
                                </g>
                                <g id="Group_284" data-name="Group 284" opacity="0.3">
                                    <path id="Path_5107" data-name="Path 5107" d="M562.84,735.721a.531.531,0,0,1-.24-.06l-12.6-6.92a.487.487,0,0,1-.152-.13.5.5,0,0,1-.088-.18.483.483,0,0,1-.015-.207.467.467,0,0,1,.075-.193l7.6-12.06a.5.5,0,0,1,.66-.17l12.63,6.92a.5.5,0,0,1,.153.13.485.485,0,0,1,.087.18.453.453,0,0,1,.015.207.467.467,0,0,1-.075.193l-7.59,12.06a.484.484,0,0,1-.2.182.491.491,0,0,1-.264.048Zm-11.93-7.6,11.76,6.44,7.05-11.22L558,716.9Z" fill="#61656d" opacity="0.3"/>
                                </g>
                                <path id="Path_5108" data-name="Path 5108" d="M547.34,747.661l-.7-5.66a.6.6,0,0,1,.125-.408.592.592,0,0,1,.365-.222l1.49-.18a.6.6,0,0,1,.63.49l.45,3.64,8.79-1.1a.594.594,0,0,1,.408.125.6.6,0,0,1,.222.365l.18,1.49a.59.59,0,0,1-.49.63L548,748.171a.574.574,0,0,1-.226-.017.569.569,0,0,1-.348-.277.566.566,0,0,1-.066-.216" fill="#dc3545"/>
                                <path id="Path_5109" data-name="Path 5109" d="M558.77,729.729l-.7-5.66a.6.6,0,0,1,.49-.63l1.49-.18a.6.6,0,0,1,.63.49l.45,3.64,8.79-1.1a.6.6,0,0,1,.63.49l.18,1.49a.588.588,0,0,1-.49.63l-10.83,1.34a.581.581,0,0,1-.64-.51" fill="#dc3545"/>
                                <path id="Path_5110" data-name="Path 5110" d="M599.05,777.26l-39.36-21.87a1.068,1.068,0,0,1-.41-1.45h0a1.071,1.071,0,0,1,1.45-.41l39.36,21.87a1.071,1.071,0,0,1,.41,1.45h0a1.079,1.079,0,0,1-1.45.41Z" fill="#61656d" opacity="0.3"/>
                                <path id="Path_5111" data-name="Path 5111" d="M583.4,762.7,562.27,751a1.065,1.065,0,0,1,1.04-1.86l21.13,11.72a1.069,1.069,0,0,1,.41,1.45h0a1.065,1.065,0,0,1-.644.5,1.071,1.071,0,0,1-.414.027,1.054,1.054,0,0,1-.392-.133Z" fill="#61656d" opacity="0.3"/>
                                <path id="Path_5112" data-name="Path 5112" d="M610.09,758.139l-39.36-21.87a1.069,1.069,0,0,1-.41-1.45h0a1.071,1.071,0,0,1,1.45-.41l39.36,21.87a1.072,1.072,0,0,1,.41,1.45,1.079,1.079,0,0,1-1.45.41Z" fill="#61656d" opacity="0.3"/>
                                <path id="Path_5113" data-name="Path 5113" d="M594.44,743.579l-21.13-11.72a1.069,1.069,0,0,1-.41-1.45h0a1.071,1.071,0,0,1,1.45-.41l21.13,11.72a1.065,1.065,0,0,1-1.04,1.86Z" fill="#61656d" opacity="0.3"/>
                                <path id="Path_5114" data-name="Path 5114" d="M634.07,758.32a.445.445,0,0,1-.25-.07c-2.8-1.64-6.19-1.92-9.17-2.16s-5.47-.45-6.25-2.1.54-7.47,2.8-16.71c2.83-11.53,6.71-27.33,3-29.33-2.19-1.16-7.63,1.91-11.61,4.15-1.56.88-2.91,1.64-4,2.11h-.1a5.22,5.22,0,0,1-4.78-.34,5.847,5.847,0,0,1-2.8-4.45c-.32-3.39.34-8.2,1-12.86.87-6.34,1.85-13.53-.34-14.7-2.49-1.31-9.9,4.9-14.33,8.62-1.6,1.35-3,2.51-3.87,3.1-3.86,2.63-8.82,1.2-9,1.14a.514.514,0,0,1-.181-.091.543.543,0,0,1-.132-.154.523.523,0,0,1-.047-.395.52.52,0,0,1,.64-.36s4.72,1.35,8.19-1c.83-.57,2.2-1.72,3.79-3,6.51-5.46,12.59-10.25,15.44-8.73s1.9,8.09.86,15.72c-.63,4.6-1.28,9.35-1,12.62a4.832,4.832,0,0,0,2.31,3.69,4.258,4.258,0,0,0,3.86.29h.1c1-.45,2.4-1.24,3.87-2.07,4.42-2.49,9.91-5.59,12.59-4.16,4.42,2.37.76,17.28-2.48,30.45-1.75,7.16-3.57,14.56-2.87,16.05.53,1.12,2.8,1.31,5.43,1.52,2.94.24,6.6.54,9.59,2.3a.5.5,0,0,1-.25.93Z"/>
                                <path id="Path_5115" data-name="Path 5115" d="M601.64,682.9a1.5,1.5,0,1,0-1.5-1.5A1.5,1.5,0,0,0,601.64,682.9Z" fill="#dc3545"/>
                                <path id="Path_5116" data-name="Path 5116" d="M613.72,712.33a1.5,1.5,0,1,0-1.5-1.5A1.5,1.5,0,0,0,613.72,712.33Z" fill="#dc3545"/>
                                <path id="Path_5117" data-name="Path 5117" d="M628.36,757.52a1.5,1.5,0,1,0-1.5-1.5A1.5,1.5,0,0,0,628.36,757.52Z" fill="#dc3545"/>
                                <path id="Path_5118" data-name="Path 5118" d="M660.15,671l-8.2-4.51a12.122,12.122,0,0,0-21.25-11.67l-8.2-4.51a2,2,0,0,0-2.73.79l-10,18.29a2.015,2.015,0,0,0-.24.747,2,2,0,0,0,1.03,1.983l37.65,20.69a2,2,0,0,0,2.226-.188,1.974,1.974,0,0,0,.5-.6l10.05-18.29a2,2,0,0,0-.84-2.73ZM645,662.62a4.191,4.191,0,1,1,.348-3.181A4.174,4.174,0,0,1,645,662.62Z"/>
                                <path id="Path_5119" data-name="Path 5119" d="M617.5,664.851l33,18.14a2,2,0,0,1,.79,2.73l-1.49,2.7a2,2,0,0,1-2.73.79l-33-18.14a2,2,0,0,1-.79-2.73l1.49-2.7a1.994,1.994,0,0,1,1.982-1.03A1.978,1.978,0,0,1,617.5,664.851Z" fill="#fff"/>
                                <path id="Path_5120" data-name="Path 5120" d="M469.6,758.721l40.17-25.41,17.71,18.32-45.83,58.9Z" fill="#dc3545"/>
                                <path id="Path_5121" data-name="Path 5121" d="M631.7,764.3,616.42,758a2.8,2.8,0,0,0-3.84,3l.62,4.32a6.236,6.236,0,0,0,2.48,4.13l18.5,13.49-3.3-20.26" fill="#fc9d9d"/>
                                <path id="Path_5122" data-name="Path 5122" d="M631.7,764.3,616.42,758a2.8,2.8,0,0,0-3.84,3l.62,4.32a6.236,6.236,0,0,0,2.48,4.13l18.5,13.49-3.3-20.26" opacity="0.15"/>
                                <path id="Path_5123" data-name="Path 5123" d="M638.62,783.29l-3.61-8.9A2,2,0,0,1,635,773a110.378,110.378,0,0,0,3-11.25,2,2,0,0,0-1.28-2.24c-3.89-1.47-14.34-5.37-15.44-5.3A2.388,2.388,0,0,0,619,756.3c-.63,4.83,8.57,7.64,8.57,7.64L620,775.87a1.58,1.58,0,0,1-2.66-1.56l2.59-8.32a5.4,5.4,0,0,0-3.21-6.64,1.371,1.371,0,0,0-1.65.56l-20.18,33.74,16,21.93,27.32-30.16a2,2,0,0,0,.41-2.13Z" fill="#fc9d9d"/>
                                <path id="Path_5124" data-name="Path 5124" d="M609.83,741.44a.421.421,0,0,0-.22.55l.58,1.33L611,743l-.58-1.33a.413.413,0,0,0-.094-.15.427.427,0,0,0-.149-.1.415.415,0,0,0-.175-.028.445.445,0,0,0-.172.047Z" fill="#3f4249"/>
                                <path id="Path_5125" data-name="Path 5125" d="M609.83,741.44a.421.421,0,0,0-.22.55l.58,1.33L611,743l-.58-1.33a.413.413,0,0,0-.094-.15.427.427,0,0,0-.149-.1.415.415,0,0,0-.175-.028.445.445,0,0,0-.172.047Z"/>
                                <path id="Path_5126" data-name="Path 5126" d="M619.22,754.311l-1.66.72,23.63,54.15,1.29-.56a.416.416,0,0,0,.217-.227.409.409,0,0,0-.007-.313Z" fill="#3f4249"/>
                                <path id="Path_5127" data-name="Path 5127" d="M616.8,755.35l-4,1.72,23.46,53.77a.411.411,0,0,0,.54.21l3.58-1.55Z" fill="#3f4249"/>
                                <path id="Path_5128" data-name="Path 5128" d="M619.22,754.311l-1.66.72,23.63,54.15,1.29-.56a.416.416,0,0,0,.217-.227.409.409,0,0,0-.007-.313Z"/>
                                <path id="Path_5129" data-name="Path 5129" d="M616.8,755.35l-4,1.72,23.46,53.77a.411.411,0,0,0,.54.21l3.58-1.55Z"/>
                                <path id="Path_5130" data-name="Path 5130" d="M643.19,814l-3,1.281a.673.673,0,0,1-.254.057.648.648,0,0,1-.473-.191.65.65,0,0,1-.143-.217l-1.8-4.149,4.17-1.8,1.8,4.15a.659.659,0,0,1-.3.87Z" fill="#3f4249"/>
                                <path id="Path_5131" data-name="Path 5131" d="M619.22,754.31l-6.37,2.76L611,752.84c-.76-1.76-2.34-9.32-.58-10.08s6.19,5.56,6.95,7.32Z" fill="#3f4249"/>
                                <path id="Path_5132" data-name="Path 5132" d="M631.8,800.44l3.31,7.64-3.89-1.59-.64-1.48-2.67-6.16L619.75,780l-1.4-3.24.6-.26a1.76,1.76,0,0,1,2,2.84l8.76,20.21Z" fill="#3f4249"/>
                                <path id="Path_5133" data-name="Path 5133" d="M594.91,793.659l20.18-33.74a1.35,1.35,0,0,1,1.65-.56A5.39,5.39,0,0,1,620,766l-2.59,8.32Z" fill="#fc9d9d"/>
                                <path id="Path_5134" data-name="Path 5134" d="M532,610.73l4.4,29.55a4.179,4.179,0,0,0,2.6,3.26l3.42,1.34a5.561,5.561,0,0,1,3.51,5.57v.11a5.72,5.72,0,0,1-4.54,5.2c-2,.4-3.85.81-3.85.81L533.9,672.7a15.9,15.9,0,0,1-18.16,12.18l-8.29-1.39-27.58,31.69L453.32,669l14.87-22.17L482.63,602Z" fill="#fc9d9d"/>
                                <path id="Path_5135" data-name="Path 5135" d="M462.11,600c5-9.42,11.3-12.61,20.95-11.83a4.323,4.323,0,0,0,3.76-2.33c2-3.23,6.9-8.74,17.3-8.07a17.539,17.539,0,0,1,14.59,8.71,5,5,0,0,0,6.2,1.9,14.27,14.27,0,0,1,14,1.44c10.74,7.06,5.9,25.7-5.71,27.18l-9.28.77A3.61,3.61,0,0,0,520.6,621a13.126,13.126,0,0,1-1.44,4.7,13.37,13.37,0,0,1-13.47,7,2.169,2.169,0,0,0-2.36,2.17v10.41a2.821,2.821,0,0,1-1.6,2.58,2.68,2.68,0,0,1-3.65-1.66l-2.16-6.9a6.327,6.327,0,0,0-5.31-4.39l-2.72-.32c-2.71,3.91-5.22,8.29-7.54,11.68a25.763,25.763,0,0,1-5.53,6.15c-3.93,2.93-7.09,1.89-9-2.15,0,0-11.82-26.16-5.76-45.4a29.091,29.091,0,0,1,2.06-4.92" fill="#21252b"/>
                                <g id="Group_285" data-name="Group 285" opacity="0.15">
                                    <path id="Path_5136" data-name="Path 5136" d="M474.82,652.481l7.67.95c.25.15.53.29.81.44,2.65,1.38,7.06,3.2,10.71,2.26a1,1,0,0,0-.51-1.94,6.663,6.663,0,0,1-1.85.19l-11.3-8a26.03,26.03,0,0,1-5.53,6.15" opacity="0.15"/>
                                </g>
                                <path id="Path_5137" data-name="Path 5137" d="M539.8,633.963l-45.82,3.207.162,2.31,45.82-3.207Z" fill="#dc3545"/>
                                <path id="Path_5138" data-name="Path 5138" d="M492.16,633.641s-3.24-7-10.45-3c-8.25,4.57-4.75,24,9.93,23.75,7.7-.12,5.73-4.36,3.9-10.14Z" fill="#fc9d9d"/>
                                <g id="Group_286" data-name="Group 286" opacity="0.2">
                                    <path id="Path_5139" data-name="Path 5139" d="M481.75,635.75a5.392,5.392,0,0,1,4.1-1.46,5.308,5.308,0,0,1,3.57,2.38,10.78,10.78,0,0,1,1.93,5.2l.29,1.7a.9.9,0,0,1-.15.714.9.9,0,0,1-.629.369.919.919,0,0,1-.372-.036.908.908,0,0,1-.547-.483.913.913,0,0,1-.082-.364l-.29-1.7a10.418,10.418,0,0,0-1.59-4.33,3.773,3.773,0,0,0-2.35-1.68,3.677,3.677,0,0,0-2.75,1.07.894.894,0,0,1-.307.164.893.893,0,0,1-.948-.289.885.885,0,0,1-.2-.653.891.891,0,0,1,.322-.6" opacity="0.2"/>
                                </g>
                                <path id="Path_5140" data-name="Path 5140" d="M538.7,646.44a1.163,1.163,0,0,1-.8-1l-2.8-21a1.16,1.16,0,0,1,1-1.3,1.143,1.143,0,0,1,.451.027,1.157,1.157,0,0,1,.4.2,1.14,1.14,0,0,1,.434.772l2.8,21a1.16,1.16,0,0,1-1,1.3,1.391,1.391,0,0,1-.49,0" fill="#dc3545"/>
                                <path id="Path_5141" data-name="Path 5141" d="M529.67,662.571a13.825,13.825,0,0,0,6.18,1.62l.41-2.28a12.445,12.445,0,0,1-7.51-2.77,1.151,1.151,0,0,0-1.53,1.72,11.473,11.473,0,0,0,2.45,1.71" opacity="0.2"/>
                                <path id="Path_5142" data-name="Path 5142" d="M506.49,730.71l-8.7-9.73.64-12.85-40.37-47.31-10.69,10.25a53.1,53.1,0,0,0-50.13,33.42s-54.54,145.75-53.72,161.2a129.367,129.367,0,0,0,71.85,20.15s10.43-.57,15.14-1.16c2.33-.29,12.19-2.22,12.79-2.36a129.019,129.019,0,0,0,22.57-7.61l2.59-61.88,50.12-44.68-.12-6.9a47.1,47.1,0,0,0-11.97-30.54Z" fill="#dc3545"/>
                                <path id="Path_5143" data-name="Path 5143" d="M467.44,835.551c-40.64-18.44-80.68-102.66-80.68-102.66l-11.84,34s32.38,71.56,91.29,99Z" fill="#fff" opacity="0.2"/>
                                <g id="Group_287" data-name="Group 287" opacity="0.15">
                                    <path id="Path_5144" data-name="Path 5144" d="M496.15,720.919l-35.5-37.82a1.138,1.138,0,0,1-.238-.381,1.151,1.151,0,0,1,.67-1.487,1.156,1.156,0,0,1,.882.027,1.156,1.156,0,0,1,.366.261l35.5,37.82-.05,1.63a1.338,1.338,0,0,1-1.21.31Z" opacity="0.15"/>
                                </g>
                                <g id="Group_288" data-name="Group 288" opacity="0.2">
                                    <path id="Path_5145" data-name="Path 5145" d="M507.42,683.49l-6.1-1.25A1.68,1.68,0,0,0,499.7,685l3.17,3.74Z" opacity="0.2"/>
                                </g>
                                <path id="Path_5146" data-name="Path 5146" d="M462.58,800.83l13.92,75.79a27.881,27.881,0,0,0,43.72,13.14l90.7-74.18-16-22L525.8,830.229l-7.75-69.459Z" fill="#dc3545"/>
                                <path id="Path_5147" data-name="Path 5147" d="M525.8,830.211l1.14,8.83a2.681,2.681,0,0,0,4.81,1.25l16.51-22.4Z" opacity="0.15"/>
                                <path id="Path_5148" data-name="Path 5148" d="M465.85,874.72l3-73.62a1.5,1.5,0,1,0-3,0l-14.46,79s5.84-1.94,7.77-2.66C460.85,876.83,465.85,874.72,465.85,874.72Z" opacity="0.15"/>
                                <path id="Path_5149" data-name="Path 5149" d="M853.264,352.212c2.106-.293,3.68-1.484,3.516-2.661s-2-1.891-4.109-1.6-3.681,1.485-3.517,2.661S851.158,352.505,853.264,352.212Z" fill="#fff"/>
                                <path id="Path_5150" data-name="Path 5150" d="M893.31,296.171a21.64,21.64,0,1,0-21.64-21.64A21.641,21.641,0,0,0,893.31,296.171Z" fill="#21252b"/>
                                <path id="Path_5151" data-name="Path 5151" d="M885.5,268.18A21.516,21.516,0,0,0,872.16,270a3.6,3.6,0,0,1-.15.63,21.512,21.512,0,0,0-.08,7.2,21.609,21.609,0,0,1,24.63,18.06,21.715,21.715,0,0,0,6.21-1.94,3.177,3.177,0,0,1,.14-.61,21.639,21.639,0,0,0-17.41-25.16Z" fill="#dc3545"/>
                                <path id="Path_5152" data-name="Path 5152" d="M866.41,369.581a12.18,12.18,0,1,0-12.18-12.18A12.181,12.181,0,0,0,866.41,369.581Z" fill="#21252b"/>
                                <path id="Path_5153" data-name="Path 5153" d="M883.66,319.32l12,40.37a7.489,7.489,0,0,0,9.32,5.05l4.83-1.22s-10.31,18.38-37.18,24.85c-14,3.36-28.58-2.32-28.58-2.32l7.84-4s.57-.68.89-6.66a51.878,51.878,0,0,0-.31-8.47c-1.66-11.41-6.71-45.28-6.71-45.28Z" fill="#f59696"/>
                                <path id="Path_5154" data-name="Path 5154" d="M863.64,360l2-.39a25.912,25.912,0,0,0,19.74-30.88l-7.87-35.52a8.609,8.609,0,0,0-10.34-6.56l-33.26,7.27a11.248,11.248,0,0,0-8.54,13.4l7.33,33A26.11,26.11,0,0,0,863.64,360Z" fill="#f59696"/>
                                <path id="Path_5155" data-name="Path 5155" d="M854.85,329.52a2.81,2.81,0,1,0-2.81-2.81A2.81,2.81,0,0,0,854.85,329.52Z" fill="#21252b"/>
                                <path id="Path_5156" data-name="Path 5156" d="M853.59,327.07a.58.58,0,1,0-.58-.58A.58.58,0,0,0,853.59,327.07Z" fill="#fff"/>
                                <path id="Path_5157" data-name="Path 5157" d="M833.73,335.14a2.81,2.81,0,1,0-2.81-2.81A2.811,2.811,0,0,0,833.73,335.14Z" fill="#21252b"/>
                                <path id="Path_5158" data-name="Path 5158" d="M832.43,332.57a.58.58,0,1,0-.58-.58A.58.58,0,0,0,832.43,332.57Z" fill="#fff"/>
                                <g id="Group_289" data-name="Group 289" opacity="0.15">
                                    <path id="Path_5159" data-name="Path 5159" d="M849.05,339.709l3.7-.62a.83.83,0,0,0-.19-1.65l-3.7.62a1.711,1.711,0,0,1-1.765-.782,1.721,1.721,0,0,1-.235-.638,1.9,1.9,0,0,1,1.38-2.06.82.82,0,0,0,.308-.1.805.805,0,0,0,.247-.21.821.821,0,0,0,.148-.288.826.826,0,0,0-.072-.631.833.833,0,0,0-.5-.4.84.84,0,0,0-.323-.027,3.421,3.421,0,0,0-2.73,3.87,3,3,0,0,0,3.73,2.91Z" opacity="0.15"/>
                                </g>
                                <path id="Path_5160" data-name="Path 5160" d="M851.38,359.74a28.788,28.788,0,0,0,13.81.08l3-.81a4.01,4.01,0,0,0,1.1-.41l.22-.06c.53-.27,1.1-.41,1.75-.71.22-.06.42-.24.65-.3a26.9,26.9,0,0,0,8-5.51.76.76,0,0,1,1.259.476.766.766,0,0,1-.129.524,29.778,29.778,0,0,1-10.52,6.8,23.12,23.12,0,0,1-12,8,24.969,24.969,0,0,1-5.83.83Z" opacity="0.15"/>
                                <path id="Path_5161" data-name="Path 5161" d="M878.88,292.11c-.85-7.73-2.83-2.1-7.28-6.12s-25-.46-25-.46c-3.59,2.37-12.62,6.54-9.64,13.07,11.94,26.12,45,15,45,15Z" fill="#21252b"/>
                                <path id="Path_5162" data-name="Path 5162" d="M900.63,290.461c-1-11.13-10.82-17-18.34-18.42-4.7-.86-8.48-.89-14.54-.48-56.7,3.81-45.37,43.22-45.37,43.22l21.51-20.22,37.65,17.06s11.76,3.52,9,12.69c-2.39,7.89-10.34,9.16-10.34,9.16a35.908,35.908,0,0,0,10.8,10.71S904.43,328.441,900.63,290.461Z" fill="#21252b"/>
                                <path id="Path_5163" data-name="Path 5163" d="M822.38,314.779c-7.92-26,16.44-25.89,16.44-25.89,2.5,0,.41-.42,1.37,3.65,2.82,12-2.1,18.24-10.3,20.35C827.87,313.419,822.38,314.779,822.38,314.779Z" fill="#21252b"/>
                                <path id="Path_5164" data-name="Path 5164" d="M878.39,333.81s12.38-1.23,12.81-13.69-15-12.12-14.89.44l.72,13.61Z" fill="#f59696"/>
                                <path id="Path_5165" data-name="Path 5165" d="M886.28,314.4a4.8,4.8,0,0,0-3.83-.32,4.533,4.533,0,0,0-2.51,2.84,9.209,9.209,0,0,0-.5,5l.22,1.27c.12.94,1.83,1,1.64-.19l-.13-1.41a8.489,8.489,0,0,1,.36-4.08,3.39,3.39,0,0,1,1.64-2,3.47,3.47,0,0,1,2.61.26.9.9,0,0,0,1.1-.41.911.911,0,0,0-.6-.96Z" opacity="0.15"/>
                                <path id="Path_5166" data-name="Path 5166" d="M880.92,331.309a2.47,2.47,0,1,0-2.47-2.47A2.47,2.47,0,0,0,880.92,331.309Z" fill="#dc3545"/>
                                <path id="Path_5167" data-name="Path 5167" d="M880.48,331.191a2.639,2.639,0,0,0,2.19-3.12,2.734,2.734,0,0,0-.71-1.27,2.739,2.739,0,0,1,1.44,1.79,2.419,2.419,0,0,1-2,2.85,2,2,0,0,1-1.5-.21A.914.914,0,0,1,880.48,331.191Z" opacity="0.15"/>
                                <path id="Path_5168" data-name="Path 5168" d="M876.39,320.89c.37-.57.13-5.34,2.36-7.58l-2-1.74s-2,5.44-1.91,8.93a.86.86,0,0,0,1.55.39Z" fill="#21252b"/>
                                <path id="Path_5169" data-name="Path 5169" d="M852.53,344.17l1,.9a5.1,5.1,0,0,0,8.07-2.53l.43-1.55c.09-.33-.15-.64-.47-.51l-8.91,3a.392.392,0,0,0-.182.114.388.388,0,0,0-.093.193.382.382,0,0,0,.023.214.391.391,0,0,0,.132.169Z" fill="#fff"/>
                                <path id="Path_5170" data-name="Path 5170" d="M689.71,559l16.52,3.27a2.85,2.85,0,0,0,3.24-3.75L708,554.29a6.4,6.4,0,0,0-3.29-3.64l-21.16-9.82,7.32,19.59" fill="#fc9d9d"/>
                                <path id="Path_5171" data-name="Path 5171" d="M689.71,559l16.52,3.27a2.85,2.85,0,0,0,3.24-3.75L708,554.29a6.4,6.4,0,0,0-3.29-3.64l-21.16-9.82,7.32,19.59" opacity="0.15"/>
                                <path id="Path_5172" data-name="Path 5172" d="M679,541.349l5.37,8.18a2.091,2.091,0,0,1,.33,1.35,110.85,110.85,0,0,0-.73,11.83,2.08,2.08,0,0,0,1.73,2c4.18.7,15.4,2.52,16.48,2.24a2.41,2.41,0,0,0,1.8-2.51c-.33-4.95-10.08-5.94-10.08-5.94l5.17-13.41a1.61,1.61,0,0,1,3,1l-.94,8.83a5.509,5.509,0,0,0,4.52,6,1.389,1.389,0,0,0,1.54-.89l11.67-35.41-20-13L679,539.139a2.052,2.052,0,0,0,0,2.21Z" fill="#fc9d9d"/>
                                <path id="Path_5173" data-name="Path 5173" d="M716.09,577.47a.417.417,0,0,0,.117-.12.447.447,0,0,0,.063-.157.432.432,0,0,0,0-.168.438.438,0,0,0-.067-.155l-.84-1.21-.71.49.84,1.21a.44.44,0,0,0,.6.11Z" fill="#3f4249"/>
                                <path id="Path_5174" data-name="Path 5174" d="M716.09,577.47a.417.417,0,0,0,.117-.12.447.447,0,0,0,.063-.157.432.432,0,0,0,0-.168.438.438,0,0,0-.067-.155l-.84-1.21-.71.49.84,1.21a.44.44,0,0,0,.6.11Z"/>
                                <path id="Path_5175" data-name="Path 5175" d="M704.16,566.47l1.52-1.05L671.34,516l-1.17.81a.42.42,0,0,0-.11.58Z" fill="#3f4249"/>
                                <path id="Path_5176" data-name="Path 5176" d="M706.37,564.939l3.62-2.5-34.1-49.08a.42.42,0,0,0-.58-.11l-3.31,2.26Z" fill="#3f4249"/>
                                <path id="Path_5177" data-name="Path 5177" d="M704.16,566.47l1.52-1.05L671.34,516l-1.17.81a.42.42,0,0,0-.11.58Z"/>
                                <path id="Path_5178" data-name="Path 5178" d="M706.37,564.939l3.62-2.5-34.1-49.08a.42.42,0,0,0-.58-.11l-3.31,2.26Z"/>
                                <path id="Path_5179" data-name="Path 5179" d="M668.38,511.61l2.69-1.86a.657.657,0,0,1,.242-.107.67.67,0,0,1,.264-.005.668.668,0,0,1,.434.282l2.62,3.79-3.8,2.63-2.62-3.79a.68.68,0,0,1,.17-.94Z" fill="#3f4249"/>
                                <path id="Path_5180" data-name="Path 5180" d="M704.16,566.471l5.82-4,2.67,3.87c1.11,1.61,4.19,8.85,2.58,10-1.61,1.11-7.29-4.33-8.4-5.93Z" fill="#3f4249"/>
                                <path id="Path_5181" data-name="Path 5181" d="M682.45,522.869l-4.82-7,4.2.82.93,1.35,3.89,5.63,11.88,17.2,2.05,3-.55.38a1.8,1.8,0,0,1-2.5-.46,1.822,1.822,0,0,1,0-2l-12.75-18.46Z" fill="#3f4249"/>
                                <path id="Path_5182" data-name="Path 5182" d="M718.85,524.641l-11.67,35.41a1.392,1.392,0,0,1-1.54.89,5.5,5.5,0,0,1-4.52-6l.94-8.83Z" fill="#fc9d9d"/>
                                <path id="Path_5183" data-name="Path 5183" d="M843.09,433.57l-70.5,30.3-53.73,60.78-20-13,53.09-74a36.31,36.31,0,0,1,13-11.22L844,386Z" fill="#dc3545"/>
                                <path id="Path_5184" data-name="Path 5184" d="M820.16,413.381s4.07,15.17,4.05,28.3l-8.1,3.48a71.936,71.936,0,0,0,3.15-11.22,79.347,79.347,0,0,0,.9-20.56Z" opacity="0.15"/>
                                <path id="Path_5185" data-name="Path 5185" d="M722.3,490.16a1.48,1.48,0,1,0-1.19-1.72,1.449,1.449,0,0,0,1.19,1.72Z" fill="#f3f3f3"/>
                                <path id="Path_5186" data-name="Path 5186" d="M749.45,460.08a1.451,1.451,0,1,0-1.189-1.14,1.45,1.45,0,0,0,1.189,1.14Z" fill="#f3f3f3"/>
                                <path id="Path_5187" data-name="Path 5187" d="M776.77,432.09a1.481,1.481,0,1,0-1.19-1.72,1.449,1.449,0,0,0,1.19,1.72Z" fill="#f3f3f3"/>
                                <path id="Path_5188" data-name="Path 5188" d="M840.08,407.629a1.479,1.479,0,1,0-1.19-1.72,1.451,1.451,0,0,0,1.19,1.72Z" fill="#f3f3f3"/>
                                <path id="Path_5189" data-name="Path 5189" d="M744.86,485.3a1.481,1.481,0,1,0-1.19-1.72,1.449,1.449,0,0,0,1.19,1.72Z" fill="#f3f3f3"/>
                                <path id="Path_5190" data-name="Path 5190" d="M804.71,441.219a1.48,1.48,0,1,0-1.19-1.72,1.451,1.451,0,0,0,1.19,1.72Z" fill="#f3f3f3"/>
                                <path id="Path_5191" data-name="Path 5191" d="M830,427.719a1.48,1.48,0,1,0-1.19-1.72,1.451,1.451,0,0,0,1.19,1.72Z" fill="#f3f3f3"/>
                                <path id="Path_5192" data-name="Path 5192" d="M801,422.43a1.48,1.48,0,1,0-1.19-1.72,1.451,1.451,0,0,0,1.19,1.72Z" fill="#f3f3f3"/>
                                <path id="Path_5193" data-name="Path 5193" d="M723.82,510.68a1.481,1.481,0,1,0-1.19-1.72,1.449,1.449,0,0,0,1.19,1.72Z" fill="#f3f3f3"/>
                                <path id="Path_5194" data-name="Path 5194" d="M769.65,454.7a1.48,1.48,0,1,0-.8-2.485,1.47,1.47,0,0,0-.392.765,1.452,1.452,0,0,0,0,.58,1.468,1.468,0,0,0,.228.533,1.458,1.458,0,0,0,.962.607Z" fill="#f3f3f3"/>
                                <path id="Path_5195" data-name="Path 5195" d="M823.05,332a11.31,11.31,0,1,0,19.58-9.58,9.854,9.854,0,0,1,5.46-1.33,13.015,13.015,0,0,0,0,3.74,11.379,11.379,0,1,0,.28-5.28,10.389,10.389,0,0,0-6.8,1.69A11.35,11.35,0,0,0,823.05,332Zm26.34-7.39a9.79,9.79,0,1,1,11.4,7.85,9.9,9.9,0,0,1-11.4-7.84Zm-24.85,7.09a6.881,6.881,0,1,1,0,.01Z" fill="#fff"/>
                                <path id="Path_5196" data-name="Path 5196" d="M509,733.82s9,14.53,9.4,29.33l9.07-11.48-17.71-18.33Z" opacity="0.15"/>
                                <path id="Path_5197" data-name="Path 5197" d="M1066.6,746.251l-227,146.3a11,11,0,0,0,2.48,19.68l227,75.65a10.989,10.989,0,0,0,9.91-1.513,11.014,11.014,0,0,0,4.57-8.927V755.5a11,11,0,0,0-16.96-9.25Z" fill="#dcdcdc"/>
                                <path id="Path_5198" data-name="Path 5198" d="M920.88,603.86H916.8a.5.5,0,0,1,0-1h4a.521.521,0,0,1,.53.5.468.468,0,0,1-.12.345.48.48,0,0,1-.149.111.491.491,0,0,1-.181.044Zm-8.09,0h-4a.5.5,0,0,1,0-1h4a.5.5,0,1,1,0,1Zm-8,0h-4a.5.5,0,0,1,0-1h4a.5.5,0,1,1,0,1Zm-8,0h-4a.5.5,0,0,1,0-1h4a.5.5,0,1,1,0,1Zm-8,0h-4a.5.5,0,0,1,0-1h4a.5.5,0,1,1,0,1Zm-8,0h-.14a7.762,7.762,0,0,1-3.95-1.08.5.5,0,0,1-.236-.306.505.505,0,0,1-.012-.2.511.511,0,0,1,.066-.186.477.477,0,0,1,.132-.147.512.512,0,0,1,.178-.084.505.505,0,0,1,.382.06,6.758,6.758,0,0,0,3.44.94h.14a.5.5,0,1,1,0,1Zm44-1.12a.5.5,0,0,1-.3-.1.5.5,0,0,1-.179-.259.492.492,0,0,1,.011-.315.5.5,0,0,1,.2-.246,6.735,6.735,0,0,0,2.46-2.75.5.5,0,1,1,.9.44,7.751,7.751,0,0,1-2.83,3.15.417.417,0,0,1-.36.08ZM874.1,600a.5.5,0,0,1-.44-.27,7.716,7.716,0,0,1-.87-3.56v-.59a.5.5,0,0,1,1,.08v.51a6.708,6.708,0,0,0,.76,3.1.509.509,0,0,1,.057.186.5.5,0,0,1-.114.364.509.509,0,0,1-.153.12.526.526,0,0,1-.24.06Zm54.25-4h-.1a.51.51,0,0,1-.4-.59l.8-3.94a.513.513,0,0,1,.076-.184.536.536,0,0,1,.141-.14.512.512,0,0,1,.567,0,.522.522,0,0,1,.14.141.511.511,0,0,1,.076.383l-.8,3.93a.491.491,0,0,1-.5.32Zm-54.3-3.79H874a.472.472,0,0,1-.181-.07.463.463,0,0,1-.139-.136.467.467,0,0,1-.074-.18.488.488,0,0,1,0-.194l.8-3.94a.5.5,0,0,1,.073-.182.512.512,0,0,1,.139-.139.5.5,0,0,1,.182-.073.479.479,0,0,1,.2,0,.494.494,0,0,1,.18.076.487.487,0,0,1,.137.138.5.5,0,0,1,.073.376l-.8,3.93a.5.5,0,0,1-.216.249.5.5,0,0,1-.324.061ZM929.94,588h-.1a.5.5,0,0,1-.182-.073.512.512,0,0,1-.139-.139.491.491,0,0,1-.069-.378l.8-3.93a.471.471,0,0,1,.07-.181.462.462,0,0,1,.136-.139.468.468,0,0,1,.18-.074.487.487,0,0,1,.194,0,.5.5,0,0,1,.4.59l-.8,3.93a.5.5,0,0,1-.49.39Zm-54.3-3.78h-.1a.5.5,0,0,1-.18-.076.487.487,0,0,1-.137-.138.5.5,0,0,1-.073-.376l.8-3.93a.509.509,0,0,1,.073-.183.5.5,0,0,1,.517-.217.509.509,0,0,1,.39.59l-.8,3.94a.492.492,0,0,1-.163.308.486.486,0,0,1-.327.122Zm55.89-4.09h-.1a.509.509,0,0,1-.39-.59l.8-3.94a.5.5,0,0,1,.076-.18.487.487,0,0,1,.138-.137.5.5,0,0,1,.181-.074.505.505,0,0,1,.585.591l-.8,3.94a.492.492,0,0,1-.163.308.486.486,0,0,1-.327.122Zm-54.29-3.78h-.1a.5.5,0,0,1-.18-.076.487.487,0,0,1-.137-.138.5.5,0,0,1-.073-.376l.79-3.94a.509.509,0,0,1,.59-.39.5.5,0,0,1,.18.076.487.487,0,0,1,.137.138.5.5,0,0,1,.073.376l-.79,3.94a.511.511,0,0,1-.49.43Zm55.89-4.09H933a.5.5,0,0,1-.18-.076.487.487,0,0,1-.137-.138.5.5,0,0,1-.073-.376l.79-3.94a.509.509,0,0,1,.59-.39.494.494,0,0,1,.18.076.487.487,0,0,1,.137.138.478.478,0,0,1,.074.181.492.492,0,0,1,0,.2l-.79,3.94a.5.5,0,0,1-.156.294.509.509,0,0,1-.3.136Zm-54.3-3.78h-.1a.509.509,0,0,1-.39-.59l.8-3.94a.5.5,0,0,1,.073-.182.51.51,0,0,1,.139-.139.5.5,0,0,1,.182-.073.479.479,0,0,1,.2,0,.494.494,0,0,1,.18.076.487.487,0,0,1,.137.138.478.478,0,0,1,.074.181.492.492,0,0,1,0,.2l-.8,3.93a.508.508,0,0,1-.49.44Zm55.89-4.1h-.1a.5.5,0,0,1-.182-.073.51.51,0,0,1-.139-.139.5.5,0,0,1-.073-.182.48.48,0,0,1,0-.2l.8-3.93a.5.5,0,0,1,.073-.182.51.51,0,0,1,.139-.139.5.5,0,0,1,.182-.073.48.48,0,0,1,.2,0,.493.493,0,0,1,.18.076.486.486,0,0,1,.137.138.478.478,0,0,1,.074.181.492.492,0,0,1,0,.2l-.8,3.93a.5.5,0,0,1-.49.43Zm-54.29-3.78h-.1a.509.509,0,0,1-.183-.073.5.5,0,0,1-.217-.517l.8-3.93a.5.5,0,0,1,.076-.18.486.486,0,0,1,.138-.137.5.5,0,0,1,.376-.073.5.5,0,0,1,.182.073.51.51,0,0,1,.139.139.5.5,0,0,1,.073.182.48.48,0,0,1,0,.2l-.79,3.93a.5.5,0,0,1-.49.43Zm55.83-4.1a.5.5,0,0,1-.342-.174.495.495,0,0,1-.118-.366v-.48a6.746,6.746,0,0,0-.77-3.13.5.5,0,0,1,0-.355.5.5,0,0,1,.236-.266.5.5,0,0,1,.644.161,7.59,7.59,0,0,1,.89,3.59,5.225,5.225,0,0,1,0,.56.5.5,0,0,1-.336.474.488.488,0,0,1-.2.026Zm-54-3.7a.54.54,0,0,1-.22-.05.511.511,0,0,1-.23-.67,7.637,7.637,0,0,1,2.84-3.15.483.483,0,0,1,.379-.067.486.486,0,0,1,.179.081.508.508,0,0,1,.191.523.506.506,0,0,1-.219.313,6.6,6.6,0,0,0-2.47,2.74.516.516,0,0,1-.183.227.522.522,0,0,1-.277.093Zm50.46-3.05a.453.453,0,0,1-.25-.07,6.7,6.7,0,0,0-3.42-.93h-.17a.5.5,0,1,1,0-1H929a7.669,7.669,0,0,1,3.92,1.07.5.5,0,0,1,.228.56.507.507,0,0,1-.177.265.5.5,0,0,1-.3.1Zm-7.85-1h-4a.5.5,0,1,1,0-1h4a.5.5,0,1,1,0,1Zm-8,0h-4a.5.5,0,1,1,0-1h4a.5.5,0,1,1,0,1Zm-8,0h-4a.5.5,0,1,1,0-1h4a.5.5,0,1,1,0,1Zm-8,0h-4a.5.5,0,1,1,0-1h4a.5.5,0,1,1,0,1Zm-8,0h-4a.513.513,0,0,1-.364-.142.517.517,0,0,1-.113-.164.49.49,0,0,1,.1-.547.484.484,0,0,1,.16-.109.5.5,0,0,1,.19-.038h4a.5.5,0,1,1,0,1Z" fill="#61656d"/>
                                <path id="Path_5199" data-name="Path 5199" d="M900.44,690.28a.5.5,0,0,1,0-1h4a.525.525,0,0,1,.367.142.52.52,0,0,1,.163.358.49.49,0,0,1-.031.19.48.48,0,0,1-.1.163.457.457,0,0,1-.158.109.481.481,0,0,1-.188.038v0Zm-4,0h-4a.5.5,0,0,1,0-1h4a.5.5,0,0,1,0,1Zm-8,0h-4a.5.5,0,0,1,0-1h4a.5.5,0,0,1,0,1Zm-8,0h-4a.5.5,0,0,1,0-1h4a.5.5,0,0,1,0,1Zm-8,0h-4a.5.5,0,0,1,0-1h4a.5.5,0,0,1,0,1Zm-8,0h-.14a7.785,7.785,0,0,1-3.95-1.08.484.484,0,0,1-.149-.129.513.513,0,0,1-.087-.177.5.5,0,0,1-.012-.2.493.493,0,0,1,.065-.186.5.5,0,0,1,.311-.231.5.5,0,0,1,.382.06,6.75,6.75,0,0,0,3.44.94h.14a.5.5,0,0,1,0,1Zm44-1.12a.5.5,0,0,1-.479-.359.5.5,0,0,1,.209-.561,6.735,6.735,0,0,0,2.46-2.75.5.5,0,0,1,.67-.23.508.508,0,0,1,.254.288.5.5,0,0,1-.024.382,7.833,7.833,0,0,1-2.83,3.16.48.48,0,0,1-.38.07Zm-50.58-2.78a.5.5,0,0,1-.258-.073.508.508,0,0,1-.182-.2,7.738,7.738,0,0,1-.87-3.56v-.59a.478.478,0,0,1,.168-.349.482.482,0,0,1,.174-.094.55.55,0,0,1,.386.036.5.5,0,0,1,.272.487,4.335,4.335,0,0,0,0,.51,6.692,6.692,0,0,0,.76,3.1.5.5,0,0,1-.21.67.526.526,0,0,1-.36.06Zm54.24-4H912a.509.509,0,0,1-.39-.59l.8-3.94a.51.51,0,0,1,1,.2l-.8,3.94a.48.48,0,0,1-.085.176.494.494,0,0,1-.331.19.472.472,0,0,1-.194-.016Zm-54.29-3.79h-.1a.466.466,0,0,1-.182-.073.482.482,0,0,1-.139-.138.507.507,0,0,1-.073-.182.485.485,0,0,1,0-.2l.68-4a.5.5,0,0,1,.073-.182.5.5,0,0,1,.321-.212.5.5,0,0,1,.2,0,.521.521,0,0,1,.18.076.506.506,0,0,1,.211.319.512.512,0,0,1,0,.2l-.8,3.93a.5.5,0,0,1-.168.3.5.5,0,0,1-.322.12Zm55.89-4.08h-.1a.494.494,0,0,1-.317-.214.48.48,0,0,1-.074-.18.5.5,0,0,1,0-.2l.79-3.94a.508.508,0,0,1,.076-.183.5.5,0,0,1,.141-.141.512.512,0,0,1,.383-.076.523.523,0,0,1,.184.077.51.51,0,0,1,.216.523l-.79,3.93a.514.514,0,0,1-.089.18.5.5,0,0,1-.151.132.513.513,0,0,1-.19.063.482.482,0,0,1-.2-.015Zm-54.3-3.79h-.1a.486.486,0,0,1-.18-.075.491.491,0,0,1-.137-.139.481.481,0,0,1-.074-.18.5.5,0,0,1,0-.2l.8-3.94a.519.519,0,0,1,.075-.18.5.5,0,0,1,.139-.137.5.5,0,0,1,.766.517l-.8,3.94a.48.48,0,0,1-.085.176.472.472,0,0,1-.146.128.484.484,0,0,1-.379.046Zm55.89-4.09h-.1a.494.494,0,0,1-.317-.214.48.48,0,0,1-.074-.18.5.5,0,0,1,0-.2l.8-3.93a.51.51,0,0,1,.6-.4.511.511,0,0,1,.4.6l-.8,3.93a.5.5,0,0,1-.089.179.475.475,0,0,1-.152.13.488.488,0,0,1-.19.061.5.5,0,0,1-.2-.02ZM861,662.85h-.1a.486.486,0,0,1-.18-.075.491.491,0,0,1-.137-.139.481.481,0,0,1-.074-.18.5.5,0,0,1,0-.2l.79-3.94a.508.508,0,0,1,.216-.313.514.514,0,0,1,.374-.077.483.483,0,0,1,.182.074.492.492,0,0,1,.139.138.491.491,0,0,1,.069.378l-.79,3.94a.513.513,0,0,1-.235.3.5.5,0,0,1-.375.053Zm55.89-4.09h-.1a.494.494,0,0,1-.317-.214.48.48,0,0,1-.074-.18.5.5,0,0,1,0-.2l.79-3.94a.508.508,0,0,1,.216-.313.514.514,0,0,1,.374-.077.52.52,0,0,1,.18.076.506.506,0,0,1,.211.319.512.512,0,0,1,0,.2l-.79,3.94a.5.5,0,0,1-.61.35Zm-54.3-3.79h-.1a.486.486,0,0,1-.18-.075.491.491,0,0,1-.137-.139.481.481,0,0,1-.074-.18.5.5,0,0,1,0-.2l.8-3.93a.5.5,0,0,1,.073-.182.5.5,0,0,1,.321-.212.5.5,0,0,1,.2,0,.52.52,0,0,1,.18.076.505.505,0,0,1,.211.319.511.511,0,0,1,0,.2l-.8,3.93a.5.5,0,0,1-.61.35Zm55.89-4.08h-.1a.494.494,0,0,1-.317-.214.481.481,0,0,1-.074-.18.5.5,0,0,1,0-.2l.8-3.94a.518.518,0,0,1,.075-.18.5.5,0,0,1,.139-.137.5.5,0,0,1,.376-.073.5.5,0,0,1,.317.215.5.5,0,0,1,.073.375l-.8,3.94a.51.51,0,0,1-.61.35Zm-54.29-3.79H864a.464.464,0,0,1-.182-.073.481.481,0,0,1-.139-.138.5.5,0,0,1-.073-.182.484.484,0,0,1,0-.2l.79-3.94a.5.5,0,0,1,.77-.314.505.505,0,0,1,.211.319.511.511,0,0,1,0,.2l-.79,3.94a.5.5,0,0,1-.2.267.494.494,0,0,1-.321.083ZM919.9,643a.477.477,0,0,1-.188-.049.483.483,0,0,1-.154-.119.485.485,0,0,1-.118-.362v-.49a6.678,6.678,0,0,0-.77-3.12.5.5,0,0,1-.036-.383.5.5,0,0,1,.093-.173.51.51,0,0,1,.153-.124.532.532,0,0,1,.188-.056.494.494,0,0,1,.2.021.5.5,0,0,1,.173.093.506.506,0,0,1,.124.152,7.766,7.766,0,0,1,.88,3.59,5.225,5.225,0,0,1,0,.56.506.506,0,0,1-.05.191.5.5,0,0,1-.122.155.492.492,0,0,1-.172.1.483.483,0,0,1-.2.019Zm-54-3.7a.413.413,0,0,1-.22-.06.494.494,0,0,1-.254-.287.472.472,0,0,1-.026-.194.5.5,0,0,1,.05-.189,7.684,7.684,0,0,1,2.84-3.14.494.494,0,0,1,.379-.067.5.5,0,0,1,.179.082.5.5,0,0,1,.132.145.51.51,0,0,1-.16.69,6.764,6.764,0,0,0-2.48,2.74.5.5,0,0,1-.45.24Zm50.46-3a.44.44,0,0,1-.25-.07,6.71,6.71,0,0,0-3.42-.93h-.16a.5.5,0,0,1,0-1h.16a7.718,7.718,0,0,1,3.93,1.07.434.434,0,0,1-.03.815.491.491,0,0,1-.24.025Zm-7.85-1h-4a.5.5,0,0,1,0-1h4a.5.5,0,0,1,0,1Zm-8,0h-4a.5.5,0,0,1,0-1h4a.5.5,0,0,1,0,1Zm-8,0h-4a.5.5,0,0,1,0-1h4a.5.5,0,0,1,0,1Zm-8,0h-4a.5.5,0,0,1,0-1h4a.5.5,0,0,1,0,1Zm-8,0h-4a.482.482,0,0,1-.2-.035.5.5,0,0,1-.165-.107.506.506,0,0,1-.111-.164A.5.5,0,0,1,872,634.8a.5.5,0,0,1,.049-.2.509.509,0,0,1,.124-.167.525.525,0,0,1,.18-.105.539.539,0,0,1,.207-.026h3.94a.5.5,0,0,1,0,1Z" fill="#61656d"/>
                                <path id="Path_5200" data-name="Path 5200" d="M956.39,604.45l-40,13.43a3.13,3.13,0,0,1-3.94-2l-13.43-40a3.13,3.13,0,0,1,2-3.94l40-13.43a3.13,3.13,0,0,1,3.94,2l13.43,40a3.169,3.169,0,0,1-2,3.94Z" fill="#dc3545"/>
                                <path id="Path_5201" data-name="Path 5201" d="M956.39,604.45l-40,13.43a3.13,3.13,0,0,1-3.94-2l-13.43-40a3.13,3.13,0,0,1,2-3.94l40-13.43a3.13,3.13,0,0,1,3.94,2l13.43,40a3.169,3.169,0,0,1-2,3.94Z" fill="#dc3545"/>
                                <path id="Path_5202" data-name="Path 5202" d="M962.29,607.91,913.8,624.2a3.79,3.79,0,0,1-4.78-2.38l-16.29-48.49a3.79,3.79,0,0,1,2.38-4.78l48.49-16.29a3.792,3.792,0,0,1,4.78,2.38l16.29,48.49a3.85,3.85,0,0,1-2.38,4.78Z" fill="#fff"/>
                                <path id="Path_5203" data-name="Path 5203" d="M956.39,604.45l-40,13.43a3.13,3.13,0,0,1-3.94-2l-13.43-40a3.13,3.13,0,0,1,2-3.94l40-13.43a3.13,3.13,0,0,1,3.94,2l13.43,40a3.169,3.169,0,0,1-2,3.94Z" fill="#dc3545"/>
                                <path id="Path_5204" data-name="Path 5204" d="M926,580.74a4.3,4.3,0,1,0-3.271-.23,4.293,4.293,0,0,0,3.271.23Z" fill="#fff" opacity="0.8"/>
                                <path id="Path_5205" data-name="Path 5205" d="M912.49,616l-3.7-11,11.63-16.76a1.758,1.758,0,0,1,2.08-.63l7,2.91,8-12.21a1.769,1.769,0,0,1,2.14-.65l12.74,5.3,6,17.75a3.13,3.13,0,0,1-2,3.94L916.45,618a3.271,3.271,0,0,1-3.96-2Z" fill="#fff" opacity="0.8"/>
                                <path id="Path_5206" data-name="Path 5206" d="M898.84,717.519l7.43-79,5.53-18.63c.27-.69,3.26-9.24,4.44-13.48a2.88,2.88,0,0,0-1.38-3.31h0a2.889,2.889,0,0,0-3.83,1l-2.94,4.56a2.349,2.349,0,0,1-3.78-.87l-6.3-19.5-1.74.31a3.462,3.462,0,0,0-2.88,3.35l-.07,1.5a2.419,2.419,0,0,1-1.44,1.67l-1.11.41c-1.6.68-2.28,2.58-2.35,4.33l.06,1.62a1.851,1.851,0,0,1-1.44,1.8h0a3.189,3.189,0,0,0-2.87,3.47l-.14,3.13-.12.13a4.931,4.931,0,0,0-2.18,5.44l6.16,26.25-20.6,77a15.994,15.994,0,0,0,1.15,11.3l37.09,74.08,37.9-29.41Z" fill="#fb9c9c"/>
                                <path id="Path_5207" data-name="Path 5207" d="M1015.56,867.08l32.39,38.42,26.65-29.43-33.39-56.41-47.54-13.27-31.64-7.96L920.5,745.25,888.42,769.9l39.27,78.29,5.13,94.27,121.31,40.44-13.34-85.89Z" fill="#dc3545"/>
                                <path id="Path_5208" data-name="Path 5208" d="M1008.1,751.08l4.46,36.59a6.85,6.85,0,0,0,5.59,5.84l3.17,11.34s-43.05-2-44.91-2.87l-7.29-1.78c2.59-1,5.1-5.86,5.17-8.54L975,747.6Z" fill="#f59696"/>
                                <path id="Path_5209" data-name="Path 5209" d="M972.89,784.621l1.67.5a22.662,22.662,0,0,0,28-15.61l8.68-30.65a7.729,7.729,0,0,0,.24-2.95,7.589,7.589,0,0,0-.92-2.815,7.534,7.534,0,0,0-4.56-3.585l-28.66-8.21a9.829,9.829,0,0,0-12.14,6.78l-8.06,28.49a22.9,22.9,0,0,0,15.73,28" fill="#f59696"/>
                                <path id="Path_5210" data-name="Path 5210" d="M959.42,749a42.92,42.92,0,0,0-5.28,5.66c-1.64,2.39,3.09,3.61,3.09,3.61Z" fill="#f59696"/>
                                <g id="Group_290" data-name="Group 290" opacity="0.15">
                                    <path id="Path_5211" data-name="Path 5211" d="M1013.35,767.83h-3.48l3.69,7.36Z" opacity="0.15"/>
                                </g>
                                <g id="Group_291" data-name="Group 291" opacity="0.15">
                                    <path id="Path_5212" data-name="Path 5212" d="M982.62,785.91s-4.87.41-8.26-.9l-.07,6.3Z" opacity="0.15"/>
                                </g>
                                <path id="Path_5213" data-name="Path 5213" d="M956.51,765.249a10.938,10.938,0,0,0,7.8-3,.51.51,0,0,0-.71-.73,10.44,10.44,0,0,1-7.18,2.72Z" opacity="0.2"/>
                                <path id="Path_5214" data-name="Path 5214" d="M988.41,749.6S996,770.431,984,783.741c-6.73,7.42-47.34,63.66,40.539,79.8a78.11,78.11,0,0,0,23.48.86c20.93-2.56,31.32-12.55,31.77-22.21,1.53-24.06-31.07-32.75-32.94-54.51-1.15-13.42,6.51-68.39-30.28-81.32-34.739-12.22-55,7.24-54.64,14.28S961,737.581,988.41,749.6Z"/>
                                <path id="Path_5215" data-name="Path 5215" d="M986.31,762.859s9.78.4,11.49-9.27-10.32-11.08-11.65-1.28L985.5,763Z" fill="#f59696"/>
                                <path id="Path_5216" data-name="Path 5216" d="M986.63,750.98l.3-1.39-26.37-8.44-.3,1.4Z" fill="#fff"/>
                                <path id="Path_5217" data-name="Path 5217" d="M958.85,749.29a.721.721,0,0,0,.57-.51L963,736.22a.7.7,0,0,0,.026-.276.683.683,0,0,0-.085-.264.692.692,0,0,0-.182-.21.7.7,0,0,0-.249-.12.719.719,0,0,0-.88.49l-3.56,12.56a.7.7,0,0,0-.023.277.693.693,0,0,0,.085.265.7.7,0,0,0,.18.211.721.721,0,0,0,.248.127.851.851,0,0,0,.31,0" fill="#fff"/>
                                <path id="Path_5218" data-name="Path 5218" d="M987.17,749a20.7,20.7,0,0,0-1.16,5.8,1.211,1.211,0,0,1-1.3,1.1h0a1.222,1.222,0,0,1-1.1-1.28l.62-8.56Z"/>
                                <path id="Path_5219" data-name="Path 5219" d="M995.57,748.469a3,3,0,0,0-4.77,0,6.682,6.682,0,0,0-1.59,3l-.32,1a.56.56,0,0,0,.818.556.563.563,0,0,0,.262-.3l.32-1a6.481,6.481,0,0,1,1.31-2.52,1.88,1.88,0,0,1,3.15,0,.542.542,0,0,0,.179.12.551.551,0,0,0,.422,0,.542.542,0,0,0,.179-.12.522.522,0,0,0,.123-.178.54.54,0,0,0-.123-.6"/>
                                <path id="Path_5220" data-name="Path 5220" d="M991.71,759a1.93,1.93,0,1,0-.4,1.423,1.931,1.931,0,0,0,.4-1.423" fill="#dc3545"/>
                                <g id="Group_292" data-name="Group 292" opacity="0.15">
                                    <path id="Path_5221" data-name="Path 5221" d="M989.14,760.94a2.111,2.111,0,0,0,2.06-2.2,2.292,2.292,0,0,0-.41-1.07,2.137,2.137,0,0,1,.93,1.55,1.9,1.9,0,0,1-.52,1.409,1.906,1.906,0,0,1-1.38.591,1.618,1.618,0,0,1-1.15-.33,1.052,1.052,0,0,1,.47.06" opacity="0.15"/>
                                </g>
                                <path id="Path_5222" data-name="Path 5222" d="M990.46,762.211s-1.78.45-2.38.54-2.58.2-2.58.2,2.49,3.37,5,4.07C990.46,767,990.6,763.551,990.46,762.211Z" opacity="0.15"/>
                                <path id="Path_5223" data-name="Path 5223" d="M1174,832.089a1.864,1.864,0,0,0,.55-1.2,1.891,1.891,0,0,0-.4-1.254,1.659,1.659,0,0,0-2.3-.37l-10.24,8.09s7.64-7.72,11-11a2.182,2.182,0,0,0,.63-1.486,2.217,2.217,0,0,0-.56-1.514,1.921,1.921,0,0,0-2.52-.15l-11.5,9.5s5.79-7.05,8.31-10.09a1.794,1.794,0,0,0,.34-.611,1.817,1.817,0,0,0,.08-.7,1.952,1.952,0,0,0-.2-.67,1.813,1.813,0,0,0-2.89-.394l-14.62,15.14c-.37.52-1.34.37-.74-.59a28.515,28.515,0,0,0,2.3-4.53c.74-2.15.52-4.08-1.56-5.12a.614.614,0,0,0-.39.036.584.584,0,0,0-.28.264l-6.68,8.31a35.485,35.485,0,0,0-3.64,6.83l-2.6,6.46-2.08,5.83-46.61,42.46-12.78-19.21-26.65,29.43,17.1,22.51a17.068,17.068,0,0,0,26.48.87l59.6-68.61,22.33-22.48a1.575,1.575,0,0,0,.15-1.86,1.372,1.372,0,0,0-1.78-.37l-6.46,5.12S1171,834.759,1174,832.089Z" fill="#fb9c9c"/>
                                <path id="Path_5224" data-name="Path 5224" d="M927.69,848.18l8.81,13.37,4.87,83.77-8.55-2.86Z" opacity="0.15"/>
                                <path id="Path_5225" data-name="Path 5225" d="M962,798.429l-11.73-2.17-57.77-75.32,9.5-86.22s12.95-24.74,12.9-31.61l.53.44a2.681,2.681,0,0,1,.85,2.87l-10,32.11-7.43,79Z" opacity="0.15"/>
                                <path id="Path_5226" data-name="Path 5226" d="M1040.79,897.009l-4.92-36.32,16.37,40.07-4.29,4.74Z" opacity="0.15"/>
                                <path id="Path_5227" data-name="Path 5227" d="M959.82,941.541a1.131,1.131,0,0,1-1.05,1.05h-7.23a1.028,1.028,0,0,1,0-2.05h7.23C959.42,940.491,960,941,959.82,941.541Z" opacity="0.6"/>
                                <path id="Path_5228" data-name="Path 5228" d="M971.22,851.249a1.13,1.13,0,0,1-1.05,1h-7.23a1,1,0,0,1,0-2h7.23A.9.9,0,0,1,971.22,851.249Z" opacity="0.6"/>
                                <path id="Path_5229" data-name="Path 5229" d="M951.9,867.669a1.128,1.128,0,0,1-1,1.05h-7.23a1.128,1.128,0,0,1-1-1.05h0a1.131,1.131,0,0,1,1-1h7.23A.905.905,0,0,1,951.9,867.669Z" opacity="0.6"/>
                                <path id="Path_5230" data-name="Path 5230" d="M1016.23,875.13a1.136,1.136,0,0,1-.34.691,1.167,1.167,0,0,1-.71.309H1008a1.167,1.167,0,0,1-.71-.309,1.136,1.136,0,0,1-.34-.691h0a1.133,1.133,0,0,1,.34-.69,1.169,1.169,0,0,1,.71-.31h7.23A.892.892,0,0,1,1016.23,875.13Z" opacity="0.6"/>
                                <path id="Path_5231" data-name="Path 5231" d="M1031.84,909.08a1.119,1.119,0,0,1-1,1h-7.23a1.119,1.119,0,0,1-1-1h0a1.162,1.162,0,0,1,.31-.706,1.13,1.13,0,0,1,.69-.344h7.23C1031.44,908,1032,908.56,1031.84,909.08Z" opacity="0.6"/>
                                <path id="Path_5232" data-name="Path 5232" d="M1002.62,953.73a1.121,1.121,0,0,1-1,1h-7.23a1.13,1.13,0,0,1-1.05-1h0a1.129,1.129,0,0,1,1.05-1.05h7.23C1002.22,952.68,1002.75,953.21,1002.62,953.73Z" opacity="0.6"/>
                                <path id="Path_5233" data-name="Path 5233" d="M959.82,811.271a1.129,1.129,0,0,1-1.05,1.05h-7.23a1.13,1.13,0,0,1-1-1.05h0a1.129,1.129,0,0,1,1-1h7.23C959.42,810.221,960,810.741,959.82,811.271Z" opacity="0.6"/>
                                <path id="Path_5234" data-name="Path 5234" d="M916.66,794.371a1.134,1.134,0,0,1-1,1h-7.23a1.131,1.131,0,0,1-1-1h0a1.129,1.129,0,0,1,1-1h7.23A.888.888,0,0,1,916.66,794.371Z" opacity="0.6"/>
                                <path id="Path_5235" data-name="Path 5235" d="M934.12,818.611a1.131,1.131,0,0,1-1,1h-7.23a1.13,1.13,0,0,1-1.05-1h0a1.129,1.129,0,0,1,1.05-1.05h7.23C933.72,817.561,934.25,818.091,934.12,818.611Z" opacity="0.6"/>
                                <path id="Path_5236" data-name="Path 5236" d="M927.26,774.14a1.128,1.128,0,0,1-1,1.05H919a1.131,1.131,0,0,1-1.05-1.05h0a1.13,1.13,0,0,1,1.05-1h7.23A.9.9,0,0,1,927.26,774.14Z" opacity="0.6"/>
                                <path id="Path_5237" data-name="Path 5237" d="M997.52,915.34a1.153,1.153,0,0,1-1.38-.56l-2.81-6.66a1.152,1.152,0,0,1,.56-1.38h0a1.149,1.149,0,0,1,1.38.56l2.81,6.66a1,1,0,0,1,.1.4,1,1,0,0,1-.661.976Z" opacity="0.6"/>
                                <path id="Path_5238" data-name="Path 5238" d="M986.64,864.2a1.13,1.13,0,0,1,.43-1.43l6.36-3.43a1.057,1.057,0,0,1,1,1.86l-6.36,3.43a1,1,0,0,1-1.178-.1.982.982,0,0,1-.252-.334Z" opacity="0.6"/>
                                <path id="Path_5239" data-name="Path 5239" d="M974.32,891.65a1.13,1.13,0,0,1,.43-1.43l6.36-3.43a1.057,1.057,0,0,1,1,1.86l-6.36,3.43a1,1,0,0,1-.4.14,1,1,0,0,1-.783-.236.984.984,0,0,1-.252-.334Z" opacity="0.6"/>
                                <path id="Path_5240" data-name="Path 5240" d="M902.81,778.779a1.118,1.118,0,0,1-1-1.12l.46-7.22a1.12,1.12,0,0,1,1.12-1h0a1.122,1.122,0,0,1,1,1.12l-.46,7.22C903.88,778.449,903.33,778.939,902.81,778.779Z" opacity="0.6"/>
                                <path id="Path_5241" data-name="Path 5241" d="M943.13,837.381a1.13,1.13,0,0,1,.43-1.43l6.36-3.43a1.13,1.13,0,0,1,1.43.43h0a1.13,1.13,0,0,1-.43,1.43l-6.36,3.43a1.011,1.011,0,0,1-.394.139,1,1,0,0,1-.784-.235,1.007,1.007,0,0,1-.252-.334Z" opacity="0.6"/>
                                <path id="Path_5242" data-name="Path 5242" d="M1021.42,961.74a1.149,1.149,0,0,1-.05-.8,1.1,1.1,0,0,1,.48-.634l6.36-3.43a1.126,1.126,0,0,1,1.43.43h0a1.149,1.149,0,0,1,.05.8,1.1,1.1,0,0,1-.48.634l-6.36,3.43a.988.988,0,0,1-.39.14,1.013,1.013,0,0,1-.79-.236A1.093,1.093,0,0,1,1021.42,961.74Z" opacity="0.6"/>
                                <path id="Path_5243" data-name="Path 5243" d="M982.36,928.211a1.129,1.129,0,0,1-.32,1.45l-6.09,3.9a1.051,1.051,0,0,1-1.13-1.77l6.09-3.9a1.008,1.008,0,0,1,.381-.166.989.989,0,0,1,.416,0,.991.991,0,0,1,.653.482Z" opacity="0.6"/>
                                <path id="Path_5244" data-name="Path 5244" d="M954.66,915a1.14,1.14,0,0,1-1.46-.31l-4-6.06a1.138,1.138,0,0,1,.31-1.46h0a1.141,1.141,0,0,1,1.46.31l4,6.06a1.014,1.014,0,0,1,.171.382,1,1,0,0,1,0,.418,1,1,0,0,1-.482.66Z" opacity="0.6"/>
                                <path id="Path_5245" data-name="Path 5245" d="M933.63,798.281a1.14,1.14,0,0,1-1.46-.31l-3.95-6.06a1.14,1.14,0,0,1,.31-1.46h0a1.137,1.137,0,0,1,1.46.31l4,6.06a.985.985,0,0,1,.163.389,1,1,0,0,1-.2.8A1.012,1.012,0,0,1,933.63,798.281Z" opacity="0.6"/>
                                <path id="Path_5246" data-name="Path 5246" d="M1057.19,879a1.139,1.139,0,0,1-1.46-.31l-4-6.06a1.194,1.194,0,0,1-.12-.787,1.058,1.058,0,0,1,1.89-.363l4,6.06a1.063,1.063,0,0,1,.17.382.985.985,0,0,1,0,.418,1.063,1.063,0,0,1-.17.382.994.994,0,0,1-.31.278Z" opacity="0.6"/>
                                <path id="Path_5247" data-name="Path 5247" d="M1020.35,940.339a1.139,1.139,0,0,1-1.46-.31l-3.95-6.06a1.2,1.2,0,0,1-.12-.788,1.154,1.154,0,0,1,.43-.672h0a1.139,1.139,0,0,1,1.46.31l3.95,6.06a1.061,1.061,0,0,1,.17.382.983.983,0,0,1,0,.418,1.057,1.057,0,0,1-.17.381.986.986,0,0,1-.31.279Z" opacity="0.6"/>
                                <path id="Path_5248" data-name="Path 5248" d="M1047,651.62h89.28a3.2,3.2,0,0,1,3.2,3.2v35.26a3.208,3.208,0,0,1-.24,1.224,3.253,3.253,0,0,1-1.73,1.732,3.231,3.231,0,0,1-1.23.244h-70.63L1047,707.36a1.977,1.977,0,0,1-1,.352,2.015,2.015,0,0,1-1.04-.206,1.947,1.947,0,0,1-.78-.707,1.92,1.92,0,0,1-.32-1.009v-51a3.2,3.2,0,0,1,3.2-3.2" fill="#dc3545"/>
                                <path id="Path_5249" data-name="Path 5249" d="M1107.17,672a6.7,6.7,0,0,0,11.44,4.737,6.753,6.753,0,0,0,1.83-3.43,6.663,6.663,0,0,0-.38-3.871A6.7,6.7,0,0,0,1107.17,672Z" fill="#fff"/>
                                <path id="Path_5250" data-name="Path 5250" d="M1085.91,672a6.7,6.7,0,0,0,11.44,4.737,6.754,6.754,0,0,0,1.83-3.43,6.664,6.664,0,0,0-.38-3.871A6.7,6.7,0,0,0,1085.91,672Z" fill="#fff"/>
                                <path id="Path_5251" data-name="Path 5251" d="M1064.64,672a6.7,6.7,0,0,0,11.44,4.737,6.754,6.754,0,0,0,1.83-3.43,6.663,6.663,0,0,0-.38-3.871A6.7,6.7,0,0,0,1064.64,672" fill="#fff"/>
                                <path id="Path_5252" data-name="Path 5252" d="M550.03,471.609a46.83,46.83,0,1,0-46.83-46.83A46.829,46.829,0,0,0,550.03,471.609Z" fill="#fff"/>
                                <path id="Path_5253" data-name="Path 5253" d="M569.63,446h-39.2a2.9,2.9,0,0,1-2.89-2.89v-39.2a2.9,2.9,0,0,1,2.89-2.89h39.2a2.9,2.9,0,0,1,2.89,2.89v39.2a2.941,2.941,0,0,1-2.89,2.89Z" fill="#dc3545"/>
                                <path id="Path_5254" data-name="Path 5254" d="M569.63,446h-39.2a2.9,2.9,0,0,1-2.89-2.89v-39.2a2.9,2.9,0,0,1,2.89-2.89h39.2a2.9,2.9,0,0,1,2.89,2.89v39.2a2.941,2.941,0,0,1-2.89,2.89Z" fill="#dc3545"/>
                                <path id="Path_5255" data-name="Path 5255" d="M569.63,446h-39.2a2.9,2.9,0,0,1-2.89-2.89v-39.2a2.9,2.9,0,0,1,2.89-2.89h39.2a2.9,2.9,0,0,1,2.89,2.89v39.2a2.941,2.941,0,0,1-2.89,2.89Z" fill="#dcdcdc"/>
                                <path id="Path_5256" data-name="Path 5256" d="M549.86,416.07a4,4,0,1,0-2.829-1.171A4,4,0,0,0,549.86,416.07Z" fill="#84888f"/>
                                <path id="Path_5257" data-name="Path 5257" d="M527.54,443.13V432.32L542.75,421a1.649,1.649,0,0,1,2,.06l5.26,4.63,10.7-8.38a1.658,1.658,0,0,1,2.08.06l9.66,8.44v17.4a2.9,2.9,0,0,1-2.89,2.89H530.44a3,3,0,0,1-2.9-2.97Z" fill="#84888f"/>
                                <path id="Path_5258" data-name="Path 5258" d="M980.2,327.25a25.408,25.408,0,1,1,9.73-1.932,25.42,25.42,0,0,1-9.73,1.932Z" fill="#dc3545"/>
                                <path id="Path_5259" data-name="Path 5259" d="M972.24,305a2.642,2.642,0,0,0,1.92-.75l8.19,4.77c0,.17-.08.33-.08.5a3.09,3.09,0,1,0,6.18,0,3,3,0,0,0-3.09-3.09,2.653,2.653,0,0,0-1.92.75l-8.19-4.77c0-.17.08-.33.08-.5a1.087,1.087,0,0,0-.08-.5l8.19-4.77a3,3,0,0,0,1.92.75,3.09,3.09,0,0,0,3.09-3.09,3,3,0,0,0-3.09-3.09,3.09,3.09,0,0,0-3.09,3.09,1.109,1.109,0,0,0,.08.5l-8.19,4.77a3,3,0,0,0-1.92-.75,3.09,3.09,0,1,0,0,6.18Z" fill="#fff"/>
                                <path id="Path_5260" data-name="Path 5260" d="M959.85,367.27l43.9,64.46a17.57,17.57,0,0,1-7.9,26.17L943,478l-10.33-16.75,38.88-20.69L941.21,406.9l-31.45-43.39,26.07-5.77a23.048,23.048,0,0,1,24.02,9.53Z" fill="#dc3545"/>
                                <path id="Path_5261" data-name="Path 5261" d="M844,386a52.315,52.315,0,0,0,37.13-.31c19.83-7.82,28.63-22.22,28.63-22.22l6.68-1.48s-14,22.24-36.77,28.74c-26.11,7.44-41-2-41-2Z"/>
                                <path id="Path_5262" data-name="Path 5262" d="M897.45,471.81l35.21-10.55L943,478s-11.65,4.76-15.91,6.24c-7.23,2.52-14-5.89-14-5.89Z" fill="#fa9b9b"/>
                                <path id="Path_5263" data-name="Path 5263" d="M895.71,474.75c-.91.41-.82.61-1.8,3l-7.6,18.58a2.38,2.38,0,0,0,1.22,3.06h0a2.39,2.39,0,0,0,3.13-1.08l8.18-15.56-3.5,13.82a2.32,2.32,0,0,0,2.47,2.89h0a2.371,2.371,0,0,0,2-1.49l5.79-16.27L901.16,494a2.13,2.13,0,0,0,2.19,2.85h0a2.131,2.131,0,0,0,1.77-1.13l7.59-14.39-5.11,9.8a1.861,1.861,0,0,0,1.33,2.73h0a2,2,0,0,0,1.77-.59l6.95-7.88,5.36-5.72Z" fill="#fa9b9b"/>
                                <g id="Group_293" data-name="Group 293" opacity="0.15">
                                    <path id="Path_5264" data-name="Path 5264" d="M913.44,481.3a.54.54,0,0,0-.73.22l-4.1,7.71-1,1.94a1.822,1.822,0,0,0,.15,2L913.68,482a.57.57,0,0,0-.24-.7Z" opacity="0.15"/>
                                </g>
                                <path id="Path_5265" data-name="Path 5265" d="M906.5,482a.538.538,0,0,0,.044-.213.523.523,0,0,0-.045-.213.531.531,0,0,0-.314-.288.512.512,0,0,0-.216-.026.533.533,0,0,0-.209.063.521.521,0,0,0-.165.141.534.534,0,0,0-.095.2l-2,5.69,2-5.71-2.34,6.61-2.12,6.14a2.158,2.158,0,0,0,.5,1.77.379.379,0,0,0,.06-.11Z" opacity="0.15"/>
                                <path id="Path_5266" data-name="Path 5266" d="M894.7,475.8l1.36-2.79a2.32,2.32,0,0,1,2.51-1.27l23.07,4.2a2.319,2.319,0,0,1,1.43,3.7l-.07.09Z" fill="#fa9b9b"/>
                                <path id="Path_5267" data-name="Path 5267" d="M942.99,478l28.85-10.97,6.25,19.02h-5.12l-4.66-14.35Z" opacity="0.15"/>
                                <path id="Path_5268" data-name="Path 5268" d="M932.67,461.25l38.87-20.69L936.86,400.9l.92-.73,39.32,42.28-39.01,19.24-1.99.99-1.96.96Z" opacity="0.15"/>
                                <path id="Path_5269" data-name="Path 5269" d="M932.67,461.25,943,478l-15.43,6.08a9.168,9.168,0,0,1-7-.11l-1.13-.49,5.18-.45,14.93-6.22L930.28,462Z" opacity="0.15"/>
                                <path id="Path_5270" data-name="Path 5270" d="M948.82,465.1a1.481,1.481,0,1,0-1.19-1.72,1.449,1.449,0,0,0,1.19,1.72Z" fill="#f3f3f3"/>
                                <path id="Path_5271" data-name="Path 5271" d="M951.78,441.219a1.481,1.481,0,1,0-1.19-1.72,1.449,1.449,0,0,0,1.19,1.72Z" fill="#f3f3f3"/>
                                <path id="Path_5272" data-name="Path 5272" d="M969.43,390.879a1.48,1.48,0,1,0-1.19-1.72,1.454,1.454,0,0,0,.229,1.114,1.446,1.446,0,0,0,.961.606Z" fill="#f3f3f3"/>
                                <path id="Path_5273" data-name="Path 5273" d="M969.43,418.379a1.48,1.48,0,1,0-1.19-1.72,1.454,1.454,0,0,0,.229,1.114,1.446,1.446,0,0,0,.961.606Z" fill="#f3f3f3"/>
                                <path id="Path_5274" data-name="Path 5274" d="M982.9,437.311a1.48,1.48,0,1,0-.047-2.9,1.48,1.48,0,0,0-1.143,1.183,1.449,1.449,0,0,0,1.19,1.72Z" fill="#f3f3f3"/>
                                <path id="Path_5275" data-name="Path 5275" d="M981.42,457.41a1.479,1.479,0,1,0-1.19-1.72,1.452,1.452,0,0,0,.229,1.114,1.453,1.453,0,0,0,.961.606Z" fill="#f3f3f3"/>
                                <path id="Path_5276" data-name="Path 5276" d="M965,465.1a1.48,1.48,0,1,0-1.19-1.72,1.45,1.45,0,0,0,.229,1.113,1.449,1.449,0,0,0,.961.607Z" fill="#f3f3f3"/>
                                <path id="Path_5277" data-name="Path 5277" d="M982.9,416.9a1.489,1.489,0,0,0,.854-.1,1.479,1.479,0,0,0,.629-2.2,1.479,1.479,0,0,0-2.673.578,1.449,1.449,0,0,0,1.19,1.72Z" fill="#f3f3f3"/>
                                <path id="Path_5278" data-name="Path 5278" d="M969.43,454.119a1.48,1.48,0,1,0-1.19-1.72,1.449,1.449,0,0,0,1.19,1.72Z" fill="#f3f3f3"/>
                                <path id="Path_5279" data-name="Path 5279" d="M996.34,441.219a1.481,1.481,0,1,0-1.19-1.72,1.435,1.435,0,0,0,0,.58,1.448,1.448,0,0,0,1.189,1.14Z" fill="#f3f3f3"/>
                                <path id="Path_5280" data-name="Path 5280" d="M948.82,401.619a1.48,1.48,0,1,0-1.19-1.72,1.447,1.447,0,0,0,.647,1.515,1.434,1.434,0,0,0,.543.2Z" fill="#f3f3f3"/>
                                <path id="Path_5281" data-name="Path 5281" d="M948.82,373.241a1.48,1.48,0,1,0-.8-2.485,1.47,1.47,0,0,0-.392.765,1.452,1.452,0,0,0,1.19,1.72Z" fill="#f3f3f3"/>
                                <path id="Path_5282" data-name="Path 5282" d="M956.1,481.18a1.481,1.481,0,1,0-1.19-1.72,1.434,1.434,0,0,0,0,.58,1.453,1.453,0,0,0,.227.534,1.469,1.469,0,0,0,.419.4,1.451,1.451,0,0,0,.543.2Z" fill="#f3f3f3"/>
                                <path id="Path_5283" data-name="Path 5283" d="M634.46,901.14H604a3,3,0,0,1-3.05-2.87V866.81a3,3,0,0,1,3.05-2.87h30.48a3,3,0,0,1,3,2.87v31.46a3,3,0,0,1-3.02,2.87Z" fill="#dc3545"/>
                                <path id="Path_5284" data-name="Path 5284" d="M615.87,889.931l-6.26-6.12a.919.919,0,0,1,0-1.23l1.61-1.64a.928.928,0,0,1,1.23,0l4,3.94,9.48-9.74a.928.928,0,0,1,1.23,0l1.64,1.61a.919.919,0,0,1,0,1.23l-11.71,12a.882.882,0,0,1-1.25,0" fill="#fff"/>
                                <path id="Path_5285" data-name="Path 5285" d="M1238.23,556.64H1158a4.7,4.7,0,0,1-1.8-.357,4.829,4.829,0,0,1-1.52-1.017,4.739,4.739,0,0,1-1.37-3.316V471.72a4.652,4.652,0,0,1,.35-1.8,4.717,4.717,0,0,1,1.01-1.532,4.765,4.765,0,0,1,1.53-1.024,4.665,4.665,0,0,1,1.8-.36h80.23a4.684,4.684,0,0,1,4.69,4.69V552a4.688,4.688,0,0,1-4.69,4.64Z" fill="#fff"/>
                                <path id="Path_5286" data-name="Path 5286" d="M1195.1,538.871a8.735,8.735,0,0,1-8.72-8.72v-33.61a11.736,11.736,0,0,1,11.73-11.73h0a11.73,11.73,0,0,1,11.73,11.74v26.78a1.654,1.654,0,0,1-.12.623,1.808,1.808,0,0,1-.36.529,1.572,1.572,0,0,1-.53.353,1.6,1.6,0,0,1-1.24,0,1.572,1.572,0,0,1-.53-.353,1.81,1.81,0,0,1-.36-.529,1.657,1.657,0,0,1-.12-.623v-26.78a8.6,8.6,0,0,0-.64-3.247,8.483,8.483,0,0,0-11.08-4.588,8.391,8.391,0,0,0-2.75,1.839,8.5,8.5,0,0,0-1.84,2.751,8.589,8.589,0,0,0-.64,3.245v33.61a5.47,5.47,0,0,0,10.93,0v-25.94a2.773,2.773,0,0,0-2.76-2.77h0a2.772,2.772,0,0,0-2.77,2.77v18.53a1.63,1.63,0,0,1-3.26,0v-18.53a6,6,0,0,1,6-6h0a6,6,0,0,1,6,6v25.93a8.737,8.737,0,0,1-8.67,8.72Z" fill="#868a91"/>
                                <path id="Path_5287" data-name="Path 5287" d="M932.67,461.251l3.19-1.7,10.71,16.99L942.99,478Z"/>
                                <path id="Path_5288" data-name="Path 5288" d="M698.91,511.63l19.94,13.01,2.81-3.17-20.57-12.89Z"/>
                            </g>
                        </svg>  