<svg xmlns="http://www.w3.org/2000/svg" width="1120.661" height="897.38" viewBox="0 0 1120.661 897.38" class="img-fluid ">
                            <g id="Ideation_and_office_meetings" data-name="Ideation and office meetings" transform="translate(-239.437 -151.52)">
                                <path id="Path_2420" data-name="Path 2420" d="M266.5,1047.6H1315.2l44.4-330.3a55.224,55.224,0,0,0-2.7-25.8L1188.4,218.6a55.236,55.236,0,0,0-49-36.5L549.2,151.6a55,55,0,0,0-43.6,18L253.7,447.9a54.925,54.925,0,0,0-14.2,39.6Z" fill="#f4f4f4" opacity="0.5"/>
                                <path id="Path_2421" data-name="Path 2421" d="M1272.9,926.4a.764.764,0,0,1-.5-.2l-52.3-52.6a.707.707,0,0,1,1-1l52.3,52.6a.668.668,0,0,1,0,1A.764.764,0,0,1,1272.9,926.4Z" fill="#21252b"/>
                                <path id="Path_2422" data-name="Path 2422" d="M1324.2,893a.776.776,0,0,0-1,.2l-38.4,58.1,9.5-233.7a.7.7,0,0,0-1.4,0L1282,985.7a.7.7,0,1,0,1.4,0l1.3-31.7,39.6-60A.658.658,0,0,0,1324.2,893Z" fill="#21252b"/>
                                <path id="Path_2423" data-name="Path 2423" d="M1288.2,859.8c-.2,0-.3-.1-.5-.2a.769.769,0,0,1-.1-1l59.9-68.4a.711.711,0,1,1,1.1.9l-59.9,68.4A.55.55,0,0,1,1288.2,859.8Z" fill="#21252b"/>
                                <path id="Path_2424" data-name="Path 2424" d="M1344.18,827.513c14.13-16.614,18.36-36.234,9.45-43.821s-27.61-.269-41.75,16.346-18.36,36.234-9.45,43.821S1330.04,844.128,1344.18,827.513Z" fill="#dc3545"/>
                                <path id="Path_2425" data-name="Path 2425" d="M1354.2,784.2l-52.1,59.4.3.3c8.9,7.6,27.6.2,41.7-16.4C1358,811.2,1362.4,792.1,1354.2,784.2Z" opacity="0.3"/>
                                <path id="Path_2426" data-name="Path 2426" d="M1251.38,903.829c7.19-6.945,2.51-23.459-10.46-36.886s-29.31-18.683-36.5-11.739-2.5,23.459,10.46,36.887S1244.19,910.773,1251.38,903.829Z" fill="#dc3545"/>
                                <path id="Path_2427" data-name="Path 2427" d="M1203.9,855.6l47.7,47.9c-.1.1-.2.2-.2.3-7.2,6.9-23.5,1.7-36.5-11.8C1202.1,878.9,1197.4,862.8,1203.9,855.6Z" opacity="0.3"/>
                                <path id="Path_2428" data-name="Path 2428" d="M1313.53,737.779c.99-21.794-7.47-39.882-18.89-40.4s-21.48,16.727-22.47,38.52,7.46,39.882,18.88,40.4S1312.54,759.572,1313.53,737.779Z" fill="#dc3545"/>
                                <path id="Path_2429" data-name="Path 2429" d="M1272.1,735.9c1-21.8,11.1-39,22.5-38.5l-3.6,78.9C1279.6,775.8,1271.1,757.7,1272.1,735.9Z" opacity="0.3"/>
                                <path id="Path_2430" data-name="Path 2430" d="M1328.2,916.149c8.69-13.585,9.63-28.506,2.09-33.327s-20.69,2.285-29.38,15.87-9.62,28.506-2.09,33.327S1319.51,929.734,1328.2,916.149Z" fill="#dc3545"/>
                                <path id="Path_2431" data-name="Path 2431" d="M1300.9,898.7c-8.5,13.3-9.6,27.9-2.6,33l32-48.9-1.9-.9C1320.7,879.1,1308.9,886.2,1300.9,898.7Z" opacity="0.3"/>
                                <path id="Path_2432" data-name="Path 2432" d="M1278.4,983.1a.669.669,0,0,1-.7-.6l-17.1-176.6a.707.707,0,1,1,1.4-.2l17.1,176.6c.1.5-.2.8-.7.8Z" fill="#21252b"/>
                                <path id="Path_2433" data-name="Path 2433" d="M1264.92,844.644c9.44-1.141,15.31-16.689,13.13-34.729s-11.6-31.738-21.03-30.6-15.3,16.69-13.12,34.729S1255.49,845.785,1264.92,844.644Z" fill="#dc3545"/>
                                <path id="Path_2434" data-name="Path 2434" d="M1243.8,814.1c-2.2-18,3.7-33.6,13.2-34.7l7.9,65.3C1255.4,845.8,1246,832.1,1243.8,814.1Z" opacity="0.3"/>
                                <path id="Path_2435" data-name="Path 2435" d="M1265,1048h35.6a12.078,12.078,0,0,0,12.1-12.1V988.8h-59.8v47.1A12.078,12.078,0,0,0,1265,1048Z" fill="#868a91"/>
                                <path id="Path_2436" data-name="Path 2436" d="M1314,982.4h-62.4a3.2,3.2,0,0,0,0,6.4H1314a3.222,3.222,0,0,0,3.2-3.2A3.29,3.29,0,0,0,1314,982.4Z" fill="#868a91"/>
                                <path id="Path_2437" data-name="Path 2437" d="M1312.7,988.8h-54.4a3.2,3.2,0,1,1,0-6.4h-6.6a3.2,3.2,0,0,0,0,6.4h1.3V1036a12.078,12.078,0,0,0,12.1,12.1h19.4a17.662,17.662,0,0,1-17.3-14.3l-8.6-44h54.2v-1Z" fill="#61656d"/>
                                <path id="Path_2438" data-name="Path 2438" d="M804.1,218.4H660.8v119H804.1Z" fill="#dc3545"/>
                                <path id="Path_2439" data-name="Path 2439" d="M804.1,218.4H660.8v119H804.1Z" fill="#fff" opacity="0.8"/>
                                <path id="Path_2440" data-name="Path 2440" d="M793.9,229.1H671v97.6H793.9Z" fill="#fff"/>
                                <path id="Path_2441" data-name="Path 2441" d="M671,293.8l13.4-10.3a40.513,40.513,0,0,1,48.1-.9l11.1-9.3a40.435,40.435,0,0,1,50.2-1.3l.1.1v54.5H671Z" fill="#dc3545"/>
                                <path id="Path_2442" data-name="Path 2442" d="M671,293.8l13.4-10.3a40.513,40.513,0,0,1,48.1-.9l11.1-9.3a40.435,40.435,0,0,1,50.2-1.3l.1.1v54.5H671Z" fill="#fff" opacity="0.5"/>
                                <path id="Path_2443" data-name="Path 2443" d="M727.7,264a9,9,0,1,0-9-9A9,9,0,0,0,727.7,264Z" fill="#b2b6bb"/>
                                <path id="Path_2444" data-name="Path 2444" d="M734.9,280.7l-11.1,9.1-.9-1.4,10.6-8.8Z" fill="#fff"/>
                                <path id="Path_2445" data-name="Path 2445" d="M660.8,218.4h-3.1v119h3.1Z" fill="#b2b6bb"/>
                                <path id="Path_2446" data-name="Path 2446" d="M354.7,706.6H287.6a3.4,3.4,0,1,1,0-6.8h67.1v6.8Z" fill="#b2b6bb"/>
                                <path id="Path_2447" data-name="Path 2447" d="M597.8,703.3H296.3V986.4H597.8Z" fill="#b2b6bb"/>
                                <path id="Path_2448" data-name="Path 2448" d="M890.1,703.3H361.9V986.4H890.1Z" fill="#dadddf"/>
                                <path id="Path_2449" data-name="Path 2449" d="M372.4,727.3h508V970.5h-508ZM879,728.8H374V969H879Z" fill="#b2b6bb"/>
                                <path id="Path_2450" data-name="Path 2450" d="M897.9,706.6H354.6a3.4,3.4,0,1,1,0-6.8H897.8a3.4,3.4,0,0,1,.1,6.8Z" fill="#dadddf"/>
                                <path id="Path_2451" data-name="Path 2451" d="M880.4,887.6h-508v1.5h508Z" fill="#b2b6bb"/>
                                <path id="Path_2452" data-name="Path 2452" d="M880.4,807.1h-508v1.5h508Z" fill="#b2b6bb"/>
                                <path id="Path_2453" data-name="Path 2453" d="M639.7,753.8a5.2,5.2,0,1,0-5.2-5.2A5.2,5.2,0,0,0,639.7,753.8Z" fill="#b2b6bb"/>
                                <path id="Path_2454" data-name="Path 2454" d="M637.8,748.6a5.2,5.2,0,0,1,3.5-4.9,4.671,4.671,0,0,0-1.7-.3,5.2,5.2,0,0,0,0,10.4,5.079,5.079,0,0,0,1.7-.3A5.2,5.2,0,0,1,637.8,748.6Z" opacity="0.15"/>
                                <path id="Path_2455" data-name="Path 2455" d="M639.7,833.2a5.2,5.2,0,1,0-5.2-5.2A5.2,5.2,0,0,0,639.7,833.2Z" fill="#b2b6bb"/>
                                <path id="Path_2456" data-name="Path 2456" d="M637.8,828a5.2,5.2,0,0,1,3.5-4.9,4.672,4.672,0,0,0-1.7-.3,5.2,5.2,0,0,0,0,10.4,5.08,5.08,0,0,0,1.7-.3A5.3,5.3,0,0,1,637.8,828Z" opacity="0.15"/>
                                <path id="Path_2457" data-name="Path 2457" d="M639.7,913.6a5.2,5.2,0,1,0-5.2-5.2A5.2,5.2,0,0,0,639.7,913.6Z" fill="#b2b6bb"/>
                                <path id="Path_2458" data-name="Path 2458" d="M637.8,908.4a5.2,5.2,0,0,1,3.5-4.9,4.671,4.671,0,0,0-1.7-.3,5.2,5.2,0,0,0,0,10.4,5.079,5.079,0,0,0,1.7-.3A5.109,5.109,0,0,1,637.8,908.4Z" opacity="0.15"/>
                                <path id="Path_2459" data-name="Path 2459" d="M351.3,713.6l10.6-7H890.2v3.2Z" fill="#b2b6bb"/>
                                <path id="Path_2460" data-name="Path 2460" d="M309.6,986.4l-5.2,57.7a3.377,3.377,0,0,0,6.5,1.8L326,986.4Z" fill="#dadddf"/>
                                <path id="Path_2461" data-name="Path 2461" d="M311.6,1019.9l6.3-1.5,8.1-32H309.6l-5.2,57.7a3.489,3.489,0,0,0,2,3.8Z" fill="#b2b6bb"/>
                                <path id="Path_2462" data-name="Path 2462" d="M368.5,986.4l-5.2,57.7a3.377,3.377,0,0,0,6.5,1.8l15.1-59.5Z" fill="#dadddf"/>
                                <path id="Path_2463" data-name="Path 2463" d="M374,992.7l9.4-1.8,1.6-4.6H368.6l-5.2,57.7a3.489,3.489,0,0,0,2,3.8Z" fill="#b2b6bb"/>
                                <path id="Path_2464" data-name="Path 2464" d="M819.5,986.4l5.2,57.7a3.377,3.377,0,0,1-6.5,1.8l-15.1-59.5Z" fill="#dadddf"/>
                                <path id="Path_2465" data-name="Path 2465" d="M816.6,1017.1l5.6-1.4-2.7-29.3H803.1l15.1,59.5a3.425,3.425,0,0,0,3.2,2.3h.2Z" fill="#b2b6bb"/>
                                <path id="Path_2466" data-name="Path 2466" d="M880,986.4l5.2,57.7a3.377,3.377,0,0,1-6.5,1.8l-15.1-59.5Z" fill="#dadddf"/>
                                <path id="Path_2467" data-name="Path 2467" d="M873.6,991.4l7.2-1.3-.8-3.7H863.6l15.1,59.5a3.425,3.425,0,0,0,3.2,2.3h.2Z" fill="#b2b6bb"/>
                                <path id="Path_2468" data-name="Path 2468" d="M694.5,604.8h64.3a1.493,1.493,0,0,1,1.4,1.3l.1,2.2a1.24,1.24,0,0,1-1.2,1.3H694.8a1.493,1.493,0,0,1-1.4-1.3l-.1-2.2A1.184,1.184,0,0,1,694.5,604.8Z" fill="#21252b"/>
                                <path id="Path_2469" data-name="Path 2469" d="M730.7,604.8H876.2a1.493,1.493,0,0,1,1.4,1.3l.1,2.2a1.24,1.24,0,0,1-1.2,1.3H731a1.493,1.493,0,0,1-1.4-1.3l-.1-2.2A1.184,1.184,0,0,1,730.7,604.8Z" fill="#3f4249"/>
                                <path id="Path_2470" data-name="Path 2470" d="M874.4,605.7H726.1c-.2,0-.5-.2-.5-.4a.43.43,0,0,1,.4-.4H874.3c.2,0,.5.2.5.4A.43.43,0,0,1,874.4,605.7Z" fill="#21252b"/>
                                <path id="Path_2471" data-name="Path 2471" d="M730.4,604.8h22.7a3.365,3.365,0,0,0,3.4-3l7.9-92.8a3.921,3.921,0,0,0-3.8-4.3H737.9a3.365,3.365,0,0,0-3.4,3l-7.9,92.8A3.806,3.806,0,0,0,730.4,604.8Z" fill="#21252b"/>
                                <path id="Path_2472" data-name="Path 2472" d="M733.6,604.8H874.3a3.365,3.365,0,0,0,3.4-3l7.9-92.8a3.92,3.92,0,0,0-3.8-4.3H741.1a3.365,3.365,0,0,0-3.4,3l-7.9,92.8A3.862,3.862,0,0,0,733.6,604.8Z" fill="#3f4249"/>
                                <path id="Path_2473" data-name="Path 2473" d="M813.4,548.2a2.592,2.592,0,0,0,2.4,3.8h.3a11.633,11.633,0,0,1-8.8,4.4c-4.3-.1-6.5-3.6-4.9-7.9s6.4-7.7,10.7-7.6c2.8.1,4.7,1.5,5.2,3.7A5.787,5.787,0,0,0,813.4,548.2Z" opacity="0.6"/>
                                <path id="Path_2474" data-name="Path 2474" d="M550.4,614.8c14-123.9-11.2-199.6-20.1-225.7l14.1-3.8,46.6.4,5.9,2.1c1.2,23.2,17.8,127.2,33.8,226.9H550.4Z" fill="#fff"/>
                                <path id="Path_2475" data-name="Path 2475" d="M617.8,1026.4l64.9,1.6-25.9-18.5a17.259,17.259,0,0,1-7.2-13.3l-.9-20.3-35.3.1Z" fill="#fc9d9d"/>
                                <path id="Path_2476" data-name="Path 2476" d="M625,1002.7v-.4a4.227,4.227,0,0,1,3.6-4.6l20.7-3-.2-4.1H614.5l3.1,34.4,28.3-3.1-9.3-3.7A18.483,18.483,0,0,1,625,1002.7Z" opacity="0.15"/>
                                <path id="Path_2477" data-name="Path 2477" d="M500.9,1025.2h29.2l5.4-49.4-34.5.1Z" fill="#fc9d9d"/>
                                <path id="Path_2478" data-name="Path 2478" d="M508.2,1016.9l.7-15.2a4.161,4.161,0,0,1,3.6-3.9l21-3.2.5-4.2-32.9.1-.1,35Z" opacity="0.15"/>
                                <path id="Path_2479" data-name="Path 2479" d="M499,586.7V990.6h37.9l33-329.3a4.166,4.166,0,0,1,8.3,0l35.1,329.3h37.9L637.5,586.7Z" fill="#dc3545"/>
                                <path id="Path_2480" data-name="Path 2480" d="M499,586.7V990.6h37.9l33-329.3a4.166,4.166,0,0,1,8.3,0l35.1,329.3h37.9L637.5,586.7Z" fill="#fff" opacity="0.2"/>
                                <path id="Path_2481" data-name="Path 2481" d="M503.1,1007.8l.9-.9a17.806,17.806,0,0,1,25.1.3l.5.6a9.349,9.349,0,0,1,2.6,6.4v3.8a20.521,20.521,0,0,0,1,6.5l3.1,10.3a25.271,25.271,0,0,1,1.2,7.7v1.3a3.786,3.786,0,0,1-3.9,3.6H497.7a3.723,3.723,0,0,1-3.9-3.6v-.5a27.267,27.267,0,0,1,1.5-8.9l3.6-10.1a21.84,21.84,0,0,0,1.3-7.2l.1-2.9A10.071,10.071,0,0,1,503.1,1007.8Z" fill="#3f4249"/>
                                <path id="Path_2482" data-name="Path 2482" d="M498,990.6h40.4l.8-8.3H498.1Z" fill="#dc3545"/>
                                <path id="Path_2483" data-name="Path 2483" d="M498,990.6h16.9l.4-8.3H498.1Z" opacity="0.15"/>
                                <path id="Path_2484" data-name="Path 2484" d="M493.8,1043.3v.5a3.786,3.786,0,0,0,3.9,3.6h35.9a3.723,3.723,0,0,0,3.9-3.6v-1.3a7.57,7.57,0,0,0-.1-1.5H493.8Z" opacity="0.5"/>
                                <path id="Path_2485" data-name="Path 2485" d="M613.3,1014.9v25.3a7.383,7.383,0,0,0,7.4,7.4h86a3.116,3.116,0,0,0,3.1-3.1,14.089,14.089,0,0,0-9.6-13.3l-19.4-6.4-24.6-19.1a6.786,6.786,0,0,0-8.6.2l-10.9,9.3a6.116,6.116,0,0,1-5.8,1.2l-13.8-4.3A2.965,2.965,0,0,0,613.3,1014.9Z" fill="#3f4249"/>
                                <path id="Path_2486" data-name="Path 2486" d="M620.7,1047.6h86a3.116,3.116,0,0,0,3.1-3.1,10.551,10.551,0,0,0-.4-3.1h-96A7.417,7.417,0,0,0,620.7,1047.6Z"/>
                                <path id="Path_2487" data-name="Path 2487" d="M655.7,1015.8a.764.764,0,0,1-.5-.2.785.785,0,0,1,0-1.1l5.2-5.6a.778.778,0,0,1,1.1,1.1l-5.2,5.6A1.421,1.421,0,0,1,655.7,1015.8Z" fill="#fff"/>
                                <path id="Path_2488" data-name="Path 2488" d="M659.8,1019a.764.764,0,0,1-.5-.2.785.785,0,0,1,0-1.1l5.2-5.6a.778.778,0,0,1,1.1,1.1l-5.2,5.6A1.421,1.421,0,0,1,659.8,1019Z" fill="#fff"/>
                                <path id="Path_2489" data-name="Path 2489" d="M663.9,1022.2a.764.764,0,0,1-.5-.2.785.785,0,0,1,0-1.1l5.2-5.6a.778.778,0,0,1,1.1,1.1l-5.2,5.6A.845.845,0,0,1,663.9,1022.2Z" fill="#fff"/>
                                <path id="Path_2490" data-name="Path 2490" d="M523.1,1016.3a.6.6,0,0,1-.4-.1,15.383,15.383,0,0,0-13.2,0,.894.894,0,0,1-.8-1.6,16.913,16.913,0,0,1,14.9,0,.962.962,0,0,1,.4,1.2A1.05,1.05,0,0,1,523.1,1016.3Z" fill="#fff"/>
                                <path id="Path_2491" data-name="Path 2491" d="M523.1,1020.9a.6.6,0,0,1-.4-.1,15.315,15.315,0,0,0-13.2,0,.894.894,0,1,1-.8-1.6,16.913,16.913,0,0,1,14.9,0,.962.962,0,0,1,.4,1.2A1.05,1.05,0,0,1,523.1,1020.9Z" fill="#fff"/>
                                <path id="Path_2492" data-name="Path 2492" d="M523.1,1025.4a.6.6,0,0,1-.4-.1,15.383,15.383,0,0,0-13.2,0,.894.894,0,0,1-.8-1.6,16.913,16.913,0,0,1,14.9,0,.962.962,0,0,1,.4,1.2A1.05,1.05,0,0,1,523.1,1025.4Z" fill="#fff"/>
                                <path id="Path_2493" data-name="Path 2493" d="M635.9,986,598.5,675.1a19.873,19.873,0,0,0-19.7-17.5h-4.7a4.13,4.13,0,0,1,4.1,3.8l34.9,327.5Z" opacity="0.15"/>
                                <path id="Path_2494" data-name="Path 2494" d="M612.3,990.6h40.3l-.6-8.3H611.5Z" fill="#dc3545"/>
                                <path id="Path_2495" data-name="Path 2495" d="M612.3,990.6h24l-.9-8.3H611.5Z" opacity="0.15"/>
                                <path id="Path_2496" data-name="Path 2496" d="M738.7,419l3.5-8.7a47.866,47.866,0,0,1,4.9-9.2l9-11.2a.807.807,0,0,1,.9-.4c2.8,1.4,3.1,4,2.1,6.9a38.754,38.754,0,0,1-3.1,6.1c-.8,1.3.5,1.5,1,.8l19.7-20.4a2.464,2.464,0,0,1,3.3-.2,2.4,2.4,0,0,1,.3,3.4c-3.4,4.1-11.2,13.6-11.2,13.6l15.5-12.8a2.59,2.59,0,0,1,3.4.2,2.959,2.959,0,0,1-.1,4.1c-4.5,4.4-14.8,14.8-14.8,14.8l13.8-10.9a2.242,2.242,0,0,1,3.1.5,2.459,2.459,0,0,1-.2,3.3c-4,3.6-11.6,11.6-11.6,11.6l8.7-6.9a1.852,1.852,0,0,1,2.4.5,2.105,2.105,0,0,1-.2,2.5L759,436.9l-9.2,12.9-33.1-2.5Z" fill="#fc9d9d"/>
                                <g id="Group_116" data-name="Group 116" opacity="0.15">
                                    <path id="Path_2497" data-name="Path 2497" d="M757.8,423.3h-.3a.825.825,0,0,1-.5-1c4-11.1-1-17.2-1.2-17.4a.781.781,0,0,1,1.2-1c.2.3,5.8,7,1.5,19C758.5,423.1,758.2,423.3,757.8,423.3Z" opacity="0.15"/>
                                </g>
                                <path id="Path_2498" data-name="Path 2498" d="M648.3,416.3l32,76.2,57.9-72.9,19.7,18.6L699,538.4a23.464,23.464,0,0,1-41.1-1.2l-34.1-66.5Z" fill="#21252b"/>
                                <path id="Path_2499" data-name="Path 2499" d="M590.2,331.1s-40.8-25.6-42.4,5.7l-.6,8.1-2.8,41a4.69,4.69,0,0,0,1.1,3.1l23.6,16.1a1.948,1.948,0,0,0,2.3-.1l17.5-14.9a4.624,4.624,0,0,0,1.6-4.1l-2.6-24.3a31.069,31.069,0,0,0,.8-7.2C589.1,342.2,590.2,331.1,590.2,331.1Z" fill="#fc9d9d"/>
                                <path id="Path_2500" data-name="Path 2500" d="M593.8,333A13.8,13.8,0,1,0,580,319.2,13.8,13.8,0,0,0,593.8,333Z" fill="#3f4249"/>
                                <path id="Path_2501" data-name="Path 2501" d="M594.8,309s14.5,60.8-16.7,64.9c-27,3.6-30-38.5-30-38.5l1.3-27.3Z" fill="#fc9d9d"/>
                                <path id="Path_2502" data-name="Path 2502" d="M593,312.8l-27.6,2a6.4,6.4,0,0,0-5.8,6.7,6.259,6.259,0,0,1-5.8,6.7,1.831,1.831,0,0,0-1.6,1.8l.4,6.1a1.316,1.316,0,0,1-1.3,1.5,1.4,1.4,0,0,1-1.5-1.1l-1.2-5.8-1.2-1.9-6.5,4s-10.5-16.2-5.5-31c2.9-8.4,11.2-11.4,15.2-11.9a4.4,4.4,0,0,0,3.1-2c1.6-2.7,5.5-7.4,14.2-7.1a14.637,14.637,0,0,1,12.3,6.8,4.228,4.228,0,0,0,5.3,1.5,11.916,11.916,0,0,1,11.7.9C606.2,295.7,602.6,311.3,593,312.8Z" fill="#3f4249"/>
                                <path id="Path_2503" data-name="Path 2503" d="M547.2,346.9s2.6.2,4-.9l-4.4,6.8Z" opacity="0.15"/>
                                <path id="Path_2504" data-name="Path 2504" d="M548.7,330.7s-2-5.7-8-3.1c-6.8,3-5.4,18.4,6.1,19.3,6,.5,4.8-3,3.8-7.7Z" fill="#fc9d9d"/>
                                <path id="Path_2505" data-name="Path 2505" d="M540.4,331.6a4.407,4.407,0,0,1,3.3-.9,4.006,4.006,0,0,1,2.6,2.1,8.207,8.207,0,0,1,1.1,4.2l.1,1.3a.7.7,0,0,1-1.4,0L546,337a8.474,8.474,0,0,0-.9-3.5,2.395,2.395,0,0,0-3.9-.9.775.775,0,0,1-1-.2C540,332.3,540.1,331.9,540.4,331.6Z" opacity="0.3"/>
                                <path id="Path_2506" data-name="Path 2506" d="M593.2,314.1l-3.2.3a.661.661,0,0,1-.7-.6c0-.4.2-.7.6-.7l3.2-.3a5.019,5.019,0,0,0,1.2-.2,15.086,15.086,0,0,0,3.7-1.8.652.652,0,1,1,.7,1.1,15.14,15.14,0,0,1-4,1.9Z" fill="#fc9d9d"/>
                                <path id="Path_2507" data-name="Path 2507" d="M589.9,378.8l-1-9.8c-2.6,2.7-10.1,6.6-18.6,4.6h0a20.721,20.721,0,0,1-10.9-6.8.64.64,0,0,0-1,.8,22.539,22.539,0,0,0,14.4,7.7A22.358,22.358,0,0,0,589.9,378.8Z" opacity="0.15"/>
                                <g id="Group_117" data-name="Group 117" opacity="0.3">
                                    <path id="Path_2508" data-name="Path 2508" d="M580.4,361.5c0,.1-.1.1,0,0-2.6.2-3.8.3-3.8.3a.875.875,0,0,1-.9-.8.817.817,0,0,1,.8-.9s1.2-.1,3.7-.3a.808.808,0,0,1,.9.7C581.1,361.1,580.8,361.5,580.4,361.5Z" opacity="0.3"/>
                                </g>
                                <g id="Group_118" data-name="Group 118" opacity="0.3">
                                    <path id="Path_2509" data-name="Path 2509" d="M581.8,357.9c-6.8,1-9.9-2.7-11-4.5a.806.806,0,1,1,1.4-.8c1,1.8,4.4,5.7,12.6,3a.791.791,0,0,1,.5,1.5A18.981,18.981,0,0,1,581.8,357.9Z" opacity="0.3"/>
                                </g>
                                <path id="Path_2510" data-name="Path 2510" d="M572.4,339.9a2.5,2.5,0,1,0-2.5-2.5A2.5,2.5,0,0,0,572.4,339.9Z" fill="#21252b"/>
                                <path id="Path_2511" data-name="Path 2511" d="M573.5,337.1a.5.5,0,1,0-.5-.5A.5.5,0,0,0,573.5,337.1Z" fill="#fff"/>
                                <path id="Path_2512" data-name="Path 2512" d="M592.2,340a2.5,2.5,0,1,0-2.5-2.5A2.5,2.5,0,0,0,592.2,340Z" fill="#21252b"/>
                                <path id="Path_2513" data-name="Path 2513" d="M593.3,337.2a.5.5,0,1,0-.5-.5A.5.5,0,0,0,593.3,337.2Z" fill="#fff"/>
                                <g id="Group_119" data-name="Group 119" opacity="0.3">
                                    <path id="Path_2514" data-name="Path 2514" d="M583.6,351.8l-3.3.2a.752.752,0,0,1-.1-1.5l3.3-.2a1.5,1.5,0,1,0-.2-3,.849.849,0,0,1-.8-.7c-.1-.4.3-.7.7-.8a3.066,3.066,0,0,1,3.2,2.7A3.122,3.122,0,0,1,583.6,351.8Z" opacity="0.3"/>
                                </g>
                                <path id="Path_2515" data-name="Path 2515" d="M599.3,331H565a3.585,3.585,0,0,0-3.6,3.6v2.8a9.8,9.8,0,1,0,19.6,0v-2.8a3.5,3.5,0,0,0-.8-2.2H584a3.408,3.408,0,0,0-.7,2.2v2.8a9.8,9.8,0,1,0,19.6,0v-2.8A3.585,3.585,0,0,0,599.3,331Zm-19.7,3.6v2.8a8.35,8.35,0,1,1-16.7.1v-2.8a2.22,2.22,0,0,1,2.2-2.2h12.4A2.112,2.112,0,0,1,579.6,334.6Zm21.9,2.8a8.35,8.35,0,0,1-16.7.1v-2.8a2.22,2.22,0,0,1,2.2-2.2h12.4a2.22,2.22,0,0,1,2.2,2.2Z" fill="#21252b"/>
                                <g id="Group_120" data-name="Group 120" opacity="0.15">
                                    <path id="Path_2516" data-name="Path 2516" d="M626.5,596.7H541.6a.789.789,0,0,1-.8-.8.86.86,0,0,1,.8-.8h84.9a.8.8,0,0,1,0,1.6Z" opacity="0.15"/>
                                </g>
                                <path id="Path_2517" data-name="Path 2517" d="M593.8,386.9s3.6,124.4,13.1,208.4h12.2Z" opacity="0.15"/>
                                <path id="Path_2518" data-name="Path 2518" d="M566.1,595.8l-50.3,6.8s-1.3,3.6-2.9,8.9l-14,6.3V982.1l16.3.1L530,664.7C573.1,649.3,566.1,595.8,566.1,595.8Z" opacity="0.15"/>
                                <path id="Path_2519" data-name="Path 2519" d="M638.3,651.3c.1,0,.2-.1.3-.1l-7.3-55.9H607l4.4,40.5A19.231,19.231,0,0,0,638.3,651.3Z" opacity="0.15"/>
                                <g id="Group_121" data-name="Group 121" opacity="0.15">
                                    <path id="Path_2520" data-name="Path 2520" d="M613.1,402.5H574.4l-2.9,2.5a1.96,1.96,0,0,1-2.5.1l-3.8-2.6H522.7v4.4h90.4Z" fill="#dc3545" opacity="0.15"/>
                                    <path id="Path_2521" data-name="Path 2521" d="M613.1,421.4H522.7v4.4h90.4Z" fill="#dc3545" opacity="0.15"/>
                                    <path id="Path_2522" data-name="Path 2522" d="M613.1,440.4H522.7v4.4h90.4Z" opacity="0.15"/>
                                    <path id="Path_2523" data-name="Path 2523" d="M613.1,459.3H522.7v4.4h90.4Z" opacity="0.15"/>
                                    <path id="Path_2524" data-name="Path 2524" d="M613.1,478.3H522.7v4.4h90.4Z" opacity="0.15"/>
                                    <path id="Path_2525" data-name="Path 2525" d="M613.1,497.2H522.7v4.4h90.4Z" opacity="0.15"/>
                                    <path id="Path_2526" data-name="Path 2526" d="M613.1,516.2H522.7v4.4h90.4Z" opacity="0.15"/>
                                    <path id="Path_2527" data-name="Path 2527" d="M617.6,535.1H522.7v4.4h94.9Z" opacity="0.15"/>
                                    <path id="Path_2528" data-name="Path 2528" d="M620.6,554.1H522.7v4.4h97.9Z" opacity="0.15"/>
                                    <path id="Path_2529" data-name="Path 2529" d="M626.5,573H522.7v4.4H626.5Z" opacity="0.15"/>
                                </g>
                                <path id="Path_2530" data-name="Path 2530" d="M494.4,641.9l2.2-133.3-33.2-44.4-.8-36.6a29.828,29.828,0,0,1,23.5-29.7l56-12c7.8,22.9,27.8,114.5,23.9,220a47.051,47.051,0,0,1-47,45.2H503.5A8.969,8.969,0,0,1,494.4,641.9Z" fill="#21252b"/>
                                <path id="Path_2531" data-name="Path 2531" d="M522.7,520.6l-26.1-11.9L494.4,642a9.114,9.114,0,0,0,9.1,9.3H519a44.051,44.051,0,0,0,5.2-.3C523.8,605.5,522.7,520.6,522.7,520.6Z" opacity="0.4"/>
                                <path id="Path_2532" data-name="Path 2532" d="M651.6,432.2,640.5,649.4a1.95,1.95,0,0,1-1.9,1.8h-1.8a13.949,13.949,0,0,1-13.7-11.7c-15.2-98.8-28.3-230.3-29.4-252.5l35.7,11.4C641,402,652.3,416.4,651.6,432.2Z" fill="#21252b"/>
                                <path id="Path_2533" data-name="Path 2533" d="M637.4,556.5l3.5-44.5H609.2l2.7,44.5a2.187,2.187,0,0,0,2.2,2h21.1A2.267,2.267,0,0,0,637.4,556.5Z" fill="#fff"/>
                                <path id="Path_2534" data-name="Path 2534" d="M641,508.2h-3.5l-1.6-4.1a.622.622,0,0,0-.6-.4H614a.675.675,0,0,0-.6.4l-1.6,4.1h-2.7a.684.684,0,0,0-.7.7v2.5a.684.684,0,0,0,.7.7h32a.684.684,0,0,0,.7-.7v-2.5A.848.848,0,0,0,641,508.2Z" fill="#dc3545"/>
                                <path id="Path_2535" data-name="Path 2535" d="M641,508.2h-3.5l-1.6-4.1a.622.622,0,0,0-.6-.4H614a.675.675,0,0,0-.6.4l-1.6,4.1h-2.7a.684.684,0,0,0-.7.7v2.5a.684.684,0,0,0,.7.7h32a.684.684,0,0,0,.7-.7v-2.5A.848.848,0,0,0,641,508.2Z" fill="#fff" opacity="0.2"/>
                                <path id="Path_2536" data-name="Path 2536" d="M637.2,507.4H619.6l1.3-3.7H614a.675.675,0,0,0-.6.4l-1.6,4.1h-2.7a.684.684,0,0,0-.7.7v2.5a.684.684,0,0,0,.7.7h5.7c.5-1.4,1.1-3.1,1.1-3.1a.875.875,0,0,1,.9-.6h20.7Z" opacity="0.15"/>
                                <path id="Path_2537" data-name="Path 2537" d="M640.9,513.1l.1-1.1H609.3l2.7,44.5a2.187,2.187,0,0,0,2.2,2h1.5l1.1-43.8Z" opacity="0.15"/>
                                <path id="Path_2538" data-name="Path 2538" d="M625,545.2a11.607,11.607,0,1,0-12-11.6A11.806,11.806,0,0,0,625,545.2Z" fill="#dc3545"/>
                                <path id="Path_2539" data-name="Path 2539" d="M599.8,526.7l10-4.7.1,2.2a3.185,3.185,0,0,0,3.2,3l25.6-.2a3.372,3.372,0,0,1,3.4,3.4v.1a3.629,3.629,0,0,1-3.5,3.6c-3.3,0-7.8.1-7.8.1l7.8-.1a3.45,3.45,0,0,1,.1,6.9l-8.1.1,8.4-.1a3.309,3.309,0,0,1,3.3,3.2,3.35,3.35,0,0,1-3,3.3c-3.4.3-8.5.7-8.5.7l9.1.9a2.616,2.616,0,0,1,2.4,2.6v.1a2.689,2.689,0,0,1-2.7,2.7c-10.6,0-63.5,1.4-63.5,1.4l10.8-28,4.9.3A19.962,19.962,0,0,0,599.8,526.7Z" fill="#fc9d9d"/>
                                <g id="Group_122" data-name="Group 122" opacity="0.15">
                                    <path id="Path_2540" data-name="Path 2540" d="M638.1,534.8h-5.6a.789.789,0,0,1-.8-.8.86.86,0,0,1,.8-.8h5.6a.789.789,0,0,1,.8.8A.86.86,0,0,1,638.1,534.8Z" opacity="0.15"/>
                                </g>
                                <g id="Group_123" data-name="Group 123" opacity="0.15">
                                    <path id="Path_2541" data-name="Path 2541" d="M638.5,541.8h-5.7a.789.789,0,0,1-.8-.8.86.86,0,0,1,.8-.8h5.7a.789.789,0,0,1,.8.8A.86.86,0,0,1,638.5,541.8Z" opacity="0.15"/>
                                </g>
                                <path id="Path_2542" data-name="Path 2542" d="M462.7,425.1V540.2a21.163,21.163,0,0,0,22.4,21.1l107-6V528l-82.4-5.1,2.2-99.7" fill="#21252b"/>
                                <path id="Path_2543" data-name="Path 2543" d="M488.9,548c-8.3.3-15.6-5.9-15.6-16.2l1.5-108.2c.7-11.4,4.1-20.2,13.5-26.3l-2.1.5a29.764,29.764,0,0,0-23.5,30.7V540.1a21,21,0,0,0,22.5,21l106.9-5.8V549Z" opacity="0.4"/>
                                <path id="Path_2544" data-name="Path 2544" d="M564.9,526.4l-.1-1.7L522.6,522l-9.9-79.4a.6.6,0,0,0-1.2.1L509.8,523l13,.8Z" opacity="0.4"/>
                                <path id="Path_2545" data-name="Path 2545" d="M738.2,419.6l22.3,15.6-1.6,1.6-1,1.4Z" opacity="0.15"/>
                                <path id="Path_2546" data-name="Path 2546" d="M592.1,528l2.6,16.6a6.849,6.849,0,0,0,6.6,5.8l41.1,1.1a2.745,2.745,0,0,1-2.7,2.7l-47.6,1Z" opacity="0.15"/>
                                <path id="Path_2547" data-name="Path 2547" d="M666.5,527.8,650.1,497l1.2-31a.851.851,0,0,0-1.7-.1l-1.2,31c0,.1-.1.2-.1.3l-1.2,18.9,10.8,21.1c8.4,16.5,31.7,17.1,41.1,1.2l.8-1.4A23.431,23.431,0,0,1,666.5,527.8Z" opacity="0.4"/>
                                <path id="Path_2548" data-name="Path 2548" d="M676.7,497.3l3.6-4.8-4.8-11.4-1,15.4A1.219,1.219,0,0,0,676.7,497.3Z" opacity="0.4"/>
                                <path id="Path_2549" data-name="Path 2549" d="M466,624.7h19.7l-59.1,422.9h-7.7Z" fill="#61656d"/>
                                <path id="Path_2550" data-name="Path 2550" d="M1236.6,1047.6h-7.7l-59.1-422.9h19.7Z" fill="#61656d"/>
                                <path id="Path_2551" data-name="Path 2551" d="M418.9,1047.6h3.3l50.7-411a6.173,6.173,0,0,1,5.6-5.4l6.4-.6.8-5.8H466Z" opacity="0.5"/>
                                <path id="Path_2552" data-name="Path 2552" d="M1231.7,1047.6,1179.1,637a5.859,5.859,0,0,1,4.6-6.5l6.3-1.3-.5-4.6h-19.7l59.1,422.9h2.8Z" opacity="0.5"/>
                                <path id="Path_2553" data-name="Path 2553" d="M405.5,624.7h19.7l-59.1,422.9h-7.7Z" fill="#61656d"/>
                                <path id="Path_2554" data-name="Path 2554" d="M1176.1,1047.6h-7.7l-59.1-422.9H1129Z" fill="#61656d"/>
                                <path id="Path_2555" data-name="Path 2555" d="M358.4,1047.6h3.3l19.7-149.9,6.1-3.5,36.8-263.7.8-5.8H405.4Z" opacity="0.5"/>
                                <path id="Path_2556" data-name="Path 2556" d="M1171.2,1047.6,1152,898.9l6.9-4.8-30-269.5h-19.7l59.1,422.9h2.9Z" opacity="0.5"/>
                                <path id="Path_2557" data-name="Path 2557" d="M1142.3,529.4a1.7,1.7,0,1,0-1.7-1.7A1.7,1.7,0,0,0,1142.3,529.4Z" fill="#fff"/>
                                <path id="Path_2558" data-name="Path 2558" d="M973.8,416.4l-33.6,67.3-45.8-.9-4.1,21.8,51.6,10.2a21.952,21.952,0,0,0,21.8-8.8l25.4-35.6" fill="#dc3545"/>
                                <path id="Path_2559" data-name="Path 2559" d="M838.5,473.8l-12.1-1.6L812,476.4a1.673,1.673,0,0,0-1,2.6,2.2,2.2,0,0,0,2.3.8l13.8-2.6,8.6,2.8-8.6-2.8-12,3.4a1.5,1.5,0,0,0-1,2.1,1.9,1.9,0,0,0,2.1.8l12.1-2.3,12.5,3.9-12.5-3.9-8.6,3.5a.98.98,0,0,0-.4,1.5,1.342,1.342,0,0,0,1.5.4l10-2.4,11.8,2.9Z" fill="#966363"/>
                                <path id="Path_2560" data-name="Path 2560" d="M838.5,473.8l-12.1-1.6L812,476.4a1.673,1.673,0,0,0-1,2.6,2.2,2.2,0,0,0,2.3.8l13.8-2.6,8.6,2.8-8.6-2.8-12,3.4a1.5,1.5,0,0,0-1,2.1,1.9,1.9,0,0,0,2.1.8l12.1-2.3,12.5,3.9-12.5-3.9-8.6,3.5a.98.98,0,0,0-.4,1.5,1.342,1.342,0,0,0,1.5.4l10-2.4,11.8,2.9Z" opacity="0.15"/>
                                <path id="Path_2561" data-name="Path 2561" d="M837.7,469.9l17.8,10.3a7.909,7.909,0,0,0,3.4,1l35.5,1.6-4.1,21.8L861.9,499a7.078,7.078,0,0,0-2.9,0l-1.6.3a22.549,22.549,0,0,1-17.5-2.2h-.1a6.194,6.194,0,0,0-2.4-.8c-3.1-.3-10.6-1.1-10.6-1.1a.789.789,0,0,1-.8-.8,4.181,4.181,0,0,1,3.9-3.9l5.3-.7c2.8-.4,4.4-3,3.2-5.2l-5.3-9.3a2.484,2.484,0,0,0-1.6-1.2l-18.8-4.9a1.414,1.414,0,0,1-1.2-1.6,1.841,1.841,0,0,1,2.1-1.4c4.8.6,19.4,2.7,22.8,3.3A2.01,2.01,0,0,1,837.7,469.9Z" fill="#966363"/>
                                <path id="Path_2562" data-name="Path 2562" d="M940.3,483.7l6,.2a3.333,3.333,0,0,0,3.2-2.2l9.9-36.2Z" opacity="0.15"/>
                                <path id="Path_2563" data-name="Path 2563" d="M1080.7,989a28.1,28.1,0,0,0-1.3,10.3l-.1,28.8a31.488,31.488,0,0,0,4.1,14.3l.6,1a8.186,8.186,0,0,0,7.2,4.1h8.3a8.234,8.234,0,0,0,8-6.3,30.048,30.048,0,0,0,.4-13l-7-30.9a36.166,36.166,0,0,0-2.5-8.4h-17.7Z" fill="#dc3545"/>
                                <path id="Path_2564" data-name="Path 2564" d="M960,863.8,945.5,975.2a33.342,33.342,0,0,1-3.5,10.2l-23.8,44.8,5.6,7.6,21.8-10.9,19.4-35a55.215,55.215,0,0,1,2.6-17.6l30-110.5Z" fill="#966363"/>
                                <path id="Path_2565" data-name="Path 2565" d="M945.6,993.6c1.7-3.2,5.1-11,5.6-14.6l15.7-86.3a12.8,12.8,0,0,1,7.6-9.4l19.9-8.2.9-3.3-37.6,8.9-12.3,94.4a33.345,33.345,0,0,1-3.5,10.2l-23.8,44.8,3.4,5.7Z" opacity="0.15"/>
                                <path id="Path_2566" data-name="Path 2566" d="M902.8,1037.2l15.4-7a23.394,23.394,0,0,0,22-8.3l24.8-30a53.321,53.321,0,0,1,4.5,30.7l-3.6,24.9h-2.8l-.8-25.6a2.013,2.013,0,0,0-3.6-1.2l-15.1,18.5a22.637,22.637,0,0,1-17.6,8.3H898.5a2.631,2.631,0,0,1-2.4-3.6A14.064,14.064,0,0,1,902.8,1037.2Z" fill="#dc3545"/>
                                <path id="Path_2567" data-name="Path 2567" d="M1079.5,976a233.581,233.581,0,0,1,1.6,31.3l-.2,12.5a10.164,10.164,0,0,0,10.2,9.8h1.7a10.234,10.234,0,0,0,10.1-11.6l-2.9-14.8a91.892,91.892,0,0,1-1.6-22.8l8-143.8-38.9,11.1Z" fill="#966363"/>
                                <path id="Path_2568" data-name="Path 2568" d="M1095,404.8l-32.9-6.7-53.6.6L988.8,404c-12.3,3.9-18.4,14.6-18.2,27.5l1.8,9.4-5.1,17.6c-3,11.4.9,18,8.8,27.2,2.5,2.9,3.8,4.1,4.8,9.6,0,0,4.8,18.1,5.7,25.6a335.191,335.191,0,0,1,2.2,51.3L1090,572c4.7,0,6.7-5,4.5-9.1,0,0-6.9-13.7-8.2-25.3-4.2-37.8,6.6-82.8,6.6-82.8l21.2-23.5C1114.7,419,1106.7,407.5,1095,404.8Z" fill="#dc3545"/>
                                <path id="Path_2569" data-name="Path 2569" d="M991.3,572.1,957.7,881.6l148.4-38,1.5-127.3a548.54,548.54,0,0,0-16.8-141.5l-.7-2.9Z" fill="#3f4249"/>
                                <g id="Group_124" data-name="Group 124" opacity="0.15">
                                    <path id="Path_2570" data-name="Path 2570" d="M1041,532.6a.56.56,0,0,1-.6-.5.587.587,0,0,1,.5-.7l42.3-8.2a.608.608,0,1,1,.2,1.2l-42.3,8.2Z" opacity="0.15"/>
                                </g>
                                <path id="Path_2571" data-name="Path 2571" d="M1024.1,534.4l-12.2-2.4-2.7,2.6,3.2,3.8Z" fill="#966363"/>
                                <path id="Path_2572" data-name="Path 2572" d="M1024.1,534.4l-12.2-2.4-2.7,2.6,3.2,3.8Z" opacity="0.15"/>
                                <path id="Path_2573" data-name="Path 2573" d="M1068.1,853.1l11.4,123c.5,4.3.9,8.6,1.1,12.8v.1c.4,6.1.5,12.2.4,18.3l-.2,12.5a10.2,10.2,0,0,0,9.6,9.8c-4.7-3.7-4.4-9.7-4.5-14.2l-8.5-149a11.076,11.076,0,0,1,6.5-10.8l21.9-10.1.1-1.9Z" opacity="0.15"/>
                                <path id="Path_2574" data-name="Path 2574" d="M894.3,483.2l-4.7,10a8.656,8.656,0,0,1-9.2,4.9l-17.5-2.8a8.5,8.5,0,0,0-4.2.2c-3.6,1.2-11.6,3.3-19.2,1.3a.367.367,0,0,0,.3.1h.1a22.549,22.549,0,0,0,17.5,2.2l1.6-.3a7.079,7.079,0,0,1,2.9,0l28.4,5.6Z" opacity="0.15"/>
                                <path id="Path_2575" data-name="Path 2575" d="M1021.9,555.2l16.9-3.6,49.2-4.1.5.2c2.4,6.9,3.3,9.2,5.2,13.6l-7.2.3a252.123,252.123,0,0,1-33.6-1.7,120,120,0,0,0-31.1.4v-5.1Z" opacity="0.15"/>
                                <path id="Path_2576" data-name="Path 2576" d="M1112.8,421.9l-10.3.7c-8.2,13.6-13.1,24.5-12.6,40.3l-.7,6.3,19.9,50.5-48.7,9.3,7.8,20,63.6-4.2c9.3-.6,15.9-10.6,12.5-20Z" fill="#dc3545"/>
                                <path id="Path_2577" data-name="Path 2577" d="M986.7,583.1l1.1-11,102.1-.3,2.8,11.3Z" fill="#21252b"/>
                                <path id="Path_2578" data-name="Path 2578" d="M1055.9,583.1a36.337,36.337,0,0,0-36,31.5l-35,260-27.2,7L990,583.1Z" opacity="0.2"/>
                                <path id="Path_2579" data-name="Path 2579" d="M1037.9,576.6l-37.2-64.3a3.483,3.483,0,0,0-4.2-1.5L944,528.5a3.281,3.281,0,0,0-1.9,4.7l35.1,61a3.649,3.649,0,0,0,4,1.6l54.6-14.4A3.225,3.225,0,0,0,1037.9,576.6Z" fill="#3f4249"/>
                                <path id="Path_2580" data-name="Path 2580" d="M1037.9,576.6l-37.2-64.3a3.483,3.483,0,0,0-4.2-1.5L944,528.5a3.281,3.281,0,0,0-1.9,4.7l35.1,61a3.649,3.649,0,0,0,4,1.6l54.6-14.4A3.225,3.225,0,0,0,1037.9,576.6Z" opacity="0.8"/>
                                <path id="Path_2581" data-name="Path 2581" d="M1036.1,577.3,998.9,513a3.483,3.483,0,0,0-4.2-1.5l-52.5,17.8a3.281,3.281,0,0,0-1.9,4.7l35.1,61a3.649,3.649,0,0,0,4,1.6l54.6-14.4A3.438,3.438,0,0,0,1036.1,577.3Z" fill="#21252b"/>
                                <path id="Path_2582" data-name="Path 2582" d="M981.8,543.8a2.226,2.226,0,0,1-.7-2.3,7.248,7.248,0,0,0-4.8-.2c-2.4.8-2.9,3-1.1,4.8a7.932,7.932,0,0,0,7.5,1.8,2.907,2.907,0,0,0,2.2-2.6A6.444,6.444,0,0,1,981.8,543.8Z" fill="#3f4249"/>
                                <path id="Path_2583" data-name="Path 2583" d="M949.982,536.219c.507-.919-.178-2.269-1.532-3.017s-2.862-.61-3.37.309.179,2.269,1.532,3.017S949.475,537.137,949.982,536.219Z" opacity="0.4"/>
                                <path id="Path_2584" data-name="Path 2584" d="M949.551,536.42c.507-.918-.179-2.269-1.532-3.017s-2.862-.61-3.37.309.179,2.269,1.532,3.017S949.043,537.339,949.551,536.42Z" fill="#3f4249"/>
                                <path id="Path_2585" data-name="Path 2585" d="M948.682,536.073c.348-.628-.116-1.549-1.034-2.056s-1.945-.41-2.292.219.116,1.549,1.035,2.056S948.335,536.7,948.682,536.073Z" opacity="0.5"/>
                                <path id="Path_2586" data-name="Path 2586" d="M946,535.1a.962.962,0,0,1,.8-1.4h-.3c-.9,0-1.4.6-1.1,1.4a2.459,2.459,0,0,0,2.2,1.4h.3A2.367,2.367,0,0,1,946,535.1Z" opacity="0.4"/>
                                <path id="Path_2587" data-name="Path 2587" d="M1060.3,529l-28.3,5.4a3.4,3.4,0,0,1-1,.1l-17.9-.3a17.135,17.135,0,0,0-5.5.9l-20.7,7.6a1.755,1.755,0,0,0-1.1,2.2,1.793,1.793,0,0,0,2.2,1.3l19.8-5.2L989,551.3a1.948,1.948,0,0,0,1.7,3.5l19.2-7.6L992.6,554a1.984,1.984,0,0,0-1.1,2.4,1.853,1.853,0,0,0,2.3,1.3l17.6-4.8-15.2,4.2a1.6,1.6,0,0,0,.8,3.1l40.5-8.6,30.8-2.6Z" fill="#966363"/>
                                <g id="Group_125" data-name="Group 125" opacity="0.15">
                                    <path id="Path_2588" data-name="Path 2588" d="M992.5,554.7a.675.675,0,0,1-.6-.4.6.6,0,0,1,.4-.8l16.1-6.4a.632.632,0,1,1,.4,1.2l-16.1,6.4Z" opacity="0.15"/>
                                </g>
                                <g id="Group_126" data-name="Group 126" opacity="0.15">
                                    <path id="Path_2589" data-name="Path 2589" d="M996.1,557.7a.634.634,0,0,1-.6-.5.68.68,0,0,1,.4-.8l15.2-4.2a.632.632,0,1,1,.4,1.2l-15.2,4.2C996.2,557.7,996.2,557.7,996.1,557.7Z" opacity="0.15"/>
                                </g>
                                <path id="Path_2590" data-name="Path 2590" d="M995,559a1.609,1.609,0,0,0,1.9,1.2l40.5-8.6,30.8-2.6-7.8-20,1.1,11.6a4.391,4.391,0,0,1-3.6,4.7l-23.2,3.8Z" opacity="0.15"/>
                                <path id="Path_2591" data-name="Path 2591" d="M1060.3,529l4.4-1,8.3,20.6-4.9.4Z" opacity="0.6"/>
                                <path id="Path_2592" data-name="Path 2592" d="M1077.4,419.2a1.7,1.7,0,1,0-1.7-1.7A1.7,1.7,0,0,0,1077.4,419.2Z" fill="#fff"/>
                                <path id="Path_2593" data-name="Path 2593" d="M1036.6,424.9a1.7,1.7,0,1,0-1.7-1.7A1.7,1.7,0,0,0,1036.6,424.9Z" fill="#fff"/>
                                <path id="Path_2594" data-name="Path 2594" d="M1094.4,538.2a1.7,1.7,0,1,0-1.7-1.7A1.7,1.7,0,0,0,1094.4,538.2Z" fill="#fff"/>
                                <path id="Path_2595" data-name="Path 2595" d="M1079,459.5a1.7,1.7,0,1,0-1.7-1.7A1.7,1.7,0,0,0,1079,459.5Z" fill="#fff"/>
                                <path id="Path_2596" data-name="Path 2596" d="M1118.6,460.6a1.7,1.7,0,1,0-1.7-1.7A1.7,1.7,0,0,0,1118.6,460.6Z" fill="#fff"/>
                                <path id="Path_2597" data-name="Path 2597" d="M1015.7,451.3a1.7,1.7,0,1,0-1.7-1.7A1.7,1.7,0,0,0,1015.7,451.3Z" fill="#fff"/>
                                <path id="Path_2598" data-name="Path 2598" d="M981.1,462.8a1.7,1.7,0,1,0-1.7-1.7A1.7,1.7,0,0,0,981.1,462.8Z" fill="#fff"/>
                                <path id="Path_2599" data-name="Path 2599" d="M966.3,443.5a1.7,1.7,0,1,0-1.7-1.7A1.7,1.7,0,0,0,966.3,443.5Z" fill="#fff"/>
                                <path id="Path_2600" data-name="Path 2600" d="M961.2,494.3a1.7,1.7,0,1,0-1.7-1.7A1.7,1.7,0,0,0,961.2,494.3Z" fill="#fff"/>
                                <path id="Path_2601" data-name="Path 2601" d="M931.1,507.2a1.7,1.7,0,1,0-1.7-1.7A1.7,1.7,0,0,0,931.1,507.2Z" fill="#fff"/>
                                <path id="Path_2602" data-name="Path 2602" d="M910.4,488.8a1.7,1.7,0,1,0-1.7-1.7A1.7,1.7,0,0,0,910.4,488.8Z" fill="#fff"/>
                                <path id="Path_2603" data-name="Path 2603" d="M1000,413a1.7,1.7,0,1,0-1.7-1.7A1.7,1.7,0,0,0,1000,413Z" fill="#fff"/>
                                <path id="Path_2604" data-name="Path 2604" d="M1042.4,472.8a1.7,1.7,0,1,0-1.7-1.7A1.7,1.7,0,0,0,1042.4,472.8Z" fill="#fff"/>
                                <path id="Path_2605" data-name="Path 2605" d="M1029.5,523a1.7,1.7,0,1,0-1.7-1.7A1.7,1.7,0,0,0,1029.5,523Z" fill="#fff"/>
                                <path id="Path_2606" data-name="Path 2606" d="M1056.3,558.8a1.7,1.7,0,1,0-1.7-1.7A1.7,1.7,0,0,0,1056.3,558.8Z" fill="#fff"/>
                                <path id="Path_2607" data-name="Path 2607" d="M1009.2,495.6a1.7,1.7,0,1,0-1.7-1.7A1.7,1.7,0,0,0,1009.2,495.6Z" fill="#fff"/>
                                <path id="Path_2608" data-name="Path 2608" d="M998.3,535.4a1.7,1.7,0,1,0-1.7-1.7A1.7,1.7,0,0,0,998.3,535.4Z" fill="#fff"/>
                                <path id="Path_2609" data-name="Path 2609" d="M1109.6,498.9a1.7,1.7,0,1,0-1.7-1.7A1.7,1.7,0,0,0,1109.6,498.9Z" fill="#fff"/>
                                <path id="Path_2610" data-name="Path 2610" d="M1066.8,506.3a1.7,1.7,0,1,0-1.7-1.7A1.7,1.7,0,0,0,1066.8,506.3Z" fill="#fff"/>
                                <path id="Path_2611" data-name="Path 2611" d="M1056.8,407.5l13-7.9-7.6-1.6-53.6.6-5.2,1.4,12.8,7.6A39.443,39.443,0,0,0,1056.8,407.5Z" opacity="0.6"/>
                                <path id="Path_2612" data-name="Path 2612" d="M1062,315.2a16.5,16.5,0,1,0-16.5-16.5A16.5,16.5,0,0,0,1062,315.2Z" fill="#21252b"/>
                                <path id="Path_2613" data-name="Path 2613" d="M1071.4,312.3a16.485,16.485,0,0,1-25.2-18.2c.2-.6.4-1.1.6-1.7C1054.2,293.5,1067.1,300.1,1071.4,312.3Z" fill="#dc3545"/>
                                <path id="Path_2614" data-name="Path 2614" d="M1053.9,367.3c-.8,17.8-6.1,27.7,3.8,28.1,15.8.7,29.3-13.2,30.1-31s-11.4-32.8-27.3-33.4C1056.3,346.2,1054.6,349.5,1053.9,367.3Z" fill="#21252b"/>
                                <path id="Path_2615" data-name="Path 2615" d="M1046.9,368.253c1.35-15.4-10.35-29.016-26.14-30.4s-29.688,9.981-31.038,25.387,10.358,29.016,26.148,30.4S1045.55,383.658,1046.9,368.253Z" fill="#21252b"/>
                                <path id="Path_2616" data-name="Path 2616" d="M1054.6,355.2l1,36a6.727,6.727,0,0,0,4.9,6.2l4.1,1.1-9.4,5.8a35.026,35.026,0,0,1-36.4.3l-10.2-6.1,4.6-1.3a6.638,6.638,0,0,0,4.8-5.6l4.7-42.8Z" fill="#966363"/>
                                <path id="Path_2617" data-name="Path 2617" d="M1029.5,381.8l1.7.1a22.153,22.153,0,0,0,23.1-21.2l1.3-31.1a7.388,7.388,0,0,0-7.1-7.7l-29.1-1.3a9.612,9.612,0,0,0-10,9.2l-1.2,28.9A22.364,22.364,0,0,0,1029.5,381.8Z" fill="#966363"/>
                                <path id="Path_2618" data-name="Path 2618" d="M1031.9,350.2a2.4,2.4,0,1,0-2.4-2.4A2.4,2.4,0,0,0,1031.9,350.2Z" fill="#21252b"/>
                                <path id="Path_2619" data-name="Path 2619" d="M1030.9,347.8a.5.5,0,1,0-.5-.5A.5.5,0,0,0,1030.9,347.8Z" fill="#fff"/>
                                <path id="Path_2620" data-name="Path 2620" d="M1013.2,350.2a2.4,2.4,0,1,0-2.4-2.4A2.4,2.4,0,0,0,1013.2,350.2Z" fill="#21252b"/>
                                <path id="Path_2621" data-name="Path 2621" d="M1012.2,347.7a.5.5,0,1,0-.5-.5A.5.5,0,0,0,1012.2,347.7Z" fill="#fff"/>
                                <g id="Group_127" data-name="Group 127" opacity="0.3">
                                    <path id="Path_2622" data-name="Path 2622" d="M1021.9,361.8l3.2.3a.707.707,0,1,0,.2-1.4l-3.2-.3a1.456,1.456,0,0,1-1.3-1.6,1.617,1.617,0,0,1,1.6-1.4.707.707,0,1,0,.2-1.4,2.9,2.9,0,0,0-3.1,2.6A2.563,2.563,0,0,0,1021.9,361.8Z" opacity="0.3"/>
                                </g>
                                <path id="Path_2623" data-name="Path 2623" d="M1000,344.1c3.6-2.4,2.2-7.2,2.2-7.2a22.1,22.1,0,0,1-1.1-6.5c-.1-7.4,3.9-10.3,6-11.3a2.157,2.157,0,0,0,1.3-1.9c1.6-23.1,33.3-28.6,49.9-14.8,10,8.4,12.3,17.7,11.5,26.4a5.827,5.827,0,0,0,2.9,5.8l-4.3,1.8c-1.7,6.4-4.5,12.3-6.1,16.9-.7,2-4.3-6.2-6-7.1-.2-.1-1.8,2.1-2.8,3.5a1.344,1.344,0,0,1-2.4-.3,35.313,35.313,0,0,1-1.5-12.1l.2-3.7c-8.1-1.2-11.2-8.9-11.2-8.9-8,8.9-21.4,7.9-26.8,7.1a2.21,2.21,0,0,0-2.5,2.1l-.6,13.9a27,27,0,0,1-4.1-5.4l-3.7,2.6Z" fill="#21252b"/>
                                <path id="Path_2624" data-name="Path 2624" d="M1052.7,361.9s10.5,1.7,13.6-8.5c3.1-10.3-9.7-13.3-12.4-2.9l-2.4,11.4Z" fill="#966363"/>
                                <path id="Path_2625" data-name="Path 2625" d="M1063.5,347.6a4.1,4.1,0,0,0-3.1-1.1,3.872,3.872,0,0,0-2.7,1.8,7.791,7.791,0,0,0-1.5,4l-.1,1.1c-.1.8,1.3,1.2,1.4.2l.2-1.2a7.385,7.385,0,0,1,1.2-3.3,2.352,2.352,0,0,1,3.9-.5.769.769,0,0,0,1-.1A.806.806,0,0,0,1063.5,347.6Z" opacity="0.3"/>
                                <path id="Path_2626" data-name="Path 2626" d="M1002.1,349.7a9.679,9.679,0,1,0,18.3-3.6,8.272,8.272,0,0,1,4.8.1,10.892,10.892,0,0,0-.8,3.1,9.679,9.679,0,1,0,10.4-8.9,9.566,9.566,0,0,0-9,4.6,8.912,8.912,0,0,0-6-.1,9.706,9.706,0,0,0-17.7,4.8Zm23.4-.3a8.375,8.375,0,1,1,7.7,9A8.386,8.386,0,0,1,1025.5,349.4Zm-22.1.4a8.375,8.375,0,1,1,7.7,9A8.386,8.386,0,0,1,1003.4,349.8Z" fill="#fff"/>
                                <path id="Path_2627" data-name="Path 2627" d="M1055.9,360.5a2.1,2.1,0,1,0-2.1-2.1A2.1,2.1,0,0,0,1055.9,360.5Z" fill="#dc3545"/>
                                <path id="Path_2628" data-name="Path 2628" d="M1055,360.2a2.273,2.273,0,0,0,2.5-2.1,2.375,2.375,0,0,0-.3-1.2,2.342,2.342,0,0,1,.8,1.8,2.061,2.061,0,0,1-2.3,1.9,1.845,1.845,0,0,1-1.2-.5A.749.749,0,0,1,1055,360.2Z" opacity="0.15"/>
                                <path id="Path_2629" data-name="Path 2629" d="M1014.2,336c9.4.3,15.8-2.6,19.5-5.2a20.222,20.222,0,0,0,6-5.7.652.652,0,1,0-1.1-.7c-.1.1-7.2,10.8-24.4,10.3a.645.645,0,0,0-.6.6A.858.858,0,0,0,1014.2,336Z" fill="#21252b"/>
                                <path id="Path_2630" data-name="Path 2630" d="M1054.8,362h-3.4l3.6,7.2Z" opacity="0.15"/>
                                <path id="Path_2631" data-name="Path 2631" d="M1018.5,378.1a24.58,24.58,0,0,0,11.4,3.1h2.7a3.4,3.4,0,0,0,1-.1h.2c.5-.1,1-.1,1.6-.2.2,0,.4-.1.6-.1a22.98,22.98,0,0,0,7.8-2.8.652.652,0,0,1,.7,1.1,25.315,25.315,0,0,1-10.2,3.3,19.731,19.731,0,0,1-11.7,4,20.74,20.74,0,0,1-5-.6Z" opacity="0.15"/>
                                <path id="Path_2632" data-name="Path 2632" d="M1020.1,365.6a.441.441,0,0,0-.4.6,6.878,6.878,0,0,0,12.4,0c.1-.3,0-.6-.4-.6Z" fill="#fff"/>
                                <path id="Path_2633" data-name="Path 2633" d="M894.4,482.7l4.8.1-4.4,22.7-4.5-.9Z" opacity="0.6"/>
                                <path id="Path_2634" data-name="Path 2634" d="M1113.4,518.8l-4.4.8-17.9-45.4-1.5-3.8c1.4-6.5,3.2-15,4.4-20.1a1.186,1.186,0,0,1,2.3-.1l20,63.6A3.745,3.745,0,0,1,1113.4,518.8Z" opacity="0.15"/>
                                <path id="Path_2635" data-name="Path 2635" d="M976.1,485.6c-7.9-9.2-9.2-18.3-6.2-29.7l3.2-11.8,2.7-12.7v-.2c0-.2-.2-.4-.5-.5a.657.657,0,0,0-.8.5l-3.3,15-1.6,5.1s-12.9,18.4-8.9,32.4c1.5,5.1,2.4,8.5-.7,12.8l-5.7,8.3c-5.1,4.7-12.7,3.5-12.7,3.5l-50.5-8.2-.9,4.7L937,514h-.2l5,.9a22.089,22.089,0,0,0,19.6-6.2,18.843,18.843,0,0,0,2.2-2.6l13.5-19A5.6,5.6,0,0,0,976.1,485.6Z" opacity="0.15"/>
                                <path id="Path_2636" data-name="Path 2636" d="M1165.3,617.2a7.49,7.49,0,0,1-7.5,7.5H373.1a7.5,7.5,0,0,1,0-15h784.8A7.469,7.469,0,0,1,1165.3,617.2Z" fill="#61656d"/>
                                <path id="Path_2637" data-name="Path 2637" d="M1165.3,617.2a7.49,7.49,0,0,1-7.5,7.5H373.1a7.5,7.5,0,0,1,0-15h784.8A7.469,7.469,0,0,1,1165.3,617.2Z" opacity="0.5"/>
                                <path id="Path_2638" data-name="Path 2638" d="M1224.2,617.2a7.49,7.49,0,0,1-7.5,7.5H516.1a7.5,7.5,0,0,1,0-15h700.6A7.555,7.555,0,0,1,1224.2,617.2Z" fill="#61656d"/>
                                <path id="Path_2639" data-name="Path 2639" d="M953.8,271.4H863.7V386.1h90.1Z" fill="#fff"/>
                                <path id="Path_2640" data-name="Path 2640" d="M941.7,283h-66v91.6h66Z" fill="#ddd"/>
                                <path id="Path_2641" data-name="Path 2641" d="M861.076,386.139h2.6v-114.7h-2.6Z" fill="#dadddf"/>
                                <path id="Path_2642" data-name="Path 2642" d="M919.7,341.3A14.3,14.3,0,1,0,905.4,327,14.3,14.3,0,0,0,919.7,341.3Z" fill="#dc3545"/>
                                <path id="Path_2643" data-name="Path 2643" d="M881.5,364.7l14.9-23.4,14.9,23.1Z" opacity="0.2"/>
                                <path id="Path_2644" data-name="Path 2644" d="M916.4,292.9H885.5v30.9h30.9Z" opacity="0.2"/>
                                <path id="Path_2645" data-name="Path 2645" d="M959.9,607.7l3.5-44.5H931.7l2.7,44.5a2.187,2.187,0,0,0,2.2,2h21.1A2.261,2.261,0,0,0,959.9,607.7Z" fill="#fff"/>
                                <path id="Path_2646" data-name="Path 2646" d="M963.4,559.4h-3.5l-1.6-4.1a.622.622,0,0,0-.6-.4H936.5a.675.675,0,0,0-.6.4l-1.6,4.1h-2.7a.683.683,0,0,0-.7.7v2.5a.684.684,0,0,0,.7.7h32a.684.684,0,0,0,.7-.7v-2.5A1.068,1.068,0,0,0,963.4,559.4Z" fill="#dc3545"/>
                                <path id="Path_2647" data-name="Path 2647" d="M963.4,559.4h-3.5l-1.6-4.1a.622.622,0,0,0-.6-.4H936.5a.675.675,0,0,0-.6.4l-1.6,4.1h-2.7a.683.683,0,0,0-.7.7v2.5a.684.684,0,0,0,.7.7h32a.684.684,0,0,0,.7-.7v-2.5A1.068,1.068,0,0,0,963.4,559.4Z" fill="#fff" opacity="0.2"/>
                                <path id="Path_2648" data-name="Path 2648" d="M959.6,558.6H942l1.3-3.7h-6.8a.675.675,0,0,0-.6.4l-1.6,4.1h-2.7a.683.683,0,0,0-.7.7v2.5a.684.684,0,0,0,.7.7h5.7c.5-1.4,1.1-3.1,1.1-3.1a.875.875,0,0,1,.9-.6H960Z" opacity="0.15"/>
                                <path id="Path_2649" data-name="Path 2649" d="M963.3,564.3l.1-1.1H931.7l2.7,44.5a2.187,2.187,0,0,0,2.2,2h1.5l1.1-43.8Z" opacity="0.15"/>
                                <path id="Path_2650" data-name="Path 2650" d="M938,584a9.005,9.005,0,0,1,18,0" fill="#dc3545"/>
                                <path id="Path_2651" data-name="Path 2651" d="M961.5,586.5H933.1l.5,8.7h27.2Z" fill="#dc3545"/>
                                <path id="Path_2652" data-name="Path 2652" d="M1338.2,1048.9H240.4a.8.8,0,1,1,0-1.6H1338.3a.789.789,0,0,1,.8.8A.817.817,0,0,1,1338.2,1048.9Z" fill="#b2b6bb"/>
                            </g>
                        </svg>