<svg id="Layer_1" data-name="Layer 1" xmlns="http://www.w3.org/2000/svg" xmlns:xlink="http://www.w3.org/1999/xlink" viewBox="0 0 224.79 441.2">
  <defs>
    <style>
      .cls-1 {
        fill: #b0dfff;
      }

      .cls-2 {
        fill: #74b4d1;
      }

      .cls-3 {
        fill: #bde4f9;
      }

      .cls-4 {
        fill: #9ccde2;
      }

      .cls-5 {
        fill: url(#linear-gradient);
      }

      .cls-6 {
        fill: url(#linear-gradient-2);
      }

      .cls-7 {
        fill: url(#linear-gradient-3);
      }

      .cls-8 {
        fill: #92cbea;
      }

      .cls-9 {
        fill: #65abc4;
      }

      .cls-10 {
        fill: #9bceea;
      }

      .cls-11 {
        fill: url(#linear-gradient-4);
      }

      .cls-12 {
        fill: url(#linear-gradient-5);
      }

      .cls-13 {
        fill: #1b2166;
      }

      .cls-14 {
        fill: url(#linear-gradient-6);
      }

      .cls-15 {
        fill: url(#linear-gradient-7);
      }

      .cls-16 {
        fill: url(#linear-gradient-8);
      }

      .cls-17 {
        fill: url(#linear-gradient-9);
      }

      .cls-18 {
        fill: url(#linear-gradient-10);
      }

      .cls-19 {
        fill: url(#linear-gradient-11);
      }

      .cls-20 {
        fill: url(#linear-gradient-12);
      }

      .cls-21 {
        fill: url(#linear-gradient-13);
      }

      .cls-22 {
        fill: url(#linear-gradient-14);
      }

      .cls-23 {
        fill: url(#linear-gradient-15);
      }

      .cls-24 {
        fill: url(#linear-gradient-16);
      }

      .cls-25 {
        fill: url(#linear-gradient-17);
      }

      .cls-26 {
        fill: #80c7e0;
      }

      .cls-27 {
        fill: url(#linear-gradient-18);
      }

      .cls-28 {
        fill: url(#linear-gradient-19);
      }

      .cls-29 {
        fill: url(#linear-gradient-20);
      }

      .cls-30 {
        fill: url(#linear-gradient-21);
      }

      .cls-31 {
        fill: url(#linear-gradient-22);
      }
    </style>
    <linearGradient id="linear-gradient" x1="-1614.82" y1="421.59" x2="-1636.54" y2="422.02" gradientTransform="matrix(-0.96, 0.28, 0.28, 0.96, -1389.78, 371.92)" gradientUnits="userSpaceOnUse">
      <stop offset="0" stop-color="#212562"/>
      <stop offset="0.41" stop-color="#3f389c"/>
      <stop offset="0.57" stop-color="#393ebe"/>
    </linearGradient>
    <linearGradient id="linear-gradient-2" x1="-1653.17" y1="421.26" x2="-1638.18" y2="421.26" xlink:href="#linear-gradient"/>
    <linearGradient id="linear-gradient-3" x1="-1643.77" y1="405.43" x2="-1635.61" y2="426.03" gradientTransform="matrix(-1, 0, 0, 1, -1337.36, -107.96)" xlink:href="#linear-gradient"/>
    <linearGradient id="linear-gradient-4" x1="137.69" y1="21.19" x2="199.64" y2="21.19" gradientTransform="translate(41.98 53.06) rotate(7.48)" xlink:href="#linear-gradient"/>
    <linearGradient id="linear-gradient-5" x1="185.97" y1="9.28" x2="128.5" y2="-24.23" gradientTransform="translate(41.98 53.06) rotate(7.48)" xlink:href="#linear-gradient"/>
    <linearGradient id="linear-gradient-6" x1="225.28" y1="34" x2="282.92" y2="34" gradientTransform="translate(-37.06 168.43) rotate(-13.64)" gradientUnits="userSpaceOnUse">
      <stop offset="0" stop-color="#68ddff"/>
      <stop offset="1" stop-color="#6557fd"/>
    </linearGradient>
    <linearGradient id="linear-gradient-7" x1="151.91" y1="62.91" x2="202.24" y2="41.47" gradientTransform="translate(41.98 53.06) rotate(7.48)" gradientUnits="userSpaceOnUse">
      <stop offset="0" stop-color="#4760e5"/>
      <stop offset="1" stop-color="#3b40fd"/>
    </linearGradient>
    <linearGradient id="linear-gradient-8" x1="446.52" y1="175.42" x2="429.47" y2="144.31" gradientTransform="translate(-205.45 -22.82)" xlink:href="#linear-gradient-7"/>
    <linearGradient id="linear-gradient-9" x1="161.76" y1="56.99" x2="189.56" y2="78.91" gradientTransform="translate(131.88 -29.35) rotate(44.72)" xlink:href="#linear-gradient-7"/>
    <linearGradient id="linear-gradient-10" x1="166.96" y1="202.95" x2="189.76" y2="202.95" gradientTransform="matrix(0.99, -0.1, 0.1, 0.99, -36.2, -19.75)" xlink:href="#linear-gradient-6"/>
    <linearGradient id="linear-gradient-11" x1="169.08" y1="228.12" x2="188.27" y2="228.12" gradientTransform="translate(-35.39 32.56) rotate(-2.4)" xlink:href="#linear-gradient"/>
    <linearGradient id="linear-gradient-12" x1="136.56" y1="31.32" x2="99.98" y2="-28.66" gradientTransform="matrix(0.98, 0.18, -0.2, 0.94, 36.21, 101.39)" xlink:href="#linear-gradient-7"/>
    <linearGradient id="linear-gradient-13" x1="132.46" y1="17.24" x2="105.56" y2="-5.89" gradientTransform="matrix(0.98, 0.18, -0.2, 0.94, 36.21, 101.39)" xlink:href="#linear-gradient"/>
    <linearGradient id="linear-gradient-14" x1="-1680.26" y1="963.74" x2="-1716.83" y2="903.76" gradientTransform="matrix(-0.7, 0.7, 0.7, 0.66, -1578.21, 669.46)" xlink:href="#linear-gradient-7"/>
    <linearGradient id="linear-gradient-15" x1="-1684.36" y1="949.66" x2="-1711.25" y2="926.53" gradientTransform="matrix(-0.7, 0.7, 0.7, 0.66, -1578.21, 669.46)" xlink:href="#linear-gradient"/>
    <linearGradient id="linear-gradient-16" x1="196.07" y1="206.92" x2="277.25" y2="206.92" gradientTransform="matrix(1, 0, 0, 1, 0, 0)" xlink:href="#linear-gradient"/>
    <linearGradient id="linear-gradient-17" x1="198.05" y1="302.01" x2="281.81" y2="302.01" gradientTransform="matrix(0.97, -0.23, 0.23, 0.97, -64.43, -19.19)" xlink:href="#linear-gradient"/>
    <linearGradient id="linear-gradient-18" x1="204.11" y1="367.58" x2="182.39" y2="368.01" gradientTransform="matrix(0.99, -0.14, 0.14, 0.99, -5.95, -10.05)" xlink:href="#linear-gradient"/>
    <linearGradient id="linear-gradient-19" x1="165.76" y1="367.25" x2="180.75" y2="367.25" gradientTransform="matrix(0.99, -0.14, 0.14, 0.99, -5.95, -10.05)" xlink:href="#linear-gradient"/>
    <linearGradient id="linear-gradient-20" x1="175.17" y1="351.42" x2="183.32" y2="372.02" gradientTransform="translate(42.48 -38.24)" xlink:href="#linear-gradient"/>
    <linearGradient id="linear-gradient-21" x1="300.17" y1="228.37" x2="324.6" y2="228.37" gradientTransform="matrix(0.97, -0.23, 0.23, 0.97, -64.43, -19.19)" xlink:href="#linear-gradient-6"/>
    <linearGradient id="linear-gradient-22" x1="-834.61" y1="401.55" x2="-816.05" y2="401.55" gradientTransform="matrix(0.98, 0.19, 0.19, -0.98, 1057.88, 641.35)" xlink:href="#linear-gradient"/>
  </defs>
  <title>astronaut</title>
  <g>
    <path class="cls-1" d="M333.75,57.17c.84-1,2.67-1.42,3.17.48s-2.12,9.87-3.27,13.1a1.52,1.52,0,0,0-.12.81.5.5,0,0,0,.62.38.7.7,0,0,0,.31-.4c.93-2,3.28-5.49,4.27-6.16s1.95,0,1.88.84c-.12,1.54-3.34,9.53-4.28,11.78q-2.83,6.73-5.76,13.44a1,1,0,0,1-.19.32c-.24.22-.62.13-.93,0a36.86,36.86,0,0,0-6.81-1.37c-2.49-.26-4.86-.52-7.31-.9a25,25,0,0,0-.57-7.78c-1.15-4-4.28-7.25-7.89-9.37-.33-.19-.7-.45-.72-.83s.34-.66.67-.84a6.88,6.88,0,0,1,3.69-.82,9.91,9.91,0,0,1,3.41,1.44,3.16,3.16,0,0,0,1.84.52c1.71-.22,1.46-3.22,1.43-4.4-.08-2.91-.07-5.83,0-8.74a11.12,11.12,0,0,1,.53-3.39,1.64,1.64,0,0,1,2.44-.51c.88.63,1,1.85,1.1,2.93l.27,3.81a31.91,31.91,0,0,0,.51,3.23,1.93,1.93,0,0,0,.34.92.67.67,0,0,0,.88.18l1.05-9.62a6.5,6.5,0,0,1,.93-3.23,2,2,0,0,1,3.7.49,6.2,6.2,0,0,1,.27,2.35c0,1.14-1.46,10.26-.29,10.62C329.73,66.73,331.69,59.59,333.75,57.17Z" transform="translate(-136.64 -14.8)"/>
    <path class="cls-1" d="M225,424.24c-1.1,1-1.64.33-1.94,2.72-.37,2.86-3.05,6.21-5.07,8.28a50.25,50.25,0,0,0-6,7.24c-2.57,4-.52,12,3.37,13.18,3.54,1,15.75-.57,15.75-.57s1.48-1.58,4-3.81c2.88-2.56,3.84-6.61,4.64-10.38,1.11-5.22,2.28-17.8,2.28-17.8S225.9,423.36,225,424.24Z" transform="translate(-136.64 -14.8)"/>
    <path class="cls-2" d="M228.73,453.89c3.61,5.49,11.21-9,12.85-11.85a19.93,19.93,0,0,0,2-4.45c1.29-4.61-1-9.89-1.68-14.49-4.44,6.65-10.55,14.3-13.51,20.76C226.47,448.16,228.39,453.37,228.73,453.89Z" transform="translate(-136.64 -14.8)"/>
    <path class="cls-1" d="M338.05,400.46c1.42.48,1.63-.37,2.89,1.68,1.51,2.46,5.33,4.42,8,5.48a50.6,50.6,0,0,1,8.47,4.12c4,2.59,5.42,10.78,2.34,13.4-2.8,2.38-14.59,5.95-14.59,5.95s-2-.83-5.2-1.83c-3.69-1.16-6.22-4.45-8.5-7.56-3.16-4.31-9.39-15.3-9.39-15.3S336.83,400.05,338.05,400.46Z" transform="translate(-136.64 -14.8)"/>
    <path class="cls-2" d="M346.79,429.05c-1,6.48-13.91-3.6-16.58-5.53a19.58,19.58,0,0,1-3.7-3.21c-3.06-3.68-3.15-9.44-4.42-13.91,6.78,4.24,15.49,8.7,20.85,13.38C346.5,422.9,346.89,428.44,346.79,429.05Z" transform="translate(-136.64 -14.8)"/>
    <path class="cls-1" d="M291.31,349.63c6.32,18.3,30.77,56.78,30.77,56.78s3.8,1,9.84-.7a36.87,36.87,0,0,0,8.65-4.1l-1.67-6.34-23.41-80.69-13.83,1.57-19.58,2.22A297.86,297.86,0,0,0,291.31,349.63Z" transform="translate(-136.64 -14.8)"/>
    <path class="cls-3" d="M280.7,313.59c-4.76-1.69-26.13-45.74-30.6-59-.22-.65,2.85-10.34,22.47-21.89,8.81-5.19,14.89-7.31,15.18-6.81,8.29,14.34,24.88,77,24.7,79.7C312.08,311,290.9,317.21,280.7,313.59Z" transform="translate(-136.64 -14.8)"/>
    <path class="cls-4" d="M291.31,349.63c6.32,18.3,30.77,56.78,30.77,56.78s3.8,1,9.84-.7a36.87,36.87,0,0,0,8.65-4.1l-1.67-6.34c-2.36.65-9.14,2.44-12.6,2.4-4.22,0-9.83-12.25-17.42-28.38s-13-31-12-35.05,8.72-7.41,8.72-7.41l-3.92-10.68-19.58,2.22A297.86,297.86,0,0,0,291.31,349.63Z" transform="translate(-136.64 -14.8)"/>
    <path class="cls-5" d="M283.13,323.36c1.41,1.06,5.43.31,11.64,3.77a42.9,42.9,0,0,1-4.94-10.61c-.55-1.86-2.08-9.74-1.66-10.94-3,4.48-8.16,6.49-9.33,6.36C279.14,315.31,282,322.53,283.13,323.36Z" transform="translate(-136.64 -14.8)"/>
    <path class="cls-6" d="M316.15,314.82c-.08.23-.36.33-.55.49-1.66,1.39-2.67,4-4,5.6-3.26-5.17-4.09-14.76-6.74-20.26a22,22,0,0,0,6.36,2.51c.36.07,1.32-.08,1.54.21C313.86,304.69,316.58,313.53,316.15,314.82Z" transform="translate(-136.64 -14.8)"/>
    <ellipse class="cls-7" cx="299.92" cy="313.67" rx="13.16" ry="15.92" transform="translate(-213.06 82.74) rotate(-16.42)"/>
    <path class="cls-1" d="M246.68,358.7C248.44,378,242,423.1,242,423.1s-3.06,2.48-9.26,3.41a36.9,36.9,0,0,1-9.57-.19L222,419.86l-11.81-83.19,13.26-4.25,18.77-6A299.42,299.42,0,0,1,246.68,358.7Z" transform="translate(-136.64 -14.8)"/>
    <path class="cls-3" d="M241.55,321.48c3.65-3.49,5.5-51.93,4.13-65.84-.07-.69-7.3-8.77-29.93-11.25-10.17-1.11-16.63-.68-16.69-.09-1.67,16.47,9,80.52,10.26,82.93C211.9,332,233.74,329,241.55,321.48Z" transform="translate(-136.64 -14.8)"/>
    <path class="cls-8" d="M284.14,147.11c2.13,13.57,2.78,25.06.94,32a11.42,11.42,0,0,1-3.83,5.28c-15.85,13.8-74.22,27.55-93.73,24.78a11.36,11.36,0,0,1-5.19-1.74c-6.62-5.1-13.29-17.78-19.42-33.69-1-2.63-2-5.35-3-8.13-15-42.58-25.84-101.1-22.75-105.26,2.59-3.49,9.05-7.18,17.67-10.71l1-.39c3.63-1.46,7.63-2.89,11.86-4.26,2.53-.82,5.15-1.62,7.83-2.39a329.12,329.12,0,0,1,34.66-8c2.94-.51,5.82-1,8.61-1.36,4-.56,7.85-1,11.4-1.29h.08c10-.81,17.75-.43,21.13,1.59,2,1.22,15.41,39.09,25,76.8C279.57,123.09,282.36,135.82,284.14,147.11Z" transform="translate(-136.64 -14.8)"/>
    <path class="cls-9" d="M284.14,147.11a14.1,14.1,0,0,1-4.71-2c-2.7-1.74-5.32-4-8.6-4.22,1.72,14.9,3.57,30.22,10.42,43.52-15.85,13.8-74.22,27.55-93.73,24.78a238.89,238.89,0,0,0-10.9-37.88c-.9-2.39-2.91-5.27-5.46-4.4-1.22.41-2,1.58-2.74,2.57a14.79,14.79,0,0,1-5.51,4.28c-1-2.63-2-5.35-3-8.13-1-8.67-2.54-17.58-5.77-25.31-3.92-9.42-5.36-19.08-2.57-29.25,1.28-4.66,5.63-10.08,7.64-14.46,1.44-3.13,1-7.38-2.33-9.61-6.67-4.45-8.73-12.73-8.52-20.58.14-5.24,4.2-7.57,5.67-12.54a24.53,24.53,0,0,0,.8-4.22l1-.39c3.63-1.46,7.63-2.89,11.86-4.26,2.53-.82,5.15-1.62,7.83-2.39a329.12,329.12,0,0,1,34.66-8c2.94-.51,5.82-1,8.61-1.36,4-.56,7.85-1,11.4-1.29h.08c.19.08.43.1.57.25,6,6.5,10.91,7.18,12.67,13.1,2.7,9.05,3,13.82.6,18.64-.79,1.56-5.07,9.51.24,14.21,3.83,3.39,10.13,1,15.22,2.28a12.94,12.94,0,0,1,4.69,2.19c6.92,5.17,7.87,16.8,10.54,24,.46,1.25,1,2.47,1.56,3.67C279.57,123.09,282.36,135.82,284.14,147.11Z" transform="translate(-136.64 -14.8)"/>
    <path class="cls-10" d="M267.31,159.8a8,8,0,0,0-1-1c-2.16-1.78-5.27-1.53-7.91-1.32a131,131,0,0,0-17.88,3.07c-5.45,1.19-10.93,2.4-16.29,3.91-5.52.84-11,2-16.46,3.15a133.07,133.07,0,0,0-17.55,4.58c-3.15,1.14-5.77,2.63-6.88,6a4.34,4.34,0,0,0,.59,4.19c.68.77,1.76,1.28,2,2.27.21.76-.15,1.57,0,2.35.22,1.4,1.83,2.1,2.57,3.32s.47,3.09,1.25,4.42c.58,1,1.67,1.55,2.35,2.46,1.22,1.62.88,3.86.91,5.89a15.44,15.44,0,0,0,5.73,11.52C196.4,217,274.56,199.18,271.45,198c1.41-2.78-.28-5.32-.19-8.17.08-2.51.9-5.41-.65-7.65-.33-.49-.76-.9-1.05-1.41-.9-1.57-.27-3.53-.38-5.34-.13-2.2-1.4-4.28-1.16-6.47a31.59,31.59,0,0,1,.87-3.31A7,7,0,0,0,267.31,159.8Z" transform="translate(-136.64 -14.8)"/>
    <path class="cls-3" d="M267.36,96.83a13.56,13.56,0,0,0-10.57-8.4c-4.45-.76-18-.62-18-.62h0a116,116,0,0,1-14.61,12.29,40.4,40.4,0,0,1-11.66,4.94l-.22-.13s-.45.16-1.25.4-1.3.15-1.3.15l-.14.2a40.16,40.16,0,0,1-12.67.32c-2.24-.38-4.55-.91-6.74-1.49a20.34,20.34,0,0,1,.25,2.56,122,122,0,0,1-16.11-4.15s-12,6.43-15.89,8.57c0,0-2.4,3-2.22,9.34.21,7.64,2.75,15.7,5.51,22.76,5.2,13.32,16.32,34.93,23.28,40.83,5.72,4.85,15.42,5.93,17.67,5.45,4.14-.89,16.23-11,23.89-12.61,7.43-1.61,23.42,2.4,26.95,1.64,2.25-.49,10.64-5.48,13.85-12.26,3.91-8.24,5.13-32.51,4.37-46.79C271.32,112.27,270.31,103.88,267.36,96.83Z" transform="translate(-136.64 -14.8)"/>
    <path class="cls-11" d="M175.91,99.09l-1.6,3.82s15.5,10.46,34.4,6,30.06-21.13,30.06-21.13l-4.1-3.45a49.49,49.49,0,0,1-27.29,16.94C189.24,105.55,175.91,99.09,175.91,99.09Z" transform="translate(-136.64 -14.8)"/>
    <path class="cls-1" d="M240.32,43.29c-.51-.7-5.12-2-6.65-2.44C228.34,23.64,217,9.53,186.37,16.71c-29.19,6.85-32.13,25.81-30,42.11-.83.73-5,4.42-5.1,5.34a22.22,22.22,0,0,0,.91,9.16c1.23,4.14,3.49,7.63,4.52,7.91,1.35.38,4.62,1.22,6.18,1.63a61.15,61.15,0,0,0,3.9,7.83s13.61,19.68,40.72,13.33,31.65-30.29,31.65-30.29a70.72,70.72,0,0,0-.52-8.86c1.31-1.13,3.49-3,4.43-3.87s1.28-4.85.54-9.1A22.31,22.31,0,0,0,240.32,43.29Z" transform="translate(-136.64 -14.8)"/>
    <path class="cls-2" d="M152.16,65c-1,.22.2,6,1.28,9s2.8,6.16,3.32,6.42.51-3-.73-7.63S153,64.76,152.16,65Z" transform="translate(-136.64 -14.8)"/>
    <path class="cls-2" d="M190.49,29.22c-21.49,5-31.39,22.55-25.65,47,6.29,26.87,31.61,25.82,42.14,23.35,10.35-2.42,33.49-13.53,27.38-39.63C228.62,35.48,213.46,23.84,190.49,29.22Z" transform="translate(-136.64 -14.8)"/>
    <path class="cls-2" d="M239.66,44.45c1-.27,2.49,5.47,2.86,8.64s.22,6.77-.13,7.23-1.79-2.46-2.74-7.16S238.79,44.67,239.66,44.45Z" transform="translate(-136.64 -14.8)"/>
    <path class="cls-12" d="M217.08,92.13a47.38,47.38,0,0,1-5.9,2.65,42.5,42.5,0,0,1-5,1.52c-1.05.24-2.25.47-3.57.66q-.84.12-1.74.21c-1.36.14-2.81.24-4.32.26a37.77,37.77,0,0,1-15.31-2.77,25.25,25.25,0,0,1-7.73-5.13A27,27,0,0,1,166.28,76c-.24-1-.44-2-.61-3-3.51-20.71,8.7-33.35,23.5-37.63.68-.2,1.36-.38,2.05-.54l.94-.22.17,0a39.63,39.63,0,0,1,8.73-1.06A34.52,34.52,0,0,1,211.27,35,30.23,30.23,0,0,1,215,36.37c.89.41,1.77.86,2.62,1.36a29.19,29.19,0,0,1,7.89,6.77A38.59,38.59,0,0,1,233,60.38C236.86,77,226.81,86.92,217.08,92.13Z" transform="translate(-136.64 -14.8)"/>
    <path class="cls-13" d="M190.06,40.42a24.64,24.64,0,0,0-6.87,3.13c-10.71,7.06-18.7,27.74-8.79,38.42a16.37,16.37,0,0,0,13.17,4.83c14.12-1.08,21.63-17,22.94-29.48.58-5.55-1.23-12.62-6.29-15.57C199.93,39.25,194.79,39.1,190.06,40.42Z" transform="translate(-136.64 -14.8)"/>
    <path class="cls-14" d="M239.13,118.71l-26.88,6.52-.32-1.3a2.77,2.77,0,0,0-3.36-2.05l-2.94.71a2.78,2.78,0,0,0-2,3.37l.31,1.3-2.82.68-.32-1.3a2.79,2.79,0,0,0-3.37-2l-2.93.71a2.79,2.79,0,0,0-2.06,3.37l.32,1.3-4.18,1a2.8,2.8,0,0,0-2.05,3.37l7.76,32a2.79,2.79,0,0,0,3.37,2l50.6-12.27a2.79,2.79,0,0,0,2.06-3.37l-7.77-32A2.78,2.78,0,0,0,239.13,118.71Z" transform="translate(-136.64 -14.8)"/>
    <path class="cls-15" d="M187.32,134.8s-.34-2.69,10.43-5.17c11.56-2.66,39.07-9.09,39.07-9.09a8.2,8.2,0,0,1-4.25,3.12C229.94,124.34,187.32,134.8,187.32,134.8Z" transform="translate(-136.64 -14.8)"/>
    <rect class="cls-16" x="230.1" y="129.61" width="9.27" height="22.82" rx="2.16" transform="translate(-162.53 42.19) rotate(-13.13)"/>
    <circle class="cls-17" cx="209.21" cy="145.25" r="6.37" transform="translate(-181.88 141.45) rotate(-37.25)"/>
    <path class="cls-3" d="M159.39,117a21.19,21.19,0,0,1-.08-4.13c-7.72,5.37-21.88,58.65-21.17,75.54.06,1.31,15.93,2.49,17.87,3,7,1.81,8-4,9.92-11.67l6.21-24.86C172.6,153,162.37,143.36,159.39,117Z" transform="translate(-136.64 -14.8)"/>
    <path class="cls-18" d="M165.93,179.75a22.23,22.23,0,0,0-6.65-4.36,32.19,32.19,0,0,0-8.22-2.28l7-24.43a27.27,27.27,0,0,1,8.58,1.95,15.76,15.76,0,0,1,5.53,4.26Z" transform="translate(-136.64 -14.8)"/>
    <path class="cls-1" d="M161.84,188.78c-3.83-2.47-9.59-3-14.17-2.69-3.26.2-9.49,1.27-9.55,1.66-3.18,24,5.41,62.72,5.41,62.72,5.06,1.83,15,1.56,17.8-.91,3-16.76,4.37-44.25,2.22-57.74a5,5,0,0,0-.5-1.75A3.65,3.65,0,0,0,161.84,188.78Z" transform="translate(-136.64 -14.8)"/>
    <path class="cls-4" d="M163.55,191.82a5,5,0,0,0-.5-1.75,3.65,3.65,0,0,0-1.21-1.29c-3.83-2.47-9.59-3-14.17-2.69-3.26.2-9.49,1.27-9.55,1.66-.15,1.15-.27,2.33-.38,3.54a10,10,0,0,1,5.85-.54c4.37.91,10.07,2.36,12.66,6.52,3.32,5.33.66,44-.09,46-1,2.75-11.94,5.39-13,5.45.24,1.15.38,1.78.38,1.78,5.06,1.83,15,1.56,17.8-.91C164.31,232.8,165.7,205.31,163.55,191.82Z" transform="translate(-136.64 -14.8)"/>
    <path class="cls-2" d="M197.69,229.49a172.13,172.13,0,0,0,1.48,17.17c24.91-3.53,46.51,9,46.51,9l4.42-1s13.77-20.8,37.65-28.7A178.32,178.32,0,0,0,281.08,209C253.22,215.57,225.53,222.83,197.69,229.49Z" transform="translate(-136.64 -14.8)"/>
    <path class="cls-1" d="M162.82,258.2c-.88-2.44-2.19-4.77-2.47-7.37a74.51,74.51,0,0,0-14.77,2.89,1,1,0,0,0-.55.32,1.1,1.1,0,0,0-.13.47q-.74,6.58-.92,13.21a12,12,0,0,0,.14,2.81A11.71,11.71,0,0,0,145,273a97.89,97.89,0,0,0,6,11.47,4.37,4.37,0,0,0,.62.86,4.8,4.8,0,0,0,1.33.9c1.78.94,3.5.9,5.41,1.31.18-1.86-1.21-3.41-2.06-5-1.22-2.35-1.37-5.14-1.5-7.81-.07-1.5.33-7.73,2.84-4.69,1.33,1.6.93,4.8.9,6.75a13.06,13.06,0,0,0-.08,3.3c.14.46,2.63,3.34,3,2.11q1.37-4.44,2.6-8.94a17.77,17.77,0,0,0,.74-3.83,17.47,17.47,0,0,0-.29-3.53A41.16,41.16,0,0,0,162.82,258.2Z" transform="translate(-136.64 -14.8)"/>
    <path class="cls-19" d="M143.53,250.47a31.58,31.58,0,0,0,8.63.57,33,33,0,0,0,9.17-1.48s2,3.38.19,4.57c-.87.59-5,1.75-9.15,1.92-4.38.18-8.38-.62-8.8-1.06C142.55,253.92,143.53,250.47,143.53,250.47Z" transform="translate(-136.64 -14.8)"/>
    <path class="cls-3" d="M259.06,88.6c10.22,2.15,44.27,29.48,52.35,44.33.63,1.15,8.27,23.35,6.87,24.79-5,5.12-16.09,2.48-35.3-12-6.82-5.14-9.78-7.2-15.82-13.24C265.81,131.09,259.85,89.7,259.06,88.6Z" transform="translate(-136.64 -14.8)"/>
    <path class="cls-20" d="M160.61,108.85s8.22,8.64,8.46,13.72-9.19,25.65-12.52,25.74-14.28-1.27-14.23-1.92,2-21.12,6.67-29.87C152.14,110.64,160.61,108.85,160.61,108.85Z" transform="translate(-136.64 -14.8)"/>
    <path class="cls-21" d="M160.61,108.85s6,8.19,6.25,13.06-8.81,24.59-12,24.67-12.58.43-12.53-.19.8-21.89,5.29-30.28C150.63,110.47,160.61,108.85,160.61,108.85Z" transform="translate(-136.64 -14.8)"/>
    <path class="cls-22" d="M255.41,87.46s-1.85,11.78.85,16.1,22.15,15.87,24.94,14,11-9.16,10.6-9.66S278.17,91.7,269.33,87.17C263.4,84.12,255.41,87.46,255.41,87.46Z" transform="translate(-136.64 -14.8)"/>
    <path class="cls-23" d="M255.41,87.46s-.29,10.16,2.3,14.3,21.22,15.22,23.9,13.46,10.59-6.8,10.19-7.28S278.7,90.39,270.23,86C264.54,83.12,255.41,87.46,255.41,87.46Z" transform="translate(-136.64 -14.8)"/>
    <path class="cls-4" d="M246.68,358.7C248.44,378,242,423.1,242,423.1s-3.06,2.48-9.26,3.41a36.9,36.9,0,0,1-9.57-.19L222,419.86c2.41-.38,9.33-1.54,12.47-3,3.83-1.78,3.93-15.21,4.23-33s-.87-33.63-3.44-36.9-11-3.17-11-3.17l-.82-11.35,18.77-6A299.42,299.42,0,0,1,246.68,358.7Z" transform="translate(-136.64 -14.8)"/>
    <path class="cls-24" d="M271.88,194.13s-15,2.76-20.88.63l-.32-.13c-4.08-6.6-11.22-10.34-20.39-8.19-8.71,2-13.9,8.67-14.63,16.4l-.23.25c-4.34,4.54-19.33,8.82-19.33,8.82s-.42,8.13,1.92,13.24c1.66,3.64,24.94,3.95,41.79,0,17.57-4.12,37.8-14.58,37.44-18.56C276.85,202.25,271.88,194.13,271.88,194.13Z" transform="translate(-136.64 -14.8)"/>
    <path class="cls-25" d="M237.68,218.47a157.66,157.66,0,0,1-38.9,3.71,2.46,2.46,0,0,0-2.46,3.19,15.64,15.64,0,0,0,.68,1.78c1.68,3.63,25.51,3.82,42.78-.23,18-4.22,38.79-14.8,38.43-18.78a12.37,12.37,0,0,0-.68-2.9,1.31,1.31,0,0,0-1.82-.74A183.32,183.32,0,0,1,237.68,218.47Z" transform="translate(-136.64 -14.8)"/>
    <polygon class="cls-1" points="83.41 216.04 71.06 220.85 68.5 209.88 81.09 206.13 83.41 216.04"/>
    <polygon class="cls-1" points="68.5 209.88 53.42 209.7 61.51 207.18 81.09 206.13 68.5 209.88"/>
    <polygon class="cls-26" points="68.5 209.88 71.06 220.85 55.76 219.68 53.42 209.7 68.5 209.88"/>
    <polygon class="cls-1" points="122.99 206.28 136.19 205.11 133.62 194.14 120.67 196.38 122.99 206.28"/>
    <polygon class="cls-1" points="133.62 194.14 147.04 187.28 138.68 188.62 120.67 196.38 133.62 194.14"/>
    <polygon class="cls-26" points="133.62 194.14 136.19 205.11 149.38 197.26 147.04 187.28 133.62 194.14"/>
    <rect class="cls-1" x="231.88" y="217.13" width="12.27" height="11.26" transform="translate(-181.19 45.39) rotate(-13.19)"/>
    <path class="cls-27" d="M243.35,331.38c-.85,1.55-4.82,2.52-9.06,8.22a42.85,42.85,0,0,0,.15-11.7c-.27-1.92-2.11-9.73-3-10.65,4.61,2.83,10.11,2.56,11.12,2C243.68,322.4,244,330.17,243.35,331.38Z" transform="translate(-136.64 -14.8)"/>
    <path class="cls-28" d="M209.74,337.16c.17.18.46.16.7.23,2.08.58,4.07,2.53,5.9,3.47.85-6-2.34-15.13-2.17-21.23a22.13,22.13,0,0,1-4.78,4.9c-.3.21-1.23.46-1.32.82C207.66,327,208.81,336.16,209.74,337.16Z" transform="translate(-136.64 -14.8)"/>
    <ellipse class="cls-29" cx="224.06" cy="329.44" rx="13.16" ry="15.92" transform="translate(-179.47 18.83) rotate(-7.84)"/>
    <path class="cls-30" d="M288,117.34c.56-.13,11.54,8.71,16,12.7-2.78,4.7-4.11,10.14-4.83,15.55-6.32-4.42-20.09-14.07-20.06-14.7C279.24,127.12,285.81,117.84,288,117.34Z" transform="translate(-136.64 -14.8)"/>
    <path class="cls-1" d="M320.36,155.29c-4.23,1.69-10,1.05-14.41-.1-3.17-.83-9.07-3.08-9.05-3.48,1.52-24.13,17.46-60.48,17.46-60.48,5.31-.82,15,1.38,17.28,4.34-.32,17-4.28,44.26-9,57.08a5.41,5.41,0,0,1-.83,1.62A3.62,3.62,0,0,1,320.36,155.29Z" transform="translate(-136.64 -14.8)"/>
    <path class="cls-4" d="M322.25,154.93c-4.05,5.6-12,7.07-16.32,5.61-4.93-1.66-8.29-5.65-9-8.83-.26-1.13-.08-3,.59-5.7,4.54,6.85,16.48,5.43,19.59.79,3.5-5.22,8.62-44,8.27-46-.5-2.9-10.68-7.6-11.71-7.87.46-1.08.72-1.67.72-1.67,5.31-.82,15,1.38,17.28,4.34C332.39,122.89,324.06,152.44,322.25,154.93Z" transform="translate(-136.64 -14.8)"/>
    <path class="cls-31" d="M314,91.9a33.88,33.88,0,0,1,8.75.75,27.17,27.17,0,0,1,8.87,3.1s1.67-3.77.57-4.82c-.75-.73-4.36-2.42-8.49-3.21-4.31-.82-8-.65-8.49-.28C314.07,88.35,314,91.9,314,91.9Z" transform="translate(-136.64 -14.8)"/>
    <path class="cls-10" d="M325.79,73.74l-.88-.49a11.06,11.06,0,0,0-3.55-1.36,12,12,0,0,0-2.32,0c-.43,0-1,.13-1.05.54s.21.65.49.86a20,20,0,0,1,3.14,2.19c1.09,1.21,1.33,2.93,1.69,4.52a4.45,4.45,0,0,0,.9,2.07c1.09,1.19,3.6.75,4.42-.55A3.65,3.65,0,0,0,329.1,80a7.39,7.39,0,0,0-2.2-5.41A7.64,7.64,0,0,0,325.79,73.74Z" transform="translate(-136.64 -14.8)"/>
  </g>
</svg>
