<svg id="Layer_1" data-name="Layer 1" xmlns="http://www.w3.org/2000/svg" xmlns:xlink="http://www.w3.org/1999/xlink" viewBox="0 0 513.49 409.02">
  <defs>
    <style>
      .cls-1 {
        fill: #c1d4f1;
      }

      .cls-2 {
        fill: url(#linear-gradient);
      }

      .cls-3 {
        fill: url(#linear-gradient-2);
      }

      .cls-4 {
        fill: url(#linear-gradient-3);
      }

      .cls-5 {
        fill: url(#linear-gradient-4);
      }

      .cls-6 {
        fill: #2a0446;
      }

      .cls-7 {
        fill: url(#linear-gradient-5);
      }
    </style>
    <linearGradient id="linear-gradient" x1="121.7" y1="137.31" x2="-18.3" y2="137.31" gradientTransform="translate(4.35 -6.95) rotate(0.92)" gradientUnits="userSpaceOnUse">
      <stop offset="0" stop-color="#212562"/>
      <stop offset="0.41" stop-color="#3f389c"/>
      <stop offset="0.57" stop-color="#393ebe"/>
    </linearGradient>
    <linearGradient id="linear-gradient-2" x1="131.22" y1="286.26" x2="-4.4" y2="302.26" xlink:href="#linear-gradient"/>
    <linearGradient id="linear-gradient-3" x1="293.5" y1="214.22" x2="7.78" y2="216.51" gradientTransform="translate(4.35 -6.95) rotate(0.92)" gradientUnits="userSpaceOnUse">
      <stop offset="0" stop-color="#fbf"/>
      <stop offset="1" stop-color="#78ceff"/>
    </linearGradient>
    <linearGradient id="linear-gradient-4" x1="392.02" y1="631.78" x2="513.88" y2="706.44" gradientTransform="translate(853.89 -230.45) rotate(90.19)" xlink:href="#linear-gradient"/>
    <linearGradient id="linear-gradient-5" x1="124.39" y1="214.67" x2="-12" y2="216.96" xlink:href="#linear-gradient"/>
  </defs>
  <title>blue-rocket-stars</title>
  <path class="cls-1" d="M400.69,232.28s-10.25,1-14.42,5.08c-3.6,3.57-4.16,13.3-4.16,13.3s-.48-8.81-4-13.35-14.36-5.23-14.36-5.23,10-.45,14.42-4.55c3.35-3.14,4.16-13.83,4.16-13.83s.76,10.66,4.11,13.87C390.79,231.77,400.69,232.28,400.69,232.28Z" transform="translate(42.17 -5.64)"/>
  <path class="cls-1" d="M471.32,171.47s-10.26,1-14.43,5.08c-3.6,3.56-4.16,13.3-4.16,13.3s-.47-8.81-4-13.35-14.37-5.24-14.37-5.24,10-.45,14.42-4.55c3.35-3.13,4.17-13.83,4.17-13.83s.76,10.67,4.1,13.88C461.41,171,471.32,171.47,471.32,171.47Z" transform="translate(42.17 -5.64)"/>
  <path class="cls-1" d="M388.45,151.62s-17.09,1.6-24,8.47c-6,5.95-6.94,22.17-6.94,22.17s-.8-14.68-6.69-22.25-23.95-8.73-23.95-8.73,16.73-.75,24-7.58c5.58-5.23,6.94-23.06,6.94-23.06s1.27,17.78,6.84,23.13C371.94,150.78,388.45,151.62,388.45,151.62Z" transform="translate(42.17 -5.64)"/>
  <path class="cls-1" d="M31.69,396.28s-10.25,1-14.42,5.08c-3.6,3.57-4.16,13.3-4.16,13.3s-.48-8.81-4-13.35-14.36-5.23-14.36-5.23,10-.45,14.42-4.55c3.35-3.14,4.16-13.83,4.16-13.83s.76,10.66,4.11,13.87C21.79,395.77,31.69,396.28,31.69,396.28Z" transform="translate(42.17 -5.64)"/>
  <path class="cls-1" d="M102.32,335.47s-10.26,1-14.43,5.08c-3.6,3.56-4.16,13.3-4.16,13.3s-.47-8.81-4-13.35-14.37-5.24-14.37-5.24,10-.45,14.42-4.55c3.35-3.13,4.17-13.83,4.17-13.83s.76,10.67,4.1,13.88C92.41,335,102.32,335.47,102.32,335.47Z" transform="translate(42.17 -5.64)"/>
  <path class="cls-1" d="M19.45,315.62s-17.09,1.6-24,8.47c-6,6-6.94,22.17-6.94,22.17s-.8-14.68-6.69-22.25-24-8.73-24-8.73,16.73-.75,24-7.58c5.58-5.23,6.94-23.06,6.94-23.06s1.27,17.78,6.84,23.13C2.94,314.78,19.45,315.62,19.45,315.62Z" transform="translate(42.17 -5.64)"/>
  <path class="cls-1" d="M186.69,117.28s-10.25,1-14.42,5.08c-3.6,3.57-4.16,13.3-4.16,13.3s-.48-8.81-4-13.35-14.36-5.23-14.36-5.23,10-.45,14.42-4.55c3.35-3.14,4.16-13.83,4.16-13.83s.76,10.66,4.11,13.87C176.79,116.77,186.69,117.28,186.69,117.28Z" transform="translate(42.17 -5.64)"/>
  <path class="cls-1" d="M257.32,56.47s-10.26,1-14.43,5.08c-3.6,3.56-4.16,13.3-4.16,13.3s-.47-8.81-4-13.35-14.37-5.24-14.37-5.24,10-.45,14.42-4.55c3.35-3.13,4.17-13.83,4.17-13.83s.76,10.67,4.1,13.88C247.41,56,257.32,56.47,257.32,56.47Z" transform="translate(42.17 -5.64)"/>
  <path class="cls-1" d="M174.45,36.62s-17.09,1.6-24,8.47c-6,5.95-6.94,22.17-6.94,22.17s-.8-14.68-6.69-22.25-24-8.73-24-8.73,16.73-.75,24-7.58c5.58-5.23,6.94-23.06,6.94-23.06s1.27,17.78,6.84,23.13C157.94,35.78,174.45,36.62,174.45,36.62Z" transform="translate(42.17 -5.64)"/>
  <path class="cls-1" d="M291.69,368.28s-10.25,1-14.42,5.08c-3.6,3.57-4.16,13.3-4.16,13.3s-.48-8.81-4-13.35-14.36-5.23-14.36-5.23,10-.45,14.42-4.55c3.35-3.14,4.16-13.83,4.16-13.83s.76,10.66,4.11,13.87C281.79,367.77,291.69,368.28,291.69,368.28Z" transform="translate(42.17 -5.64)"/>
  <path class="cls-1" d="M362.32,307.47s-10.26,1-14.43,5.08c-3.6,3.56-4.16,13.3-4.16,13.3s-.47-8.81-4-13.35-14.37-5.24-14.37-5.24,10-.45,14.42-4.55c3.35-3.13,4.17-13.83,4.17-13.83s.76,10.67,4.1,13.88C352.41,307,362.32,307.47,362.32,307.47Z" transform="translate(42.17 -5.64)"/>
  <path class="cls-1" d="M279.45,287.62s-17.09,1.6-24,8.47c-6,6-6.94,22.17-6.94,22.17s-.8-14.68-6.69-22.25-23.95-8.73-23.95-8.73,16.73-.75,24-7.58c5.58-5.23,6.94-23.06,6.94-23.06s1.27,17.78,6.84,23.13C262.94,286.78,279.45,287.62,279.45,287.62Z" transform="translate(42.17 -5.64)"/>
  <g>
    <path class="cls-2" d="M124.72,143S92.54,79.27,13.38,115.45c-3.66,1.67-3.22,7.29.66,8.24,7.79,1.9,17.92,5.54,26.81,12.46a57.19,57.19,0,0,1,17.1,22Z" transform="translate(42.17 -5.64)"/>
    <path class="cls-3" d="M124.28,277.22S91.67,340.78,12.75,304.07c-3.64-1.7-3.17-7.32.72-8.24,7.8-1.85,18-5.42,26.89-12.28A57.06,57.06,0,0,0,57.6,261.64Z" transform="translate(42.17 -5.64)"/>
    <path class="cls-4" d="M107.46,278.66c87.05.29,183-54.27,183.07-67.57,0-12.2-95.57-68.49-182.62-68.78-15.75-.05-54.95,10-73.9,22.76l-.3,90.34C52.14,267.77,91.71,278.6,107.46,278.66Z" transform="translate(42.17 -5.64)"/>
    <path class="cls-5" d="M189.22,247.17A36.69,36.69,0,1,1,226,210.6,36.7,36.7,0,0,1,189.22,247.17Z" transform="translate(42.17 -5.64)"/>
    <path class="cls-6" d="M189.26,236.84a26.36,26.36,0,1,1,26.44-26.27A26.37,26.37,0,0,1,189.26,236.84Z" transform="translate(42.17 -5.64)"/>
    <path class="cls-7" d="M10.57,209.8v-.15a8.32,8.32,0,0,1,7.57-8.26l64-5.81,34.93,5.66A8.83,8.83,0,0,1,124.5,210v.16a8.82,8.82,0,0,1-7.61,8.71l-35.87,5-62.88-5.74A8.32,8.32,0,0,1,10.57,209.8Z" transform="translate(42.17 -5.64)"/>
  </g>
</svg>
