<?xml version="1.0"?><svg width="640" height="480" xmlns="http://www.w3.org/2000/svg">
 <title>paw</title>
 <metadata id="metadata1655">image/svg+xml</metadata>
 <g>
  <title>Layer 1</title>
  <g id="layer1">
   <path fill="#000000" id="path1575" d="m377.78125,16c-0.882629,0.011261 -1.788025,0.054535 -2.6875,0.125c-35.823608,6.183502 -55.520813,44.064346 -58.375,77.46875c-4.170715,30.311401 9.187073,69.270493 42.46875,76.0625c4.827515,0.919098 9.843597,0.499054 14.5625,-0.78125c40.076904,-13.4384 58.011749,-60.903046 52.21875,-100.21875c-1.68399,-25.392395 -20.825592,-53.005188 -48.1875,-52.65625zm-151.875,1.625c-22.274933,0.546783 -39.626587,23.138397 -43.15625,44.375c-7.440903,42.074295 11.698334,94.351852 55.53125,107.65625c4.105698,0.892899 8.352493,0.984848 12.5,0.34375c29.626404,-4.9375 42.177002,-38.153854 40.9375,-64.96875c-0.891693,-35.372498 -19.2659,-76.273148 -56,-86.21875c-3.357788,-0.890411 -6.630371,-1.26561 -9.8125,-1.1875zm248.9375,119.5c-38.534302,2.305389 -64.952637,40.753754 -68.71875,76.65625c-5.099609,25.893707 8.704895,60.52655 38.25,62.59375c41.196686,-0.507813 69.301025,-44.528549 70.46875,-82.40625c2.605774,-25.0513 -12.151001,-55.460541 -40,-56.84375zm-337.28125,8.53125c-16.393997,-0.141052 -32.517578,9.678802 -37.875,26.34375c-14.292702,44.578995 14.408897,101.038147 61.625,110.40625c19.705597,3.372101 37.020355,-11.760834 41.90625,-29.96875c10.354599,-38.944794 -10.913361,-84.165253 -46.90625,-101.84375c-5.863922,-3.290909 -12.334961,-4.882309 -18.75,-4.9375zm172.75,79.9375c-32.139374,0.068542 -64.782761,16.378174 -85.59375,40.65625c-22.477402,28.297211 -40.890259,61.226501 -48.09375,96.9375c-8.751404,25.706512 11.083389,55.290436 38.5625,55.46875c33.058899,0.918304 61.470764,-21.782959 94.34375,-23.46875c27.890106,-4.251709 52.863098,10.255188 77.9375,19.75c21.349304,9.131287 50.850311,5.631958 61.75,-17.34375c8.573608,-23.418701 -4.045898,-48.390015 -14.5,-69.1875c-21.322205,-33.756989 -44.1651,-69.235779 -79.125,-90.3125c-14.012909,-8.685699 -29.585266,-12.533463 -45.28125,-12.5z"/>
  </g>
 </g>
</svg>