<svg id="Layer_1" data-name="Layer 1" xmlns="http://www.w3.org/2000/svg" viewBox="0 0 1007.72 662.98">
  <title>shiba-paws</title>
  <g id="layer1">
    <path id="path1575" d="M437.35,51.23c-.87.14-1.76.32-2.64.52-34.49,11.49-48.28,51.9-46.09,85.35.43,30.6,19.48,67.11,53.4,68.83a32.48,32.48,0,0,0,14.29-3c37.6-19.3,48.21-68.91,36.58-106.91C487.42,71.2,464.35,46.77,437.35,51.23ZM287.44,75.62c-21.94,3.89-35.71,28.82-36,50.35-1,42.71,25.72,91.53,71.06,98.1a34.12,34.12,0,0,0,12.41-1.53c28.55-9.33,36-44,30.72-70.38-6.19-34.84-30.49-72.52-68.3-76.84A35.2,35.2,0,0,0,287.44,75.62Zm264.05,80.79c-37.75,8.07-58.1,50-56.44,86.1-1.15,26.37,17.69,58.54,47.21,56.15,40.66-6.68,61.84-54.42,57.31-92.05C598.38,181.45,579.23,153.6,551.49,156.41ZM219.31,215.46c-16.23,2.32-30.7,14.45-33.5,31.73-7.44,46.22,29.41,97.73,77.5,99.91,20,.37,34.84-17.18,36.93-35.92,4.4-40.06-23.42-81.57-61.65-93.65A38.85,38.85,0,0,0,219.31,215.46ZM402.1,268.57c-31.77,4.89-61.59,25.91-78.53,53-18,31.35-31.24,66.67-33,103.06-4.8,26.73,19.25,53,46.45,49.05,32.82-4.05,57.51-30.76,89.75-37.36,26.94-8.39,53.81,2.21,80,7.83,22.48,5.83,51.12-2.06,58.45-26.41,5-24.44-11.26-47.24-24.72-66.23-26.14-30.17-54-61.82-91.78-77.42A84.75,84.75,0,0,0,402.1,268.57Z" transform="translate(-184.86 -50.7)"/>
  </g>
  <g id="layer1-2" data-name="layer1">
    <path id="path1575-2" data-name="path1575" d="M1119.17,320.26c-.83-.29-1.7-.56-2.57-.81-35.76-6.52-67.29,22.27-81.47,52.65-14.35,27-15.21,68.2,13.7,86a32.61,32.61,0,0,0,13.94,4.28c42.25,1.17,75.43-37.22,83.52-76.12C1153.45,361.87,1145,329.35,1119.17,320.26ZM976,269.51c-21.1-7.15-45.16,8.09-55.79,26.81-21.47,36.95-21.49,92.62,15.09,120.2a34.3,34.3,0,0,0,11.61,4.62c29.52,5.56,52.74-21.31,60.8-46.91,11.34-33.52,8.17-78.24-22.9-100.22A34.82,34.82,0,0,0,976,269.51Zm192.6,197.88c-37-11.1-75,15.91-90.9,48.32-13.7,22.56-12.66,59.83,14.37,71.94,38.85,13.7,80.39-18,94.52-53.12C1197.67,511.91,1194.28,478.28,1168.61,467.39ZM849,359.32c-15.34-5.78-33.86-2.11-44.63,11.69-28.76,36.94-21.24,99.83,19.86,124.87,17.34,9.95,38.81,1.7,49.66-13.71,23.13-33,18.73-82.78-9-111.77A39,39,0,0,0,849,359.32ZM983.68,493.83c-30.2-11-66.46-6.92-94.35,8.71C858.48,521.37,829.86,546,810.81,577c-17.07,21.12-8.63,55.73,17.11,65.35,30.72,12.24,65.21.71,96.66,10.44,27.65,5.61,46.1,27.82,66.38,45.37,16.9,15.92,45.8,22.79,63.94,5,16.11-19,12.86-46.83,10.2-70-8.4-39-17.63-80.21-43.2-112A84.74,84.74,0,0,0,983.68,493.83Z" transform="translate(-184.86 -50.7)"/>
  </g>
</svg>
